%TF.GenerationSoftware,KiCad,Pcbnew,7.0.8*%
%TF.CreationDate,2024-02-25T14:43:20-05:00*%
%TF.ProjectId,scart breakout,73636172-7420-4627-9265-616b6f75742e,rev?*%
%TF.SameCoordinates,Original*%
%TF.FileFunction,Soldermask,Bot*%
%TF.FilePolarity,Negative*%
%FSLAX46Y46*%
G04 Gerber Fmt 4.6, Leading zero omitted, Abs format (unit mm)*
G04 Created by KiCad (PCBNEW 7.0.8) date 2024-02-25 14:43:20*
%MOMM*%
%LPD*%
G01*
G04 APERTURE LIST*
%ADD10C,1.998980*%
%ADD11R,1.700000X1.700000*%
%ADD12O,1.700000X1.700000*%
%ADD13R,1.800000X1.800000*%
%ADD14C,1.800000*%
G04 APERTURE END LIST*
D10*
%TO.C,J1*%
X48818800Y-54838600D03*
X43738800Y-52933600D03*
X48818800Y-51028600D03*
X43738800Y-49123600D03*
X48818800Y-47218600D03*
X43738800Y-45313600D03*
X48818800Y-43408600D03*
X43738800Y-41503600D03*
X48818800Y-39598600D03*
X43738800Y-37693600D03*
X48818800Y-35788600D03*
X43738800Y-33883600D03*
X48818800Y-31978600D03*
X43738800Y-30073600D03*
X48818800Y-28168600D03*
X43738800Y-26263600D03*
X48818800Y-24358600D03*
X43738800Y-22453600D03*
X48818800Y-20548600D03*
X43738800Y-18643600D03*
X48818800Y-16738600D03*
%TD*%
D11*
%TO.C,J2*%
X31750000Y-46482000D03*
D12*
X29210000Y-46482000D03*
X31750000Y-43942000D03*
X29210000Y-43942000D03*
X31750000Y-41402000D03*
X29210000Y-41402000D03*
X31750000Y-38862000D03*
X29210000Y-38862000D03*
X31750000Y-36322000D03*
X29210000Y-36322000D03*
X31750000Y-33782000D03*
X29210000Y-33782000D03*
X31750000Y-31242000D03*
X29210000Y-31242000D03*
X31750000Y-28702000D03*
X29210000Y-28702000D03*
%TD*%
D13*
%TO.C,LED1*%
X33883600Y-56286400D03*
D14*
X33883600Y-53746400D03*
%TD*%
M02*
