M48
; DRILL file {KiCad 7.0.8} date 2024 February 25, Sunday 14:43:22
; FORMAT={-:-/ absolute / inch / decimal}
; #@! TF.CreationDate,2024-02-25T14:43:22-05:00
; #@! TF.GenerationSoftware,Kicad,Pcbnew,7.0.8
; #@! TF.FileFunction,Plated,1,2,PTH
FMAT,2
INCH
; #@! TA.AperFunction,Plated,PTH,ViaDrill
T1C0.0157
; #@! TA.AperFunction,Plated,PTH,ComponentDrill
T2C0.0354
; #@! TA.AperFunction,Plated,PTH,ComponentDrill
T3C0.0394
; #@! TA.AperFunction,Plated,PTH,ComponentDrill
T4C0.0472
%
G90
G05
T1
X1.094Y-1.33
T2
X1.334Y-2.116
X1.334Y-2.216
T3
X1.15Y-1.13
X1.15Y-1.23
X1.15Y-1.33
X1.15Y-1.43
X1.15Y-1.53
X1.15Y-1.63
X1.15Y-1.73
X1.15Y-1.83
X1.25Y-1.13
X1.25Y-1.23
X1.25Y-1.33
X1.25Y-1.43
X1.25Y-1.53
X1.25Y-1.63
X1.25Y-1.73
X1.25Y-1.83
T4
X1.722Y-0.734
X1.722Y-0.884
X1.722Y-1.034
X1.722Y-1.184
X1.722Y-1.334
X1.722Y-1.484
X1.722Y-1.634
X1.722Y-1.784
X1.722Y-1.934
X1.722Y-2.084
X1.922Y-0.659
X1.922Y-0.809
X1.922Y-0.959
X1.922Y-1.109
X1.922Y-1.259
X1.922Y-1.409
X1.922Y-1.559
X1.922Y-1.709
X1.922Y-1.859
X1.922Y-2.009
X1.922Y-2.159
T0
M30
