%TF.GenerationSoftware,KiCad,Pcbnew,7.0.8*%
%TF.CreationDate,2024-02-25T14:43:20-05:00*%
%TF.ProjectId,scart breakout,73636172-7420-4627-9265-616b6f75742e,rev?*%
%TF.SameCoordinates,Original*%
%TF.FileFunction,Copper,L2,Bot*%
%TF.FilePolarity,Positive*%
%FSLAX46Y46*%
G04 Gerber Fmt 4.6, Leading zero omitted, Abs format (unit mm)*
G04 Created by KiCad (PCBNEW 7.0.8) date 2024-02-25 14:43:20*
%MOMM*%
%LPD*%
G01*
G04 APERTURE LIST*
%TA.AperFunction,ComponentPad*%
%ADD10C,1.998980*%
%TD*%
%TA.AperFunction,ComponentPad*%
%ADD11R,1.700000X1.700000*%
%TD*%
%TA.AperFunction,ComponentPad*%
%ADD12O,1.700000X1.700000*%
%TD*%
%TA.AperFunction,ComponentPad*%
%ADD13R,1.800000X1.800000*%
%TD*%
%TA.AperFunction,ComponentPad*%
%ADD14C,1.800000*%
%TD*%
%TA.AperFunction,ViaPad*%
%ADD15C,0.800000*%
%TD*%
%TA.AperFunction,Conductor*%
%ADD16C,0.250000*%
%TD*%
G04 APERTURE END LIST*
D10*
%TO.P,J1,1,P1*%
%TO.N,unconnected-(J1-P1-Pad1)*%
X48818800Y-54838600D03*
%TO.P,J1,2,P2*%
%TO.N,RIGHT*%
X43738800Y-52933600D03*
%TO.P,J1,3,P3*%
%TO.N,unconnected-(J1-P3-Pad3)*%
X48818800Y-51028600D03*
%TO.P,J1,4,P4*%
%TO.N,GND*%
X43738800Y-49123600D03*
%TO.P,J1,5,P5*%
X48818800Y-47218600D03*
%TO.P,J1,6,P6*%
%TO.N,LEFT*%
X43738800Y-45313600D03*
%TO.P,J1,7,P7*%
%TO.N,BLUE_IN*%
X48818800Y-43408600D03*
%TO.P,J1,8,P8*%
%TO.N,unconnected-(J1-P8-Pad8)*%
X43738800Y-41503600D03*
%TO.P,J1,9,P9*%
%TO.N,GND*%
X48818800Y-39598600D03*
%TO.P,J1,10,P10*%
%TO.N,unconnected-(J1-P10-Pad10)*%
X43738800Y-37693600D03*
%TO.P,J1,11,P11*%
%TO.N,GREEN_IN*%
X48818800Y-35788600D03*
%TO.P,J1,12,P12*%
%TO.N,unconnected-(J1-P12-Pad12)*%
X43738800Y-33883600D03*
%TO.P,J1,13,P13*%
%TO.N,GND*%
X48818800Y-31978600D03*
%TO.P,J1,14,P14*%
X43738800Y-30073600D03*
%TO.P,J1,15,P15*%
%TO.N,RED_IN*%
X48818800Y-28168600D03*
%TO.P,J1,16,P16*%
%TO.N,SCART_BLANKING*%
X43738800Y-26263600D03*
%TO.P,J1,17,P17*%
%TO.N,unconnected-(J1-P17-Pad17)*%
X48818800Y-24358600D03*
%TO.P,J1,18,P18*%
%TO.N,GND*%
X43738800Y-22453600D03*
%TO.P,J1,19,P19*%
%TO.N,unconnected-(J1-P19-Pad19)*%
X48818800Y-20548600D03*
%TO.P,J1,20,P20*%
%TO.N,COMPOSITE*%
X43738800Y-18643600D03*
%TO.P,J1,21,P21*%
%TO.N,GND*%
X48818800Y-16738600D03*
%TD*%
D11*
%TO.P,J2,1,Pin_1*%
%TO.N,+5V*%
X31750000Y-46482000D03*
D12*
%TO.P,J2,2,Pin_2*%
X29210000Y-46482000D03*
%TO.P,J2,3,Pin_3*%
%TO.N,GND*%
X31750000Y-43942000D03*
%TO.P,J2,4,Pin_4*%
X29210000Y-43942000D03*
%TO.P,J2,5,Pin_5*%
%TO.N,RIGHT*%
X31750000Y-41402000D03*
%TO.P,J2,6,Pin_6*%
%TO.N,RED_IN*%
X29210000Y-41402000D03*
%TO.P,J2,7,Pin_7*%
%TO.N,LEFT*%
X31750000Y-38862000D03*
%TO.P,J2,8,Pin_8*%
%TO.N,GREEN_IN*%
X29210000Y-38862000D03*
%TO.P,J2,9,Pin_9*%
%TO.N,GND*%
X31750000Y-36322000D03*
%TO.P,J2,10,Pin_10*%
%TO.N,BLUE_IN*%
X29210000Y-36322000D03*
%TO.P,J2,11,Pin_11*%
%TO.N,RGB_IN_USE*%
X31750000Y-33782000D03*
%TO.P,J2,12,Pin_12*%
%TO.N,GND*%
X29210000Y-33782000D03*
%TO.P,J2,13,Pin_13*%
X31750000Y-31242000D03*
%TO.P,J2,14,Pin_14*%
X29210000Y-31242000D03*
%TO.P,J2,15,Pin_15*%
%TO.N,COMPOSITE*%
X31750000Y-28702000D03*
%TO.P,J2,16,Pin_16*%
%TO.N,SCART_BLANKING*%
X29210000Y-28702000D03*
%TD*%
D13*
%TO.P,LED1,1,K*%
%TO.N,Net-(D1-K)*%
X33883600Y-56286400D03*
D14*
%TO.P,LED1,2,A*%
%TO.N,Net-(D1-A)*%
X33883600Y-53746400D03*
%TD*%
D15*
%TO.N,GND*%
X27787600Y-33782000D03*
%TD*%
D16*
%TO.N,BLUE_IN*%
X29210000Y-36322000D02*
X30480000Y-37592000D01*
X46482000Y-40005000D02*
X46482000Y-41071800D01*
X41910000Y-39624000D02*
X46101000Y-39624000D01*
X46482000Y-41071800D02*
X48818800Y-43408600D01*
X39878000Y-37592000D02*
X41910000Y-39624000D01*
X30480000Y-37592000D02*
X39878000Y-37592000D01*
X46101000Y-39624000D02*
X46482000Y-40005000D01*
%TO.N,GREEN_IN*%
X29210000Y-38862000D02*
X28035000Y-37687000D01*
X41376600Y-35788600D02*
X48818800Y-35788600D01*
X28448000Y-35052000D02*
X40640000Y-35052000D01*
X28035000Y-35465000D02*
X28448000Y-35052000D01*
X28035000Y-37687000D02*
X28035000Y-35465000D01*
X40640000Y-35052000D02*
X41376600Y-35788600D01*
%TO.N,RED_IN*%
X41935400Y-28168600D02*
X48818800Y-28168600D01*
X27559000Y-41402000D02*
X26924000Y-40767000D01*
X27559000Y-29972000D02*
X40132000Y-29972000D01*
X26924000Y-40767000D02*
X26924000Y-30607000D01*
X29210000Y-41402000D02*
X27559000Y-41402000D01*
X26924000Y-30607000D02*
X27559000Y-29972000D01*
X40132000Y-29972000D02*
X41935400Y-28168600D01*
%TD*%
%TA.AperFunction,Conductor*%
%TO.N,GND*%
G36*
X31290507Y-43732156D02*
G01*
X31250000Y-43870111D01*
X31250000Y-44013889D01*
X31290507Y-44151844D01*
X31316314Y-44192000D01*
X29643686Y-44192000D01*
X29669493Y-44151844D01*
X29710000Y-44013889D01*
X29710000Y-43870111D01*
X29669493Y-43732156D01*
X29643686Y-43692000D01*
X31316314Y-43692000D01*
X31290507Y-43732156D01*
G37*
%TD.AperFunction*%
%TA.AperFunction,Conductor*%
G36*
X40396587Y-35697185D02*
G01*
X40417229Y-35713819D01*
X40875794Y-36172384D01*
X40885619Y-36184648D01*
X40885840Y-36184466D01*
X40890810Y-36190473D01*
X40890813Y-36190476D01*
X40890814Y-36190477D01*
X40941251Y-36237841D01*
X40962130Y-36258720D01*
X40967604Y-36262966D01*
X40972042Y-36266756D01*
X41006018Y-36298662D01*
X41006022Y-36298664D01*
X41023573Y-36308313D01*
X41039831Y-36318992D01*
X41055664Y-36331274D01*
X41077615Y-36340772D01*
X41098437Y-36349783D01*
X41103681Y-36352352D01*
X41144508Y-36374797D01*
X41163912Y-36379779D01*
X41182310Y-36386078D01*
X41200705Y-36394038D01*
X41246729Y-36401326D01*
X41252432Y-36402507D01*
X41297581Y-36414100D01*
X41317616Y-36414100D01*
X41337013Y-36415626D01*
X41356796Y-36418760D01*
X41403184Y-36414375D01*
X41409022Y-36414100D01*
X42595177Y-36414100D01*
X42662216Y-36433785D01*
X42707971Y-36486589D01*
X42717915Y-36555747D01*
X42688890Y-36619303D01*
X42686406Y-36622083D01*
X42551040Y-36769127D01*
X42415076Y-36977237D01*
X42315221Y-37204884D01*
X42254196Y-37445867D01*
X42233669Y-37693594D01*
X42233669Y-37693605D01*
X42254196Y-37941332D01*
X42315221Y-38182315D01*
X42415076Y-38409962D01*
X42551037Y-38618068D01*
X42709789Y-38790517D01*
X42740711Y-38853171D01*
X42732851Y-38922597D01*
X42688704Y-38976753D01*
X42622287Y-38998444D01*
X42618559Y-38998500D01*
X42220452Y-38998500D01*
X42153413Y-38978815D01*
X42132771Y-38962181D01*
X41265074Y-38094484D01*
X40378803Y-37208212D01*
X40368980Y-37195950D01*
X40368759Y-37196134D01*
X40363786Y-37190123D01*
X40339118Y-37166958D01*
X40313364Y-37142773D01*
X40302919Y-37132328D01*
X40292475Y-37121883D01*
X40286986Y-37117625D01*
X40282561Y-37113847D01*
X40248582Y-37081938D01*
X40248580Y-37081936D01*
X40248577Y-37081935D01*
X40231029Y-37072288D01*
X40214763Y-37061604D01*
X40198933Y-37049325D01*
X40156168Y-37030818D01*
X40150922Y-37028248D01*
X40110093Y-37005803D01*
X40110092Y-37005802D01*
X40090693Y-37000822D01*
X40072281Y-36994518D01*
X40053898Y-36986562D01*
X40053892Y-36986560D01*
X40007874Y-36979272D01*
X40002152Y-36978087D01*
X39957021Y-36966500D01*
X39957019Y-36966500D01*
X39936984Y-36966500D01*
X39917586Y-36964973D01*
X39910162Y-36963797D01*
X39897805Y-36961840D01*
X39897804Y-36961840D01*
X39851416Y-36966225D01*
X39845578Y-36966500D01*
X33133666Y-36966500D01*
X33066627Y-36946815D01*
X33020872Y-36894011D01*
X33010928Y-36824853D01*
X33021284Y-36790096D01*
X33023428Y-36785497D01*
X33023432Y-36785486D01*
X33080636Y-36572000D01*
X32183686Y-36572000D01*
X32209493Y-36531844D01*
X32250000Y-36393889D01*
X32250000Y-36250111D01*
X32209493Y-36112156D01*
X32183686Y-36072000D01*
X33080636Y-36072000D01*
X33080635Y-36071999D01*
X33023432Y-35858513D01*
X33023428Y-35858502D01*
X33021284Y-35853904D01*
X33010792Y-35784827D01*
X33039312Y-35721043D01*
X33097789Y-35682804D01*
X33133666Y-35677500D01*
X40329548Y-35677500D01*
X40396587Y-35697185D01*
G37*
%TD.AperFunction*%
%TA.AperFunction,Conductor*%
G36*
X27849972Y-30668130D02*
G01*
X27905906Y-30710001D01*
X27930323Y-30775465D01*
X27926414Y-30816405D01*
X27879363Y-30991999D01*
X27879364Y-30992000D01*
X28776314Y-30992000D01*
X28750507Y-31032156D01*
X28710000Y-31170111D01*
X28710000Y-31313889D01*
X28750507Y-31451844D01*
X28776314Y-31492000D01*
X27879364Y-31492000D01*
X27936567Y-31705486D01*
X27936570Y-31705492D01*
X28036399Y-31919578D01*
X28171894Y-32113082D01*
X28338917Y-32280105D01*
X28525031Y-32410425D01*
X28568656Y-32465003D01*
X28575848Y-32534501D01*
X28544326Y-32596856D01*
X28525031Y-32613575D01*
X28338922Y-32743890D01*
X28338920Y-32743891D01*
X28171891Y-32910920D01*
X28171886Y-32910926D01*
X28036400Y-33104420D01*
X28036399Y-33104422D01*
X27936570Y-33318507D01*
X27936567Y-33318513D01*
X27879364Y-33531999D01*
X27879364Y-33532000D01*
X28776314Y-33532000D01*
X28750507Y-33572156D01*
X28710000Y-33710111D01*
X28710000Y-33853889D01*
X28750507Y-33991844D01*
X28776314Y-34032000D01*
X27879364Y-34032000D01*
X27936567Y-34245486D01*
X27936570Y-34245492D01*
X28035677Y-34458028D01*
X28046169Y-34527106D01*
X28018836Y-34589476D01*
X27986709Y-34628309D01*
X27982777Y-34632630D01*
X27761181Y-34854227D01*
X27699858Y-34887712D01*
X27630167Y-34882728D01*
X27574233Y-34840857D01*
X27549816Y-34775392D01*
X27549500Y-34766546D01*
X27549500Y-30917452D01*
X27569185Y-30850413D01*
X27585813Y-30829776D01*
X27718961Y-30696628D01*
X27780280Y-30663146D01*
X27849972Y-30668130D01*
G37*
%TD.AperFunction*%
%TA.AperFunction,Conductor*%
G36*
X29460000Y-33346498D02*
G01*
X29352315Y-33297320D01*
X29245763Y-33282000D01*
X29174237Y-33282000D01*
X29067685Y-33297320D01*
X28960000Y-33346498D01*
X28960000Y-31677501D01*
X29067685Y-31726680D01*
X29174237Y-31742000D01*
X29245763Y-31742000D01*
X29352315Y-31726680D01*
X29460000Y-31677501D01*
X29460000Y-33346498D01*
G37*
%TD.AperFunction*%
%TA.AperFunction,Conductor*%
G36*
X31290507Y-31032156D02*
G01*
X31250000Y-31170111D01*
X31250000Y-31313889D01*
X31290507Y-31451844D01*
X31316314Y-31492000D01*
X29643686Y-31492000D01*
X29669493Y-31451844D01*
X29710000Y-31313889D01*
X29710000Y-31170111D01*
X29669493Y-31032156D01*
X29643686Y-30992000D01*
X31316314Y-30992000D01*
X31290507Y-31032156D01*
G37*
%TD.AperFunction*%
%TA.AperFunction,Conductor*%
G36*
X50808139Y-12228585D02*
G01*
X50853894Y-12281389D01*
X50865100Y-12332900D01*
X50865100Y-59739500D01*
X50845415Y-59806539D01*
X50792611Y-59852294D01*
X50741100Y-59863500D01*
X20063000Y-59863500D01*
X19995961Y-59843815D01*
X19950206Y-59791011D01*
X19939000Y-59739500D01*
X19939000Y-55879999D01*
X21394592Y-55879999D01*
X21402303Y-55992735D01*
X21402448Y-55996968D01*
X21402448Y-56023482D01*
X21406057Y-56049738D01*
X21406489Y-56053948D01*
X21414201Y-56166682D01*
X21437191Y-56277324D01*
X21437910Y-56281494D01*
X21441520Y-56307756D01*
X21448676Y-56333301D01*
X21449678Y-56337411D01*
X21468097Y-56426045D01*
X21472666Y-56448032D01*
X21472667Y-56448036D01*
X21472670Y-56448045D01*
X21510505Y-56554502D01*
X21511787Y-56558538D01*
X21518940Y-56584070D01*
X21529504Y-56608392D01*
X21531057Y-56612330D01*
X21568894Y-56718793D01*
X21620883Y-56819128D01*
X21622700Y-56822951D01*
X21633262Y-56847264D01*
X21647032Y-56869908D01*
X21649107Y-56873599D01*
X21701096Y-56973931D01*
X21701097Y-56973933D01*
X21766254Y-57066242D01*
X21768575Y-57069780D01*
X21782357Y-57092441D01*
X21799089Y-57113008D01*
X21801648Y-57116383D01*
X21866812Y-57208699D01*
X21943945Y-57291289D01*
X21946728Y-57294481D01*
X21963451Y-57315036D01*
X21982840Y-57333144D01*
X21985815Y-57336120D01*
X22062947Y-57418708D01*
X22062951Y-57418711D01*
X22062953Y-57418713D01*
X22150601Y-57490020D01*
X22153791Y-57492801D01*
X22173167Y-57510897D01*
X22173170Y-57510899D01*
X22194827Y-57526187D01*
X22198202Y-57528746D01*
X22285846Y-57600050D01*
X22285849Y-57600051D01*
X22285853Y-57600055D01*
X22330496Y-57627203D01*
X22382407Y-57658772D01*
X22385933Y-57661083D01*
X22407598Y-57676376D01*
X22407602Y-57676379D01*
X22415539Y-57680491D01*
X22431142Y-57688576D01*
X22434821Y-57690645D01*
X22531375Y-57749361D01*
X22635042Y-57794390D01*
X22638815Y-57796183D01*
X22662380Y-57808394D01*
X22687394Y-57817284D01*
X22691258Y-57818807D01*
X22769229Y-57852675D01*
X22794934Y-57863841D01*
X22794938Y-57863843D01*
X22794942Y-57863844D01*
X22903774Y-57894337D01*
X22907775Y-57895607D01*
X22932765Y-57904489D01*
X22932767Y-57904489D01*
X22932769Y-57904490D01*
X22939476Y-57905883D01*
X22958733Y-57909885D01*
X22962822Y-57910881D01*
X23071642Y-57941371D01*
X23183597Y-57956759D01*
X23187738Y-57957472D01*
X23213716Y-57962871D01*
X23240202Y-57964682D01*
X23244355Y-57965110D01*
X23334786Y-57977540D01*
X23356321Y-57980500D01*
X23469314Y-57980500D01*
X23473547Y-57980645D01*
X23500000Y-57982454D01*
X23526453Y-57980645D01*
X23530686Y-57980500D01*
X23643678Y-57980500D01*
X23755653Y-57965109D01*
X23759791Y-57964683D01*
X23786284Y-57962871D01*
X23812277Y-57957469D01*
X23816372Y-57956763D01*
X23928358Y-57941371D01*
X24037177Y-57910881D01*
X24041266Y-57909885D01*
X24067235Y-57904489D01*
X24092235Y-57895603D01*
X24096230Y-57894335D01*
X24205058Y-57863844D01*
X24308725Y-57818814D01*
X24312602Y-57817285D01*
X24337620Y-57808394D01*
X24361175Y-57796188D01*
X24364952Y-57794392D01*
X24468625Y-57749361D01*
X24565223Y-57690617D01*
X24568819Y-57688595D01*
X24592401Y-57676377D01*
X24614087Y-57661068D01*
X24617554Y-57658794D01*
X24714147Y-57600055D01*
X24801835Y-57528715D01*
X24805130Y-57526216D01*
X24826833Y-57510897D01*
X24846254Y-57492759D01*
X24849362Y-57490049D01*
X24937053Y-57418708D01*
X25014212Y-57336090D01*
X25017159Y-57333144D01*
X25036549Y-57315036D01*
X25053288Y-57294460D01*
X25056054Y-57291289D01*
X25133189Y-57208698D01*
X25198372Y-57116352D01*
X25200878Y-57113047D01*
X25217641Y-57092444D01*
X25231424Y-57069779D01*
X25233730Y-57066262D01*
X25298901Y-56973936D01*
X25350899Y-56873584D01*
X25352944Y-56869945D01*
X25366737Y-56847265D01*
X25377302Y-56822940D01*
X25379112Y-56819136D01*
X25431101Y-56718802D01*
X25431104Y-56718797D01*
X25468954Y-56612295D01*
X25470495Y-56608392D01*
X25481060Y-56584069D01*
X25488223Y-56558501D01*
X25489487Y-56554521D01*
X25527334Y-56448032D01*
X25541719Y-56378806D01*
X25550326Y-56337390D01*
X25551322Y-56333300D01*
X25558479Y-56307757D01*
X25562092Y-56281466D01*
X25562807Y-56277324D01*
X25585798Y-56166686D01*
X25593510Y-56053932D01*
X25593938Y-56049770D01*
X25597552Y-56023477D01*
X25598176Y-55986867D01*
X25598308Y-55983796D01*
X25605408Y-55880000D01*
X25598308Y-55776207D01*
X25598176Y-55773129D01*
X25597552Y-55736523D01*
X25597552Y-55736518D01*
X25593942Y-55710260D01*
X25593938Y-55710235D01*
X25593509Y-55706050D01*
X25585798Y-55593314D01*
X25562805Y-55482666D01*
X25562095Y-55478555D01*
X25558744Y-55454174D01*
X25558479Y-55452242D01*
X25556526Y-55445272D01*
X25551317Y-55426681D01*
X25550329Y-55422628D01*
X25527334Y-55311968D01*
X25489490Y-55205485D01*
X25488217Y-55201476D01*
X25481060Y-55175931D01*
X25481059Y-55175928D01*
X25470494Y-55151604D01*
X25468940Y-55147664D01*
X25467663Y-55144071D01*
X25431104Y-55041203D01*
X25379116Y-54940871D01*
X25377298Y-54937048D01*
X25374808Y-54931316D01*
X25366737Y-54912735D01*
X25352956Y-54890073D01*
X25350893Y-54886405D01*
X25298901Y-54786064D01*
X25246983Y-54712512D01*
X25233730Y-54693736D01*
X25231420Y-54690216D01*
X25217641Y-54667556D01*
X25200896Y-54646973D01*
X25198356Y-54643623D01*
X25133187Y-54551299D01*
X25092650Y-54507895D01*
X25056050Y-54468707D01*
X25053277Y-54465526D01*
X25036548Y-54444963D01*
X25024370Y-54433590D01*
X25017174Y-54426869D01*
X25014189Y-54423883D01*
X24937060Y-54341299D01*
X24937056Y-54341295D01*
X24937053Y-54341292D01*
X24937046Y-54341286D01*
X24849398Y-54269979D01*
X24846206Y-54267196D01*
X24826839Y-54249108D01*
X24826837Y-54249107D01*
X24826838Y-54249107D01*
X24826833Y-54249103D01*
X24813388Y-54239612D01*
X24805173Y-54233813D01*
X24801801Y-54231256D01*
X24714153Y-54159949D01*
X24714138Y-54159939D01*
X24617600Y-54101232D01*
X24614061Y-54098911D01*
X24592402Y-54083623D01*
X24568866Y-54071427D01*
X24565177Y-54069353D01*
X24468623Y-54010637D01*
X24364979Y-53965619D01*
X24361157Y-53963801D01*
X24347268Y-53956605D01*
X24337620Y-53951606D01*
X24337616Y-53951604D01*
X24337613Y-53951603D01*
X24312642Y-53942728D01*
X24308703Y-53941175D01*
X24246436Y-53914129D01*
X24205058Y-53896156D01*
X24205054Y-53896155D01*
X24205050Y-53896153D01*
X24096245Y-53865667D01*
X24092212Y-53864387D01*
X24067239Y-53855512D01*
X24067236Y-53855511D01*
X24067235Y-53855511D01*
X24062103Y-53854444D01*
X24041276Y-53850116D01*
X24037164Y-53849114D01*
X23928362Y-53818629D01*
X23816408Y-53803241D01*
X23812236Y-53802521D01*
X23786285Y-53797129D01*
X23759830Y-53795318D01*
X23755620Y-53794885D01*
X23643680Y-53779500D01*
X23643678Y-53779500D01*
X23530672Y-53779500D01*
X23526440Y-53779355D01*
X23500000Y-53777547D01*
X23473560Y-53779355D01*
X23469328Y-53779500D01*
X23356320Y-53779500D01*
X23244380Y-53794885D01*
X23240170Y-53795318D01*
X23213716Y-53797128D01*
X23187762Y-53802521D01*
X23183593Y-53803240D01*
X23083789Y-53816959D01*
X23071642Y-53818629D01*
X23071640Y-53818629D01*
X23071636Y-53818630D01*
X22962837Y-53849113D01*
X22958727Y-53850115D01*
X22932761Y-53855511D01*
X22907783Y-53864388D01*
X22903749Y-53865669D01*
X22810095Y-53891910D01*
X22794942Y-53896156D01*
X22794940Y-53896156D01*
X22794939Y-53896157D01*
X22691304Y-53941172D01*
X22687367Y-53942725D01*
X22662377Y-53951607D01*
X22638840Y-53963802D01*
X22635020Y-53965619D01*
X22531368Y-54010642D01*
X22434828Y-54069350D01*
X22431140Y-54071424D01*
X22407601Y-54083621D01*
X22385943Y-54098907D01*
X22382406Y-54101228D01*
X22285855Y-54159943D01*
X22285849Y-54159947D01*
X22198200Y-54231253D01*
X22194831Y-54233808D01*
X22173171Y-54249099D01*
X22153789Y-54267199D01*
X22150601Y-54269979D01*
X22062955Y-54341284D01*
X22062939Y-54341299D01*
X21985815Y-54423878D01*
X21982823Y-54426871D01*
X21963453Y-54444960D01*
X21946715Y-54465533D01*
X21943935Y-54468721D01*
X21866811Y-54551301D01*
X21801646Y-54643618D01*
X21799089Y-54646991D01*
X21782363Y-54667549D01*
X21768581Y-54690211D01*
X21766261Y-54693747D01*
X21701099Y-54786061D01*
X21649114Y-54886387D01*
X21647042Y-54890073D01*
X21633266Y-54912730D01*
X21633261Y-54912738D01*
X21622700Y-54937049D01*
X21620883Y-54940868D01*
X21568896Y-55041199D01*
X21568895Y-55041202D01*
X21531053Y-55147679D01*
X21529501Y-55151616D01*
X21518938Y-55175935D01*
X21511788Y-55201452D01*
X21510508Y-55205485D01*
X21472669Y-55311957D01*
X21472666Y-55311968D01*
X21449677Y-55422592D01*
X21448676Y-55426701D01*
X21441523Y-55452235D01*
X21441519Y-55452253D01*
X21437910Y-55478506D01*
X21437191Y-55482676D01*
X21414201Y-55593317D01*
X21406489Y-55706050D01*
X21406057Y-55710260D01*
X21402448Y-55736524D01*
X21402448Y-55763030D01*
X21402303Y-55767263D01*
X21394592Y-55879999D01*
X19939000Y-55879999D01*
X19939000Y-53746406D01*
X32478300Y-53746406D01*
X32497464Y-53977697D01*
X32497466Y-53977708D01*
X32554442Y-54202700D01*
X32647675Y-54415248D01*
X32774616Y-54609547D01*
X32774619Y-54609551D01*
X32774621Y-54609553D01*
X32869403Y-54712514D01*
X32900324Y-54775167D01*
X32892464Y-54844593D01*
X32848316Y-54898748D01*
X32821506Y-54912677D01*
X32741269Y-54942603D01*
X32741264Y-54942606D01*
X32626055Y-55028852D01*
X32626052Y-55028855D01*
X32539806Y-55144064D01*
X32539802Y-55144071D01*
X32489508Y-55278917D01*
X32485784Y-55313562D01*
X32483101Y-55338523D01*
X32483100Y-55338535D01*
X32483100Y-57234270D01*
X32483101Y-57234276D01*
X32489508Y-57293883D01*
X32539802Y-57428728D01*
X32539806Y-57428735D01*
X32626052Y-57543944D01*
X32626055Y-57543947D01*
X32741264Y-57630193D01*
X32741271Y-57630197D01*
X32876117Y-57680491D01*
X32876116Y-57680491D01*
X32883044Y-57681235D01*
X32935727Y-57686900D01*
X34831472Y-57686899D01*
X34891083Y-57680491D01*
X35025931Y-57630196D01*
X35141146Y-57543946D01*
X35227396Y-57428731D01*
X35277691Y-57293883D01*
X35284100Y-57234273D01*
X35284099Y-55338528D01*
X35277691Y-55278917D01*
X35248807Y-55201476D01*
X35227397Y-55144071D01*
X35227393Y-55144064D01*
X35141147Y-55028855D01*
X35141144Y-55028852D01*
X35025935Y-54942606D01*
X35025928Y-54942602D01*
X34945694Y-54912677D01*
X34889760Y-54870806D01*
X34877750Y-54838605D01*
X47313669Y-54838605D01*
X47334196Y-55086332D01*
X47395221Y-55327315D01*
X47495076Y-55554962D01*
X47631040Y-55763072D01*
X47799399Y-55945957D01*
X47799409Y-55945966D01*
X47938144Y-56053948D01*
X47995571Y-56098645D01*
X48214196Y-56216959D01*
X48214199Y-56216960D01*
X48449308Y-56297673D01*
X48449310Y-56297673D01*
X48449312Y-56297674D01*
X48694507Y-56338590D01*
X48694508Y-56338590D01*
X48943092Y-56338590D01*
X48943093Y-56338590D01*
X49188288Y-56297674D01*
X49423404Y-56216959D01*
X49642029Y-56098645D01*
X49838197Y-55945961D01*
X50006560Y-55763071D01*
X50142523Y-55554963D01*
X50242379Y-55327315D01*
X50303403Y-55086336D01*
X50317788Y-54912735D01*
X50323931Y-54838605D01*
X50323931Y-54838594D01*
X50307774Y-54643618D01*
X50303403Y-54590864D01*
X50242379Y-54349885D01*
X50142523Y-54122237D01*
X50089423Y-54040961D01*
X50006559Y-53914127D01*
X49838200Y-53731242D01*
X49838190Y-53731233D01*
X49642033Y-53578558D01*
X49642028Y-53578554D01*
X49423405Y-53460241D01*
X49423400Y-53460239D01*
X49188291Y-53379526D01*
X49004391Y-53348839D01*
X48943093Y-53338610D01*
X48694507Y-53338610D01*
X48645468Y-53346793D01*
X48449308Y-53379526D01*
X48214199Y-53460239D01*
X48214194Y-53460241D01*
X47995571Y-53578554D01*
X47995566Y-53578558D01*
X47799409Y-53731233D01*
X47799399Y-53731242D01*
X47631040Y-53914127D01*
X47495076Y-54122237D01*
X47395221Y-54349884D01*
X47334196Y-54590867D01*
X47313669Y-54838594D01*
X47313669Y-54838605D01*
X34877750Y-54838605D01*
X34865343Y-54805341D01*
X34880195Y-54737068D01*
X34897790Y-54712521D01*
X34992579Y-54609553D01*
X35119524Y-54415249D01*
X35212757Y-54202700D01*
X35269734Y-53977705D01*
X35269735Y-53977697D01*
X35288900Y-53746406D01*
X35288900Y-53746393D01*
X35269735Y-53515102D01*
X35269733Y-53515091D01*
X35212757Y-53290099D01*
X35119524Y-53077551D01*
X35025480Y-52933605D01*
X42233669Y-52933605D01*
X42254196Y-53181332D01*
X42315221Y-53422315D01*
X42415076Y-53649962D01*
X42551040Y-53858072D01*
X42719399Y-54040957D01*
X42719409Y-54040966D01*
X42915566Y-54193641D01*
X42915571Y-54193645D01*
X43000510Y-54239612D01*
X43134196Y-54311959D01*
X43134199Y-54311960D01*
X43369308Y-54392673D01*
X43369310Y-54392673D01*
X43369312Y-54392674D01*
X43614507Y-54433590D01*
X43614508Y-54433590D01*
X43863092Y-54433590D01*
X43863093Y-54433590D01*
X44108288Y-54392674D01*
X44343404Y-54311959D01*
X44562029Y-54193645D01*
X44758197Y-54040961D01*
X44926560Y-53858071D01*
X45062523Y-53649963D01*
X45162379Y-53422315D01*
X45223403Y-53181336D01*
X45243931Y-52933600D01*
X45223403Y-52685864D01*
X45162379Y-52444885D01*
X45062523Y-52217237D01*
X45009423Y-52135961D01*
X44926559Y-52009127D01*
X44758200Y-51826242D01*
X44758190Y-51826233D01*
X44562033Y-51673558D01*
X44562028Y-51673554D01*
X44343405Y-51555241D01*
X44343400Y-51555239D01*
X44108291Y-51474526D01*
X43924391Y-51443839D01*
X43863093Y-51433610D01*
X43614507Y-51433610D01*
X43565468Y-51441793D01*
X43369308Y-51474526D01*
X43134199Y-51555239D01*
X43134194Y-51555241D01*
X42915571Y-51673554D01*
X42915566Y-51673558D01*
X42719409Y-51826233D01*
X42719399Y-51826242D01*
X42551040Y-52009127D01*
X42415076Y-52217237D01*
X42315221Y-52444884D01*
X42254196Y-52685867D01*
X42233669Y-52933594D01*
X42233669Y-52933605D01*
X35025480Y-52933605D01*
X34992583Y-52883252D01*
X34992580Y-52883249D01*
X34992579Y-52883247D01*
X34835384Y-52712487D01*
X34835379Y-52712483D01*
X34835377Y-52712481D01*
X34652234Y-52569935D01*
X34652228Y-52569931D01*
X34448104Y-52459464D01*
X34448095Y-52459461D01*
X34228584Y-52384102D01*
X34056882Y-52355450D01*
X33999649Y-52345900D01*
X33767551Y-52345900D01*
X33721764Y-52353540D01*
X33538615Y-52384102D01*
X33319104Y-52459461D01*
X33319095Y-52459464D01*
X33114971Y-52569931D01*
X33114965Y-52569935D01*
X32931822Y-52712481D01*
X32931819Y-52712484D01*
X32774616Y-52883252D01*
X32647675Y-53077551D01*
X32554442Y-53290099D01*
X32497466Y-53515091D01*
X32497464Y-53515102D01*
X32478300Y-53746393D01*
X32478300Y-53746406D01*
X19939000Y-53746406D01*
X19939000Y-51028605D01*
X47313669Y-51028605D01*
X47334196Y-51276332D01*
X47395221Y-51517315D01*
X47495076Y-51744962D01*
X47631040Y-51953072D01*
X47682643Y-52009127D01*
X47799403Y-52135961D01*
X47995571Y-52288645D01*
X48214196Y-52406959D01*
X48214199Y-52406960D01*
X48449308Y-52487673D01*
X48449310Y-52487673D01*
X48449312Y-52487674D01*
X48694507Y-52528590D01*
X48694508Y-52528590D01*
X48943092Y-52528590D01*
X48943093Y-52528590D01*
X49188288Y-52487674D01*
X49423404Y-52406959D01*
X49642029Y-52288645D01*
X49838197Y-52135961D01*
X50006560Y-51953071D01*
X50142523Y-51744963D01*
X50242379Y-51517315D01*
X50303403Y-51276336D01*
X50323931Y-51028600D01*
X50303403Y-50780864D01*
X50242379Y-50539885D01*
X50142523Y-50312237D01*
X50006560Y-50104129D01*
X50006559Y-50104127D01*
X49838200Y-49921242D01*
X49838190Y-49921233D01*
X49642033Y-49768558D01*
X49642028Y-49768554D01*
X49423405Y-49650241D01*
X49423400Y-49650239D01*
X49188291Y-49569526D01*
X49004391Y-49538839D01*
X48943093Y-49528610D01*
X48694507Y-49528610D01*
X48645468Y-49536793D01*
X48449308Y-49569526D01*
X48214199Y-49650239D01*
X48214194Y-49650241D01*
X47995571Y-49768554D01*
X47995566Y-49768558D01*
X47799409Y-49921233D01*
X47799399Y-49921242D01*
X47631040Y-50104127D01*
X47495076Y-50312237D01*
X47395221Y-50539884D01*
X47334196Y-50780867D01*
X47313669Y-51028594D01*
X47313669Y-51028605D01*
X19939000Y-51028605D01*
X19939000Y-49123605D01*
X42234171Y-49123605D01*
X42254690Y-49371246D01*
X42254692Y-49371257D01*
X42315695Y-49612150D01*
X42415516Y-49839720D01*
X42515732Y-49993112D01*
X43176454Y-49332390D01*
X43215190Y-49425906D01*
X43311274Y-49551126D01*
X43436494Y-49647210D01*
X43530008Y-49685944D01*
X42869107Y-50346845D01*
X42869107Y-50346846D01*
X42915844Y-50383223D01*
X43134395Y-50501498D01*
X43134404Y-50501501D01*
X43369432Y-50582187D01*
X43614549Y-50623090D01*
X43863051Y-50623090D01*
X44108167Y-50582187D01*
X44343195Y-50501501D01*
X44343203Y-50501498D01*
X44561757Y-50383222D01*
X44608491Y-50346845D01*
X44608492Y-50346844D01*
X43947592Y-49685944D01*
X44041106Y-49647210D01*
X44166326Y-49551126D01*
X44262410Y-49425907D01*
X44301144Y-49332391D01*
X44961866Y-49993113D01*
X45062081Y-49839725D01*
X45161904Y-49612150D01*
X45222907Y-49371257D01*
X45222909Y-49371246D01*
X45243429Y-49123605D01*
X45243429Y-49123594D01*
X45222909Y-48875953D01*
X45222907Y-48875942D01*
X45161904Y-48635049D01*
X45062083Y-48407479D01*
X44961866Y-48254085D01*
X44301144Y-48914807D01*
X44262410Y-48821294D01*
X44166326Y-48696074D01*
X44041106Y-48599990D01*
X43947591Y-48561254D01*
X44608491Y-47900353D01*
X44561752Y-47863974D01*
X44343204Y-47745701D01*
X44343195Y-47745698D01*
X44108167Y-47665012D01*
X43863051Y-47624110D01*
X43614549Y-47624110D01*
X43369432Y-47665012D01*
X43134404Y-47745698D01*
X43134395Y-47745701D01*
X42915844Y-47863976D01*
X42869107Y-47900352D01*
X42869107Y-47900353D01*
X43530008Y-48561254D01*
X43436494Y-48599990D01*
X43311274Y-48696074D01*
X43215190Y-48821293D01*
X43176454Y-48914808D01*
X42515731Y-48254085D01*
X42415517Y-48407476D01*
X42315695Y-48635049D01*
X42254692Y-48875942D01*
X42254690Y-48875953D01*
X42234171Y-49123594D01*
X42234171Y-49123605D01*
X19939000Y-49123605D01*
X19939000Y-30587196D01*
X26293840Y-30587196D01*
X26295116Y-30600698D01*
X26298225Y-30633583D01*
X26298500Y-30639421D01*
X26298500Y-40684255D01*
X26296775Y-40699872D01*
X26297061Y-40699899D01*
X26296326Y-40707665D01*
X26298500Y-40776814D01*
X26298500Y-40806343D01*
X26298501Y-40806360D01*
X26299368Y-40813231D01*
X26299826Y-40819050D01*
X26301290Y-40865624D01*
X26301291Y-40865627D01*
X26306880Y-40884867D01*
X26310824Y-40903911D01*
X26313336Y-40923792D01*
X26330490Y-40967119D01*
X26332382Y-40972647D01*
X26345381Y-41017388D01*
X26355580Y-41034634D01*
X26364138Y-41052103D01*
X26371514Y-41070732D01*
X26398898Y-41108423D01*
X26402106Y-41113307D01*
X26425827Y-41153416D01*
X26425833Y-41153424D01*
X26439990Y-41167580D01*
X26452628Y-41182376D01*
X26464405Y-41198586D01*
X26464406Y-41198587D01*
X26500309Y-41228288D01*
X26504620Y-41232210D01*
X26805498Y-41533088D01*
X27058194Y-41785784D01*
X27068019Y-41798048D01*
X27068240Y-41797866D01*
X27073210Y-41803873D01*
X27073213Y-41803876D01*
X27073214Y-41803877D01*
X27123651Y-41851241D01*
X27144530Y-41872120D01*
X27150004Y-41876366D01*
X27154442Y-41880156D01*
X27188418Y-41912062D01*
X27188422Y-41912064D01*
X27205973Y-41921713D01*
X27222231Y-41932392D01*
X27238064Y-41944674D01*
X27260015Y-41954172D01*
X27280837Y-41963183D01*
X27286081Y-41965752D01*
X27326908Y-41988197D01*
X27346312Y-41993179D01*
X27364710Y-41999478D01*
X27383105Y-42007438D01*
X27429129Y-42014726D01*
X27434832Y-42015907D01*
X27479981Y-42027500D01*
X27500016Y-42027500D01*
X27519413Y-42029026D01*
X27539196Y-42032160D01*
X27585584Y-42027775D01*
X27591422Y-42027500D01*
X27934773Y-42027500D01*
X28001812Y-42047185D01*
X28036348Y-42080377D01*
X28171501Y-42273396D01*
X28171506Y-42273402D01*
X28338597Y-42440493D01*
X28338603Y-42440498D01*
X28524594Y-42570730D01*
X28568219Y-42625307D01*
X28575413Y-42694805D01*
X28543890Y-42757160D01*
X28524595Y-42773880D01*
X28338922Y-42903890D01*
X28338920Y-42903891D01*
X28171891Y-43070920D01*
X28171886Y-43070926D01*
X28036400Y-43264420D01*
X28036399Y-43264422D01*
X27936570Y-43478507D01*
X27936567Y-43478513D01*
X27879364Y-43691999D01*
X27879364Y-43692000D01*
X28776314Y-43692000D01*
X28750507Y-43732156D01*
X28710000Y-43870111D01*
X28710000Y-44013889D01*
X28750507Y-44151844D01*
X28776314Y-44192000D01*
X27879364Y-44192000D01*
X27936567Y-44405486D01*
X27936570Y-44405492D01*
X28036399Y-44619578D01*
X28171894Y-44813082D01*
X28338917Y-44980105D01*
X28524595Y-45110119D01*
X28568219Y-45164696D01*
X28575412Y-45234195D01*
X28543890Y-45296549D01*
X28524595Y-45313269D01*
X28338594Y-45443508D01*
X28171505Y-45610597D01*
X28035965Y-45804169D01*
X28035964Y-45804171D01*
X27936098Y-46018335D01*
X27936094Y-46018344D01*
X27874938Y-46246586D01*
X27874936Y-46246596D01*
X27854341Y-46481999D01*
X27854341Y-46482000D01*
X27874936Y-46717403D01*
X27874938Y-46717413D01*
X27936094Y-46945655D01*
X27936096Y-46945659D01*
X27936097Y-46945663D01*
X27947885Y-46970942D01*
X28035965Y-47159830D01*
X28035967Y-47159834D01*
X28144281Y-47314521D01*
X28171505Y-47353401D01*
X28338599Y-47520495D01*
X28435384Y-47588265D01*
X28532165Y-47656032D01*
X28532167Y-47656033D01*
X28532170Y-47656035D01*
X28746337Y-47755903D01*
X28974592Y-47817063D01*
X29151034Y-47832500D01*
X29209999Y-47837659D01*
X29210000Y-47837659D01*
X29210001Y-47837659D01*
X29268966Y-47832500D01*
X29445408Y-47817063D01*
X29673663Y-47755903D01*
X29887830Y-47656035D01*
X30081401Y-47520495D01*
X30203329Y-47398566D01*
X30264648Y-47365084D01*
X30334340Y-47370068D01*
X30390274Y-47411939D01*
X30407189Y-47442917D01*
X30456202Y-47574328D01*
X30456206Y-47574335D01*
X30542452Y-47689544D01*
X30542455Y-47689547D01*
X30657664Y-47775793D01*
X30657671Y-47775797D01*
X30792517Y-47826091D01*
X30792516Y-47826091D01*
X30799444Y-47826835D01*
X30852127Y-47832500D01*
X32647872Y-47832499D01*
X32707483Y-47826091D01*
X32842331Y-47775796D01*
X32957546Y-47689546D01*
X33043796Y-47574331D01*
X33094091Y-47439483D01*
X33100500Y-47379873D01*
X33100500Y-47218605D01*
X47314171Y-47218605D01*
X47334690Y-47466246D01*
X47334692Y-47466257D01*
X47395695Y-47707150D01*
X47495516Y-47934720D01*
X47595732Y-48088112D01*
X48256454Y-47427390D01*
X48295190Y-47520906D01*
X48391274Y-47646126D01*
X48516494Y-47742210D01*
X48610008Y-47780944D01*
X47949107Y-48441845D01*
X47949107Y-48441846D01*
X47995844Y-48478223D01*
X48214395Y-48596498D01*
X48214404Y-48596501D01*
X48449432Y-48677187D01*
X48694549Y-48718090D01*
X48943051Y-48718090D01*
X49188167Y-48677187D01*
X49423195Y-48596501D01*
X49423203Y-48596498D01*
X49641757Y-48478222D01*
X49688491Y-48441845D01*
X49688492Y-48441844D01*
X49027592Y-47780944D01*
X49121106Y-47742210D01*
X49246326Y-47646126D01*
X49342410Y-47520907D01*
X49381144Y-47427391D01*
X50041866Y-48088113D01*
X50142081Y-47934725D01*
X50241904Y-47707150D01*
X50302907Y-47466257D01*
X50302909Y-47466246D01*
X50323429Y-47218605D01*
X50323429Y-47218594D01*
X50302909Y-46970953D01*
X50302907Y-46970942D01*
X50241904Y-46730049D01*
X50142083Y-46502479D01*
X50041866Y-46349085D01*
X49381144Y-47009807D01*
X49342410Y-46916294D01*
X49246326Y-46791074D01*
X49121106Y-46694990D01*
X49027591Y-46656254D01*
X49688491Y-45995353D01*
X49641752Y-45958974D01*
X49423204Y-45840701D01*
X49423195Y-45840698D01*
X49188167Y-45760012D01*
X48943051Y-45719110D01*
X48694549Y-45719110D01*
X48449432Y-45760012D01*
X48214404Y-45840698D01*
X48214395Y-45840701D01*
X47995844Y-45958976D01*
X47949107Y-45995352D01*
X47949107Y-45995353D01*
X48610008Y-46656254D01*
X48516494Y-46694990D01*
X48391274Y-46791074D01*
X48295190Y-46916293D01*
X48256454Y-47009808D01*
X47595731Y-46349085D01*
X47495517Y-46502476D01*
X47395695Y-46730049D01*
X47334692Y-46970942D01*
X47334690Y-46970953D01*
X47314171Y-47218594D01*
X47314171Y-47218605D01*
X33100500Y-47218605D01*
X33100499Y-45584128D01*
X33094091Y-45524517D01*
X33092810Y-45521083D01*
X33043797Y-45389671D01*
X33043793Y-45389664D01*
X32986855Y-45313605D01*
X42233669Y-45313605D01*
X42254196Y-45561332D01*
X42315221Y-45802315D01*
X42415076Y-46029962D01*
X42551040Y-46238072D01*
X42653236Y-46349085D01*
X42719403Y-46420961D01*
X42915571Y-46573645D01*
X43134196Y-46691959D01*
X43134199Y-46691960D01*
X43369308Y-46772673D01*
X43369310Y-46772673D01*
X43369312Y-46772674D01*
X43614507Y-46813590D01*
X43614508Y-46813590D01*
X43863092Y-46813590D01*
X43863093Y-46813590D01*
X44108288Y-46772674D01*
X44343404Y-46691959D01*
X44562029Y-46573645D01*
X44758197Y-46420961D01*
X44926560Y-46238071D01*
X45062523Y-46029963D01*
X45162379Y-45802315D01*
X45223403Y-45561336D01*
X45243931Y-45313600D01*
X45243464Y-45307965D01*
X45228842Y-45131500D01*
X45223403Y-45065864D01*
X45162379Y-44824885D01*
X45062523Y-44597237D01*
X45009423Y-44515961D01*
X44926559Y-44389127D01*
X44758200Y-44206242D01*
X44758190Y-44206233D01*
X44562033Y-44053558D01*
X44562028Y-44053554D01*
X44343405Y-43935241D01*
X44343400Y-43935239D01*
X44108291Y-43854526D01*
X43924391Y-43823839D01*
X43863093Y-43813610D01*
X43614507Y-43813610D01*
X43565468Y-43821793D01*
X43369308Y-43854526D01*
X43134199Y-43935239D01*
X43134194Y-43935241D01*
X42915571Y-44053554D01*
X42915566Y-44053558D01*
X42719409Y-44206233D01*
X42719399Y-44206242D01*
X42551040Y-44389127D01*
X42415076Y-44597237D01*
X42315221Y-44824884D01*
X42254196Y-45065867D01*
X42233669Y-45313594D01*
X42233669Y-45313605D01*
X32986855Y-45313605D01*
X32957547Y-45274455D01*
X32957544Y-45274452D01*
X32842335Y-45188206D01*
X32842328Y-45188202D01*
X32710401Y-45138997D01*
X32654467Y-45097126D01*
X32630050Y-45031662D01*
X32644902Y-44963389D01*
X32666053Y-44935133D01*
X32788108Y-44813078D01*
X32923600Y-44619578D01*
X33023429Y-44405492D01*
X33023432Y-44405486D01*
X33080636Y-44192000D01*
X32183686Y-44192000D01*
X32209493Y-44151844D01*
X32250000Y-44013889D01*
X32250000Y-43870111D01*
X32209493Y-43732156D01*
X32183686Y-43692000D01*
X33080636Y-43692000D01*
X33080635Y-43691999D01*
X33023432Y-43478513D01*
X33023429Y-43478507D01*
X32923600Y-43264422D01*
X32923599Y-43264420D01*
X32788113Y-43070926D01*
X32788108Y-43070920D01*
X32621078Y-42903890D01*
X32435405Y-42773879D01*
X32391780Y-42719302D01*
X32384588Y-42649804D01*
X32416110Y-42587449D01*
X32435406Y-42570730D01*
X32559088Y-42484127D01*
X32621401Y-42440495D01*
X32788495Y-42273401D01*
X32924035Y-42079830D01*
X33023903Y-41865663D01*
X33085063Y-41637408D01*
X33105659Y-41402000D01*
X33085063Y-41166592D01*
X33023903Y-40938337D01*
X32924035Y-40724171D01*
X32923652Y-40723623D01*
X32788494Y-40530597D01*
X32621402Y-40363506D01*
X32621396Y-40363501D01*
X32435842Y-40233575D01*
X32392217Y-40178998D01*
X32385023Y-40109500D01*
X32416546Y-40047145D01*
X32435842Y-40030425D01*
X32468171Y-40007788D01*
X32621401Y-39900495D01*
X32788495Y-39733401D01*
X32924035Y-39539830D01*
X33023903Y-39325663D01*
X33085063Y-39097408D01*
X33105659Y-38862000D01*
X33085063Y-38626592D01*
X33023903Y-38398337D01*
X33021837Y-38393906D01*
X33011344Y-38324829D01*
X33039863Y-38261045D01*
X33098339Y-38222804D01*
X33134218Y-38217500D01*
X39567548Y-38217500D01*
X39634587Y-38237185D01*
X39655229Y-38253819D01*
X41409197Y-40007788D01*
X41419022Y-40020051D01*
X41419243Y-40019869D01*
X41424214Y-40025878D01*
X41446862Y-40047145D01*
X41474635Y-40073226D01*
X41495529Y-40094120D01*
X41501011Y-40098373D01*
X41505443Y-40102157D01*
X41539418Y-40134062D01*
X41556976Y-40143714D01*
X41573233Y-40154393D01*
X41589064Y-40166673D01*
X41608737Y-40175186D01*
X41631833Y-40185182D01*
X41637077Y-40187750D01*
X41677908Y-40210197D01*
X41690523Y-40213435D01*
X41697305Y-40215177D01*
X41715719Y-40221481D01*
X41734104Y-40229438D01*
X41780157Y-40236732D01*
X41785826Y-40237906D01*
X41830981Y-40249500D01*
X41851016Y-40249500D01*
X41870413Y-40251026D01*
X41890196Y-40254160D01*
X41936584Y-40249775D01*
X41942422Y-40249500D01*
X42571794Y-40249500D01*
X42638833Y-40269185D01*
X42684588Y-40321989D01*
X42694532Y-40391147D01*
X42665507Y-40454703D01*
X42663024Y-40457483D01*
X42551037Y-40579131D01*
X42415076Y-40787237D01*
X42315221Y-41014884D01*
X42254196Y-41255867D01*
X42233669Y-41503594D01*
X42233669Y-41503605D01*
X42254196Y-41751332D01*
X42315221Y-41992315D01*
X42415076Y-42219962D01*
X42551040Y-42428072D01*
X42719399Y-42610957D01*
X42719409Y-42610966D01*
X42858599Y-42719302D01*
X42915571Y-42763645D01*
X43134196Y-42881959D01*
X43151636Y-42887946D01*
X43369308Y-42962673D01*
X43369310Y-42962673D01*
X43369312Y-42962674D01*
X43614507Y-43003590D01*
X43614508Y-43003590D01*
X43863092Y-43003590D01*
X43863093Y-43003590D01*
X44108288Y-42962674D01*
X44343404Y-42881959D01*
X44562029Y-42763645D01*
X44758197Y-42610961D01*
X44926560Y-42428071D01*
X45062523Y-42219963D01*
X45162379Y-41992315D01*
X45223403Y-41751336D01*
X45243931Y-41503600D01*
X45243913Y-41503387D01*
X45225191Y-41277447D01*
X45223403Y-41255864D01*
X45162379Y-41014885D01*
X45062523Y-40787237D01*
X45044587Y-40759783D01*
X44926562Y-40579131D01*
X44814576Y-40457483D01*
X44783654Y-40394829D01*
X44791514Y-40325403D01*
X44835661Y-40271247D01*
X44902078Y-40249556D01*
X44905806Y-40249500D01*
X45732500Y-40249500D01*
X45799539Y-40269185D01*
X45845294Y-40321989D01*
X45856500Y-40373500D01*
X45856500Y-40989055D01*
X45854775Y-41004672D01*
X45855061Y-41004699D01*
X45854326Y-41012465D01*
X45856500Y-41081614D01*
X45856500Y-41111143D01*
X45856501Y-41111160D01*
X45857368Y-41118031D01*
X45857826Y-41123850D01*
X45859290Y-41170424D01*
X45859291Y-41170427D01*
X45864880Y-41189667D01*
X45868824Y-41208711D01*
X45871336Y-41228592D01*
X45882135Y-41255867D01*
X45888490Y-41271919D01*
X45890382Y-41277447D01*
X45903381Y-41322188D01*
X45913580Y-41339434D01*
X45922138Y-41356903D01*
X45929514Y-41375532D01*
X45956898Y-41413223D01*
X45960106Y-41418107D01*
X45983827Y-41458216D01*
X45983833Y-41458224D01*
X45997990Y-41472380D01*
X46010628Y-41487176D01*
X46022405Y-41503386D01*
X46022406Y-41503387D01*
X46058309Y-41533088D01*
X46062620Y-41537010D01*
X46745572Y-42219962D01*
X47355558Y-42829948D01*
X47389043Y-42891271D01*
X47388083Y-42948069D01*
X47334196Y-43160867D01*
X47313669Y-43408594D01*
X47313669Y-43408605D01*
X47334196Y-43656332D01*
X47395221Y-43897315D01*
X47495076Y-44124962D01*
X47631040Y-44333072D01*
X47799399Y-44515957D01*
X47799409Y-44515966D01*
X47947085Y-44630907D01*
X47995571Y-44668645D01*
X48214196Y-44786959D01*
X48214199Y-44786960D01*
X48449308Y-44867673D01*
X48449310Y-44867673D01*
X48449312Y-44867674D01*
X48694507Y-44908590D01*
X48694508Y-44908590D01*
X48943092Y-44908590D01*
X48943093Y-44908590D01*
X49188288Y-44867674D01*
X49423404Y-44786959D01*
X49642029Y-44668645D01*
X49838197Y-44515961D01*
X50006560Y-44333071D01*
X50142523Y-44124963D01*
X50242379Y-43897315D01*
X50303403Y-43656336D01*
X50318138Y-43478513D01*
X50323931Y-43408605D01*
X50323931Y-43408594D01*
X50303403Y-43160867D01*
X50303403Y-43160864D01*
X50242379Y-42919885D01*
X50142523Y-42692237D01*
X50089423Y-42610961D01*
X50006559Y-42484127D01*
X49838200Y-42301242D01*
X49838190Y-42301233D01*
X49642033Y-42148558D01*
X49642028Y-42148554D01*
X49423405Y-42030241D01*
X49423400Y-42030239D01*
X49188291Y-41949526D01*
X49004391Y-41918839D01*
X48943093Y-41908610D01*
X48694507Y-41908610D01*
X48633208Y-41918839D01*
X48449309Y-41949526D01*
X48369914Y-41976782D01*
X48300116Y-41979931D01*
X48241972Y-41947181D01*
X47143819Y-40849028D01*
X47110334Y-40787705D01*
X47107500Y-40761347D01*
X47107500Y-40087737D01*
X47109224Y-40072123D01*
X47108938Y-40072096D01*
X47109672Y-40064333D01*
X47107500Y-39995202D01*
X47107500Y-39965651D01*
X47107500Y-39965650D01*
X47106629Y-39958761D01*
X47106172Y-39952942D01*
X47105790Y-39940776D01*
X47120889Y-39882669D01*
X47091008Y-39844027D01*
X47075498Y-39804853D01*
X47073621Y-39799371D01*
X47060617Y-39754610D01*
X47050421Y-39737369D01*
X47041860Y-39719893D01*
X47034486Y-39701269D01*
X47034486Y-39701267D01*
X47024474Y-39687488D01*
X47007083Y-39663550D01*
X47003900Y-39658705D01*
X46980170Y-39618579D01*
X46980165Y-39618573D01*
X46966005Y-39604413D01*
X46961036Y-39598595D01*
X47314171Y-39598595D01*
X47329876Y-39788139D01*
X47316507Y-39853109D01*
X47347552Y-39898237D01*
X47349935Y-39906447D01*
X47395695Y-40087150D01*
X47495516Y-40314720D01*
X47595732Y-40468112D01*
X48256454Y-39807390D01*
X48295190Y-39900906D01*
X48391274Y-40026126D01*
X48516494Y-40122210D01*
X48610008Y-40160944D01*
X47949107Y-40821845D01*
X47949107Y-40821846D01*
X47995844Y-40858223D01*
X48214395Y-40976498D01*
X48214404Y-40976501D01*
X48449432Y-41057187D01*
X48694549Y-41098090D01*
X48943051Y-41098090D01*
X49188167Y-41057187D01*
X49423195Y-40976501D01*
X49423203Y-40976498D01*
X49641757Y-40858222D01*
X49688491Y-40821845D01*
X49688492Y-40821844D01*
X49027592Y-40160944D01*
X49121106Y-40122210D01*
X49246326Y-40026126D01*
X49342410Y-39900907D01*
X49381144Y-39807391D01*
X50041866Y-40468113D01*
X50142081Y-40314725D01*
X50241904Y-40087150D01*
X50302907Y-39846257D01*
X50302909Y-39846246D01*
X50323429Y-39598605D01*
X50323429Y-39598594D01*
X50302909Y-39350953D01*
X50302907Y-39350942D01*
X50241904Y-39110049D01*
X50142083Y-38882479D01*
X50041866Y-38729085D01*
X49381144Y-39389807D01*
X49342410Y-39296294D01*
X49246326Y-39171074D01*
X49121106Y-39074990D01*
X49027591Y-39036254D01*
X49688491Y-38375353D01*
X49641752Y-38338974D01*
X49423204Y-38220701D01*
X49423195Y-38220698D01*
X49188167Y-38140012D01*
X48943051Y-38099110D01*
X48694549Y-38099110D01*
X48449432Y-38140012D01*
X48214404Y-38220698D01*
X48214395Y-38220701D01*
X47995844Y-38338976D01*
X47949107Y-38375352D01*
X47949107Y-38375353D01*
X48610008Y-39036254D01*
X48516494Y-39074990D01*
X48391274Y-39171074D01*
X48295190Y-39296293D01*
X48256454Y-39389808D01*
X47595731Y-38729085D01*
X47495517Y-38882476D01*
X47395695Y-39110049D01*
X47334692Y-39350942D01*
X47334690Y-39350953D01*
X47314171Y-39598594D01*
X47314171Y-39598595D01*
X46961036Y-39598595D01*
X46953370Y-39589620D01*
X46941593Y-39573412D01*
X46905693Y-39543713D01*
X46901381Y-39539790D01*
X46601803Y-39240212D01*
X46591980Y-39227950D01*
X46591759Y-39228134D01*
X46586786Y-39222123D01*
X46536364Y-39174773D01*
X46525919Y-39164328D01*
X46515475Y-39153883D01*
X46509986Y-39149625D01*
X46505561Y-39145847D01*
X46471582Y-39113938D01*
X46471580Y-39113936D01*
X46471577Y-39113935D01*
X46454029Y-39104288D01*
X46437763Y-39093604D01*
X46421933Y-39081325D01*
X46379168Y-39062818D01*
X46373922Y-39060248D01*
X46333093Y-39037803D01*
X46333092Y-39037802D01*
X46313693Y-39032822D01*
X46295281Y-39026518D01*
X46276898Y-39018562D01*
X46276892Y-39018560D01*
X46230874Y-39011272D01*
X46225152Y-39010087D01*
X46180021Y-38998500D01*
X46180019Y-38998500D01*
X46159984Y-38998500D01*
X46140586Y-38996973D01*
X46133162Y-38995797D01*
X46120805Y-38993840D01*
X46120804Y-38993840D01*
X46074416Y-38998225D01*
X46068578Y-38998500D01*
X44859041Y-38998500D01*
X44792002Y-38978815D01*
X44746247Y-38926011D01*
X44736303Y-38856853D01*
X44765328Y-38793297D01*
X44767811Y-38790517D01*
X44926560Y-38618071D01*
X45062523Y-38409963D01*
X45162379Y-38182315D01*
X45223403Y-37941336D01*
X45243931Y-37693600D01*
X45223403Y-37445864D01*
X45162379Y-37204885D01*
X45062523Y-36977237D01*
X45009423Y-36895961D01*
X44926559Y-36769127D01*
X44791194Y-36622083D01*
X44760271Y-36559429D01*
X44768131Y-36490003D01*
X44812278Y-36435847D01*
X44878695Y-36414156D01*
X44882423Y-36414100D01*
X47374207Y-36414100D01*
X47441246Y-36433785D01*
X47487001Y-36486589D01*
X47487762Y-36488289D01*
X47495074Y-36504959D01*
X47631040Y-36713072D01*
X47733943Y-36824853D01*
X47799403Y-36895961D01*
X47995571Y-37048645D01*
X48214196Y-37166959D01*
X48214199Y-37166960D01*
X48449308Y-37247673D01*
X48449310Y-37247673D01*
X48449312Y-37247674D01*
X48694507Y-37288590D01*
X48694508Y-37288590D01*
X48943092Y-37288590D01*
X48943093Y-37288590D01*
X49188288Y-37247674D01*
X49423404Y-37166959D01*
X49642029Y-37048645D01*
X49838197Y-36895961D01*
X50006560Y-36713071D01*
X50142523Y-36504963D01*
X50242379Y-36277315D01*
X50303403Y-36036336D01*
X50318139Y-35858502D01*
X50323931Y-35788605D01*
X50323931Y-35788594D01*
X50303403Y-35540867D01*
X50303403Y-35540864D01*
X50242379Y-35299885D01*
X50142523Y-35072237D01*
X50089423Y-34990961D01*
X50006559Y-34864127D01*
X49838200Y-34681242D01*
X49838190Y-34681233D01*
X49642033Y-34528558D01*
X49642028Y-34528554D01*
X49423405Y-34410241D01*
X49423400Y-34410239D01*
X49188291Y-34329526D01*
X49004391Y-34298839D01*
X48943093Y-34288610D01*
X48694507Y-34288610D01*
X48645468Y-34296793D01*
X48449308Y-34329526D01*
X48214199Y-34410239D01*
X48214194Y-34410241D01*
X47995571Y-34528554D01*
X47995566Y-34528558D01*
X47799409Y-34681233D01*
X47799399Y-34681242D01*
X47631040Y-34864127D01*
X47495074Y-35072240D01*
X47487762Y-35088911D01*
X47442806Y-35142397D01*
X47376070Y-35163086D01*
X47374207Y-35163100D01*
X44882423Y-35163100D01*
X44815384Y-35143415D01*
X44769629Y-35090611D01*
X44759685Y-35021453D01*
X44788710Y-34957897D01*
X44791194Y-34955117D01*
X44926559Y-34808072D01*
X45009421Y-34681242D01*
X45062523Y-34599963D01*
X45162379Y-34372315D01*
X45223403Y-34131336D01*
X45243931Y-33883600D01*
X45223403Y-33635864D01*
X45162379Y-33394885D01*
X45062523Y-33167237D01*
X44926560Y-32959129D01*
X44926559Y-32959127D01*
X44758200Y-32776242D01*
X44758190Y-32776233D01*
X44562033Y-32623558D01*
X44562028Y-32623554D01*
X44343405Y-32505241D01*
X44343400Y-32505239D01*
X44108291Y-32424526D01*
X43924391Y-32393839D01*
X43863093Y-32383610D01*
X43614507Y-32383610D01*
X43565468Y-32391793D01*
X43369308Y-32424526D01*
X43134199Y-32505239D01*
X43134194Y-32505241D01*
X42915571Y-32623554D01*
X42915566Y-32623558D01*
X42719409Y-32776233D01*
X42719399Y-32776242D01*
X42551040Y-32959127D01*
X42415076Y-33167237D01*
X42315221Y-33394884D01*
X42254196Y-33635867D01*
X42233669Y-33883594D01*
X42233669Y-33883605D01*
X42254196Y-34131332D01*
X42315221Y-34372315D01*
X42415076Y-34599962D01*
X42551040Y-34808072D01*
X42686406Y-34955117D01*
X42717329Y-35017771D01*
X42709469Y-35087197D01*
X42665322Y-35141353D01*
X42598905Y-35163044D01*
X42595177Y-35163100D01*
X41687052Y-35163100D01*
X41620013Y-35143415D01*
X41599371Y-35126781D01*
X41140803Y-34668212D01*
X41130980Y-34655950D01*
X41130759Y-34656134D01*
X41125786Y-34650123D01*
X41107158Y-34632630D01*
X41075364Y-34602773D01*
X41062067Y-34589476D01*
X41054475Y-34581883D01*
X41048986Y-34577625D01*
X41044561Y-34573847D01*
X41010582Y-34541938D01*
X41010580Y-34541936D01*
X41010577Y-34541935D01*
X40993029Y-34532288D01*
X40976763Y-34521604D01*
X40960933Y-34509325D01*
X40918168Y-34490818D01*
X40912922Y-34488248D01*
X40872093Y-34465803D01*
X40872092Y-34465802D01*
X40852693Y-34460822D01*
X40834281Y-34454518D01*
X40815898Y-34446562D01*
X40815892Y-34446560D01*
X40769874Y-34439272D01*
X40764152Y-34438087D01*
X40719021Y-34426500D01*
X40719019Y-34426500D01*
X40698984Y-34426500D01*
X40679586Y-34424973D01*
X40672162Y-34423797D01*
X40659805Y-34421840D01*
X40659804Y-34421840D01*
X40613416Y-34426225D01*
X40607578Y-34426500D01*
X33134218Y-34426500D01*
X33067179Y-34406815D01*
X33021424Y-34354011D01*
X33011480Y-34284853D01*
X33021837Y-34250094D01*
X33023900Y-34245669D01*
X33023903Y-34245663D01*
X33085063Y-34017408D01*
X33105659Y-33782000D01*
X33085063Y-33546592D01*
X33023903Y-33318337D01*
X32924035Y-33104171D01*
X32918731Y-33096595D01*
X32788494Y-32910597D01*
X32621402Y-32743506D01*
X32621401Y-32743505D01*
X32435405Y-32613269D01*
X32391781Y-32558692D01*
X32384588Y-32489193D01*
X32416110Y-32426839D01*
X32435405Y-32410119D01*
X32621082Y-32280105D01*
X32788105Y-32113082D01*
X32882268Y-31978605D01*
X47314171Y-31978605D01*
X47334690Y-32226246D01*
X47334692Y-32226257D01*
X47395695Y-32467150D01*
X47495516Y-32694720D01*
X47595732Y-32848112D01*
X48256454Y-32187390D01*
X48295190Y-32280906D01*
X48391274Y-32406126D01*
X48516494Y-32502210D01*
X48610008Y-32540944D01*
X47949107Y-33201845D01*
X47949107Y-33201846D01*
X47995844Y-33238223D01*
X48214395Y-33356498D01*
X48214404Y-33356501D01*
X48449432Y-33437187D01*
X48694549Y-33478090D01*
X48943051Y-33478090D01*
X49188167Y-33437187D01*
X49423195Y-33356501D01*
X49423203Y-33356498D01*
X49641757Y-33238222D01*
X49688491Y-33201845D01*
X49688492Y-33201844D01*
X49027592Y-32540944D01*
X49121106Y-32502210D01*
X49246326Y-32406126D01*
X49342410Y-32280907D01*
X49381144Y-32187391D01*
X50041866Y-32848113D01*
X50142081Y-32694725D01*
X50241904Y-32467150D01*
X50302907Y-32226257D01*
X50302909Y-32226246D01*
X50323429Y-31978605D01*
X50323429Y-31978594D01*
X50302909Y-31730953D01*
X50302907Y-31730942D01*
X50241904Y-31490049D01*
X50142083Y-31262479D01*
X50041866Y-31109085D01*
X49381144Y-31769807D01*
X49342410Y-31676294D01*
X49246326Y-31551074D01*
X49121106Y-31454990D01*
X49027591Y-31416254D01*
X49688491Y-30755353D01*
X49641752Y-30718974D01*
X49423204Y-30600701D01*
X49423195Y-30600698D01*
X49188167Y-30520012D01*
X48943051Y-30479110D01*
X48694549Y-30479110D01*
X48449432Y-30520012D01*
X48214404Y-30600698D01*
X48214395Y-30600701D01*
X47995844Y-30718976D01*
X47949107Y-30755352D01*
X47949107Y-30755353D01*
X48610008Y-31416254D01*
X48516494Y-31454990D01*
X48391274Y-31551074D01*
X48295190Y-31676293D01*
X48256454Y-31769808D01*
X47595731Y-31109085D01*
X47495517Y-31262476D01*
X47395695Y-31490049D01*
X47334692Y-31730942D01*
X47334690Y-31730953D01*
X47314171Y-31978594D01*
X47314171Y-31978605D01*
X32882268Y-31978605D01*
X32923600Y-31919578D01*
X33023429Y-31705492D01*
X33023432Y-31705486D01*
X33080636Y-31492000D01*
X32183686Y-31492000D01*
X32209493Y-31451844D01*
X32250000Y-31313889D01*
X32250000Y-31170111D01*
X32209493Y-31032156D01*
X32183686Y-30992000D01*
X33080636Y-30992000D01*
X33080635Y-30991999D01*
X33023432Y-30778513D01*
X33023428Y-30778502D01*
X33021284Y-30773904D01*
X33010792Y-30704827D01*
X33039312Y-30641043D01*
X33097789Y-30602804D01*
X33133666Y-30597500D01*
X40049257Y-30597500D01*
X40064877Y-30599224D01*
X40064904Y-30598939D01*
X40072660Y-30599671D01*
X40072667Y-30599673D01*
X40141814Y-30597500D01*
X40171350Y-30597500D01*
X40178228Y-30596630D01*
X40184041Y-30596172D01*
X40230627Y-30594709D01*
X40249869Y-30589117D01*
X40268912Y-30585174D01*
X40288792Y-30582664D01*
X40332122Y-30565507D01*
X40337646Y-30563617D01*
X40342695Y-30562150D01*
X40382390Y-30550618D01*
X40399629Y-30540422D01*
X40417103Y-30531862D01*
X40435727Y-30524488D01*
X40435727Y-30524487D01*
X40435732Y-30524486D01*
X40473449Y-30497082D01*
X40478305Y-30493892D01*
X40518420Y-30470170D01*
X40532589Y-30455999D01*
X40547379Y-30443368D01*
X40563587Y-30431594D01*
X40593299Y-30395676D01*
X40597212Y-30391376D01*
X42158171Y-28830419D01*
X42219494Y-28796934D01*
X42245852Y-28794100D01*
X42761492Y-28794100D01*
X42828531Y-28813785D01*
X42849173Y-28830419D01*
X43530008Y-29511254D01*
X43436494Y-29549990D01*
X43311274Y-29646074D01*
X43215190Y-29771293D01*
X43176454Y-29864808D01*
X42515731Y-29204085D01*
X42415517Y-29357476D01*
X42315695Y-29585049D01*
X42254692Y-29825942D01*
X42254690Y-29825953D01*
X42234171Y-30073594D01*
X42234171Y-30073605D01*
X42254690Y-30321246D01*
X42254692Y-30321257D01*
X42315695Y-30562150D01*
X42415516Y-30789720D01*
X42515732Y-30943112D01*
X43176454Y-30282390D01*
X43215190Y-30375906D01*
X43311274Y-30501126D01*
X43436494Y-30597210D01*
X43530008Y-30635944D01*
X42869107Y-31296845D01*
X42869107Y-31296846D01*
X42915844Y-31333223D01*
X43134395Y-31451498D01*
X43134404Y-31451501D01*
X43369432Y-31532187D01*
X43614549Y-31573090D01*
X43863051Y-31573090D01*
X44108167Y-31532187D01*
X44343195Y-31451501D01*
X44343203Y-31451498D01*
X44561757Y-31333222D01*
X44608491Y-31296845D01*
X44608492Y-31296844D01*
X43947592Y-30635944D01*
X44041106Y-30597210D01*
X44166326Y-30501126D01*
X44262410Y-30375907D01*
X44301144Y-30282391D01*
X44961866Y-30943113D01*
X45062081Y-30789725D01*
X45161904Y-30562150D01*
X45222907Y-30321257D01*
X45222909Y-30321246D01*
X45243429Y-30073605D01*
X45243429Y-30073594D01*
X45222909Y-29825953D01*
X45222907Y-29825942D01*
X45161904Y-29585049D01*
X45062083Y-29357479D01*
X44961866Y-29204085D01*
X44301144Y-29864807D01*
X44262410Y-29771294D01*
X44166326Y-29646074D01*
X44041106Y-29549990D01*
X43947591Y-29511255D01*
X44628426Y-28830419D01*
X44689749Y-28796934D01*
X44716107Y-28794100D01*
X47374207Y-28794100D01*
X47441246Y-28813785D01*
X47487001Y-28866589D01*
X47487762Y-28868289D01*
X47495074Y-28884959D01*
X47631040Y-29093072D01*
X47799399Y-29275957D01*
X47799409Y-29275966D01*
X47909094Y-29361337D01*
X47974356Y-29412133D01*
X47995566Y-29428641D01*
X47995571Y-29428645D01*
X48150349Y-29512407D01*
X48214196Y-29546959D01*
X48223025Y-29549990D01*
X48449308Y-29627673D01*
X48449310Y-29627673D01*
X48449312Y-29627674D01*
X48694507Y-29668590D01*
X48694508Y-29668590D01*
X48943092Y-29668590D01*
X48943093Y-29668590D01*
X49188288Y-29627674D01*
X49423404Y-29546959D01*
X49642029Y-29428645D01*
X49838197Y-29275961D01*
X50006560Y-29093071D01*
X50142523Y-28884963D01*
X50242379Y-28657315D01*
X50303403Y-28416336D01*
X50318152Y-28238344D01*
X50323931Y-28168605D01*
X50323931Y-28168594D01*
X50303403Y-27920867D01*
X50303403Y-27920864D01*
X50242379Y-27679885D01*
X50142523Y-27452237D01*
X50086794Y-27366937D01*
X50006559Y-27244127D01*
X49838200Y-27061242D01*
X49838190Y-27061233D01*
X49642033Y-26908558D01*
X49642028Y-26908554D01*
X49423405Y-26790241D01*
X49423400Y-26790239D01*
X49188291Y-26709526D01*
X49004391Y-26678839D01*
X48943093Y-26668610D01*
X48694507Y-26668610D01*
X48645468Y-26676793D01*
X48449308Y-26709526D01*
X48214199Y-26790239D01*
X48214194Y-26790241D01*
X47995571Y-26908554D01*
X47995566Y-26908558D01*
X47799409Y-27061233D01*
X47799399Y-27061242D01*
X47631040Y-27244127D01*
X47495074Y-27452240D01*
X47487762Y-27468911D01*
X47442806Y-27522397D01*
X47376070Y-27543086D01*
X47374207Y-27543100D01*
X44882423Y-27543100D01*
X44815384Y-27523415D01*
X44769629Y-27470611D01*
X44759685Y-27401453D01*
X44788710Y-27337897D01*
X44791194Y-27335117D01*
X44926559Y-27188072D01*
X45009421Y-27061242D01*
X45062523Y-26979963D01*
X45162379Y-26752315D01*
X45223403Y-26511336D01*
X45243931Y-26263600D01*
X45223403Y-26015864D01*
X45162379Y-25774885D01*
X45062523Y-25547237D01*
X45009423Y-25465961D01*
X44926559Y-25339127D01*
X44758200Y-25156242D01*
X44758190Y-25156233D01*
X44562033Y-25003558D01*
X44562028Y-25003554D01*
X44343405Y-24885241D01*
X44343400Y-24885239D01*
X44108291Y-24804526D01*
X43924391Y-24773839D01*
X43863093Y-24763610D01*
X43614507Y-24763610D01*
X43565468Y-24771793D01*
X43369308Y-24804526D01*
X43134199Y-24885239D01*
X43134194Y-24885241D01*
X42915571Y-25003554D01*
X42915566Y-25003558D01*
X42719409Y-25156233D01*
X42719399Y-25156242D01*
X42551040Y-25339127D01*
X42415076Y-25547237D01*
X42315221Y-25774884D01*
X42254196Y-26015867D01*
X42233669Y-26263594D01*
X42233669Y-26263605D01*
X42254196Y-26511332D01*
X42315221Y-26752315D01*
X42415076Y-26979962D01*
X42551040Y-27188072D01*
X42686406Y-27335117D01*
X42717329Y-27397771D01*
X42709469Y-27467197D01*
X42665322Y-27521353D01*
X42598905Y-27543044D01*
X42595177Y-27543100D01*
X42018143Y-27543100D01*
X42002522Y-27541375D01*
X42002495Y-27541661D01*
X41994733Y-27540926D01*
X41925572Y-27543100D01*
X41896049Y-27543100D01*
X41889178Y-27543967D01*
X41883359Y-27544425D01*
X41836774Y-27545889D01*
X41836768Y-27545890D01*
X41817526Y-27551480D01*
X41798487Y-27555423D01*
X41778617Y-27557934D01*
X41778603Y-27557937D01*
X41735283Y-27575088D01*
X41729758Y-27576980D01*
X41685013Y-27589980D01*
X41685010Y-27589981D01*
X41667766Y-27600179D01*
X41650305Y-27608733D01*
X41631674Y-27616110D01*
X41631662Y-27616117D01*
X41593970Y-27643502D01*
X41589087Y-27646709D01*
X41548980Y-27670429D01*
X41534814Y-27684595D01*
X41520024Y-27697227D01*
X41503814Y-27709004D01*
X41503811Y-27709007D01*
X41474110Y-27744909D01*
X41470177Y-27749231D01*
X39909228Y-29310181D01*
X39847905Y-29343666D01*
X39821547Y-29346500D01*
X33134218Y-29346500D01*
X33067179Y-29326815D01*
X33021424Y-29274011D01*
X33011480Y-29204853D01*
X33021837Y-29170094D01*
X33023900Y-29165669D01*
X33023903Y-29165663D01*
X33085063Y-28937408D01*
X33105659Y-28702000D01*
X33085063Y-28466592D01*
X33023903Y-28238337D01*
X32924035Y-28024171D01*
X32918425Y-28016158D01*
X32788494Y-27830597D01*
X32621402Y-27663506D01*
X32621395Y-27663501D01*
X32427834Y-27527967D01*
X32427830Y-27527965D01*
X32418566Y-27523645D01*
X32213663Y-27428097D01*
X32213659Y-27428096D01*
X32213655Y-27428094D01*
X31985413Y-27366938D01*
X31985403Y-27366936D01*
X31750001Y-27346341D01*
X31749999Y-27346341D01*
X31514596Y-27366936D01*
X31514586Y-27366938D01*
X31286344Y-27428094D01*
X31286335Y-27428098D01*
X31072171Y-27527964D01*
X31072169Y-27527965D01*
X30878597Y-27663505D01*
X30711505Y-27830597D01*
X30581575Y-28016158D01*
X30526998Y-28059783D01*
X30457500Y-28066977D01*
X30395145Y-28035454D01*
X30378425Y-28016158D01*
X30248494Y-27830597D01*
X30081402Y-27663506D01*
X30081395Y-27663501D01*
X29887834Y-27527967D01*
X29887830Y-27527965D01*
X29878566Y-27523645D01*
X29673663Y-27428097D01*
X29673659Y-27428096D01*
X29673655Y-27428094D01*
X29445413Y-27366938D01*
X29445403Y-27366936D01*
X29210001Y-27346341D01*
X29209999Y-27346341D01*
X28974596Y-27366936D01*
X28974586Y-27366938D01*
X28746344Y-27428094D01*
X28746335Y-27428098D01*
X28532171Y-27527964D01*
X28532169Y-27527965D01*
X28338597Y-27663505D01*
X28171505Y-27830597D01*
X28035965Y-28024169D01*
X28035964Y-28024171D01*
X27936098Y-28238335D01*
X27936094Y-28238344D01*
X27874938Y-28466586D01*
X27874936Y-28466596D01*
X27854341Y-28701999D01*
X27854341Y-28702000D01*
X27874936Y-28937403D01*
X27874938Y-28937413D01*
X27936094Y-29165655D01*
X27936099Y-29165669D01*
X27938163Y-29170094D01*
X27948656Y-29239171D01*
X27920137Y-29302955D01*
X27861661Y-29341196D01*
X27825782Y-29346500D01*
X27641743Y-29346500D01*
X27626122Y-29344775D01*
X27626095Y-29345061D01*
X27618333Y-29344326D01*
X27549172Y-29346500D01*
X27519649Y-29346500D01*
X27512778Y-29347367D01*
X27506959Y-29347825D01*
X27460374Y-29349289D01*
X27460368Y-29349290D01*
X27441126Y-29354880D01*
X27422087Y-29358823D01*
X27402217Y-29361334D01*
X27402203Y-29361337D01*
X27358883Y-29378488D01*
X27353358Y-29380380D01*
X27308613Y-29393380D01*
X27308610Y-29393381D01*
X27291366Y-29403579D01*
X27273905Y-29412133D01*
X27255274Y-29419510D01*
X27255262Y-29419517D01*
X27217570Y-29446902D01*
X27212687Y-29450109D01*
X27172580Y-29473829D01*
X27158414Y-29487995D01*
X27143624Y-29500627D01*
X27127414Y-29512404D01*
X27127411Y-29512407D01*
X27097710Y-29548309D01*
X27093777Y-29552631D01*
X26540208Y-30106199D01*
X26527951Y-30116020D01*
X26528134Y-30116241D01*
X26522123Y-30121213D01*
X26474772Y-30171636D01*
X26453889Y-30192519D01*
X26453877Y-30192532D01*
X26449621Y-30198017D01*
X26445837Y-30202447D01*
X26413937Y-30236418D01*
X26413936Y-30236420D01*
X26404284Y-30253976D01*
X26393610Y-30270226D01*
X26381329Y-30286061D01*
X26381324Y-30286068D01*
X26362815Y-30328838D01*
X26360245Y-30334084D01*
X26337803Y-30374906D01*
X26332822Y-30394307D01*
X26326521Y-30412710D01*
X26318562Y-30431102D01*
X26318561Y-30431105D01*
X26311271Y-30477127D01*
X26310087Y-30482846D01*
X26298501Y-30527972D01*
X26298500Y-30527982D01*
X26298500Y-30548016D01*
X26296973Y-30567415D01*
X26293967Y-30586397D01*
X26293840Y-30587196D01*
X19939000Y-30587196D01*
X19939000Y-24358605D01*
X47313669Y-24358605D01*
X47334196Y-24606332D01*
X47395221Y-24847315D01*
X47495076Y-25074962D01*
X47631040Y-25283072D01*
X47682643Y-25339127D01*
X47799403Y-25465961D01*
X47995571Y-25618645D01*
X48214196Y-25736959D01*
X48214199Y-25736960D01*
X48449308Y-25817673D01*
X48449310Y-25817673D01*
X48449312Y-25817674D01*
X48694507Y-25858590D01*
X48694508Y-25858590D01*
X48943092Y-25858590D01*
X48943093Y-25858590D01*
X49188288Y-25817674D01*
X49423404Y-25736959D01*
X49642029Y-25618645D01*
X49838197Y-25465961D01*
X50006560Y-25283071D01*
X50142523Y-25074963D01*
X50242379Y-24847315D01*
X50303403Y-24606336D01*
X50323931Y-24358600D01*
X50303403Y-24110864D01*
X50242379Y-23869885D01*
X50142523Y-23642237D01*
X50006560Y-23434129D01*
X50006559Y-23434127D01*
X49838200Y-23251242D01*
X49838190Y-23251233D01*
X49642033Y-23098558D01*
X49642028Y-23098554D01*
X49423405Y-22980241D01*
X49423400Y-22980239D01*
X49188291Y-22899526D01*
X49004391Y-22868839D01*
X48943093Y-22858610D01*
X48694507Y-22858610D01*
X48645468Y-22866793D01*
X48449308Y-22899526D01*
X48214199Y-22980239D01*
X48214194Y-22980241D01*
X47995571Y-23098554D01*
X47995566Y-23098558D01*
X47799409Y-23251233D01*
X47799399Y-23251242D01*
X47631040Y-23434127D01*
X47495076Y-23642237D01*
X47395221Y-23869884D01*
X47334196Y-24110867D01*
X47313669Y-24358594D01*
X47313669Y-24358605D01*
X19939000Y-24358605D01*
X19939000Y-22453605D01*
X42234171Y-22453605D01*
X42254690Y-22701246D01*
X42254692Y-22701257D01*
X42315695Y-22942150D01*
X42415516Y-23169720D01*
X42515732Y-23323112D01*
X43176454Y-22662390D01*
X43215190Y-22755906D01*
X43311274Y-22881126D01*
X43436494Y-22977210D01*
X43530008Y-23015944D01*
X42869107Y-23676845D01*
X42869107Y-23676846D01*
X42915844Y-23713223D01*
X43134395Y-23831498D01*
X43134404Y-23831501D01*
X43369432Y-23912187D01*
X43614549Y-23953090D01*
X43863051Y-23953090D01*
X44108167Y-23912187D01*
X44343195Y-23831501D01*
X44343203Y-23831498D01*
X44561757Y-23713222D01*
X44608491Y-23676845D01*
X44608492Y-23676844D01*
X43947592Y-23015944D01*
X44041106Y-22977210D01*
X44166326Y-22881126D01*
X44262410Y-22755907D01*
X44301144Y-22662391D01*
X44961866Y-23323113D01*
X45062081Y-23169725D01*
X45161904Y-22942150D01*
X45222907Y-22701257D01*
X45222909Y-22701246D01*
X45243429Y-22453605D01*
X45243429Y-22453594D01*
X45222909Y-22205953D01*
X45222907Y-22205942D01*
X45161904Y-21965049D01*
X45062083Y-21737479D01*
X44961866Y-21584085D01*
X44301144Y-22244807D01*
X44262410Y-22151294D01*
X44166326Y-22026074D01*
X44041106Y-21929990D01*
X43947591Y-21891254D01*
X44608491Y-21230353D01*
X44561752Y-21193974D01*
X44343204Y-21075701D01*
X44343195Y-21075698D01*
X44108167Y-20995012D01*
X43863051Y-20954110D01*
X43614549Y-20954110D01*
X43369432Y-20995012D01*
X43134404Y-21075698D01*
X43134395Y-21075701D01*
X42915844Y-21193976D01*
X42869107Y-21230352D01*
X42869107Y-21230353D01*
X43530008Y-21891254D01*
X43436494Y-21929990D01*
X43311274Y-22026074D01*
X43215190Y-22151293D01*
X43176454Y-22244808D01*
X42515731Y-21584085D01*
X42415517Y-21737476D01*
X42315695Y-21965049D01*
X42254692Y-22205942D01*
X42254690Y-22205953D01*
X42234171Y-22453594D01*
X42234171Y-22453605D01*
X19939000Y-22453605D01*
X19939000Y-20548605D01*
X47313669Y-20548605D01*
X47334196Y-20796332D01*
X47395221Y-21037315D01*
X47495076Y-21264962D01*
X47631040Y-21473072D01*
X47733236Y-21584085D01*
X47799403Y-21655961D01*
X47995571Y-21808645D01*
X48214196Y-21926959D01*
X48214199Y-21926960D01*
X48449308Y-22007673D01*
X48449310Y-22007673D01*
X48449312Y-22007674D01*
X48694507Y-22048590D01*
X48694508Y-22048590D01*
X48943092Y-22048590D01*
X48943093Y-22048590D01*
X49188288Y-22007674D01*
X49423404Y-21926959D01*
X49642029Y-21808645D01*
X49838197Y-21655961D01*
X50006560Y-21473071D01*
X50142523Y-21264963D01*
X50242379Y-21037315D01*
X50303403Y-20796336D01*
X50323931Y-20548600D01*
X50303403Y-20300864D01*
X50242379Y-20059885D01*
X50142523Y-19832237D01*
X50089423Y-19750961D01*
X50006559Y-19624127D01*
X49838200Y-19441242D01*
X49838190Y-19441233D01*
X49642033Y-19288558D01*
X49642028Y-19288554D01*
X49423405Y-19170241D01*
X49423400Y-19170239D01*
X49188291Y-19089526D01*
X49004391Y-19058839D01*
X48943093Y-19048610D01*
X48694507Y-19048610D01*
X48645468Y-19056793D01*
X48449308Y-19089526D01*
X48214199Y-19170239D01*
X48214194Y-19170241D01*
X47995571Y-19288554D01*
X47995566Y-19288558D01*
X47799409Y-19441233D01*
X47799399Y-19441242D01*
X47631040Y-19624127D01*
X47495076Y-19832237D01*
X47395221Y-20059884D01*
X47334196Y-20300867D01*
X47313669Y-20548594D01*
X47313669Y-20548605D01*
X19939000Y-20548605D01*
X19939000Y-18643605D01*
X42233669Y-18643605D01*
X42254196Y-18891332D01*
X42315221Y-19132315D01*
X42415076Y-19359962D01*
X42551040Y-19568072D01*
X42602643Y-19624127D01*
X42719403Y-19750961D01*
X42915571Y-19903645D01*
X43134196Y-20021959D01*
X43134199Y-20021960D01*
X43369308Y-20102673D01*
X43369310Y-20102673D01*
X43369312Y-20102674D01*
X43614507Y-20143590D01*
X43614508Y-20143590D01*
X43863092Y-20143590D01*
X43863093Y-20143590D01*
X44108288Y-20102674D01*
X44343404Y-20021959D01*
X44562029Y-19903645D01*
X44758197Y-19750961D01*
X44926560Y-19568071D01*
X45062523Y-19359963D01*
X45162379Y-19132315D01*
X45223403Y-18891336D01*
X45243931Y-18643600D01*
X45223403Y-18395864D01*
X45162379Y-18154885D01*
X45062523Y-17927237D01*
X44977030Y-17796379D01*
X44926559Y-17719127D01*
X44758200Y-17536242D01*
X44758190Y-17536233D01*
X44562033Y-17383558D01*
X44562028Y-17383554D01*
X44343405Y-17265241D01*
X44343400Y-17265239D01*
X44108291Y-17184526D01*
X43924391Y-17153839D01*
X43863093Y-17143610D01*
X43614507Y-17143610D01*
X43565468Y-17151793D01*
X43369308Y-17184526D01*
X43134199Y-17265239D01*
X43134194Y-17265241D01*
X42915571Y-17383554D01*
X42915566Y-17383558D01*
X42719409Y-17536233D01*
X42719399Y-17536242D01*
X42551040Y-17719127D01*
X42415076Y-17927237D01*
X42315221Y-18154884D01*
X42254196Y-18395867D01*
X42233669Y-18643594D01*
X42233669Y-18643605D01*
X19939000Y-18643605D01*
X19939000Y-15999999D01*
X21394592Y-15999999D01*
X21402303Y-16112735D01*
X21402448Y-16116968D01*
X21402448Y-16143482D01*
X21406057Y-16169738D01*
X21406489Y-16173948D01*
X21414201Y-16286682D01*
X21437191Y-16397324D01*
X21437910Y-16401494D01*
X21441520Y-16427756D01*
X21448676Y-16453301D01*
X21449678Y-16457411D01*
X21468097Y-16546045D01*
X21472666Y-16568032D01*
X21472667Y-16568036D01*
X21472670Y-16568045D01*
X21510505Y-16674502D01*
X21511787Y-16678538D01*
X21518940Y-16704070D01*
X21529504Y-16728392D01*
X21531057Y-16732330D01*
X21568894Y-16838793D01*
X21620883Y-16939128D01*
X21622700Y-16942951D01*
X21633262Y-16967264D01*
X21647032Y-16989908D01*
X21649107Y-16993599D01*
X21701096Y-17093931D01*
X21701097Y-17093933D01*
X21766254Y-17186242D01*
X21768575Y-17189780D01*
X21782357Y-17212441D01*
X21799089Y-17233008D01*
X21801648Y-17236383D01*
X21862514Y-17322611D01*
X21866812Y-17328699D01*
X21943945Y-17411289D01*
X21946728Y-17414481D01*
X21963451Y-17435036D01*
X21982840Y-17453144D01*
X21985817Y-17456122D01*
X22060643Y-17536242D01*
X22062947Y-17538708D01*
X22062951Y-17538711D01*
X22062953Y-17538713D01*
X22150601Y-17610020D01*
X22153791Y-17612801D01*
X22173167Y-17630897D01*
X22173170Y-17630899D01*
X22194827Y-17646187D01*
X22198202Y-17648746D01*
X22285846Y-17720050D01*
X22285849Y-17720051D01*
X22285853Y-17720055D01*
X22330496Y-17747203D01*
X22382407Y-17778772D01*
X22385933Y-17781083D01*
X22407598Y-17796376D01*
X22407602Y-17796379D01*
X22416319Y-17800895D01*
X22431142Y-17808576D01*
X22434821Y-17810645D01*
X22531375Y-17869361D01*
X22635042Y-17914390D01*
X22638815Y-17916183D01*
X22662380Y-17928394D01*
X22687394Y-17937284D01*
X22691258Y-17938807D01*
X22769229Y-17972675D01*
X22794934Y-17983841D01*
X22794938Y-17983843D01*
X22794942Y-17983844D01*
X22903774Y-18014337D01*
X22907775Y-18015607D01*
X22932765Y-18024489D01*
X22932767Y-18024489D01*
X22932769Y-18024490D01*
X22939476Y-18025883D01*
X22958733Y-18029885D01*
X22962822Y-18030881D01*
X23071642Y-18061371D01*
X23183597Y-18076759D01*
X23187738Y-18077472D01*
X23213716Y-18082871D01*
X23240202Y-18084682D01*
X23244355Y-18085110D01*
X23334786Y-18097540D01*
X23356321Y-18100500D01*
X23469314Y-18100500D01*
X23473547Y-18100645D01*
X23500000Y-18102454D01*
X23526453Y-18100645D01*
X23530686Y-18100500D01*
X23643678Y-18100500D01*
X23755653Y-18085109D01*
X23759791Y-18084683D01*
X23786284Y-18082871D01*
X23812277Y-18077469D01*
X23816372Y-18076763D01*
X23928358Y-18061371D01*
X24037177Y-18030881D01*
X24041266Y-18029885D01*
X24067235Y-18024489D01*
X24092235Y-18015603D01*
X24096230Y-18014335D01*
X24205058Y-17983844D01*
X24308725Y-17938814D01*
X24312602Y-17937285D01*
X24337620Y-17928394D01*
X24361175Y-17916188D01*
X24364952Y-17914392D01*
X24468625Y-17869361D01*
X24565223Y-17810617D01*
X24568819Y-17808595D01*
X24592401Y-17796377D01*
X24614087Y-17781068D01*
X24617554Y-17778794D01*
X24714147Y-17720055D01*
X24801835Y-17648715D01*
X24805130Y-17646216D01*
X24826833Y-17630897D01*
X24846254Y-17612759D01*
X24849362Y-17610049D01*
X24937053Y-17538708D01*
X25014212Y-17456090D01*
X25017159Y-17453144D01*
X25036549Y-17435036D01*
X25053288Y-17414460D01*
X25056054Y-17411289D01*
X25133189Y-17328698D01*
X25198372Y-17236352D01*
X25200878Y-17233047D01*
X25217641Y-17212444D01*
X25231424Y-17189779D01*
X25233730Y-17186262D01*
X25298901Y-17093936D01*
X25350899Y-16993584D01*
X25352944Y-16989945D01*
X25366737Y-16967265D01*
X25377302Y-16942940D01*
X25379112Y-16939136D01*
X25379116Y-16939128D01*
X25431104Y-16838797D01*
X25466711Y-16738605D01*
X47314171Y-16738605D01*
X47334690Y-16986246D01*
X47334692Y-16986257D01*
X47395695Y-17227150D01*
X47495516Y-17454720D01*
X47595732Y-17608112D01*
X48256454Y-16947390D01*
X48295190Y-17040906D01*
X48391274Y-17166126D01*
X48516494Y-17262210D01*
X48610008Y-17300944D01*
X47949107Y-17961845D01*
X47949107Y-17961846D01*
X47995844Y-17998223D01*
X48214395Y-18116498D01*
X48214404Y-18116501D01*
X48449432Y-18197187D01*
X48694549Y-18238090D01*
X48943051Y-18238090D01*
X49188167Y-18197187D01*
X49423195Y-18116501D01*
X49423203Y-18116498D01*
X49641757Y-17998222D01*
X49688491Y-17961845D01*
X49688492Y-17961844D01*
X49027592Y-17300944D01*
X49121106Y-17262210D01*
X49246326Y-17166126D01*
X49342410Y-17040907D01*
X49381144Y-16947391D01*
X50041866Y-17608113D01*
X50142081Y-17454725D01*
X50241904Y-17227150D01*
X50302907Y-16986257D01*
X50302909Y-16986246D01*
X50323429Y-16738605D01*
X50323429Y-16738594D01*
X50302909Y-16490953D01*
X50302907Y-16490942D01*
X50241904Y-16250049D01*
X50142083Y-16022479D01*
X50041866Y-15869085D01*
X49381144Y-16529807D01*
X49342410Y-16436294D01*
X49246326Y-16311074D01*
X49121106Y-16214990D01*
X49027591Y-16176254D01*
X49688491Y-15515353D01*
X49641752Y-15478974D01*
X49423204Y-15360701D01*
X49423195Y-15360698D01*
X49188167Y-15280012D01*
X48943051Y-15239110D01*
X48694549Y-15239110D01*
X48449432Y-15280012D01*
X48214404Y-15360698D01*
X48214395Y-15360701D01*
X47995844Y-15478976D01*
X47949107Y-15515352D01*
X47949107Y-15515353D01*
X48610008Y-16176254D01*
X48516494Y-16214990D01*
X48391274Y-16311074D01*
X48295190Y-16436293D01*
X48256454Y-16529808D01*
X47595731Y-15869085D01*
X47495517Y-16022476D01*
X47395695Y-16250049D01*
X47334692Y-16490942D01*
X47334690Y-16490953D01*
X47314171Y-16738594D01*
X47314171Y-16738605D01*
X25466711Y-16738605D01*
X25468954Y-16732295D01*
X25470495Y-16728392D01*
X25481060Y-16704069D01*
X25488223Y-16678501D01*
X25489487Y-16674521D01*
X25527334Y-16568032D01*
X25543353Y-16490942D01*
X25550326Y-16457390D01*
X25551322Y-16453300D01*
X25558479Y-16427757D01*
X25562092Y-16401466D01*
X25562807Y-16397324D01*
X25585798Y-16286686D01*
X25593510Y-16173932D01*
X25593938Y-16169770D01*
X25597552Y-16143477D01*
X25598176Y-16106867D01*
X25598308Y-16103796D01*
X25605408Y-16000000D01*
X25598308Y-15896207D01*
X25598176Y-15893129D01*
X25597552Y-15856523D01*
X25597552Y-15856518D01*
X25593942Y-15830260D01*
X25593938Y-15830235D01*
X25593509Y-15826050D01*
X25585798Y-15713314D01*
X25562805Y-15602666D01*
X25562095Y-15598555D01*
X25558744Y-15574174D01*
X25558479Y-15572242D01*
X25556526Y-15565272D01*
X25551317Y-15546681D01*
X25550329Y-15542628D01*
X25527334Y-15431968D01*
X25489490Y-15325485D01*
X25488217Y-15321476D01*
X25481060Y-15295931D01*
X25481059Y-15295928D01*
X25470494Y-15271604D01*
X25468940Y-15267664D01*
X25458792Y-15239110D01*
X25431104Y-15161203D01*
X25379116Y-15060871D01*
X25377298Y-15057048D01*
X25374808Y-15051316D01*
X25366737Y-15032735D01*
X25352956Y-15010073D01*
X25350893Y-15006405D01*
X25298901Y-14906064D01*
X25262298Y-14854209D01*
X25233730Y-14813736D01*
X25231420Y-14810216D01*
X25217641Y-14787556D01*
X25200896Y-14766973D01*
X25198356Y-14763623D01*
X25133187Y-14671299D01*
X25092650Y-14627895D01*
X25056050Y-14588707D01*
X25053277Y-14585526D01*
X25036548Y-14564963D01*
X25034551Y-14563098D01*
X25017174Y-14546869D01*
X25014189Y-14543883D01*
X24937060Y-14461299D01*
X24937056Y-14461295D01*
X24937053Y-14461292D01*
X24937046Y-14461286D01*
X24849398Y-14389979D01*
X24846206Y-14387196D01*
X24826839Y-14369108D01*
X24826837Y-14369107D01*
X24826838Y-14369107D01*
X24826833Y-14369103D01*
X24813388Y-14359612D01*
X24805173Y-14353813D01*
X24801801Y-14351256D01*
X24714153Y-14279949D01*
X24714138Y-14279939D01*
X24617600Y-14221232D01*
X24614061Y-14218911D01*
X24592402Y-14203623D01*
X24568866Y-14191427D01*
X24565177Y-14189353D01*
X24468623Y-14130637D01*
X24364979Y-14085619D01*
X24361157Y-14083801D01*
X24347268Y-14076605D01*
X24337620Y-14071606D01*
X24337616Y-14071604D01*
X24337613Y-14071603D01*
X24312642Y-14062728D01*
X24308703Y-14061175D01*
X24272296Y-14045361D01*
X24205058Y-14016156D01*
X24205054Y-14016155D01*
X24205050Y-14016153D01*
X24096245Y-13985667D01*
X24092212Y-13984387D01*
X24067239Y-13975512D01*
X24067236Y-13975511D01*
X24067235Y-13975511D01*
X24062103Y-13974444D01*
X24041276Y-13970116D01*
X24037164Y-13969114D01*
X23928362Y-13938629D01*
X23816408Y-13923241D01*
X23812236Y-13922521D01*
X23786285Y-13917129D01*
X23759830Y-13915318D01*
X23755620Y-13914885D01*
X23643680Y-13899500D01*
X23643678Y-13899500D01*
X23530672Y-13899500D01*
X23526440Y-13899355D01*
X23500000Y-13897547D01*
X23473560Y-13899355D01*
X23469328Y-13899500D01*
X23356320Y-13899500D01*
X23244380Y-13914885D01*
X23240170Y-13915318D01*
X23213716Y-13917128D01*
X23187762Y-13922521D01*
X23183593Y-13923240D01*
X23083789Y-13936959D01*
X23071642Y-13938629D01*
X23071640Y-13938629D01*
X23071636Y-13938630D01*
X22962837Y-13969113D01*
X22958727Y-13970115D01*
X22932761Y-13975511D01*
X22907783Y-13984388D01*
X22903749Y-13985669D01*
X22810095Y-14011910D01*
X22794942Y-14016156D01*
X22794940Y-14016156D01*
X22794939Y-14016157D01*
X22691304Y-14061172D01*
X22687367Y-14062725D01*
X22662377Y-14071607D01*
X22638840Y-14083802D01*
X22635020Y-14085619D01*
X22531368Y-14130642D01*
X22434828Y-14189350D01*
X22431140Y-14191424D01*
X22407601Y-14203621D01*
X22385943Y-14218907D01*
X22382406Y-14221228D01*
X22285855Y-14279943D01*
X22285849Y-14279947D01*
X22198200Y-14351253D01*
X22194831Y-14353808D01*
X22173171Y-14369099D01*
X22153789Y-14387199D01*
X22150601Y-14389979D01*
X22062955Y-14461284D01*
X22062939Y-14461299D01*
X21985815Y-14543878D01*
X21982823Y-14546871D01*
X21963453Y-14564960D01*
X21946715Y-14585533D01*
X21943935Y-14588721D01*
X21866811Y-14671301D01*
X21801646Y-14763618D01*
X21799089Y-14766991D01*
X21782363Y-14787549D01*
X21768581Y-14810211D01*
X21766261Y-14813747D01*
X21701099Y-14906061D01*
X21649114Y-15006387D01*
X21647042Y-15010073D01*
X21633266Y-15032730D01*
X21633261Y-15032738D01*
X21622700Y-15057049D01*
X21620883Y-15060868D01*
X21568896Y-15161199D01*
X21568895Y-15161202D01*
X21531053Y-15267679D01*
X21529501Y-15271616D01*
X21518938Y-15295935D01*
X21511788Y-15321452D01*
X21510508Y-15325485D01*
X21472669Y-15431957D01*
X21472666Y-15431968D01*
X21449677Y-15542592D01*
X21448676Y-15546701D01*
X21441523Y-15572235D01*
X21441519Y-15572253D01*
X21437910Y-15598506D01*
X21437191Y-15602676D01*
X21414201Y-15713317D01*
X21406489Y-15826050D01*
X21406057Y-15830260D01*
X21402448Y-15856524D01*
X21402448Y-15883030D01*
X21402303Y-15887263D01*
X21394592Y-15999999D01*
X19939000Y-15999999D01*
X19939000Y-12365381D01*
X19958685Y-12298342D01*
X20011489Y-12252587D01*
X20062797Y-12241381D01*
X40347587Y-12208900D01*
X50741100Y-12208900D01*
X50808139Y-12228585D01*
G37*
%TD.AperFunction*%
%TD*%
M02*
