%TF.GenerationSoftware,KiCad,Pcbnew,7.0.8*%
%TF.CreationDate,2024-02-25T14:43:22-05:00*%
%TF.ProjectId,scart breakout,73636172-7420-4627-9265-616b6f75742e,rev?*%
%TF.SameCoordinates,Original*%
%TF.FileFunction,Drillmap*%
%TF.FilePolarity,Positive*%
%FSLAX45Y45*%
G04 Gerber Fmt 4.5, Leading zero omitted, Abs format (unit mm)*
G04 Created by KiCad (PCBNEW 7.0.8) date 2024-02-25 14:43:22*
%MOMM*%
%LPD*%
G01*
G04 APERTURE LIST*
%ADD10C,0.100000*%
%ADD11C,0.200000*%
%ADD12C,0.040000*%
%ADD13C,0.090000*%
%ADD14C,0.119888*%
G04 APERTURE END LIST*
D10*
X2560000Y-1600000D02*
G75*
G03*
X2560000Y-1600000I-210000J0D01*
G01*
X2560000Y-5588000D02*
G75*
G03*
X2560000Y-5588000I-210000J0D01*
G01*
X1989020Y-1220840D02*
X5086560Y-1220840D01*
X5086560Y-5986400D01*
X1989020Y-5986400D01*
X1989020Y-1220840D01*
D11*
D12*
X2758760Y-3358200D02*
X2798760Y-3398200D01*
X2798760Y-3358200D02*
X2758760Y-3398200D01*
D13*
X3433360Y-5374640D02*
G75*
G03*
X3433360Y-5374640I-45000J0D01*
G01*
X3433360Y-5628640D02*
G75*
G03*
X3433360Y-5628640I-45000J0D01*
G01*
D10*
X2921000Y-2820200D02*
X2921000Y-2920200D01*
X2871000Y-2870200D02*
X2971000Y-2870200D01*
X2921000Y-3074200D02*
X2921000Y-3174200D01*
X2871000Y-3124200D02*
X2971000Y-3124200D01*
X2921000Y-3328200D02*
X2921000Y-3428200D01*
X2871000Y-3378200D02*
X2971000Y-3378200D01*
X2921000Y-3582200D02*
X2921000Y-3682200D01*
X2871000Y-3632200D02*
X2971000Y-3632200D01*
X2921000Y-3836200D02*
X2921000Y-3936200D01*
X2871000Y-3886200D02*
X2971000Y-3886200D01*
X2921000Y-4090200D02*
X2921000Y-4190200D01*
X2871000Y-4140200D02*
X2971000Y-4140200D01*
X2921000Y-4344200D02*
X2921000Y-4444200D01*
X2871000Y-4394200D02*
X2971000Y-4394200D01*
X2921000Y-4598200D02*
X2921000Y-4698200D01*
X2871000Y-4648200D02*
X2971000Y-4648200D01*
X3175000Y-2820200D02*
X3175000Y-2920200D01*
X3125000Y-2870200D02*
X3225000Y-2870200D01*
X3175000Y-3074200D02*
X3175000Y-3174200D01*
X3125000Y-3124200D02*
X3225000Y-3124200D01*
X3175000Y-3328200D02*
X3175000Y-3428200D01*
X3125000Y-3378200D02*
X3225000Y-3378200D01*
X3175000Y-3582200D02*
X3175000Y-3682200D01*
X3125000Y-3632200D02*
X3225000Y-3632200D01*
X3175000Y-3836200D02*
X3175000Y-3936200D01*
X3125000Y-3886200D02*
X3225000Y-3886200D01*
X3175000Y-4090200D02*
X3175000Y-4190200D01*
X3125000Y-4140200D02*
X3225000Y-4140200D01*
X3175000Y-4344200D02*
X3175000Y-4444200D01*
X3125000Y-4394200D02*
X3225000Y-4394200D01*
X3175000Y-4598200D02*
X3175000Y-4698200D01*
X3125000Y-4648200D02*
X3225000Y-4648200D01*
D14*
X4416267Y-1906747D02*
X4416267Y-1821973D01*
X4331493Y-1821973D01*
X4331493Y-1906747D01*
X4416267Y-1906747D01*
X4416267Y-2287747D02*
X4416267Y-2202973D01*
X4331493Y-2202973D01*
X4331493Y-2287747D01*
X4416267Y-2287747D01*
X4416267Y-2668747D02*
X4416267Y-2583973D01*
X4331493Y-2583973D01*
X4331493Y-2668747D01*
X4416267Y-2668747D01*
X4416267Y-3049747D02*
X4416267Y-2964973D01*
X4331493Y-2964973D01*
X4331493Y-3049747D01*
X4416267Y-3049747D01*
X4416267Y-3430747D02*
X4416267Y-3345973D01*
X4331493Y-3345973D01*
X4331493Y-3430747D01*
X4416267Y-3430747D01*
X4416267Y-3811747D02*
X4416267Y-3726973D01*
X4331493Y-3726973D01*
X4331493Y-3811747D01*
X4416267Y-3811747D01*
X4416267Y-4192747D02*
X4416267Y-4107973D01*
X4331493Y-4107973D01*
X4331493Y-4192747D01*
X4416267Y-4192747D01*
X4416267Y-4573747D02*
X4416267Y-4488973D01*
X4331493Y-4488973D01*
X4331493Y-4573747D01*
X4416267Y-4573747D01*
X4416267Y-4954747D02*
X4416267Y-4869973D01*
X4331493Y-4869973D01*
X4331493Y-4954747D01*
X4416267Y-4954747D01*
X4416267Y-5335747D02*
X4416267Y-5250973D01*
X4331493Y-5250973D01*
X4331493Y-5335747D01*
X4416267Y-5335747D01*
X4924267Y-1716247D02*
X4924267Y-1631473D01*
X4839493Y-1631473D01*
X4839493Y-1716247D01*
X4924267Y-1716247D01*
X4924267Y-2097247D02*
X4924267Y-2012473D01*
X4839493Y-2012473D01*
X4839493Y-2097247D01*
X4924267Y-2097247D01*
X4924267Y-2478247D02*
X4924267Y-2393473D01*
X4839493Y-2393473D01*
X4839493Y-2478247D01*
X4924267Y-2478247D01*
X4924267Y-2859247D02*
X4924267Y-2774473D01*
X4839493Y-2774473D01*
X4839493Y-2859247D01*
X4924267Y-2859247D01*
X4924267Y-3240247D02*
X4924267Y-3155473D01*
X4839493Y-3155473D01*
X4839493Y-3240247D01*
X4924267Y-3240247D01*
X4924267Y-3621247D02*
X4924267Y-3536473D01*
X4839493Y-3536473D01*
X4839493Y-3621247D01*
X4924267Y-3621247D01*
X4924267Y-4002247D02*
X4924267Y-3917473D01*
X4839493Y-3917473D01*
X4839493Y-4002247D01*
X4924267Y-4002247D01*
X4924267Y-4383247D02*
X4924267Y-4298473D01*
X4839493Y-4298473D01*
X4839493Y-4383247D01*
X4924267Y-4383247D01*
X4924267Y-4764247D02*
X4924267Y-4679473D01*
X4839493Y-4679473D01*
X4839493Y-4764247D01*
X4924267Y-4764247D01*
X4924267Y-5145247D02*
X4924267Y-5060473D01*
X4839493Y-5060473D01*
X4839493Y-5145247D01*
X4924267Y-5145247D01*
X4924267Y-5526247D02*
X4924267Y-5441473D01*
X4839493Y-5441473D01*
X4839493Y-5526247D01*
X4924267Y-5526247D01*
D11*
X2244797Y-6302884D02*
X2244797Y-6102884D01*
X2244797Y-6102884D02*
X2292416Y-6102884D01*
X2292416Y-6102884D02*
X2320987Y-6112408D01*
X2320987Y-6112408D02*
X2340035Y-6131455D01*
X2340035Y-6131455D02*
X2349559Y-6150503D01*
X2349559Y-6150503D02*
X2359083Y-6188598D01*
X2359083Y-6188598D02*
X2359083Y-6217169D01*
X2359083Y-6217169D02*
X2349559Y-6255265D01*
X2349559Y-6255265D02*
X2340035Y-6274312D01*
X2340035Y-6274312D02*
X2320987Y-6293360D01*
X2320987Y-6293360D02*
X2292416Y-6302884D01*
X2292416Y-6302884D02*
X2244797Y-6302884D01*
X2444797Y-6302884D02*
X2444797Y-6169550D01*
X2444797Y-6207646D02*
X2454321Y-6188598D01*
X2454321Y-6188598D02*
X2463844Y-6179074D01*
X2463844Y-6179074D02*
X2482892Y-6169550D01*
X2482892Y-6169550D02*
X2501940Y-6169550D01*
X2568606Y-6302884D02*
X2568606Y-6169550D01*
X2568606Y-6102884D02*
X2559083Y-6112408D01*
X2559083Y-6112408D02*
X2568606Y-6121931D01*
X2568606Y-6121931D02*
X2578130Y-6112408D01*
X2578130Y-6112408D02*
X2568606Y-6102884D01*
X2568606Y-6102884D02*
X2568606Y-6121931D01*
X2692416Y-6302884D02*
X2673368Y-6293360D01*
X2673368Y-6293360D02*
X2663844Y-6274312D01*
X2663844Y-6274312D02*
X2663844Y-6102884D01*
X2797178Y-6302884D02*
X2778130Y-6293360D01*
X2778130Y-6293360D02*
X2768606Y-6274312D01*
X2768606Y-6274312D02*
X2768606Y-6102884D01*
X3025749Y-6302884D02*
X3025749Y-6102884D01*
X3025749Y-6102884D02*
X3092416Y-6245741D01*
X3092416Y-6245741D02*
X3159082Y-6102884D01*
X3159082Y-6102884D02*
X3159082Y-6302884D01*
X3340035Y-6302884D02*
X3340035Y-6198122D01*
X3340035Y-6198122D02*
X3330511Y-6179074D01*
X3330511Y-6179074D02*
X3311463Y-6169550D01*
X3311463Y-6169550D02*
X3273368Y-6169550D01*
X3273368Y-6169550D02*
X3254321Y-6179074D01*
X3340035Y-6293360D02*
X3320987Y-6302884D01*
X3320987Y-6302884D02*
X3273368Y-6302884D01*
X3273368Y-6302884D02*
X3254321Y-6293360D01*
X3254321Y-6293360D02*
X3244797Y-6274312D01*
X3244797Y-6274312D02*
X3244797Y-6255265D01*
X3244797Y-6255265D02*
X3254321Y-6236217D01*
X3254321Y-6236217D02*
X3273368Y-6226693D01*
X3273368Y-6226693D02*
X3320987Y-6226693D01*
X3320987Y-6226693D02*
X3340035Y-6217169D01*
X3435273Y-6169550D02*
X3435273Y-6369550D01*
X3435273Y-6179074D02*
X3454321Y-6169550D01*
X3454321Y-6169550D02*
X3492416Y-6169550D01*
X3492416Y-6169550D02*
X3511463Y-6179074D01*
X3511463Y-6179074D02*
X3520987Y-6188598D01*
X3520987Y-6188598D02*
X3530511Y-6207646D01*
X3530511Y-6207646D02*
X3530511Y-6264788D01*
X3530511Y-6264788D02*
X3520987Y-6283836D01*
X3520987Y-6283836D02*
X3511463Y-6293360D01*
X3511463Y-6293360D02*
X3492416Y-6302884D01*
X3492416Y-6302884D02*
X3454321Y-6302884D01*
X3454321Y-6302884D02*
X3435273Y-6293360D01*
X3616225Y-6283836D02*
X3625749Y-6293360D01*
X3625749Y-6293360D02*
X3616225Y-6302884D01*
X3616225Y-6302884D02*
X3606702Y-6293360D01*
X3606702Y-6293360D02*
X3616225Y-6283836D01*
X3616225Y-6283836D02*
X3616225Y-6302884D01*
X3616225Y-6179074D02*
X3625749Y-6188598D01*
X3625749Y-6188598D02*
X3616225Y-6198122D01*
X3616225Y-6198122D02*
X3606702Y-6188598D01*
X3606702Y-6188598D02*
X3616225Y-6179074D01*
X3616225Y-6179074D02*
X3616225Y-6198122D01*
D12*
X1944020Y-6611400D02*
X1984020Y-6651400D01*
X1984020Y-6611400D02*
X1944020Y-6651400D01*
D11*
X2282892Y-6522884D02*
X2301940Y-6522884D01*
X2301940Y-6522884D02*
X2320987Y-6532408D01*
X2320987Y-6532408D02*
X2330511Y-6541931D01*
X2330511Y-6541931D02*
X2340035Y-6560979D01*
X2340035Y-6560979D02*
X2349559Y-6599074D01*
X2349559Y-6599074D02*
X2349559Y-6646693D01*
X2349559Y-6646693D02*
X2340035Y-6684788D01*
X2340035Y-6684788D02*
X2330511Y-6703836D01*
X2330511Y-6703836D02*
X2320987Y-6713360D01*
X2320987Y-6713360D02*
X2301940Y-6722884D01*
X2301940Y-6722884D02*
X2282892Y-6722884D01*
X2282892Y-6722884D02*
X2263844Y-6713360D01*
X2263844Y-6713360D02*
X2254321Y-6703836D01*
X2254321Y-6703836D02*
X2244797Y-6684788D01*
X2244797Y-6684788D02*
X2235273Y-6646693D01*
X2235273Y-6646693D02*
X2235273Y-6599074D01*
X2235273Y-6599074D02*
X2244797Y-6560979D01*
X2244797Y-6560979D02*
X2254321Y-6541931D01*
X2254321Y-6541931D02*
X2263844Y-6532408D01*
X2263844Y-6532408D02*
X2282892Y-6522884D01*
X2435273Y-6703836D02*
X2444797Y-6713360D01*
X2444797Y-6713360D02*
X2435273Y-6722884D01*
X2435273Y-6722884D02*
X2425749Y-6713360D01*
X2425749Y-6713360D02*
X2435273Y-6703836D01*
X2435273Y-6703836D02*
X2435273Y-6722884D01*
X2616225Y-6589550D02*
X2616225Y-6722884D01*
X2568606Y-6513360D02*
X2520987Y-6656217D01*
X2520987Y-6656217D02*
X2644797Y-6656217D01*
X2759083Y-6522884D02*
X2778130Y-6522884D01*
X2778130Y-6522884D02*
X2797178Y-6532408D01*
X2797178Y-6532408D02*
X2806702Y-6541931D01*
X2806702Y-6541931D02*
X2816225Y-6560979D01*
X2816225Y-6560979D02*
X2825749Y-6599074D01*
X2825749Y-6599074D02*
X2825749Y-6646693D01*
X2825749Y-6646693D02*
X2816225Y-6684788D01*
X2816225Y-6684788D02*
X2806702Y-6703836D01*
X2806702Y-6703836D02*
X2797178Y-6713360D01*
X2797178Y-6713360D02*
X2778130Y-6722884D01*
X2778130Y-6722884D02*
X2759083Y-6722884D01*
X2759083Y-6722884D02*
X2740035Y-6713360D01*
X2740035Y-6713360D02*
X2730511Y-6703836D01*
X2730511Y-6703836D02*
X2720987Y-6684788D01*
X2720987Y-6684788D02*
X2711464Y-6646693D01*
X2711464Y-6646693D02*
X2711464Y-6599074D01*
X2711464Y-6599074D02*
X2720987Y-6560979D01*
X2720987Y-6560979D02*
X2730511Y-6541931D01*
X2730511Y-6541931D02*
X2740035Y-6532408D01*
X2740035Y-6532408D02*
X2759083Y-6522884D01*
X2949559Y-6522884D02*
X2968606Y-6522884D01*
X2968606Y-6522884D02*
X2987654Y-6532408D01*
X2987654Y-6532408D02*
X2997178Y-6541931D01*
X2997178Y-6541931D02*
X3006702Y-6560979D01*
X3006702Y-6560979D02*
X3016225Y-6599074D01*
X3016225Y-6599074D02*
X3016225Y-6646693D01*
X3016225Y-6646693D02*
X3006702Y-6684788D01*
X3006702Y-6684788D02*
X2997178Y-6703836D01*
X2997178Y-6703836D02*
X2987654Y-6713360D01*
X2987654Y-6713360D02*
X2968606Y-6722884D01*
X2968606Y-6722884D02*
X2949559Y-6722884D01*
X2949559Y-6722884D02*
X2930511Y-6713360D01*
X2930511Y-6713360D02*
X2920987Y-6703836D01*
X2920987Y-6703836D02*
X2911463Y-6684788D01*
X2911463Y-6684788D02*
X2901940Y-6646693D01*
X2901940Y-6646693D02*
X2901940Y-6599074D01*
X2901940Y-6599074D02*
X2911463Y-6560979D01*
X2911463Y-6560979D02*
X2920987Y-6541931D01*
X2920987Y-6541931D02*
X2930511Y-6532408D01*
X2930511Y-6532408D02*
X2949559Y-6522884D01*
X3101940Y-6722884D02*
X3101940Y-6589550D01*
X3101940Y-6608598D02*
X3111463Y-6599074D01*
X3111463Y-6599074D02*
X3130511Y-6589550D01*
X3130511Y-6589550D02*
X3159083Y-6589550D01*
X3159083Y-6589550D02*
X3178130Y-6599074D01*
X3178130Y-6599074D02*
X3187654Y-6618122D01*
X3187654Y-6618122D02*
X3187654Y-6722884D01*
X3187654Y-6618122D02*
X3197178Y-6599074D01*
X3197178Y-6599074D02*
X3216225Y-6589550D01*
X3216225Y-6589550D02*
X3244797Y-6589550D01*
X3244797Y-6589550D02*
X3263844Y-6599074D01*
X3263844Y-6599074D02*
X3273368Y-6618122D01*
X3273368Y-6618122D02*
X3273368Y-6722884D01*
X3368606Y-6722884D02*
X3368606Y-6589550D01*
X3368606Y-6608598D02*
X3378130Y-6599074D01*
X3378130Y-6599074D02*
X3397178Y-6589550D01*
X3397178Y-6589550D02*
X3425749Y-6589550D01*
X3425749Y-6589550D02*
X3444797Y-6599074D01*
X3444797Y-6599074D02*
X3454321Y-6618122D01*
X3454321Y-6618122D02*
X3454321Y-6722884D01*
X3454321Y-6618122D02*
X3463844Y-6599074D01*
X3463844Y-6599074D02*
X3482892Y-6589550D01*
X3482892Y-6589550D02*
X3511463Y-6589550D01*
X3511463Y-6589550D02*
X3530511Y-6599074D01*
X3530511Y-6599074D02*
X3540035Y-6618122D01*
X3540035Y-6618122D02*
X3540035Y-6722884D01*
X3930511Y-6513360D02*
X3759083Y-6770503D01*
X4187654Y-6522884D02*
X4206702Y-6522884D01*
X4206702Y-6522884D02*
X4225749Y-6532408D01*
X4225749Y-6532408D02*
X4235273Y-6541931D01*
X4235273Y-6541931D02*
X4244797Y-6560979D01*
X4244797Y-6560979D02*
X4254321Y-6599074D01*
X4254321Y-6599074D02*
X4254321Y-6646693D01*
X4254321Y-6646693D02*
X4244797Y-6684788D01*
X4244797Y-6684788D02*
X4235273Y-6703836D01*
X4235273Y-6703836D02*
X4225749Y-6713360D01*
X4225749Y-6713360D02*
X4206702Y-6722884D01*
X4206702Y-6722884D02*
X4187654Y-6722884D01*
X4187654Y-6722884D02*
X4168606Y-6713360D01*
X4168606Y-6713360D02*
X4159083Y-6703836D01*
X4159083Y-6703836D02*
X4149559Y-6684788D01*
X4149559Y-6684788D02*
X4140035Y-6646693D01*
X4140035Y-6646693D02*
X4140035Y-6599074D01*
X4140035Y-6599074D02*
X4149559Y-6560979D01*
X4149559Y-6560979D02*
X4159083Y-6541931D01*
X4159083Y-6541931D02*
X4168606Y-6532408D01*
X4168606Y-6532408D02*
X4187654Y-6522884D01*
X4340035Y-6703836D02*
X4349559Y-6713360D01*
X4349559Y-6713360D02*
X4340035Y-6722884D01*
X4340035Y-6722884D02*
X4330511Y-6713360D01*
X4330511Y-6713360D02*
X4340035Y-6703836D01*
X4340035Y-6703836D02*
X4340035Y-6722884D01*
X4473368Y-6522884D02*
X4492416Y-6522884D01*
X4492416Y-6522884D02*
X4511464Y-6532408D01*
X4511464Y-6532408D02*
X4520988Y-6541931D01*
X4520988Y-6541931D02*
X4530511Y-6560979D01*
X4530511Y-6560979D02*
X4540035Y-6599074D01*
X4540035Y-6599074D02*
X4540035Y-6646693D01*
X4540035Y-6646693D02*
X4530511Y-6684788D01*
X4530511Y-6684788D02*
X4520988Y-6703836D01*
X4520988Y-6703836D02*
X4511464Y-6713360D01*
X4511464Y-6713360D02*
X4492416Y-6722884D01*
X4492416Y-6722884D02*
X4473368Y-6722884D01*
X4473368Y-6722884D02*
X4454321Y-6713360D01*
X4454321Y-6713360D02*
X4444797Y-6703836D01*
X4444797Y-6703836D02*
X4435273Y-6684788D01*
X4435273Y-6684788D02*
X4425749Y-6646693D01*
X4425749Y-6646693D02*
X4425749Y-6599074D01*
X4425749Y-6599074D02*
X4435273Y-6560979D01*
X4435273Y-6560979D02*
X4444797Y-6541931D01*
X4444797Y-6541931D02*
X4454321Y-6532408D01*
X4454321Y-6532408D02*
X4473368Y-6522884D01*
X4730511Y-6722884D02*
X4616226Y-6722884D01*
X4673368Y-6722884D02*
X4673368Y-6522884D01*
X4673368Y-6522884D02*
X4654321Y-6551455D01*
X4654321Y-6551455D02*
X4635273Y-6570503D01*
X4635273Y-6570503D02*
X4616226Y-6580027D01*
X4911464Y-6522884D02*
X4816226Y-6522884D01*
X4816226Y-6522884D02*
X4806702Y-6618122D01*
X4806702Y-6618122D02*
X4816226Y-6608598D01*
X4816226Y-6608598D02*
X4835273Y-6599074D01*
X4835273Y-6599074D02*
X4882892Y-6599074D01*
X4882892Y-6599074D02*
X4901940Y-6608598D01*
X4901940Y-6608598D02*
X4911464Y-6618122D01*
X4911464Y-6618122D02*
X4920988Y-6637169D01*
X4920988Y-6637169D02*
X4920988Y-6684788D01*
X4920988Y-6684788D02*
X4911464Y-6703836D01*
X4911464Y-6703836D02*
X4901940Y-6713360D01*
X4901940Y-6713360D02*
X4882892Y-6722884D01*
X4882892Y-6722884D02*
X4835273Y-6722884D01*
X4835273Y-6722884D02*
X4816226Y-6713360D01*
X4816226Y-6713360D02*
X4806702Y-6703836D01*
X4987654Y-6522884D02*
X5120988Y-6522884D01*
X5120988Y-6522884D02*
X5035273Y-6722884D01*
X5187654Y-6522884D02*
X5187654Y-6560979D01*
X5263845Y-6522884D02*
X5263845Y-6560979D01*
X5559083Y-6799074D02*
X5549559Y-6789550D01*
X5549559Y-6789550D02*
X5530511Y-6760979D01*
X5530511Y-6760979D02*
X5520988Y-6741931D01*
X5520988Y-6741931D02*
X5511464Y-6713360D01*
X5511464Y-6713360D02*
X5501940Y-6665741D01*
X5501940Y-6665741D02*
X5501940Y-6627646D01*
X5501940Y-6627646D02*
X5511464Y-6580027D01*
X5511464Y-6580027D02*
X5520988Y-6551455D01*
X5520988Y-6551455D02*
X5530511Y-6532408D01*
X5530511Y-6532408D02*
X5549559Y-6503836D01*
X5549559Y-6503836D02*
X5559083Y-6494312D01*
X5740035Y-6722884D02*
X5625749Y-6722884D01*
X5682892Y-6722884D02*
X5682892Y-6522884D01*
X5682892Y-6522884D02*
X5663845Y-6551455D01*
X5663845Y-6551455D02*
X5644797Y-6570503D01*
X5644797Y-6570503D02*
X5625749Y-6580027D01*
X5978130Y-6722884D02*
X5978130Y-6522884D01*
X6063845Y-6722884D02*
X6063845Y-6618122D01*
X6063845Y-6618122D02*
X6054321Y-6599074D01*
X6054321Y-6599074D02*
X6035273Y-6589550D01*
X6035273Y-6589550D02*
X6006702Y-6589550D01*
X6006702Y-6589550D02*
X5987654Y-6599074D01*
X5987654Y-6599074D02*
X5978130Y-6608598D01*
X6187654Y-6722884D02*
X6168607Y-6713360D01*
X6168607Y-6713360D02*
X6159083Y-6703836D01*
X6159083Y-6703836D02*
X6149559Y-6684788D01*
X6149559Y-6684788D02*
X6149559Y-6627646D01*
X6149559Y-6627646D02*
X6159083Y-6608598D01*
X6159083Y-6608598D02*
X6168607Y-6599074D01*
X6168607Y-6599074D02*
X6187654Y-6589550D01*
X6187654Y-6589550D02*
X6216226Y-6589550D01*
X6216226Y-6589550D02*
X6235273Y-6599074D01*
X6235273Y-6599074D02*
X6244797Y-6608598D01*
X6244797Y-6608598D02*
X6254321Y-6627646D01*
X6254321Y-6627646D02*
X6254321Y-6684788D01*
X6254321Y-6684788D02*
X6244797Y-6703836D01*
X6244797Y-6703836D02*
X6235273Y-6713360D01*
X6235273Y-6713360D02*
X6216226Y-6722884D01*
X6216226Y-6722884D02*
X6187654Y-6722884D01*
X6368607Y-6722884D02*
X6349559Y-6713360D01*
X6349559Y-6713360D02*
X6340035Y-6694312D01*
X6340035Y-6694312D02*
X6340035Y-6522884D01*
X6520988Y-6713360D02*
X6501940Y-6722884D01*
X6501940Y-6722884D02*
X6463845Y-6722884D01*
X6463845Y-6722884D02*
X6444797Y-6713360D01*
X6444797Y-6713360D02*
X6435273Y-6694312D01*
X6435273Y-6694312D02*
X6435273Y-6618122D01*
X6435273Y-6618122D02*
X6444797Y-6599074D01*
X6444797Y-6599074D02*
X6463845Y-6589550D01*
X6463845Y-6589550D02*
X6501940Y-6589550D01*
X6501940Y-6589550D02*
X6520988Y-6599074D01*
X6520988Y-6599074D02*
X6530511Y-6618122D01*
X6530511Y-6618122D02*
X6530511Y-6637169D01*
X6530511Y-6637169D02*
X6435273Y-6656217D01*
X6597178Y-6799074D02*
X6606702Y-6789550D01*
X6606702Y-6789550D02*
X6625750Y-6760979D01*
X6625750Y-6760979D02*
X6635273Y-6741931D01*
X6635273Y-6741931D02*
X6644797Y-6713360D01*
X6644797Y-6713360D02*
X6654321Y-6665741D01*
X6654321Y-6665741D02*
X6654321Y-6627646D01*
X6654321Y-6627646D02*
X6644797Y-6580027D01*
X6644797Y-6580027D02*
X6635273Y-6551455D01*
X6635273Y-6551455D02*
X6625750Y-6532408D01*
X6625750Y-6532408D02*
X6606702Y-6503836D01*
X6606702Y-6503836D02*
X6597178Y-6494312D01*
D13*
X1984020Y-6895400D02*
G75*
G03*
X1984020Y-6895400I-45000J0D01*
G01*
D11*
X2282892Y-6786884D02*
X2301940Y-6786884D01*
X2301940Y-6786884D02*
X2320987Y-6796408D01*
X2320987Y-6796408D02*
X2330511Y-6805931D01*
X2330511Y-6805931D02*
X2340035Y-6824979D01*
X2340035Y-6824979D02*
X2349559Y-6863074D01*
X2349559Y-6863074D02*
X2349559Y-6910693D01*
X2349559Y-6910693D02*
X2340035Y-6948788D01*
X2340035Y-6948788D02*
X2330511Y-6967836D01*
X2330511Y-6967836D02*
X2320987Y-6977360D01*
X2320987Y-6977360D02*
X2301940Y-6986884D01*
X2301940Y-6986884D02*
X2282892Y-6986884D01*
X2282892Y-6986884D02*
X2263844Y-6977360D01*
X2263844Y-6977360D02*
X2254321Y-6967836D01*
X2254321Y-6967836D02*
X2244797Y-6948788D01*
X2244797Y-6948788D02*
X2235273Y-6910693D01*
X2235273Y-6910693D02*
X2235273Y-6863074D01*
X2235273Y-6863074D02*
X2244797Y-6824979D01*
X2244797Y-6824979D02*
X2254321Y-6805931D01*
X2254321Y-6805931D02*
X2263844Y-6796408D01*
X2263844Y-6796408D02*
X2282892Y-6786884D01*
X2435273Y-6967836D02*
X2444797Y-6977360D01*
X2444797Y-6977360D02*
X2435273Y-6986884D01*
X2435273Y-6986884D02*
X2425749Y-6977360D01*
X2425749Y-6977360D02*
X2435273Y-6967836D01*
X2435273Y-6967836D02*
X2435273Y-6986884D01*
X2540035Y-6986884D02*
X2578130Y-6986884D01*
X2578130Y-6986884D02*
X2597178Y-6977360D01*
X2597178Y-6977360D02*
X2606702Y-6967836D01*
X2606702Y-6967836D02*
X2625749Y-6939265D01*
X2625749Y-6939265D02*
X2635273Y-6901169D01*
X2635273Y-6901169D02*
X2635273Y-6824979D01*
X2635273Y-6824979D02*
X2625749Y-6805931D01*
X2625749Y-6805931D02*
X2616225Y-6796408D01*
X2616225Y-6796408D02*
X2597178Y-6786884D01*
X2597178Y-6786884D02*
X2559083Y-6786884D01*
X2559083Y-6786884D02*
X2540035Y-6796408D01*
X2540035Y-6796408D02*
X2530511Y-6805931D01*
X2530511Y-6805931D02*
X2520987Y-6824979D01*
X2520987Y-6824979D02*
X2520987Y-6872598D01*
X2520987Y-6872598D02*
X2530511Y-6891646D01*
X2530511Y-6891646D02*
X2540035Y-6901169D01*
X2540035Y-6901169D02*
X2559083Y-6910693D01*
X2559083Y-6910693D02*
X2597178Y-6910693D01*
X2597178Y-6910693D02*
X2616225Y-6901169D01*
X2616225Y-6901169D02*
X2625749Y-6891646D01*
X2625749Y-6891646D02*
X2635273Y-6872598D01*
X2759083Y-6786884D02*
X2778130Y-6786884D01*
X2778130Y-6786884D02*
X2797178Y-6796408D01*
X2797178Y-6796408D02*
X2806702Y-6805931D01*
X2806702Y-6805931D02*
X2816225Y-6824979D01*
X2816225Y-6824979D02*
X2825749Y-6863074D01*
X2825749Y-6863074D02*
X2825749Y-6910693D01*
X2825749Y-6910693D02*
X2816225Y-6948788D01*
X2816225Y-6948788D02*
X2806702Y-6967836D01*
X2806702Y-6967836D02*
X2797178Y-6977360D01*
X2797178Y-6977360D02*
X2778130Y-6986884D01*
X2778130Y-6986884D02*
X2759083Y-6986884D01*
X2759083Y-6986884D02*
X2740035Y-6977360D01*
X2740035Y-6977360D02*
X2730511Y-6967836D01*
X2730511Y-6967836D02*
X2720987Y-6948788D01*
X2720987Y-6948788D02*
X2711464Y-6910693D01*
X2711464Y-6910693D02*
X2711464Y-6863074D01*
X2711464Y-6863074D02*
X2720987Y-6824979D01*
X2720987Y-6824979D02*
X2730511Y-6805931D01*
X2730511Y-6805931D02*
X2740035Y-6796408D01*
X2740035Y-6796408D02*
X2759083Y-6786884D01*
X2949559Y-6786884D02*
X2968606Y-6786884D01*
X2968606Y-6786884D02*
X2987654Y-6796408D01*
X2987654Y-6796408D02*
X2997178Y-6805931D01*
X2997178Y-6805931D02*
X3006702Y-6824979D01*
X3006702Y-6824979D02*
X3016225Y-6863074D01*
X3016225Y-6863074D02*
X3016225Y-6910693D01*
X3016225Y-6910693D02*
X3006702Y-6948788D01*
X3006702Y-6948788D02*
X2997178Y-6967836D01*
X2997178Y-6967836D02*
X2987654Y-6977360D01*
X2987654Y-6977360D02*
X2968606Y-6986884D01*
X2968606Y-6986884D02*
X2949559Y-6986884D01*
X2949559Y-6986884D02*
X2930511Y-6977360D01*
X2930511Y-6977360D02*
X2920987Y-6967836D01*
X2920987Y-6967836D02*
X2911463Y-6948788D01*
X2911463Y-6948788D02*
X2901940Y-6910693D01*
X2901940Y-6910693D02*
X2901940Y-6863074D01*
X2901940Y-6863074D02*
X2911463Y-6824979D01*
X2911463Y-6824979D02*
X2920987Y-6805931D01*
X2920987Y-6805931D02*
X2930511Y-6796408D01*
X2930511Y-6796408D02*
X2949559Y-6786884D01*
X3101940Y-6986884D02*
X3101940Y-6853550D01*
X3101940Y-6872598D02*
X3111463Y-6863074D01*
X3111463Y-6863074D02*
X3130511Y-6853550D01*
X3130511Y-6853550D02*
X3159083Y-6853550D01*
X3159083Y-6853550D02*
X3178130Y-6863074D01*
X3178130Y-6863074D02*
X3187654Y-6882122D01*
X3187654Y-6882122D02*
X3187654Y-6986884D01*
X3187654Y-6882122D02*
X3197178Y-6863074D01*
X3197178Y-6863074D02*
X3216225Y-6853550D01*
X3216225Y-6853550D02*
X3244797Y-6853550D01*
X3244797Y-6853550D02*
X3263844Y-6863074D01*
X3263844Y-6863074D02*
X3273368Y-6882122D01*
X3273368Y-6882122D02*
X3273368Y-6986884D01*
X3368606Y-6986884D02*
X3368606Y-6853550D01*
X3368606Y-6872598D02*
X3378130Y-6863074D01*
X3378130Y-6863074D02*
X3397178Y-6853550D01*
X3397178Y-6853550D02*
X3425749Y-6853550D01*
X3425749Y-6853550D02*
X3444797Y-6863074D01*
X3444797Y-6863074D02*
X3454321Y-6882122D01*
X3454321Y-6882122D02*
X3454321Y-6986884D01*
X3454321Y-6882122D02*
X3463844Y-6863074D01*
X3463844Y-6863074D02*
X3482892Y-6853550D01*
X3482892Y-6853550D02*
X3511463Y-6853550D01*
X3511463Y-6853550D02*
X3530511Y-6863074D01*
X3530511Y-6863074D02*
X3540035Y-6882122D01*
X3540035Y-6882122D02*
X3540035Y-6986884D01*
X3930511Y-6777360D02*
X3759083Y-7034503D01*
X4187654Y-6786884D02*
X4206702Y-6786884D01*
X4206702Y-6786884D02*
X4225749Y-6796408D01*
X4225749Y-6796408D02*
X4235273Y-6805931D01*
X4235273Y-6805931D02*
X4244797Y-6824979D01*
X4244797Y-6824979D02*
X4254321Y-6863074D01*
X4254321Y-6863074D02*
X4254321Y-6910693D01*
X4254321Y-6910693D02*
X4244797Y-6948788D01*
X4244797Y-6948788D02*
X4235273Y-6967836D01*
X4235273Y-6967836D02*
X4225749Y-6977360D01*
X4225749Y-6977360D02*
X4206702Y-6986884D01*
X4206702Y-6986884D02*
X4187654Y-6986884D01*
X4187654Y-6986884D02*
X4168606Y-6977360D01*
X4168606Y-6977360D02*
X4159083Y-6967836D01*
X4159083Y-6967836D02*
X4149559Y-6948788D01*
X4149559Y-6948788D02*
X4140035Y-6910693D01*
X4140035Y-6910693D02*
X4140035Y-6863074D01*
X4140035Y-6863074D02*
X4149559Y-6824979D01*
X4149559Y-6824979D02*
X4159083Y-6805931D01*
X4159083Y-6805931D02*
X4168606Y-6796408D01*
X4168606Y-6796408D02*
X4187654Y-6786884D01*
X4340035Y-6967836D02*
X4349559Y-6977360D01*
X4349559Y-6977360D02*
X4340035Y-6986884D01*
X4340035Y-6986884D02*
X4330511Y-6977360D01*
X4330511Y-6977360D02*
X4340035Y-6967836D01*
X4340035Y-6967836D02*
X4340035Y-6986884D01*
X4473368Y-6786884D02*
X4492416Y-6786884D01*
X4492416Y-6786884D02*
X4511464Y-6796408D01*
X4511464Y-6796408D02*
X4520988Y-6805931D01*
X4520988Y-6805931D02*
X4530511Y-6824979D01*
X4530511Y-6824979D02*
X4540035Y-6863074D01*
X4540035Y-6863074D02*
X4540035Y-6910693D01*
X4540035Y-6910693D02*
X4530511Y-6948788D01*
X4530511Y-6948788D02*
X4520988Y-6967836D01*
X4520988Y-6967836D02*
X4511464Y-6977360D01*
X4511464Y-6977360D02*
X4492416Y-6986884D01*
X4492416Y-6986884D02*
X4473368Y-6986884D01*
X4473368Y-6986884D02*
X4454321Y-6977360D01*
X4454321Y-6977360D02*
X4444797Y-6967836D01*
X4444797Y-6967836D02*
X4435273Y-6948788D01*
X4435273Y-6948788D02*
X4425749Y-6910693D01*
X4425749Y-6910693D02*
X4425749Y-6863074D01*
X4425749Y-6863074D02*
X4435273Y-6824979D01*
X4435273Y-6824979D02*
X4444797Y-6805931D01*
X4444797Y-6805931D02*
X4454321Y-6796408D01*
X4454321Y-6796408D02*
X4473368Y-6786884D01*
X4606702Y-6786884D02*
X4730511Y-6786884D01*
X4730511Y-6786884D02*
X4663845Y-6863074D01*
X4663845Y-6863074D02*
X4692416Y-6863074D01*
X4692416Y-6863074D02*
X4711464Y-6872598D01*
X4711464Y-6872598D02*
X4720988Y-6882122D01*
X4720988Y-6882122D02*
X4730511Y-6901169D01*
X4730511Y-6901169D02*
X4730511Y-6948788D01*
X4730511Y-6948788D02*
X4720988Y-6967836D01*
X4720988Y-6967836D02*
X4711464Y-6977360D01*
X4711464Y-6977360D02*
X4692416Y-6986884D01*
X4692416Y-6986884D02*
X4635273Y-6986884D01*
X4635273Y-6986884D02*
X4616226Y-6977360D01*
X4616226Y-6977360D02*
X4606702Y-6967836D01*
X4911464Y-6786884D02*
X4816226Y-6786884D01*
X4816226Y-6786884D02*
X4806702Y-6882122D01*
X4806702Y-6882122D02*
X4816226Y-6872598D01*
X4816226Y-6872598D02*
X4835273Y-6863074D01*
X4835273Y-6863074D02*
X4882892Y-6863074D01*
X4882892Y-6863074D02*
X4901940Y-6872598D01*
X4901940Y-6872598D02*
X4911464Y-6882122D01*
X4911464Y-6882122D02*
X4920988Y-6901169D01*
X4920988Y-6901169D02*
X4920988Y-6948788D01*
X4920988Y-6948788D02*
X4911464Y-6967836D01*
X4911464Y-6967836D02*
X4901940Y-6977360D01*
X4901940Y-6977360D02*
X4882892Y-6986884D01*
X4882892Y-6986884D02*
X4835273Y-6986884D01*
X4835273Y-6986884D02*
X4816226Y-6977360D01*
X4816226Y-6977360D02*
X4806702Y-6967836D01*
X5092416Y-6853550D02*
X5092416Y-6986884D01*
X5044797Y-6777360D02*
X4997178Y-6920217D01*
X4997178Y-6920217D02*
X5120988Y-6920217D01*
X5187654Y-6786884D02*
X5187654Y-6824979D01*
X5263845Y-6786884D02*
X5263845Y-6824979D01*
X5559083Y-7063074D02*
X5549559Y-7053550D01*
X5549559Y-7053550D02*
X5530511Y-7024979D01*
X5530511Y-7024979D02*
X5520988Y-7005931D01*
X5520988Y-7005931D02*
X5511464Y-6977360D01*
X5511464Y-6977360D02*
X5501940Y-6929741D01*
X5501940Y-6929741D02*
X5501940Y-6891646D01*
X5501940Y-6891646D02*
X5511464Y-6844027D01*
X5511464Y-6844027D02*
X5520988Y-6815455D01*
X5520988Y-6815455D02*
X5530511Y-6796408D01*
X5530511Y-6796408D02*
X5549559Y-6767836D01*
X5549559Y-6767836D02*
X5559083Y-6758312D01*
X5625749Y-6805931D02*
X5635273Y-6796408D01*
X5635273Y-6796408D02*
X5654321Y-6786884D01*
X5654321Y-6786884D02*
X5701940Y-6786884D01*
X5701940Y-6786884D02*
X5720988Y-6796408D01*
X5720988Y-6796408D02*
X5730511Y-6805931D01*
X5730511Y-6805931D02*
X5740035Y-6824979D01*
X5740035Y-6824979D02*
X5740035Y-6844027D01*
X5740035Y-6844027D02*
X5730511Y-6872598D01*
X5730511Y-6872598D02*
X5616226Y-6986884D01*
X5616226Y-6986884D02*
X5740035Y-6986884D01*
X5978130Y-6986884D02*
X5978130Y-6786884D01*
X6063845Y-6986884D02*
X6063845Y-6882122D01*
X6063845Y-6882122D02*
X6054321Y-6863074D01*
X6054321Y-6863074D02*
X6035273Y-6853550D01*
X6035273Y-6853550D02*
X6006702Y-6853550D01*
X6006702Y-6853550D02*
X5987654Y-6863074D01*
X5987654Y-6863074D02*
X5978130Y-6872598D01*
X6187654Y-6986884D02*
X6168607Y-6977360D01*
X6168607Y-6977360D02*
X6159083Y-6967836D01*
X6159083Y-6967836D02*
X6149559Y-6948788D01*
X6149559Y-6948788D02*
X6149559Y-6891646D01*
X6149559Y-6891646D02*
X6159083Y-6872598D01*
X6159083Y-6872598D02*
X6168607Y-6863074D01*
X6168607Y-6863074D02*
X6187654Y-6853550D01*
X6187654Y-6853550D02*
X6216226Y-6853550D01*
X6216226Y-6853550D02*
X6235273Y-6863074D01*
X6235273Y-6863074D02*
X6244797Y-6872598D01*
X6244797Y-6872598D02*
X6254321Y-6891646D01*
X6254321Y-6891646D02*
X6254321Y-6948788D01*
X6254321Y-6948788D02*
X6244797Y-6967836D01*
X6244797Y-6967836D02*
X6235273Y-6977360D01*
X6235273Y-6977360D02*
X6216226Y-6986884D01*
X6216226Y-6986884D02*
X6187654Y-6986884D01*
X6368607Y-6986884D02*
X6349559Y-6977360D01*
X6349559Y-6977360D02*
X6340035Y-6958312D01*
X6340035Y-6958312D02*
X6340035Y-6786884D01*
X6520988Y-6977360D02*
X6501940Y-6986884D01*
X6501940Y-6986884D02*
X6463845Y-6986884D01*
X6463845Y-6986884D02*
X6444797Y-6977360D01*
X6444797Y-6977360D02*
X6435273Y-6958312D01*
X6435273Y-6958312D02*
X6435273Y-6882122D01*
X6435273Y-6882122D02*
X6444797Y-6863074D01*
X6444797Y-6863074D02*
X6463845Y-6853550D01*
X6463845Y-6853550D02*
X6501940Y-6853550D01*
X6501940Y-6853550D02*
X6520988Y-6863074D01*
X6520988Y-6863074D02*
X6530511Y-6882122D01*
X6530511Y-6882122D02*
X6530511Y-6901169D01*
X6530511Y-6901169D02*
X6435273Y-6920217D01*
X6606702Y-6977360D02*
X6625750Y-6986884D01*
X6625750Y-6986884D02*
X6663845Y-6986884D01*
X6663845Y-6986884D02*
X6682892Y-6977360D01*
X6682892Y-6977360D02*
X6692416Y-6958312D01*
X6692416Y-6958312D02*
X6692416Y-6948788D01*
X6692416Y-6948788D02*
X6682892Y-6929741D01*
X6682892Y-6929741D02*
X6663845Y-6920217D01*
X6663845Y-6920217D02*
X6635273Y-6920217D01*
X6635273Y-6920217D02*
X6616226Y-6910693D01*
X6616226Y-6910693D02*
X6606702Y-6891646D01*
X6606702Y-6891646D02*
X6606702Y-6882122D01*
X6606702Y-6882122D02*
X6616226Y-6863074D01*
X6616226Y-6863074D02*
X6635273Y-6853550D01*
X6635273Y-6853550D02*
X6663845Y-6853550D01*
X6663845Y-6853550D02*
X6682892Y-6863074D01*
X6759083Y-7063074D02*
X6768607Y-7053550D01*
X6768607Y-7053550D02*
X6787654Y-7024979D01*
X6787654Y-7024979D02*
X6797178Y-7005931D01*
X6797178Y-7005931D02*
X6806702Y-6977360D01*
X6806702Y-6977360D02*
X6816226Y-6929741D01*
X6816226Y-6929741D02*
X6816226Y-6891646D01*
X6816226Y-6891646D02*
X6806702Y-6844027D01*
X6806702Y-6844027D02*
X6797178Y-6815455D01*
X6797178Y-6815455D02*
X6787654Y-6796408D01*
X6787654Y-6796408D02*
X6768607Y-6767836D01*
X6768607Y-6767836D02*
X6759083Y-6758312D01*
D10*
X1934020Y-7109400D02*
X1934020Y-7209400D01*
X1884020Y-7159400D02*
X1984020Y-7159400D01*
D11*
X2349559Y-7250884D02*
X2235273Y-7250884D01*
X2292416Y-7250884D02*
X2292416Y-7050884D01*
X2292416Y-7050884D02*
X2273368Y-7079455D01*
X2273368Y-7079455D02*
X2254321Y-7098503D01*
X2254321Y-7098503D02*
X2235273Y-7108027D01*
X2435273Y-7231836D02*
X2444797Y-7241360D01*
X2444797Y-7241360D02*
X2435273Y-7250884D01*
X2435273Y-7250884D02*
X2425749Y-7241360D01*
X2425749Y-7241360D02*
X2435273Y-7231836D01*
X2435273Y-7231836D02*
X2435273Y-7250884D01*
X2568606Y-7050884D02*
X2587654Y-7050884D01*
X2587654Y-7050884D02*
X2606702Y-7060408D01*
X2606702Y-7060408D02*
X2616225Y-7069931D01*
X2616225Y-7069931D02*
X2625749Y-7088979D01*
X2625749Y-7088979D02*
X2635273Y-7127074D01*
X2635273Y-7127074D02*
X2635273Y-7174693D01*
X2635273Y-7174693D02*
X2625749Y-7212788D01*
X2625749Y-7212788D02*
X2616225Y-7231836D01*
X2616225Y-7231836D02*
X2606702Y-7241360D01*
X2606702Y-7241360D02*
X2587654Y-7250884D01*
X2587654Y-7250884D02*
X2568606Y-7250884D01*
X2568606Y-7250884D02*
X2549559Y-7241360D01*
X2549559Y-7241360D02*
X2540035Y-7231836D01*
X2540035Y-7231836D02*
X2530511Y-7212788D01*
X2530511Y-7212788D02*
X2520987Y-7174693D01*
X2520987Y-7174693D02*
X2520987Y-7127074D01*
X2520987Y-7127074D02*
X2530511Y-7088979D01*
X2530511Y-7088979D02*
X2540035Y-7069931D01*
X2540035Y-7069931D02*
X2549559Y-7060408D01*
X2549559Y-7060408D02*
X2568606Y-7050884D01*
X2759083Y-7050884D02*
X2778130Y-7050884D01*
X2778130Y-7050884D02*
X2797178Y-7060408D01*
X2797178Y-7060408D02*
X2806702Y-7069931D01*
X2806702Y-7069931D02*
X2816225Y-7088979D01*
X2816225Y-7088979D02*
X2825749Y-7127074D01*
X2825749Y-7127074D02*
X2825749Y-7174693D01*
X2825749Y-7174693D02*
X2816225Y-7212788D01*
X2816225Y-7212788D02*
X2806702Y-7231836D01*
X2806702Y-7231836D02*
X2797178Y-7241360D01*
X2797178Y-7241360D02*
X2778130Y-7250884D01*
X2778130Y-7250884D02*
X2759083Y-7250884D01*
X2759083Y-7250884D02*
X2740035Y-7241360D01*
X2740035Y-7241360D02*
X2730511Y-7231836D01*
X2730511Y-7231836D02*
X2720987Y-7212788D01*
X2720987Y-7212788D02*
X2711464Y-7174693D01*
X2711464Y-7174693D02*
X2711464Y-7127074D01*
X2711464Y-7127074D02*
X2720987Y-7088979D01*
X2720987Y-7088979D02*
X2730511Y-7069931D01*
X2730511Y-7069931D02*
X2740035Y-7060408D01*
X2740035Y-7060408D02*
X2759083Y-7050884D01*
X2949559Y-7050884D02*
X2968606Y-7050884D01*
X2968606Y-7050884D02*
X2987654Y-7060408D01*
X2987654Y-7060408D02*
X2997178Y-7069931D01*
X2997178Y-7069931D02*
X3006702Y-7088979D01*
X3006702Y-7088979D02*
X3016225Y-7127074D01*
X3016225Y-7127074D02*
X3016225Y-7174693D01*
X3016225Y-7174693D02*
X3006702Y-7212788D01*
X3006702Y-7212788D02*
X2997178Y-7231836D01*
X2997178Y-7231836D02*
X2987654Y-7241360D01*
X2987654Y-7241360D02*
X2968606Y-7250884D01*
X2968606Y-7250884D02*
X2949559Y-7250884D01*
X2949559Y-7250884D02*
X2930511Y-7241360D01*
X2930511Y-7241360D02*
X2920987Y-7231836D01*
X2920987Y-7231836D02*
X2911463Y-7212788D01*
X2911463Y-7212788D02*
X2901940Y-7174693D01*
X2901940Y-7174693D02*
X2901940Y-7127074D01*
X2901940Y-7127074D02*
X2911463Y-7088979D01*
X2911463Y-7088979D02*
X2920987Y-7069931D01*
X2920987Y-7069931D02*
X2930511Y-7060408D01*
X2930511Y-7060408D02*
X2949559Y-7050884D01*
X3101940Y-7250884D02*
X3101940Y-7117550D01*
X3101940Y-7136598D02*
X3111463Y-7127074D01*
X3111463Y-7127074D02*
X3130511Y-7117550D01*
X3130511Y-7117550D02*
X3159083Y-7117550D01*
X3159083Y-7117550D02*
X3178130Y-7127074D01*
X3178130Y-7127074D02*
X3187654Y-7146122D01*
X3187654Y-7146122D02*
X3187654Y-7250884D01*
X3187654Y-7146122D02*
X3197178Y-7127074D01*
X3197178Y-7127074D02*
X3216225Y-7117550D01*
X3216225Y-7117550D02*
X3244797Y-7117550D01*
X3244797Y-7117550D02*
X3263844Y-7127074D01*
X3263844Y-7127074D02*
X3273368Y-7146122D01*
X3273368Y-7146122D02*
X3273368Y-7250884D01*
X3368606Y-7250884D02*
X3368606Y-7117550D01*
X3368606Y-7136598D02*
X3378130Y-7127074D01*
X3378130Y-7127074D02*
X3397178Y-7117550D01*
X3397178Y-7117550D02*
X3425749Y-7117550D01*
X3425749Y-7117550D02*
X3444797Y-7127074D01*
X3444797Y-7127074D02*
X3454321Y-7146122D01*
X3454321Y-7146122D02*
X3454321Y-7250884D01*
X3454321Y-7146122D02*
X3463844Y-7127074D01*
X3463844Y-7127074D02*
X3482892Y-7117550D01*
X3482892Y-7117550D02*
X3511463Y-7117550D01*
X3511463Y-7117550D02*
X3530511Y-7127074D01*
X3530511Y-7127074D02*
X3540035Y-7146122D01*
X3540035Y-7146122D02*
X3540035Y-7250884D01*
X3930511Y-7041360D02*
X3759083Y-7298503D01*
X4187654Y-7050884D02*
X4206702Y-7050884D01*
X4206702Y-7050884D02*
X4225749Y-7060408D01*
X4225749Y-7060408D02*
X4235273Y-7069931D01*
X4235273Y-7069931D02*
X4244797Y-7088979D01*
X4244797Y-7088979D02*
X4254321Y-7127074D01*
X4254321Y-7127074D02*
X4254321Y-7174693D01*
X4254321Y-7174693D02*
X4244797Y-7212788D01*
X4244797Y-7212788D02*
X4235273Y-7231836D01*
X4235273Y-7231836D02*
X4225749Y-7241360D01*
X4225749Y-7241360D02*
X4206702Y-7250884D01*
X4206702Y-7250884D02*
X4187654Y-7250884D01*
X4187654Y-7250884D02*
X4168606Y-7241360D01*
X4168606Y-7241360D02*
X4159083Y-7231836D01*
X4159083Y-7231836D02*
X4149559Y-7212788D01*
X4149559Y-7212788D02*
X4140035Y-7174693D01*
X4140035Y-7174693D02*
X4140035Y-7127074D01*
X4140035Y-7127074D02*
X4149559Y-7088979D01*
X4149559Y-7088979D02*
X4159083Y-7069931D01*
X4159083Y-7069931D02*
X4168606Y-7060408D01*
X4168606Y-7060408D02*
X4187654Y-7050884D01*
X4340035Y-7231836D02*
X4349559Y-7241360D01*
X4349559Y-7241360D02*
X4340035Y-7250884D01*
X4340035Y-7250884D02*
X4330511Y-7241360D01*
X4330511Y-7241360D02*
X4340035Y-7231836D01*
X4340035Y-7231836D02*
X4340035Y-7250884D01*
X4473368Y-7050884D02*
X4492416Y-7050884D01*
X4492416Y-7050884D02*
X4511464Y-7060408D01*
X4511464Y-7060408D02*
X4520988Y-7069931D01*
X4520988Y-7069931D02*
X4530511Y-7088979D01*
X4530511Y-7088979D02*
X4540035Y-7127074D01*
X4540035Y-7127074D02*
X4540035Y-7174693D01*
X4540035Y-7174693D02*
X4530511Y-7212788D01*
X4530511Y-7212788D02*
X4520988Y-7231836D01*
X4520988Y-7231836D02*
X4511464Y-7241360D01*
X4511464Y-7241360D02*
X4492416Y-7250884D01*
X4492416Y-7250884D02*
X4473368Y-7250884D01*
X4473368Y-7250884D02*
X4454321Y-7241360D01*
X4454321Y-7241360D02*
X4444797Y-7231836D01*
X4444797Y-7231836D02*
X4435273Y-7212788D01*
X4435273Y-7212788D02*
X4425749Y-7174693D01*
X4425749Y-7174693D02*
X4425749Y-7127074D01*
X4425749Y-7127074D02*
X4435273Y-7088979D01*
X4435273Y-7088979D02*
X4444797Y-7069931D01*
X4444797Y-7069931D02*
X4454321Y-7060408D01*
X4454321Y-7060408D02*
X4473368Y-7050884D01*
X4606702Y-7050884D02*
X4730511Y-7050884D01*
X4730511Y-7050884D02*
X4663845Y-7127074D01*
X4663845Y-7127074D02*
X4692416Y-7127074D01*
X4692416Y-7127074D02*
X4711464Y-7136598D01*
X4711464Y-7136598D02*
X4720988Y-7146122D01*
X4720988Y-7146122D02*
X4730511Y-7165169D01*
X4730511Y-7165169D02*
X4730511Y-7212788D01*
X4730511Y-7212788D02*
X4720988Y-7231836D01*
X4720988Y-7231836D02*
X4711464Y-7241360D01*
X4711464Y-7241360D02*
X4692416Y-7250884D01*
X4692416Y-7250884D02*
X4635273Y-7250884D01*
X4635273Y-7250884D02*
X4616226Y-7241360D01*
X4616226Y-7241360D02*
X4606702Y-7231836D01*
X4825749Y-7250884D02*
X4863845Y-7250884D01*
X4863845Y-7250884D02*
X4882892Y-7241360D01*
X4882892Y-7241360D02*
X4892416Y-7231836D01*
X4892416Y-7231836D02*
X4911464Y-7203265D01*
X4911464Y-7203265D02*
X4920988Y-7165169D01*
X4920988Y-7165169D02*
X4920988Y-7088979D01*
X4920988Y-7088979D02*
X4911464Y-7069931D01*
X4911464Y-7069931D02*
X4901940Y-7060408D01*
X4901940Y-7060408D02*
X4882892Y-7050884D01*
X4882892Y-7050884D02*
X4844797Y-7050884D01*
X4844797Y-7050884D02*
X4825749Y-7060408D01*
X4825749Y-7060408D02*
X4816226Y-7069931D01*
X4816226Y-7069931D02*
X4806702Y-7088979D01*
X4806702Y-7088979D02*
X4806702Y-7136598D01*
X4806702Y-7136598D02*
X4816226Y-7155646D01*
X4816226Y-7155646D02*
X4825749Y-7165169D01*
X4825749Y-7165169D02*
X4844797Y-7174693D01*
X4844797Y-7174693D02*
X4882892Y-7174693D01*
X4882892Y-7174693D02*
X4901940Y-7165169D01*
X4901940Y-7165169D02*
X4911464Y-7155646D01*
X4911464Y-7155646D02*
X4920988Y-7136598D01*
X5092416Y-7117550D02*
X5092416Y-7250884D01*
X5044797Y-7041360D02*
X4997178Y-7184217D01*
X4997178Y-7184217D02*
X5120988Y-7184217D01*
X5187654Y-7050884D02*
X5187654Y-7088979D01*
X5263845Y-7050884D02*
X5263845Y-7088979D01*
X5559083Y-7327074D02*
X5549559Y-7317550D01*
X5549559Y-7317550D02*
X5530511Y-7288979D01*
X5530511Y-7288979D02*
X5520988Y-7269931D01*
X5520988Y-7269931D02*
X5511464Y-7241360D01*
X5511464Y-7241360D02*
X5501940Y-7193741D01*
X5501940Y-7193741D02*
X5501940Y-7155646D01*
X5501940Y-7155646D02*
X5511464Y-7108027D01*
X5511464Y-7108027D02*
X5520988Y-7079455D01*
X5520988Y-7079455D02*
X5530511Y-7060408D01*
X5530511Y-7060408D02*
X5549559Y-7031836D01*
X5549559Y-7031836D02*
X5559083Y-7022312D01*
X5740035Y-7250884D02*
X5625749Y-7250884D01*
X5682892Y-7250884D02*
X5682892Y-7050884D01*
X5682892Y-7050884D02*
X5663845Y-7079455D01*
X5663845Y-7079455D02*
X5644797Y-7098503D01*
X5644797Y-7098503D02*
X5625749Y-7108027D01*
X5911464Y-7050884D02*
X5873368Y-7050884D01*
X5873368Y-7050884D02*
X5854321Y-7060408D01*
X5854321Y-7060408D02*
X5844797Y-7069931D01*
X5844797Y-7069931D02*
X5825749Y-7098503D01*
X5825749Y-7098503D02*
X5816226Y-7136598D01*
X5816226Y-7136598D02*
X5816226Y-7212788D01*
X5816226Y-7212788D02*
X5825749Y-7231836D01*
X5825749Y-7231836D02*
X5835273Y-7241360D01*
X5835273Y-7241360D02*
X5854321Y-7250884D01*
X5854321Y-7250884D02*
X5892416Y-7250884D01*
X5892416Y-7250884D02*
X5911464Y-7241360D01*
X5911464Y-7241360D02*
X5920988Y-7231836D01*
X5920988Y-7231836D02*
X5930511Y-7212788D01*
X5930511Y-7212788D02*
X5930511Y-7165169D01*
X5930511Y-7165169D02*
X5920988Y-7146122D01*
X5920988Y-7146122D02*
X5911464Y-7136598D01*
X5911464Y-7136598D02*
X5892416Y-7127074D01*
X5892416Y-7127074D02*
X5854321Y-7127074D01*
X5854321Y-7127074D02*
X5835273Y-7136598D01*
X5835273Y-7136598D02*
X5825749Y-7146122D01*
X5825749Y-7146122D02*
X5816226Y-7165169D01*
X6168607Y-7250884D02*
X6168607Y-7050884D01*
X6254321Y-7250884D02*
X6254321Y-7146122D01*
X6254321Y-7146122D02*
X6244797Y-7127074D01*
X6244797Y-7127074D02*
X6225750Y-7117550D01*
X6225750Y-7117550D02*
X6197178Y-7117550D01*
X6197178Y-7117550D02*
X6178130Y-7127074D01*
X6178130Y-7127074D02*
X6168607Y-7136598D01*
X6378130Y-7250884D02*
X6359083Y-7241360D01*
X6359083Y-7241360D02*
X6349559Y-7231836D01*
X6349559Y-7231836D02*
X6340035Y-7212788D01*
X6340035Y-7212788D02*
X6340035Y-7155646D01*
X6340035Y-7155646D02*
X6349559Y-7136598D01*
X6349559Y-7136598D02*
X6359083Y-7127074D01*
X6359083Y-7127074D02*
X6378130Y-7117550D01*
X6378130Y-7117550D02*
X6406702Y-7117550D01*
X6406702Y-7117550D02*
X6425750Y-7127074D01*
X6425750Y-7127074D02*
X6435273Y-7136598D01*
X6435273Y-7136598D02*
X6444797Y-7155646D01*
X6444797Y-7155646D02*
X6444797Y-7212788D01*
X6444797Y-7212788D02*
X6435273Y-7231836D01*
X6435273Y-7231836D02*
X6425750Y-7241360D01*
X6425750Y-7241360D02*
X6406702Y-7250884D01*
X6406702Y-7250884D02*
X6378130Y-7250884D01*
X6559083Y-7250884D02*
X6540035Y-7241360D01*
X6540035Y-7241360D02*
X6530511Y-7222312D01*
X6530511Y-7222312D02*
X6530511Y-7050884D01*
X6711464Y-7241360D02*
X6692416Y-7250884D01*
X6692416Y-7250884D02*
X6654321Y-7250884D01*
X6654321Y-7250884D02*
X6635273Y-7241360D01*
X6635273Y-7241360D02*
X6625750Y-7222312D01*
X6625750Y-7222312D02*
X6625750Y-7146122D01*
X6625750Y-7146122D02*
X6635273Y-7127074D01*
X6635273Y-7127074D02*
X6654321Y-7117550D01*
X6654321Y-7117550D02*
X6692416Y-7117550D01*
X6692416Y-7117550D02*
X6711464Y-7127074D01*
X6711464Y-7127074D02*
X6720988Y-7146122D01*
X6720988Y-7146122D02*
X6720988Y-7165169D01*
X6720988Y-7165169D02*
X6625750Y-7184217D01*
X6797178Y-7241360D02*
X6816226Y-7250884D01*
X6816226Y-7250884D02*
X6854321Y-7250884D01*
X6854321Y-7250884D02*
X6873369Y-7241360D01*
X6873369Y-7241360D02*
X6882892Y-7222312D01*
X6882892Y-7222312D02*
X6882892Y-7212788D01*
X6882892Y-7212788D02*
X6873369Y-7193741D01*
X6873369Y-7193741D02*
X6854321Y-7184217D01*
X6854321Y-7184217D02*
X6825750Y-7184217D01*
X6825750Y-7184217D02*
X6806702Y-7174693D01*
X6806702Y-7174693D02*
X6797178Y-7155646D01*
X6797178Y-7155646D02*
X6797178Y-7146122D01*
X6797178Y-7146122D02*
X6806702Y-7127074D01*
X6806702Y-7127074D02*
X6825750Y-7117550D01*
X6825750Y-7117550D02*
X6854321Y-7117550D01*
X6854321Y-7117550D02*
X6873369Y-7127074D01*
X6949559Y-7327074D02*
X6959083Y-7317550D01*
X6959083Y-7317550D02*
X6978131Y-7288979D01*
X6978131Y-7288979D02*
X6987654Y-7269931D01*
X6987654Y-7269931D02*
X6997178Y-7241360D01*
X6997178Y-7241360D02*
X7006702Y-7193741D01*
X7006702Y-7193741D02*
X7006702Y-7155646D01*
X7006702Y-7155646D02*
X6997178Y-7108027D01*
X6997178Y-7108027D02*
X6987654Y-7079455D01*
X6987654Y-7079455D02*
X6978131Y-7060408D01*
X6978131Y-7060408D02*
X6959083Y-7031836D01*
X6959083Y-7031836D02*
X6949559Y-7022312D01*
D14*
X1966463Y-7465787D02*
X1966463Y-7381013D01*
X1881689Y-7381013D01*
X1881689Y-7465787D01*
X1966463Y-7465787D01*
D11*
X2349559Y-7514884D02*
X2235273Y-7514884D01*
X2292416Y-7514884D02*
X2292416Y-7314884D01*
X2292416Y-7314884D02*
X2273368Y-7343455D01*
X2273368Y-7343455D02*
X2254321Y-7362503D01*
X2254321Y-7362503D02*
X2235273Y-7372027D01*
X2435273Y-7495836D02*
X2444797Y-7505360D01*
X2444797Y-7505360D02*
X2435273Y-7514884D01*
X2435273Y-7514884D02*
X2425749Y-7505360D01*
X2425749Y-7505360D02*
X2435273Y-7495836D01*
X2435273Y-7495836D02*
X2435273Y-7514884D01*
X2635273Y-7514884D02*
X2520987Y-7514884D01*
X2578130Y-7514884D02*
X2578130Y-7314884D01*
X2578130Y-7314884D02*
X2559083Y-7343455D01*
X2559083Y-7343455D02*
X2540035Y-7362503D01*
X2540035Y-7362503D02*
X2520987Y-7372027D01*
X2730511Y-7514884D02*
X2768606Y-7514884D01*
X2768606Y-7514884D02*
X2787654Y-7505360D01*
X2787654Y-7505360D02*
X2797178Y-7495836D01*
X2797178Y-7495836D02*
X2816225Y-7467265D01*
X2816225Y-7467265D02*
X2825749Y-7429169D01*
X2825749Y-7429169D02*
X2825749Y-7352979D01*
X2825749Y-7352979D02*
X2816225Y-7333931D01*
X2816225Y-7333931D02*
X2806702Y-7324408D01*
X2806702Y-7324408D02*
X2787654Y-7314884D01*
X2787654Y-7314884D02*
X2749559Y-7314884D01*
X2749559Y-7314884D02*
X2730511Y-7324408D01*
X2730511Y-7324408D02*
X2720987Y-7333931D01*
X2720987Y-7333931D02*
X2711464Y-7352979D01*
X2711464Y-7352979D02*
X2711464Y-7400598D01*
X2711464Y-7400598D02*
X2720987Y-7419646D01*
X2720987Y-7419646D02*
X2730511Y-7429169D01*
X2730511Y-7429169D02*
X2749559Y-7438693D01*
X2749559Y-7438693D02*
X2787654Y-7438693D01*
X2787654Y-7438693D02*
X2806702Y-7429169D01*
X2806702Y-7429169D02*
X2816225Y-7419646D01*
X2816225Y-7419646D02*
X2825749Y-7400598D01*
X2920987Y-7514884D02*
X2959082Y-7514884D01*
X2959082Y-7514884D02*
X2978130Y-7505360D01*
X2978130Y-7505360D02*
X2987654Y-7495836D01*
X2987654Y-7495836D02*
X3006702Y-7467265D01*
X3006702Y-7467265D02*
X3016225Y-7429169D01*
X3016225Y-7429169D02*
X3016225Y-7352979D01*
X3016225Y-7352979D02*
X3006702Y-7333931D01*
X3006702Y-7333931D02*
X2997178Y-7324408D01*
X2997178Y-7324408D02*
X2978130Y-7314884D01*
X2978130Y-7314884D02*
X2940035Y-7314884D01*
X2940035Y-7314884D02*
X2920987Y-7324408D01*
X2920987Y-7324408D02*
X2911463Y-7333931D01*
X2911463Y-7333931D02*
X2901940Y-7352979D01*
X2901940Y-7352979D02*
X2901940Y-7400598D01*
X2901940Y-7400598D02*
X2911463Y-7419646D01*
X2911463Y-7419646D02*
X2920987Y-7429169D01*
X2920987Y-7429169D02*
X2940035Y-7438693D01*
X2940035Y-7438693D02*
X2978130Y-7438693D01*
X2978130Y-7438693D02*
X2997178Y-7429169D01*
X2997178Y-7429169D02*
X3006702Y-7419646D01*
X3006702Y-7419646D02*
X3016225Y-7400598D01*
X3101940Y-7514884D02*
X3101940Y-7381550D01*
X3101940Y-7400598D02*
X3111463Y-7391074D01*
X3111463Y-7391074D02*
X3130511Y-7381550D01*
X3130511Y-7381550D02*
X3159083Y-7381550D01*
X3159083Y-7381550D02*
X3178130Y-7391074D01*
X3178130Y-7391074D02*
X3187654Y-7410122D01*
X3187654Y-7410122D02*
X3187654Y-7514884D01*
X3187654Y-7410122D02*
X3197178Y-7391074D01*
X3197178Y-7391074D02*
X3216225Y-7381550D01*
X3216225Y-7381550D02*
X3244797Y-7381550D01*
X3244797Y-7381550D02*
X3263844Y-7391074D01*
X3263844Y-7391074D02*
X3273368Y-7410122D01*
X3273368Y-7410122D02*
X3273368Y-7514884D01*
X3368606Y-7514884D02*
X3368606Y-7381550D01*
X3368606Y-7400598D02*
X3378130Y-7391074D01*
X3378130Y-7391074D02*
X3397178Y-7381550D01*
X3397178Y-7381550D02*
X3425749Y-7381550D01*
X3425749Y-7381550D02*
X3444797Y-7391074D01*
X3444797Y-7391074D02*
X3454321Y-7410122D01*
X3454321Y-7410122D02*
X3454321Y-7514884D01*
X3454321Y-7410122D02*
X3463844Y-7391074D01*
X3463844Y-7391074D02*
X3482892Y-7381550D01*
X3482892Y-7381550D02*
X3511463Y-7381550D01*
X3511463Y-7381550D02*
X3530511Y-7391074D01*
X3530511Y-7391074D02*
X3540035Y-7410122D01*
X3540035Y-7410122D02*
X3540035Y-7514884D01*
X3930511Y-7305360D02*
X3759083Y-7562503D01*
X4187654Y-7314884D02*
X4206702Y-7314884D01*
X4206702Y-7314884D02*
X4225749Y-7324408D01*
X4225749Y-7324408D02*
X4235273Y-7333931D01*
X4235273Y-7333931D02*
X4244797Y-7352979D01*
X4244797Y-7352979D02*
X4254321Y-7391074D01*
X4254321Y-7391074D02*
X4254321Y-7438693D01*
X4254321Y-7438693D02*
X4244797Y-7476788D01*
X4244797Y-7476788D02*
X4235273Y-7495836D01*
X4235273Y-7495836D02*
X4225749Y-7505360D01*
X4225749Y-7505360D02*
X4206702Y-7514884D01*
X4206702Y-7514884D02*
X4187654Y-7514884D01*
X4187654Y-7514884D02*
X4168606Y-7505360D01*
X4168606Y-7505360D02*
X4159083Y-7495836D01*
X4159083Y-7495836D02*
X4149559Y-7476788D01*
X4149559Y-7476788D02*
X4140035Y-7438693D01*
X4140035Y-7438693D02*
X4140035Y-7391074D01*
X4140035Y-7391074D02*
X4149559Y-7352979D01*
X4149559Y-7352979D02*
X4159083Y-7333931D01*
X4159083Y-7333931D02*
X4168606Y-7324408D01*
X4168606Y-7324408D02*
X4187654Y-7314884D01*
X4340035Y-7495836D02*
X4349559Y-7505360D01*
X4349559Y-7505360D02*
X4340035Y-7514884D01*
X4340035Y-7514884D02*
X4330511Y-7505360D01*
X4330511Y-7505360D02*
X4340035Y-7495836D01*
X4340035Y-7495836D02*
X4340035Y-7514884D01*
X4473368Y-7314884D02*
X4492416Y-7314884D01*
X4492416Y-7314884D02*
X4511464Y-7324408D01*
X4511464Y-7324408D02*
X4520988Y-7333931D01*
X4520988Y-7333931D02*
X4530511Y-7352979D01*
X4530511Y-7352979D02*
X4540035Y-7391074D01*
X4540035Y-7391074D02*
X4540035Y-7438693D01*
X4540035Y-7438693D02*
X4530511Y-7476788D01*
X4530511Y-7476788D02*
X4520988Y-7495836D01*
X4520988Y-7495836D02*
X4511464Y-7505360D01*
X4511464Y-7505360D02*
X4492416Y-7514884D01*
X4492416Y-7514884D02*
X4473368Y-7514884D01*
X4473368Y-7514884D02*
X4454321Y-7505360D01*
X4454321Y-7505360D02*
X4444797Y-7495836D01*
X4444797Y-7495836D02*
X4435273Y-7476788D01*
X4435273Y-7476788D02*
X4425749Y-7438693D01*
X4425749Y-7438693D02*
X4425749Y-7391074D01*
X4425749Y-7391074D02*
X4435273Y-7352979D01*
X4435273Y-7352979D02*
X4444797Y-7333931D01*
X4444797Y-7333931D02*
X4454321Y-7324408D01*
X4454321Y-7324408D02*
X4473368Y-7314884D01*
X4711464Y-7381550D02*
X4711464Y-7514884D01*
X4663845Y-7305360D02*
X4616226Y-7448217D01*
X4616226Y-7448217D02*
X4740035Y-7448217D01*
X4797178Y-7314884D02*
X4930511Y-7314884D01*
X4930511Y-7314884D02*
X4844797Y-7514884D01*
X4997178Y-7333931D02*
X5006702Y-7324408D01*
X5006702Y-7324408D02*
X5025749Y-7314884D01*
X5025749Y-7314884D02*
X5073369Y-7314884D01*
X5073369Y-7314884D02*
X5092416Y-7324408D01*
X5092416Y-7324408D02*
X5101940Y-7333931D01*
X5101940Y-7333931D02*
X5111464Y-7352979D01*
X5111464Y-7352979D02*
X5111464Y-7372027D01*
X5111464Y-7372027D02*
X5101940Y-7400598D01*
X5101940Y-7400598D02*
X4987654Y-7514884D01*
X4987654Y-7514884D02*
X5111464Y-7514884D01*
X5187654Y-7314884D02*
X5187654Y-7352979D01*
X5263845Y-7314884D02*
X5263845Y-7352979D01*
X5559083Y-7591074D02*
X5549559Y-7581550D01*
X5549559Y-7581550D02*
X5530511Y-7552979D01*
X5530511Y-7552979D02*
X5520988Y-7533931D01*
X5520988Y-7533931D02*
X5511464Y-7505360D01*
X5511464Y-7505360D02*
X5501940Y-7457741D01*
X5501940Y-7457741D02*
X5501940Y-7419646D01*
X5501940Y-7419646D02*
X5511464Y-7372027D01*
X5511464Y-7372027D02*
X5520988Y-7343455D01*
X5520988Y-7343455D02*
X5530511Y-7324408D01*
X5530511Y-7324408D02*
X5549559Y-7295836D01*
X5549559Y-7295836D02*
X5559083Y-7286312D01*
X5625749Y-7333931D02*
X5635273Y-7324408D01*
X5635273Y-7324408D02*
X5654321Y-7314884D01*
X5654321Y-7314884D02*
X5701940Y-7314884D01*
X5701940Y-7314884D02*
X5720988Y-7324408D01*
X5720988Y-7324408D02*
X5730511Y-7333931D01*
X5730511Y-7333931D02*
X5740035Y-7352979D01*
X5740035Y-7352979D02*
X5740035Y-7372027D01*
X5740035Y-7372027D02*
X5730511Y-7400598D01*
X5730511Y-7400598D02*
X5616226Y-7514884D01*
X5616226Y-7514884D02*
X5740035Y-7514884D01*
X5930511Y-7514884D02*
X5816226Y-7514884D01*
X5873368Y-7514884D02*
X5873368Y-7314884D01*
X5873368Y-7314884D02*
X5854321Y-7343455D01*
X5854321Y-7343455D02*
X5835273Y-7362503D01*
X5835273Y-7362503D02*
X5816226Y-7372027D01*
X6168607Y-7514884D02*
X6168607Y-7314884D01*
X6254321Y-7514884D02*
X6254321Y-7410122D01*
X6254321Y-7410122D02*
X6244797Y-7391074D01*
X6244797Y-7391074D02*
X6225750Y-7381550D01*
X6225750Y-7381550D02*
X6197178Y-7381550D01*
X6197178Y-7381550D02*
X6178130Y-7391074D01*
X6178130Y-7391074D02*
X6168607Y-7400598D01*
X6378130Y-7514884D02*
X6359083Y-7505360D01*
X6359083Y-7505360D02*
X6349559Y-7495836D01*
X6349559Y-7495836D02*
X6340035Y-7476788D01*
X6340035Y-7476788D02*
X6340035Y-7419646D01*
X6340035Y-7419646D02*
X6349559Y-7400598D01*
X6349559Y-7400598D02*
X6359083Y-7391074D01*
X6359083Y-7391074D02*
X6378130Y-7381550D01*
X6378130Y-7381550D02*
X6406702Y-7381550D01*
X6406702Y-7381550D02*
X6425750Y-7391074D01*
X6425750Y-7391074D02*
X6435273Y-7400598D01*
X6435273Y-7400598D02*
X6444797Y-7419646D01*
X6444797Y-7419646D02*
X6444797Y-7476788D01*
X6444797Y-7476788D02*
X6435273Y-7495836D01*
X6435273Y-7495836D02*
X6425750Y-7505360D01*
X6425750Y-7505360D02*
X6406702Y-7514884D01*
X6406702Y-7514884D02*
X6378130Y-7514884D01*
X6559083Y-7514884D02*
X6540035Y-7505360D01*
X6540035Y-7505360D02*
X6530511Y-7486312D01*
X6530511Y-7486312D02*
X6530511Y-7314884D01*
X6711464Y-7505360D02*
X6692416Y-7514884D01*
X6692416Y-7514884D02*
X6654321Y-7514884D01*
X6654321Y-7514884D02*
X6635273Y-7505360D01*
X6635273Y-7505360D02*
X6625750Y-7486312D01*
X6625750Y-7486312D02*
X6625750Y-7410122D01*
X6625750Y-7410122D02*
X6635273Y-7391074D01*
X6635273Y-7391074D02*
X6654321Y-7381550D01*
X6654321Y-7381550D02*
X6692416Y-7381550D01*
X6692416Y-7381550D02*
X6711464Y-7391074D01*
X6711464Y-7391074D02*
X6720988Y-7410122D01*
X6720988Y-7410122D02*
X6720988Y-7429169D01*
X6720988Y-7429169D02*
X6625750Y-7448217D01*
X6797178Y-7505360D02*
X6816226Y-7514884D01*
X6816226Y-7514884D02*
X6854321Y-7514884D01*
X6854321Y-7514884D02*
X6873369Y-7505360D01*
X6873369Y-7505360D02*
X6882892Y-7486312D01*
X6882892Y-7486312D02*
X6882892Y-7476788D01*
X6882892Y-7476788D02*
X6873369Y-7457741D01*
X6873369Y-7457741D02*
X6854321Y-7448217D01*
X6854321Y-7448217D02*
X6825750Y-7448217D01*
X6825750Y-7448217D02*
X6806702Y-7438693D01*
X6806702Y-7438693D02*
X6797178Y-7419646D01*
X6797178Y-7419646D02*
X6797178Y-7410122D01*
X6797178Y-7410122D02*
X6806702Y-7391074D01*
X6806702Y-7391074D02*
X6825750Y-7381550D01*
X6825750Y-7381550D02*
X6854321Y-7381550D01*
X6854321Y-7381550D02*
X6873369Y-7391074D01*
X6949559Y-7591074D02*
X6959083Y-7581550D01*
X6959083Y-7581550D02*
X6978131Y-7552979D01*
X6978131Y-7552979D02*
X6987654Y-7533931D01*
X6987654Y-7533931D02*
X6997178Y-7505360D01*
X6997178Y-7505360D02*
X7006702Y-7457741D01*
X7006702Y-7457741D02*
X7006702Y-7419646D01*
X7006702Y-7419646D02*
X6997178Y-7372027D01*
X6997178Y-7372027D02*
X6987654Y-7343455D01*
X6987654Y-7343455D02*
X6978131Y-7324408D01*
X6978131Y-7324408D02*
X6959083Y-7295836D01*
X6959083Y-7295836D02*
X6949559Y-7286312D01*
M02*
