%TF.GenerationSoftware,KiCad,Pcbnew,7.0.8*%
%TF.CreationDate,2024-02-25T14:43:20-05:00*%
%TF.ProjectId,scart breakout,73636172-7420-4627-9265-616b6f75742e,rev?*%
%TF.SameCoordinates,Original*%
%TF.FileFunction,Copper,L1,Top*%
%TF.FilePolarity,Positive*%
%FSLAX46Y46*%
G04 Gerber Fmt 4.6, Leading zero omitted, Abs format (unit mm)*
G04 Created by KiCad (PCBNEW 7.0.8) date 2024-02-25 14:43:20*
%MOMM*%
%LPD*%
G01*
G04 APERTURE LIST*
G04 Aperture macros list*
%AMRoundRect*
0 Rectangle with rounded corners*
0 $1 Rounding radius*
0 $2 $3 $4 $5 $6 $7 $8 $9 X,Y pos of 4 corners*
0 Add a 4 corners polygon primitive as box body*
4,1,4,$2,$3,$4,$5,$6,$7,$8,$9,$2,$3,0*
0 Add four circle primitives for the rounded corners*
1,1,$1+$1,$2,$3*
1,1,$1+$1,$4,$5*
1,1,$1+$1,$6,$7*
1,1,$1+$1,$8,$9*
0 Add four rect primitives between the rounded corners*
20,1,$1+$1,$2,$3,$4,$5,0*
20,1,$1+$1,$4,$5,$6,$7,0*
20,1,$1+$1,$6,$7,$8,$9,0*
20,1,$1+$1,$8,$9,$2,$3,0*%
G04 Aperture macros list end*
%TA.AperFunction,ComponentPad*%
%ADD10C,1.998980*%
%TD*%
%TA.AperFunction,SMDPad,CuDef*%
%ADD11RoundRect,0.200000X-0.275000X0.200000X-0.275000X-0.200000X0.275000X-0.200000X0.275000X0.200000X0*%
%TD*%
%TA.AperFunction,ComponentPad*%
%ADD12R,1.700000X1.700000*%
%TD*%
%TA.AperFunction,ComponentPad*%
%ADD13O,1.700000X1.700000*%
%TD*%
%TA.AperFunction,SMDPad,CuDef*%
%ADD14RoundRect,0.150000X-0.587500X-0.150000X0.587500X-0.150000X0.587500X0.150000X-0.587500X0.150000X0*%
%TD*%
%TA.AperFunction,ComponentPad*%
%ADD15R,1.800000X1.800000*%
%TD*%
%TA.AperFunction,ComponentPad*%
%ADD16C,1.800000*%
%TD*%
%TA.AperFunction,SMDPad,CuDef*%
%ADD17RoundRect,0.200000X0.275000X-0.200000X0.275000X0.200000X-0.275000X0.200000X-0.275000X-0.200000X0*%
%TD*%
%TA.AperFunction,ViaPad*%
%ADD18C,0.800000*%
%TD*%
%TA.AperFunction,Conductor*%
%ADD19C,0.250000*%
%TD*%
G04 APERTURE END LIST*
D10*
%TO.P,J1,1,P1*%
%TO.N,unconnected-(J1-P1-Pad1)*%
X48818800Y-54838600D03*
%TO.P,J1,2,P2*%
%TO.N,RIGHT*%
X43738800Y-52933600D03*
%TO.P,J1,3,P3*%
%TO.N,unconnected-(J1-P3-Pad3)*%
X48818800Y-51028600D03*
%TO.P,J1,4,P4*%
%TO.N,GND*%
X43738800Y-49123600D03*
%TO.P,J1,5,P5*%
X48818800Y-47218600D03*
%TO.P,J1,6,P6*%
%TO.N,LEFT*%
X43738800Y-45313600D03*
%TO.P,J1,7,P7*%
%TO.N,BLUE_IN*%
X48818800Y-43408600D03*
%TO.P,J1,8,P8*%
%TO.N,unconnected-(J1-P8-Pad8)*%
X43738800Y-41503600D03*
%TO.P,J1,9,P9*%
%TO.N,GND*%
X48818800Y-39598600D03*
%TO.P,J1,10,P10*%
%TO.N,unconnected-(J1-P10-Pad10)*%
X43738800Y-37693600D03*
%TO.P,J1,11,P11*%
%TO.N,GREEN_IN*%
X48818800Y-35788600D03*
%TO.P,J1,12,P12*%
%TO.N,unconnected-(J1-P12-Pad12)*%
X43738800Y-33883600D03*
%TO.P,J1,13,P13*%
%TO.N,GND*%
X48818800Y-31978600D03*
%TO.P,J1,14,P14*%
X43738800Y-30073600D03*
%TO.P,J1,15,P15*%
%TO.N,RED_IN*%
X48818800Y-28168600D03*
%TO.P,J1,16,P16*%
%TO.N,SCART_BLANKING*%
X43738800Y-26263600D03*
%TO.P,J1,17,P17*%
%TO.N,unconnected-(J1-P17-Pad17)*%
X48818800Y-24358600D03*
%TO.P,J1,18,P18*%
%TO.N,GND*%
X43738800Y-22453600D03*
%TO.P,J1,19,P19*%
%TO.N,unconnected-(J1-P19-Pad19)*%
X48818800Y-20548600D03*
%TO.P,J1,20,P20*%
%TO.N,COMPOSITE*%
X43738800Y-18643600D03*
%TO.P,J1,21,P21*%
%TO.N,GND*%
X48818800Y-16738600D03*
%TD*%
D11*
%TO.P,R2,1*%
%TO.N,+5V*%
X29870400Y-52452000D03*
%TO.P,R2,2*%
%TO.N,Net-(D1-A)*%
X29870400Y-54102000D03*
%TD*%
D12*
%TO.P,J2,1,Pin_1*%
%TO.N,+5V*%
X31750000Y-46482000D03*
D13*
%TO.P,J2,2,Pin_2*%
X29210000Y-46482000D03*
%TO.P,J2,3,Pin_3*%
%TO.N,GND*%
X31750000Y-43942000D03*
%TO.P,J2,4,Pin_4*%
X29210000Y-43942000D03*
%TO.P,J2,5,Pin_5*%
%TO.N,RIGHT*%
X31750000Y-41402000D03*
%TO.P,J2,6,Pin_6*%
%TO.N,RED_IN*%
X29210000Y-41402000D03*
%TO.P,J2,7,Pin_7*%
%TO.N,LEFT*%
X31750000Y-38862000D03*
%TO.P,J2,8,Pin_8*%
%TO.N,GREEN_IN*%
X29210000Y-38862000D03*
%TO.P,J2,9,Pin_9*%
%TO.N,GND*%
X31750000Y-36322000D03*
%TO.P,J2,10,Pin_10*%
%TO.N,BLUE_IN*%
X29210000Y-36322000D03*
%TO.P,J2,11,Pin_11*%
%TO.N,RGB_IN_USE*%
X31750000Y-33782000D03*
%TO.P,J2,12,Pin_12*%
%TO.N,GND*%
X29210000Y-33782000D03*
%TO.P,J2,13,Pin_13*%
X31750000Y-31242000D03*
%TO.P,J2,14,Pin_14*%
X29210000Y-31242000D03*
%TO.P,J2,15,Pin_15*%
%TO.N,COMPOSITE*%
X31750000Y-28702000D03*
%TO.P,J2,16,Pin_16*%
%TO.N,SCART_BLANKING*%
X29210000Y-28702000D03*
%TD*%
D14*
%TO.P,Q1,1,B*%
%TO.N,Net-(Q1-B)*%
X27764500Y-55565000D03*
%TO.P,Q1,2,E*%
%TO.N,GND*%
X27764500Y-57465000D03*
%TO.P,Q1,3,C*%
%TO.N,Net-(D1-K)*%
X29639500Y-56515000D03*
%TD*%
D15*
%TO.P,LED1,1,K*%
%TO.N,Net-(D1-K)*%
X33883600Y-56286400D03*
D16*
%TO.P,LED1,2,A*%
%TO.N,Net-(D1-A)*%
X33883600Y-53746400D03*
%TD*%
D17*
%TO.P,R1,1*%
%TO.N,Net-(Q1-B)*%
X27482800Y-54102000D03*
%TO.P,R1,2*%
%TO.N,RGB_IN_USE*%
X27482800Y-52452000D03*
%TD*%
D18*
%TO.N,GND*%
X27787600Y-33782000D03*
%TD*%
D19*
%TO.N,RIGHT*%
X43738800Y-52933600D02*
X32207200Y-41402000D01*
X32207200Y-41402000D02*
X31750000Y-41402000D01*
%TO.N,LEFT*%
X34925000Y-38862000D02*
X41376600Y-45313600D01*
X31750000Y-38862000D02*
X34925000Y-38862000D01*
X41376600Y-45313600D02*
X44297600Y-45313600D01*
%TO.N,BLUE_IN*%
X48818800Y-43027600D02*
X48818800Y-43408600D01*
%TO.N,GREEN_IN*%
X29718000Y-38862000D02*
X29210000Y-38862000D01*
%TO.N,SCART_BLANKING*%
X29210000Y-19177000D02*
X32131000Y-16256000D01*
X45085000Y-16256000D02*
X46355000Y-17526000D01*
X32131000Y-16256000D02*
X45085000Y-16256000D01*
X46355000Y-17526000D02*
X46355000Y-23647400D01*
X29210000Y-28702000D02*
X29210000Y-19177000D01*
X46355000Y-23647400D02*
X43738800Y-26263600D01*
%TO.N,Net-(D1-K)*%
X29868100Y-56286400D02*
X29639500Y-56515000D01*
X33883600Y-56286400D02*
X29868100Y-56286400D01*
%TO.N,+5V*%
X29210000Y-46482000D02*
X31750000Y-46482000D01*
X29210000Y-46482000D02*
X29819600Y-47091600D01*
X29819600Y-47091600D02*
X29819600Y-52401200D01*
X29819600Y-52401200D02*
X29870400Y-52452000D01*
%TO.N,RGB_IN_USE*%
X31750000Y-33782000D02*
X31750000Y-33020000D01*
X27482800Y-49453800D02*
X26035000Y-48006000D01*
X31242000Y-32512000D02*
X26797000Y-32512000D01*
X26797000Y-32512000D02*
X26035000Y-33274000D01*
X27482800Y-52452000D02*
X27482800Y-49453800D01*
X31750000Y-33020000D02*
X31242000Y-32512000D01*
X26035000Y-33274000D02*
X26035000Y-48006000D01*
%TO.N,Net-(D1-A)*%
X33528000Y-54102000D02*
X33883600Y-53746400D01*
X29870400Y-54102000D02*
X33528000Y-54102000D01*
%TO.N,COMPOSITE*%
X35585400Y-18643600D02*
X31750000Y-22479000D01*
X31750000Y-22479000D02*
X31750000Y-28702000D01*
X43738800Y-18643600D02*
X35585400Y-18643600D01*
%TO.N,Net-(Q1-B)*%
X27482800Y-54102000D02*
X27482800Y-55283300D01*
X27482800Y-55283300D02*
X27764500Y-55565000D01*
%TD*%
%TA.AperFunction,Conductor*%
%TO.N,GND*%
G36*
X27893373Y-33157185D02*
G01*
X27939128Y-33209989D01*
X27949072Y-33279147D01*
X27938716Y-33313904D01*
X27936571Y-33318502D01*
X27936567Y-33318513D01*
X27879364Y-33531999D01*
X27879364Y-33532000D01*
X28776314Y-33532000D01*
X28750507Y-33572156D01*
X28710000Y-33710111D01*
X28710000Y-33853889D01*
X28750507Y-33991844D01*
X28776314Y-34032000D01*
X27879364Y-34032000D01*
X27936567Y-34245486D01*
X27936570Y-34245492D01*
X28036399Y-34459578D01*
X28171894Y-34653082D01*
X28338917Y-34820105D01*
X28524595Y-34950119D01*
X28568219Y-35004696D01*
X28575412Y-35074195D01*
X28543890Y-35136549D01*
X28524595Y-35153269D01*
X28338594Y-35283508D01*
X28171505Y-35450597D01*
X28035965Y-35644169D01*
X28035964Y-35644171D01*
X27936098Y-35858335D01*
X27936094Y-35858344D01*
X27874938Y-36086586D01*
X27874936Y-36086596D01*
X27854341Y-36321999D01*
X27854341Y-36322000D01*
X27874936Y-36557403D01*
X27874938Y-36557413D01*
X27936094Y-36785655D01*
X27936096Y-36785659D01*
X27936097Y-36785663D01*
X28019155Y-36963781D01*
X28035965Y-36999830D01*
X28035967Y-36999834D01*
X28144281Y-37154521D01*
X28171501Y-37193396D01*
X28171506Y-37193402D01*
X28338597Y-37360493D01*
X28338603Y-37360498D01*
X28524158Y-37490425D01*
X28567783Y-37545002D01*
X28574977Y-37614500D01*
X28543454Y-37676855D01*
X28524158Y-37693575D01*
X28338597Y-37823505D01*
X28171505Y-37990597D01*
X28035965Y-38184169D01*
X28035964Y-38184171D01*
X27936098Y-38398335D01*
X27936094Y-38398344D01*
X27874938Y-38626586D01*
X27874936Y-38626596D01*
X27854341Y-38861999D01*
X27854341Y-38862000D01*
X27874936Y-39097403D01*
X27874938Y-39097413D01*
X27936094Y-39325655D01*
X27936096Y-39325659D01*
X27936097Y-39325663D01*
X27940000Y-39334032D01*
X28035965Y-39539830D01*
X28035967Y-39539834D01*
X28144281Y-39694521D01*
X28171501Y-39733396D01*
X28171506Y-39733402D01*
X28338597Y-39900493D01*
X28338603Y-39900498D01*
X28524158Y-40030425D01*
X28567783Y-40085002D01*
X28574977Y-40154500D01*
X28543454Y-40216855D01*
X28524158Y-40233575D01*
X28338597Y-40363505D01*
X28171505Y-40530597D01*
X28035965Y-40724169D01*
X28035964Y-40724171D01*
X27936098Y-40938335D01*
X27936094Y-40938344D01*
X27874938Y-41166586D01*
X27874936Y-41166596D01*
X27854341Y-41401999D01*
X27854341Y-41402000D01*
X27874936Y-41637403D01*
X27874938Y-41637413D01*
X27936094Y-41865655D01*
X27936096Y-41865659D01*
X27936097Y-41865663D01*
X27940000Y-41874032D01*
X28035965Y-42079830D01*
X28035967Y-42079834D01*
X28134087Y-42219963D01*
X28171501Y-42273396D01*
X28171506Y-42273402D01*
X28338597Y-42440493D01*
X28338603Y-42440498D01*
X28524594Y-42570730D01*
X28568219Y-42625307D01*
X28575413Y-42694805D01*
X28543890Y-42757160D01*
X28524595Y-42773880D01*
X28338922Y-42903890D01*
X28338920Y-42903891D01*
X28171891Y-43070920D01*
X28171886Y-43070926D01*
X28036400Y-43264420D01*
X28036399Y-43264422D01*
X27936570Y-43478507D01*
X27936567Y-43478513D01*
X27879364Y-43691999D01*
X27879364Y-43692000D01*
X28776314Y-43692000D01*
X28750507Y-43732156D01*
X28710000Y-43870111D01*
X28710000Y-44013889D01*
X28750507Y-44151844D01*
X28776314Y-44192000D01*
X27879364Y-44192000D01*
X27936567Y-44405486D01*
X27936570Y-44405492D01*
X28036399Y-44619578D01*
X28171894Y-44813082D01*
X28338917Y-44980105D01*
X28524595Y-45110119D01*
X28568219Y-45164696D01*
X28575412Y-45234195D01*
X28543890Y-45296549D01*
X28524595Y-45313269D01*
X28338594Y-45443508D01*
X28171505Y-45610597D01*
X28035965Y-45804169D01*
X28035964Y-45804171D01*
X27936098Y-46018335D01*
X27936094Y-46018344D01*
X27874938Y-46246586D01*
X27874936Y-46246596D01*
X27854341Y-46481999D01*
X27854341Y-46482000D01*
X27874936Y-46717403D01*
X27874938Y-46717413D01*
X27936094Y-46945655D01*
X27936096Y-46945659D01*
X27936097Y-46945663D01*
X27947885Y-46970942D01*
X28035965Y-47159830D01*
X28035967Y-47159834D01*
X28144281Y-47314521D01*
X28171505Y-47353401D01*
X28338599Y-47520495D01*
X28435384Y-47588265D01*
X28532165Y-47656032D01*
X28532167Y-47656033D01*
X28532170Y-47656035D01*
X28746337Y-47755903D01*
X28974592Y-47817063D01*
X29080907Y-47826364D01*
X29145976Y-47851816D01*
X29186955Y-47908407D01*
X29194100Y-47949892D01*
X29194100Y-51611280D01*
X29174415Y-51678319D01*
X29157781Y-51698961D01*
X29039931Y-51816810D01*
X29039930Y-51816811D01*
X28951922Y-51962393D01*
X28901313Y-52124807D01*
X28894900Y-52195386D01*
X28894900Y-52708613D01*
X28901313Y-52779192D01*
X28951922Y-52941606D01*
X29039930Y-53087188D01*
X29142061Y-53189319D01*
X29175546Y-53250642D01*
X29170562Y-53320334D01*
X29142061Y-53364681D01*
X29039931Y-53466810D01*
X29039930Y-53466811D01*
X28951922Y-53612393D01*
X28901313Y-53774807D01*
X28894900Y-53845386D01*
X28894900Y-54358613D01*
X28901313Y-54429192D01*
X28901313Y-54429194D01*
X28901314Y-54429196D01*
X28951922Y-54591606D01*
X29035786Y-54730334D01*
X29039930Y-54737188D01*
X29160211Y-54857469D01*
X29160213Y-54857470D01*
X29160215Y-54857472D01*
X29305794Y-54945478D01*
X29468204Y-54996086D01*
X29538784Y-55002500D01*
X29538787Y-55002500D01*
X30202013Y-55002500D01*
X30202016Y-55002500D01*
X30272596Y-54996086D01*
X30435006Y-54945478D01*
X30580585Y-54857472D01*
X30624803Y-54813254D01*
X30674239Y-54763819D01*
X30735562Y-54730334D01*
X30761920Y-54727500D01*
X32656054Y-54727500D01*
X32723093Y-54747185D01*
X32768848Y-54799989D01*
X32778792Y-54869147D01*
X32749767Y-54932703D01*
X32730365Y-54950766D01*
X32626055Y-55028852D01*
X32626052Y-55028855D01*
X32539806Y-55144064D01*
X32539802Y-55144071D01*
X32489508Y-55278917D01*
X32485784Y-55313562D01*
X32483101Y-55338523D01*
X32483100Y-55338535D01*
X32483100Y-55536900D01*
X32463415Y-55603939D01*
X32410611Y-55649694D01*
X32359100Y-55660900D01*
X29950837Y-55660900D01*
X29935220Y-55659176D01*
X29935193Y-55659462D01*
X29927431Y-55658727D01*
X29858303Y-55660900D01*
X29828750Y-55660900D01*
X29828029Y-55660990D01*
X29821857Y-55661769D01*
X29816045Y-55662226D01*
X29769473Y-55663690D01*
X29769472Y-55663690D01*
X29750229Y-55669281D01*
X29731179Y-55673225D01*
X29711311Y-55675734D01*
X29711309Y-55675735D01*
X29667984Y-55692888D01*
X29662458Y-55694780D01*
X29628267Y-55704714D01*
X29617710Y-55707782D01*
X29617709Y-55707782D01*
X29611540Y-55709575D01*
X29576941Y-55714500D01*
X29126500Y-55714500D01*
X29059461Y-55694815D01*
X29013706Y-55642011D01*
X29002500Y-55590500D01*
X29002500Y-55349304D01*
X28999598Y-55312432D01*
X28999597Y-55312426D01*
X28953745Y-55154606D01*
X28953744Y-55154603D01*
X28953744Y-55154602D01*
X28870081Y-55013135D01*
X28870079Y-55013133D01*
X28870076Y-55013129D01*
X28753870Y-54896923D01*
X28753862Y-54896917D01*
X28655261Y-54838605D01*
X28612398Y-54813256D01*
X28612397Y-54813255D01*
X28612396Y-54813255D01*
X28612395Y-54813254D01*
X28473895Y-54773016D01*
X28415010Y-54735410D01*
X28385804Y-54671937D01*
X28395550Y-54602750D01*
X28400447Y-54593451D01*
X28401273Y-54591613D01*
X28401278Y-54591606D01*
X28451886Y-54429196D01*
X28458300Y-54358616D01*
X28458300Y-53845384D01*
X28451886Y-53774804D01*
X28401278Y-53612394D01*
X28313272Y-53466815D01*
X28313270Y-53466813D01*
X28313269Y-53466811D01*
X28211139Y-53364681D01*
X28177654Y-53303358D01*
X28182638Y-53233666D01*
X28211139Y-53189319D01*
X28313268Y-53087189D01*
X28313269Y-53087188D01*
X28313272Y-53087185D01*
X28401278Y-52941606D01*
X28451886Y-52779196D01*
X28458300Y-52708616D01*
X28458300Y-52195384D01*
X28451886Y-52124804D01*
X28401278Y-51962394D01*
X28313272Y-51816815D01*
X28313270Y-51816813D01*
X28313269Y-51816811D01*
X28192988Y-51696530D01*
X28192986Y-51696529D01*
X28192985Y-51696528D01*
X28168148Y-51681513D01*
X28120962Y-51629984D01*
X28108300Y-51575397D01*
X28108300Y-49536537D01*
X28110024Y-49520923D01*
X28109738Y-49520896D01*
X28110472Y-49513133D01*
X28108300Y-49444002D01*
X28108300Y-49414451D01*
X28108300Y-49414450D01*
X28107429Y-49407559D01*
X28106972Y-49401745D01*
X28105509Y-49355174D01*
X28105509Y-49355172D01*
X28099920Y-49335937D01*
X28095974Y-49316884D01*
X28093464Y-49297008D01*
X28076301Y-49253659D01*
X28074414Y-49248146D01*
X28061417Y-49203410D01*
X28061416Y-49203408D01*
X28051221Y-49186169D01*
X28042660Y-49168693D01*
X28035286Y-49150069D01*
X28035286Y-49150067D01*
X28025274Y-49136288D01*
X28007883Y-49112350D01*
X28004700Y-49107505D01*
X27980970Y-49067379D01*
X27980965Y-49067373D01*
X27966805Y-49053213D01*
X27954170Y-49038420D01*
X27942393Y-49022212D01*
X27906493Y-48992513D01*
X27902181Y-48988590D01*
X26696819Y-47783228D01*
X26663334Y-47721905D01*
X26660500Y-47695547D01*
X26660500Y-33584452D01*
X26680185Y-33517413D01*
X26696819Y-33496771D01*
X27019771Y-33173819D01*
X27081094Y-33140334D01*
X27107452Y-33137500D01*
X27826334Y-33137500D01*
X27893373Y-33157185D01*
G37*
%TD.AperFunction*%
%TA.AperFunction,Conductor*%
G36*
X31290507Y-43732156D02*
G01*
X31250000Y-43870111D01*
X31250000Y-44013889D01*
X31290507Y-44151844D01*
X31316314Y-44192000D01*
X29643686Y-44192000D01*
X29669493Y-44151844D01*
X29710000Y-44013889D01*
X29710000Y-43870111D01*
X29669493Y-43732156D01*
X29643686Y-43692000D01*
X31316314Y-43692000D01*
X31290507Y-43732156D01*
G37*
%TD.AperFunction*%
%TA.AperFunction,Conductor*%
G36*
X29403039Y-33157185D02*
G01*
X29448794Y-33209989D01*
X29460000Y-33261500D01*
X29460000Y-33346498D01*
X29352315Y-33297320D01*
X29245763Y-33282000D01*
X29174237Y-33282000D01*
X29067685Y-33297320D01*
X28960000Y-33346498D01*
X28960000Y-33261500D01*
X28979685Y-33194461D01*
X29032489Y-33148706D01*
X29084000Y-33137500D01*
X29336000Y-33137500D01*
X29403039Y-33157185D01*
G37*
%TD.AperFunction*%
%TA.AperFunction,Conductor*%
G36*
X29460000Y-31762500D02*
G01*
X29440315Y-31829539D01*
X29387511Y-31875294D01*
X29336000Y-31886500D01*
X29084000Y-31886500D01*
X29016961Y-31866815D01*
X28971206Y-31814011D01*
X28960000Y-31762500D01*
X28960000Y-31677501D01*
X29067685Y-31726680D01*
X29174237Y-31742000D01*
X29245763Y-31742000D01*
X29352315Y-31726680D01*
X29460000Y-31677501D01*
X29460000Y-31762500D01*
G37*
%TD.AperFunction*%
%TA.AperFunction,Conductor*%
G36*
X31290507Y-31032156D02*
G01*
X31250000Y-31170111D01*
X31250000Y-31313889D01*
X31290507Y-31451844D01*
X31316314Y-31492000D01*
X29643686Y-31492000D01*
X29669493Y-31451844D01*
X29710000Y-31313889D01*
X29710000Y-31170111D01*
X29669493Y-31032156D01*
X29643686Y-30992000D01*
X31316314Y-30992000D01*
X31290507Y-31032156D01*
G37*
%TD.AperFunction*%
%TA.AperFunction,Conductor*%
G36*
X50727000Y-12242601D02*
G01*
X50794007Y-12262393D01*
X50839677Y-12315271D01*
X50850800Y-12366601D01*
X50850800Y-59739500D01*
X50831115Y-59806539D01*
X50778311Y-59852294D01*
X50726800Y-59863500D01*
X20063000Y-59863500D01*
X19995961Y-59843815D01*
X19950206Y-59791011D01*
X19939000Y-59739500D01*
X19939000Y-55879999D01*
X21394592Y-55879999D01*
X21402303Y-55992735D01*
X21402448Y-55996968D01*
X21402448Y-56023482D01*
X21406057Y-56049738D01*
X21406489Y-56053948D01*
X21414201Y-56166682D01*
X21437191Y-56277324D01*
X21437910Y-56281494D01*
X21441520Y-56307756D01*
X21448676Y-56333301D01*
X21449678Y-56337411D01*
X21459606Y-56385185D01*
X21472666Y-56448032D01*
X21472667Y-56448036D01*
X21472670Y-56448045D01*
X21510505Y-56554502D01*
X21511787Y-56558538D01*
X21518940Y-56584070D01*
X21529504Y-56608392D01*
X21531057Y-56612330D01*
X21568894Y-56718793D01*
X21620883Y-56819128D01*
X21622700Y-56822951D01*
X21633262Y-56847264D01*
X21647032Y-56869908D01*
X21649107Y-56873599D01*
X21701096Y-56973931D01*
X21701097Y-56973933D01*
X21766254Y-57066242D01*
X21768575Y-57069780D01*
X21782357Y-57092441D01*
X21799089Y-57113008D01*
X21801648Y-57116383D01*
X21866812Y-57208699D01*
X21943945Y-57291289D01*
X21946728Y-57294481D01*
X21963446Y-57315030D01*
X21963451Y-57315036D01*
X21982840Y-57333144D01*
X21985815Y-57336120D01*
X22062947Y-57418708D01*
X22062951Y-57418711D01*
X22062953Y-57418713D01*
X22150601Y-57490020D01*
X22153791Y-57492801D01*
X22173167Y-57510897D01*
X22173170Y-57510899D01*
X22194827Y-57526187D01*
X22198202Y-57528746D01*
X22285846Y-57600050D01*
X22285849Y-57600051D01*
X22285853Y-57600055D01*
X22330496Y-57627203D01*
X22382407Y-57658772D01*
X22385933Y-57661083D01*
X22407598Y-57676376D01*
X22407602Y-57676379D01*
X22415539Y-57680491D01*
X22431142Y-57688576D01*
X22434821Y-57690645D01*
X22531375Y-57749361D01*
X22635042Y-57794390D01*
X22638815Y-57796183D01*
X22662380Y-57808394D01*
X22687394Y-57817284D01*
X22691258Y-57818807D01*
X22769229Y-57852675D01*
X22794934Y-57863841D01*
X22794938Y-57863843D01*
X22794942Y-57863844D01*
X22903774Y-57894337D01*
X22907775Y-57895607D01*
X22932765Y-57904489D01*
X22932767Y-57904489D01*
X22932769Y-57904490D01*
X22939476Y-57905883D01*
X22958733Y-57909885D01*
X22962822Y-57910881D01*
X23071642Y-57941371D01*
X23183597Y-57956759D01*
X23187738Y-57957472D01*
X23213716Y-57962871D01*
X23240202Y-57964682D01*
X23244355Y-57965110D01*
X23334786Y-57977540D01*
X23356321Y-57980500D01*
X23469314Y-57980500D01*
X23473547Y-57980645D01*
X23500000Y-57982454D01*
X23526453Y-57980645D01*
X23530686Y-57980500D01*
X23643678Y-57980500D01*
X23755653Y-57965109D01*
X23759791Y-57964683D01*
X23786284Y-57962871D01*
X23812277Y-57957469D01*
X23816372Y-57956763D01*
X23928358Y-57941371D01*
X24037177Y-57910881D01*
X24041266Y-57909885D01*
X24067235Y-57904489D01*
X24092235Y-57895603D01*
X24096230Y-57894335D01*
X24205058Y-57863844D01*
X24308725Y-57818814D01*
X24312602Y-57817285D01*
X24337620Y-57808394D01*
X24361175Y-57796188D01*
X24364952Y-57794392D01*
X24468625Y-57749361D01*
X24525126Y-57715001D01*
X26529704Y-57715001D01*
X26529899Y-57717486D01*
X26575718Y-57875198D01*
X26659314Y-58016552D01*
X26659321Y-58016561D01*
X26775438Y-58132678D01*
X26775447Y-58132685D01*
X26916803Y-58216282D01*
X26916806Y-58216283D01*
X27074504Y-58262099D01*
X27074510Y-58262100D01*
X27111356Y-58265000D01*
X27514500Y-58265000D01*
X27514500Y-57715000D01*
X28014500Y-57715000D01*
X28014500Y-58265000D01*
X28417644Y-58265000D01*
X28454489Y-58262100D01*
X28454495Y-58262099D01*
X28612193Y-58216283D01*
X28612196Y-58216282D01*
X28753552Y-58132685D01*
X28753561Y-58132678D01*
X28869678Y-58016561D01*
X28869685Y-58016552D01*
X28953281Y-57875198D01*
X28999100Y-57717486D01*
X28999295Y-57715001D01*
X28999295Y-57715000D01*
X28014500Y-57715000D01*
X27514500Y-57715000D01*
X26529705Y-57715000D01*
X26529704Y-57715001D01*
X24525126Y-57715001D01*
X24565223Y-57690617D01*
X24568819Y-57688595D01*
X24592401Y-57676377D01*
X24614087Y-57661068D01*
X24617554Y-57658794D01*
X24714147Y-57600055D01*
X24801835Y-57528715D01*
X24805130Y-57526216D01*
X24826833Y-57510897D01*
X24846254Y-57492759D01*
X24849362Y-57490049D01*
X24937053Y-57418708D01*
X25014212Y-57336090D01*
X25017159Y-57333144D01*
X25036549Y-57315036D01*
X25053288Y-57294460D01*
X25056054Y-57291289D01*
X25127305Y-57214998D01*
X26529704Y-57214998D01*
X26529705Y-57215000D01*
X27514500Y-57215000D01*
X27514500Y-56665000D01*
X27111356Y-56665000D01*
X27074510Y-56667899D01*
X27074504Y-56667900D01*
X26916806Y-56713716D01*
X26916803Y-56713717D01*
X26775447Y-56797314D01*
X26775438Y-56797321D01*
X26659321Y-56913438D01*
X26659314Y-56913447D01*
X26575718Y-57054801D01*
X26529899Y-57212513D01*
X26529704Y-57214998D01*
X25127305Y-57214998D01*
X25133189Y-57208698D01*
X25198372Y-57116352D01*
X25200878Y-57113047D01*
X25217641Y-57092444D01*
X25231424Y-57069779D01*
X25233730Y-57066262D01*
X25298901Y-56973936D01*
X25350899Y-56873584D01*
X25352944Y-56869945D01*
X25366737Y-56847265D01*
X25377302Y-56822940D01*
X25379112Y-56819136D01*
X25390416Y-56797321D01*
X25431104Y-56718797D01*
X25468954Y-56612295D01*
X25470495Y-56608392D01*
X25481060Y-56584069D01*
X25488223Y-56558501D01*
X25489487Y-56554521D01*
X25527334Y-56448032D01*
X25545087Y-56362598D01*
X25550326Y-56337390D01*
X25551322Y-56333300D01*
X25558479Y-56307757D01*
X25562092Y-56281466D01*
X25562807Y-56277324D01*
X25585798Y-56166686D01*
X25593510Y-56053932D01*
X25593938Y-56049770D01*
X25597552Y-56023477D01*
X25598176Y-55986867D01*
X25598308Y-55983796D01*
X25605408Y-55880000D01*
X25598308Y-55776207D01*
X25598176Y-55773129D01*
X25597552Y-55736523D01*
X25597552Y-55736518D01*
X25593942Y-55710260D01*
X25593938Y-55710235D01*
X25593509Y-55706050D01*
X25585798Y-55593314D01*
X25562805Y-55482666D01*
X25562095Y-55478555D01*
X25558744Y-55454174D01*
X25558479Y-55452242D01*
X25556526Y-55445272D01*
X25551317Y-55426681D01*
X25550329Y-55422628D01*
X25527334Y-55311968D01*
X25489490Y-55205485D01*
X25488217Y-55201476D01*
X25481060Y-55175931D01*
X25481059Y-55175928D01*
X25470494Y-55151604D01*
X25468940Y-55147664D01*
X25467663Y-55144071D01*
X25431104Y-55041203D01*
X25379116Y-54940871D01*
X25377298Y-54937048D01*
X25374808Y-54931316D01*
X25366737Y-54912735D01*
X25352956Y-54890073D01*
X25350893Y-54886405D01*
X25298901Y-54786064D01*
X25246983Y-54712512D01*
X25233730Y-54693736D01*
X25231420Y-54690216D01*
X25217641Y-54667556D01*
X25200896Y-54646973D01*
X25198356Y-54643623D01*
X25133187Y-54551299D01*
X25092650Y-54507895D01*
X25056050Y-54468707D01*
X25053277Y-54465526D01*
X25036548Y-54444963D01*
X25019661Y-54429192D01*
X25017174Y-54426869D01*
X25014189Y-54423883D01*
X24937060Y-54341299D01*
X24937056Y-54341295D01*
X24937053Y-54341292D01*
X24937046Y-54341286D01*
X24849398Y-54269979D01*
X24846206Y-54267196D01*
X24826839Y-54249108D01*
X24826837Y-54249107D01*
X24826838Y-54249107D01*
X24826833Y-54249103D01*
X24813388Y-54239612D01*
X24805173Y-54233813D01*
X24801801Y-54231256D01*
X24714153Y-54159949D01*
X24714138Y-54159939D01*
X24617600Y-54101232D01*
X24614061Y-54098911D01*
X24592402Y-54083623D01*
X24568866Y-54071427D01*
X24565177Y-54069353D01*
X24468623Y-54010637D01*
X24364979Y-53965619D01*
X24361157Y-53963801D01*
X24347268Y-53956605D01*
X24337620Y-53951606D01*
X24337616Y-53951604D01*
X24337613Y-53951603D01*
X24312642Y-53942728D01*
X24308703Y-53941175D01*
X24246436Y-53914129D01*
X24205058Y-53896156D01*
X24205054Y-53896155D01*
X24205050Y-53896153D01*
X24096245Y-53865667D01*
X24092212Y-53864387D01*
X24067239Y-53855512D01*
X24067236Y-53855511D01*
X24067235Y-53855511D01*
X24062103Y-53854444D01*
X24041276Y-53850116D01*
X24037164Y-53849114D01*
X23928362Y-53818629D01*
X23816408Y-53803241D01*
X23812236Y-53802521D01*
X23786285Y-53797129D01*
X23759830Y-53795318D01*
X23755620Y-53794885D01*
X23643680Y-53779500D01*
X23643678Y-53779500D01*
X23530672Y-53779500D01*
X23526440Y-53779355D01*
X23500000Y-53777547D01*
X23473560Y-53779355D01*
X23469328Y-53779500D01*
X23356320Y-53779500D01*
X23244380Y-53794885D01*
X23240170Y-53795318D01*
X23213716Y-53797128D01*
X23187762Y-53802521D01*
X23183593Y-53803240D01*
X23083789Y-53816959D01*
X23071642Y-53818629D01*
X23071640Y-53818629D01*
X23071636Y-53818630D01*
X22962837Y-53849113D01*
X22958727Y-53850115D01*
X22932761Y-53855511D01*
X22907783Y-53864388D01*
X22903749Y-53865669D01*
X22810095Y-53891910D01*
X22794942Y-53896156D01*
X22794940Y-53896156D01*
X22794939Y-53896157D01*
X22691304Y-53941172D01*
X22687367Y-53942725D01*
X22662377Y-53951607D01*
X22638840Y-53963802D01*
X22635020Y-53965619D01*
X22531368Y-54010642D01*
X22434828Y-54069350D01*
X22431140Y-54071424D01*
X22407601Y-54083621D01*
X22385943Y-54098907D01*
X22382406Y-54101228D01*
X22285855Y-54159943D01*
X22285849Y-54159947D01*
X22198200Y-54231253D01*
X22194831Y-54233808D01*
X22173171Y-54249099D01*
X22153789Y-54267199D01*
X22150601Y-54269979D01*
X22062955Y-54341284D01*
X22062939Y-54341299D01*
X21985815Y-54423878D01*
X21982823Y-54426871D01*
X21963453Y-54444960D01*
X21946715Y-54465533D01*
X21943935Y-54468721D01*
X21866811Y-54551301D01*
X21801646Y-54643618D01*
X21799089Y-54646991D01*
X21782363Y-54667549D01*
X21768581Y-54690211D01*
X21766261Y-54693747D01*
X21701099Y-54786061D01*
X21649114Y-54886387D01*
X21647042Y-54890073D01*
X21633266Y-54912730D01*
X21633261Y-54912738D01*
X21622700Y-54937049D01*
X21620883Y-54940868D01*
X21568896Y-55041199D01*
X21568895Y-55041202D01*
X21531053Y-55147679D01*
X21529501Y-55151616D01*
X21518938Y-55175935D01*
X21511788Y-55201452D01*
X21510508Y-55205485D01*
X21472669Y-55311957D01*
X21472666Y-55311968D01*
X21449677Y-55422592D01*
X21448676Y-55426701D01*
X21441523Y-55452235D01*
X21441519Y-55452253D01*
X21437910Y-55478506D01*
X21437191Y-55482676D01*
X21414201Y-55593317D01*
X21406489Y-55706050D01*
X21406057Y-55710260D01*
X21402448Y-55736524D01*
X21402448Y-55763030D01*
X21402303Y-55767263D01*
X21394592Y-55879999D01*
X19939000Y-55879999D01*
X19939000Y-33254196D01*
X25404840Y-33254196D01*
X25407199Y-33279147D01*
X25409225Y-33300583D01*
X25409500Y-33306421D01*
X25409500Y-47923255D01*
X25407775Y-47938872D01*
X25408061Y-47938899D01*
X25407326Y-47946665D01*
X25409500Y-48015814D01*
X25409500Y-48045343D01*
X25409501Y-48045360D01*
X25410368Y-48052231D01*
X25410826Y-48058050D01*
X25412290Y-48104624D01*
X25412291Y-48104627D01*
X25417880Y-48123867D01*
X25421824Y-48142911D01*
X25424336Y-48162791D01*
X25441490Y-48206119D01*
X25443382Y-48211647D01*
X25456381Y-48256388D01*
X25466580Y-48273634D01*
X25475138Y-48291103D01*
X25482514Y-48309732D01*
X25509898Y-48347423D01*
X25513106Y-48352307D01*
X25536827Y-48392416D01*
X25536833Y-48392424D01*
X25550990Y-48406580D01*
X25563628Y-48421376D01*
X25575405Y-48437586D01*
X25575406Y-48437587D01*
X25611309Y-48467288D01*
X25615620Y-48471210D01*
X26251892Y-49107482D01*
X26820981Y-49676571D01*
X26854466Y-49737894D01*
X26857300Y-49764252D01*
X26857300Y-51575397D01*
X26837615Y-51642436D01*
X26797452Y-51681513D01*
X26772613Y-51696529D01*
X26772611Y-51696530D01*
X26652330Y-51816811D01*
X26564322Y-51962393D01*
X26513713Y-52124807D01*
X26507300Y-52195386D01*
X26507300Y-52708613D01*
X26513713Y-52779192D01*
X26564322Y-52941606D01*
X26652330Y-53087188D01*
X26754461Y-53189319D01*
X26787946Y-53250642D01*
X26782962Y-53320334D01*
X26754461Y-53364681D01*
X26652331Y-53466810D01*
X26652330Y-53466811D01*
X26564322Y-53612393D01*
X26513713Y-53774807D01*
X26507300Y-53845386D01*
X26507300Y-54358613D01*
X26513713Y-54429192D01*
X26513713Y-54429194D01*
X26513714Y-54429196D01*
X26564322Y-54591606D01*
X26648186Y-54730334D01*
X26652330Y-54737188D01*
X26705916Y-54790774D01*
X26739401Y-54852097D01*
X26734417Y-54921789D01*
X26705917Y-54966135D01*
X26658924Y-55013128D01*
X26658917Y-55013137D01*
X26575255Y-55154603D01*
X26575254Y-55154606D01*
X26529402Y-55312426D01*
X26529401Y-55312432D01*
X26526500Y-55349304D01*
X26526500Y-55780696D01*
X26529401Y-55817567D01*
X26529402Y-55817573D01*
X26575254Y-55975393D01*
X26575255Y-55975396D01*
X26575256Y-55975398D01*
X26603690Y-56023477D01*
X26658917Y-56116862D01*
X26658923Y-56116870D01*
X26775129Y-56233076D01*
X26775133Y-56233079D01*
X26775135Y-56233081D01*
X26916602Y-56316744D01*
X26958224Y-56328836D01*
X27074426Y-56362597D01*
X27074429Y-56362597D01*
X27074431Y-56362598D01*
X27086722Y-56363565D01*
X27111304Y-56365500D01*
X27111306Y-56365500D01*
X28277500Y-56365500D01*
X28344539Y-56385185D01*
X28390294Y-56437989D01*
X28401500Y-56489500D01*
X28401500Y-56541000D01*
X28381815Y-56608039D01*
X28329011Y-56653794D01*
X28277500Y-56665000D01*
X28014500Y-56665000D01*
X28014500Y-57215000D01*
X28670185Y-57215000D01*
X28733306Y-57232268D01*
X28791602Y-57266744D01*
X28833224Y-57278836D01*
X28949426Y-57312597D01*
X28949429Y-57312597D01*
X28949431Y-57312598D01*
X28961722Y-57313565D01*
X28986304Y-57315500D01*
X28986306Y-57315500D01*
X30292696Y-57315500D01*
X30311131Y-57314049D01*
X30329569Y-57312598D01*
X30329571Y-57312597D01*
X30329573Y-57312597D01*
X30371191Y-57300505D01*
X30487398Y-57266744D01*
X30628865Y-57183081D01*
X30745081Y-57066865D01*
X30800723Y-56972778D01*
X30851792Y-56925096D01*
X30907455Y-56911900D01*
X32359101Y-56911900D01*
X32426140Y-56931585D01*
X32471895Y-56984389D01*
X32483101Y-57035900D01*
X32483101Y-57234276D01*
X32489508Y-57293883D01*
X32539802Y-57428728D01*
X32539806Y-57428735D01*
X32626052Y-57543944D01*
X32626055Y-57543947D01*
X32741264Y-57630193D01*
X32741271Y-57630197D01*
X32876117Y-57680491D01*
X32876116Y-57680491D01*
X32883044Y-57681235D01*
X32935727Y-57686900D01*
X34831472Y-57686899D01*
X34891083Y-57680491D01*
X35025931Y-57630196D01*
X35141146Y-57543946D01*
X35227396Y-57428731D01*
X35277691Y-57293883D01*
X35284100Y-57234273D01*
X35284099Y-55338528D01*
X35277691Y-55278917D01*
X35248807Y-55201476D01*
X35227397Y-55144071D01*
X35227393Y-55144064D01*
X35141147Y-55028855D01*
X35141144Y-55028852D01*
X35025935Y-54942606D01*
X35025928Y-54942602D01*
X34945694Y-54912677D01*
X34889760Y-54870806D01*
X34877750Y-54838605D01*
X47313669Y-54838605D01*
X47334196Y-55086332D01*
X47395221Y-55327315D01*
X47495076Y-55554962D01*
X47631040Y-55763072D01*
X47799399Y-55945957D01*
X47799409Y-55945966D01*
X47938144Y-56053948D01*
X47995571Y-56098645D01*
X48214196Y-56216959D01*
X48214199Y-56216960D01*
X48449308Y-56297673D01*
X48449310Y-56297673D01*
X48449312Y-56297674D01*
X48694507Y-56338590D01*
X48694508Y-56338590D01*
X48943092Y-56338590D01*
X48943093Y-56338590D01*
X49188288Y-56297674D01*
X49423404Y-56216959D01*
X49642029Y-56098645D01*
X49838197Y-55945961D01*
X50006560Y-55763071D01*
X50142523Y-55554963D01*
X50242379Y-55327315D01*
X50303403Y-55086336D01*
X50315773Y-54937048D01*
X50323931Y-54838605D01*
X50323931Y-54838594D01*
X50307774Y-54643618D01*
X50303403Y-54590864D01*
X50242379Y-54349885D01*
X50142523Y-54122237D01*
X50089423Y-54040961D01*
X50006559Y-53914127D01*
X49838200Y-53731242D01*
X49838190Y-53731233D01*
X49642033Y-53578558D01*
X49642028Y-53578554D01*
X49423405Y-53460241D01*
X49423400Y-53460239D01*
X49188291Y-53379526D01*
X48990543Y-53346528D01*
X48943093Y-53338610D01*
X48694507Y-53338610D01*
X48647057Y-53346528D01*
X48449308Y-53379526D01*
X48214199Y-53460239D01*
X48214194Y-53460241D01*
X47995571Y-53578554D01*
X47995566Y-53578558D01*
X47799409Y-53731233D01*
X47799399Y-53731242D01*
X47631040Y-53914127D01*
X47495076Y-54122237D01*
X47395221Y-54349884D01*
X47334196Y-54590867D01*
X47313669Y-54838594D01*
X47313669Y-54838605D01*
X34877750Y-54838605D01*
X34865343Y-54805341D01*
X34880195Y-54737068D01*
X34897790Y-54712521D01*
X34992579Y-54609553D01*
X35119524Y-54415249D01*
X35212757Y-54202700D01*
X35269734Y-53977705D01*
X35269735Y-53977697D01*
X35288900Y-53746406D01*
X35288900Y-53746393D01*
X35269735Y-53515102D01*
X35269733Y-53515091D01*
X35212757Y-53290099D01*
X35119524Y-53077551D01*
X34992583Y-52883252D01*
X34992580Y-52883249D01*
X34992579Y-52883247D01*
X34835384Y-52712487D01*
X34835379Y-52712483D01*
X34835377Y-52712481D01*
X34652234Y-52569935D01*
X34652228Y-52569931D01*
X34448104Y-52459464D01*
X34448095Y-52459461D01*
X34228584Y-52384102D01*
X34053877Y-52354949D01*
X33999649Y-52345900D01*
X33767551Y-52345900D01*
X33721764Y-52353540D01*
X33538615Y-52384102D01*
X33319104Y-52459461D01*
X33319095Y-52459464D01*
X33114971Y-52569931D01*
X33114965Y-52569935D01*
X32931822Y-52712481D01*
X32931819Y-52712484D01*
X32774616Y-52883252D01*
X32647675Y-53077551D01*
X32554443Y-53290099D01*
X32546787Y-53320334D01*
X32531798Y-53379526D01*
X32530933Y-53382940D01*
X32495394Y-53443096D01*
X32432973Y-53474488D01*
X32410727Y-53476500D01*
X30761920Y-53476500D01*
X30694881Y-53456815D01*
X30674239Y-53440181D01*
X30598739Y-53364681D01*
X30565254Y-53303358D01*
X30570238Y-53233666D01*
X30598739Y-53189319D01*
X30700868Y-53087189D01*
X30700869Y-53087188D01*
X30700872Y-53087185D01*
X30788878Y-52941606D01*
X30839486Y-52779196D01*
X30845900Y-52708616D01*
X30845900Y-52195384D01*
X30839486Y-52124804D01*
X30788878Y-51962394D01*
X30700872Y-51816815D01*
X30700870Y-51816813D01*
X30700869Y-51816811D01*
X30580588Y-51696530D01*
X30555747Y-51681513D01*
X30504949Y-51650804D01*
X30457762Y-51599277D01*
X30445100Y-51544688D01*
X30445100Y-47864389D01*
X30464785Y-47797350D01*
X30517589Y-47751595D01*
X30586747Y-47741651D01*
X30643412Y-47765123D01*
X30657668Y-47775795D01*
X30657671Y-47775797D01*
X30792517Y-47826091D01*
X30792516Y-47826091D01*
X30795056Y-47826364D01*
X30852127Y-47832500D01*
X32647872Y-47832499D01*
X32707483Y-47826091D01*
X32842331Y-47775796D01*
X32957546Y-47689546D01*
X33043796Y-47574331D01*
X33094091Y-47439483D01*
X33100500Y-47379873D01*
X33100499Y-45584128D01*
X33094091Y-45524517D01*
X33092810Y-45521083D01*
X33043797Y-45389671D01*
X33043793Y-45389664D01*
X32957547Y-45274455D01*
X32957544Y-45274452D01*
X32842335Y-45188206D01*
X32842328Y-45188202D01*
X32710401Y-45138997D01*
X32654467Y-45097126D01*
X32630050Y-45031662D01*
X32644902Y-44963389D01*
X32666053Y-44935133D01*
X32788108Y-44813078D01*
X32923600Y-44619578D01*
X33023429Y-44405492D01*
X33023432Y-44405486D01*
X33080636Y-44192000D01*
X32183686Y-44192000D01*
X32209493Y-44151844D01*
X32250000Y-44013889D01*
X32250000Y-43870111D01*
X32209493Y-43732156D01*
X32183686Y-43692000D01*
X33080636Y-43692000D01*
X33080635Y-43691999D01*
X33023432Y-43478513D01*
X33023430Y-43478507D01*
X32992378Y-43411917D01*
X32981886Y-43342840D01*
X33010405Y-43279056D01*
X33068882Y-43240816D01*
X33138749Y-43240261D01*
X33192440Y-43271830D01*
X37737671Y-47817062D01*
X42275558Y-52354949D01*
X42309043Y-52416272D01*
X42308083Y-52473070D01*
X42254196Y-52685867D01*
X42233669Y-52933594D01*
X42233669Y-52933605D01*
X42254196Y-53181332D01*
X42315221Y-53422315D01*
X42415076Y-53649962D01*
X42551040Y-53858072D01*
X42719399Y-54040957D01*
X42719409Y-54040966D01*
X42915566Y-54193641D01*
X42915571Y-54193645D01*
X43000510Y-54239612D01*
X43134196Y-54311959D01*
X43134199Y-54311960D01*
X43369308Y-54392673D01*
X43369310Y-54392673D01*
X43369312Y-54392674D01*
X43614507Y-54433590D01*
X43614508Y-54433590D01*
X43863092Y-54433590D01*
X43863093Y-54433590D01*
X44108288Y-54392674D01*
X44343404Y-54311959D01*
X44562029Y-54193645D01*
X44758197Y-54040961D01*
X44926560Y-53858071D01*
X45062523Y-53649963D01*
X45162379Y-53422315D01*
X45223403Y-53181336D01*
X45243931Y-52933600D01*
X45223403Y-52685864D01*
X45162379Y-52444885D01*
X45062523Y-52217237D01*
X45009423Y-52135961D01*
X44926559Y-52009127D01*
X44758200Y-51826242D01*
X44758190Y-51826233D01*
X44562033Y-51673558D01*
X44562028Y-51673554D01*
X44343405Y-51555241D01*
X44343400Y-51555239D01*
X44108291Y-51474526D01*
X43924391Y-51443839D01*
X43863093Y-51433610D01*
X43614507Y-51433610D01*
X43553208Y-51443839D01*
X43369309Y-51474526D01*
X43289914Y-51501782D01*
X43220116Y-51504931D01*
X43161972Y-51472181D01*
X42718396Y-51028605D01*
X47313669Y-51028605D01*
X47334196Y-51276332D01*
X47395221Y-51517315D01*
X47495076Y-51744962D01*
X47631040Y-51953072D01*
X47799399Y-52135957D01*
X47799409Y-52135966D01*
X47875752Y-52195386D01*
X47995571Y-52288645D01*
X48214196Y-52406959D01*
X48214199Y-52406960D01*
X48449308Y-52487673D01*
X48449310Y-52487673D01*
X48449312Y-52487674D01*
X48694507Y-52528590D01*
X48694508Y-52528590D01*
X48943092Y-52528590D01*
X48943093Y-52528590D01*
X49188288Y-52487674D01*
X49423404Y-52406959D01*
X49642029Y-52288645D01*
X49838197Y-52135961D01*
X50006560Y-51953071D01*
X50142523Y-51744963D01*
X50242379Y-51517315D01*
X50303403Y-51276336D01*
X50323931Y-51028600D01*
X50303403Y-50780864D01*
X50242379Y-50539885D01*
X50142523Y-50312237D01*
X50006560Y-50104129D01*
X50006559Y-50104127D01*
X49838200Y-49921242D01*
X49838190Y-49921233D01*
X49642033Y-49768558D01*
X49642028Y-49768554D01*
X49423405Y-49650241D01*
X49423400Y-49650239D01*
X49188291Y-49569526D01*
X49004391Y-49538839D01*
X48943093Y-49528610D01*
X48694507Y-49528610D01*
X48647003Y-49536537D01*
X48449308Y-49569526D01*
X48214199Y-49650239D01*
X48214194Y-49650241D01*
X47995571Y-49768554D01*
X47995566Y-49768558D01*
X47799409Y-49921233D01*
X47799399Y-49921242D01*
X47631040Y-50104127D01*
X47495076Y-50312237D01*
X47395221Y-50539884D01*
X47334196Y-50780867D01*
X47313669Y-51028594D01*
X47313669Y-51028605D01*
X42718396Y-51028605D01*
X40813396Y-49123605D01*
X42234171Y-49123605D01*
X42254690Y-49371246D01*
X42254692Y-49371257D01*
X42315695Y-49612150D01*
X42415516Y-49839720D01*
X42515732Y-49993112D01*
X43176454Y-49332390D01*
X43215190Y-49425906D01*
X43311274Y-49551126D01*
X43436494Y-49647210D01*
X43530008Y-49685944D01*
X42869107Y-50346845D01*
X42869107Y-50346846D01*
X42915844Y-50383223D01*
X43134395Y-50501498D01*
X43134404Y-50501501D01*
X43369432Y-50582187D01*
X43614549Y-50623090D01*
X43863051Y-50623090D01*
X44108167Y-50582187D01*
X44343195Y-50501501D01*
X44343203Y-50501498D01*
X44561757Y-50383222D01*
X44608491Y-50346845D01*
X44608492Y-50346844D01*
X43947592Y-49685944D01*
X44041106Y-49647210D01*
X44166326Y-49551126D01*
X44262410Y-49425907D01*
X44301144Y-49332391D01*
X44961866Y-49993113D01*
X45062081Y-49839725D01*
X45161904Y-49612150D01*
X45222907Y-49371257D01*
X45222909Y-49371246D01*
X45243429Y-49123605D01*
X45243429Y-49123594D01*
X45222909Y-48875953D01*
X45222907Y-48875942D01*
X45161904Y-48635049D01*
X45062083Y-48407479D01*
X44961866Y-48254085D01*
X44301144Y-48914807D01*
X44262410Y-48821294D01*
X44166326Y-48696074D01*
X44041106Y-48599990D01*
X43947591Y-48561254D01*
X44608491Y-47900353D01*
X44561752Y-47863974D01*
X44343204Y-47745701D01*
X44343195Y-47745698D01*
X44108167Y-47665012D01*
X43863051Y-47624110D01*
X43614549Y-47624110D01*
X43369432Y-47665012D01*
X43134404Y-47745698D01*
X43134395Y-47745701D01*
X42915844Y-47863976D01*
X42869107Y-47900352D01*
X42869107Y-47900353D01*
X43530008Y-48561254D01*
X43436494Y-48599990D01*
X43311274Y-48696074D01*
X43215190Y-48821293D01*
X43176454Y-48914808D01*
X42515731Y-48254085D01*
X42415517Y-48407476D01*
X42315695Y-48635049D01*
X42254692Y-48875942D01*
X42254690Y-48875953D01*
X42234171Y-49123594D01*
X42234171Y-49123605D01*
X40813396Y-49123605D01*
X38908396Y-47218605D01*
X47314171Y-47218605D01*
X47334690Y-47466246D01*
X47334692Y-47466257D01*
X47395695Y-47707150D01*
X47495516Y-47934720D01*
X47595732Y-48088112D01*
X48256454Y-47427390D01*
X48295190Y-47520906D01*
X48391274Y-47646126D01*
X48516494Y-47742210D01*
X48610008Y-47780944D01*
X47949107Y-48441845D01*
X47949107Y-48441846D01*
X47995844Y-48478223D01*
X48214395Y-48596498D01*
X48214404Y-48596501D01*
X48449432Y-48677187D01*
X48694549Y-48718090D01*
X48943051Y-48718090D01*
X49188167Y-48677187D01*
X49423195Y-48596501D01*
X49423203Y-48596498D01*
X49641757Y-48478222D01*
X49688491Y-48441845D01*
X49688492Y-48441844D01*
X49027592Y-47780944D01*
X49121106Y-47742210D01*
X49246326Y-47646126D01*
X49342410Y-47520907D01*
X49381144Y-47427391D01*
X50041866Y-48088113D01*
X50142081Y-47934725D01*
X50241904Y-47707150D01*
X50302907Y-47466257D01*
X50302909Y-47466246D01*
X50323429Y-47218605D01*
X50323429Y-47218594D01*
X50302909Y-46970953D01*
X50302907Y-46970942D01*
X50241904Y-46730049D01*
X50142083Y-46502479D01*
X50041866Y-46349085D01*
X49381144Y-47009807D01*
X49342410Y-46916294D01*
X49246326Y-46791074D01*
X49121106Y-46694990D01*
X49027591Y-46656254D01*
X49688491Y-45995353D01*
X49641752Y-45958974D01*
X49423204Y-45840701D01*
X49423195Y-45840698D01*
X49188167Y-45760012D01*
X48943051Y-45719110D01*
X48694549Y-45719110D01*
X48449432Y-45760012D01*
X48214404Y-45840698D01*
X48214395Y-45840701D01*
X47995844Y-45958976D01*
X47949107Y-45995352D01*
X47949107Y-45995353D01*
X48610008Y-46656254D01*
X48516494Y-46694990D01*
X48391274Y-46791074D01*
X48295190Y-46916293D01*
X48256454Y-47009808D01*
X47595731Y-46349085D01*
X47495517Y-46502476D01*
X47395695Y-46730049D01*
X47334692Y-46970942D01*
X47334690Y-46970953D01*
X47314171Y-47218594D01*
X47314171Y-47218605D01*
X38908396Y-47218605D01*
X33138902Y-41449111D01*
X33105417Y-41387788D01*
X33103055Y-41372238D01*
X33085063Y-41166592D01*
X33023903Y-40938337D01*
X32924035Y-40724171D01*
X32918425Y-40716158D01*
X32788494Y-40530597D01*
X32621402Y-40363506D01*
X32621396Y-40363501D01*
X32435842Y-40233575D01*
X32392217Y-40178998D01*
X32385023Y-40109500D01*
X32416546Y-40047145D01*
X32435842Y-40030425D01*
X32474138Y-40003610D01*
X32621401Y-39900495D01*
X32788495Y-39733401D01*
X32923652Y-39540377D01*
X32978229Y-39496752D01*
X33025227Y-39487500D01*
X34614548Y-39487500D01*
X34681587Y-39507185D01*
X34702229Y-39523819D01*
X40875797Y-45697388D01*
X40885622Y-45709651D01*
X40885843Y-45709469D01*
X40890814Y-45715478D01*
X40916817Y-45739895D01*
X40941235Y-45762826D01*
X40962129Y-45783720D01*
X40967611Y-45787973D01*
X40972043Y-45791757D01*
X41006018Y-45823662D01*
X41023576Y-45833314D01*
X41039835Y-45843995D01*
X41055664Y-45856273D01*
X41098438Y-45874782D01*
X41103656Y-45877338D01*
X41144508Y-45899797D01*
X41163916Y-45904780D01*
X41182317Y-45911080D01*
X41200704Y-45919037D01*
X41244088Y-45925908D01*
X41246719Y-45926325D01*
X41252439Y-45927509D01*
X41297581Y-45939100D01*
X41317616Y-45939100D01*
X41337014Y-45940626D01*
X41356794Y-45943759D01*
X41356795Y-45943760D01*
X41356795Y-45943759D01*
X41356796Y-45943760D01*
X41403184Y-45939375D01*
X41409022Y-45939100D01*
X42294207Y-45939100D01*
X42361246Y-45958785D01*
X42407001Y-46011589D01*
X42407762Y-46013289D01*
X42415074Y-46029959D01*
X42551040Y-46238072D01*
X42653236Y-46349085D01*
X42719403Y-46420961D01*
X42915571Y-46573645D01*
X43134196Y-46691959D01*
X43134199Y-46691960D01*
X43369308Y-46772673D01*
X43369310Y-46772673D01*
X43369312Y-46772674D01*
X43614507Y-46813590D01*
X43614508Y-46813590D01*
X43863092Y-46813590D01*
X43863093Y-46813590D01*
X44108288Y-46772674D01*
X44343404Y-46691959D01*
X44562029Y-46573645D01*
X44758197Y-46420961D01*
X44926560Y-46238071D01*
X45062523Y-46029963D01*
X45162379Y-45802315D01*
X45223403Y-45561336D01*
X45243931Y-45313600D01*
X45243464Y-45307965D01*
X45228842Y-45131500D01*
X45223403Y-45065864D01*
X45162379Y-44824885D01*
X45062523Y-44597237D01*
X45009423Y-44515961D01*
X44926559Y-44389127D01*
X44758200Y-44206242D01*
X44758190Y-44206233D01*
X44562033Y-44053558D01*
X44562028Y-44053554D01*
X44343405Y-43935241D01*
X44343400Y-43935239D01*
X44108291Y-43854526D01*
X43924391Y-43823839D01*
X43863093Y-43813610D01*
X43614507Y-43813610D01*
X43565468Y-43821793D01*
X43369308Y-43854526D01*
X43134199Y-43935239D01*
X43134194Y-43935241D01*
X42915571Y-44053554D01*
X42915566Y-44053558D01*
X42719409Y-44206233D01*
X42719399Y-44206242D01*
X42551040Y-44389127D01*
X42415074Y-44597240D01*
X42407762Y-44613911D01*
X42362806Y-44667397D01*
X42296070Y-44688086D01*
X42294207Y-44688100D01*
X41687053Y-44688100D01*
X41620014Y-44668415D01*
X41599372Y-44651781D01*
X40356196Y-43408605D01*
X47313669Y-43408605D01*
X47334196Y-43656332D01*
X47395221Y-43897315D01*
X47495076Y-44124962D01*
X47631040Y-44333072D01*
X47799399Y-44515957D01*
X47799409Y-44515966D01*
X47947085Y-44630907D01*
X47995571Y-44668645D01*
X48214196Y-44786959D01*
X48214199Y-44786960D01*
X48449308Y-44867673D01*
X48449310Y-44867673D01*
X48449312Y-44867674D01*
X48694507Y-44908590D01*
X48694508Y-44908590D01*
X48943092Y-44908590D01*
X48943093Y-44908590D01*
X49188288Y-44867674D01*
X49423404Y-44786959D01*
X49642029Y-44668645D01*
X49838197Y-44515961D01*
X50006560Y-44333071D01*
X50142523Y-44124963D01*
X50242379Y-43897315D01*
X50303403Y-43656336D01*
X50318138Y-43478513D01*
X50323931Y-43408605D01*
X50323931Y-43408594D01*
X50303403Y-43160867D01*
X50303403Y-43160864D01*
X50242379Y-42919885D01*
X50142523Y-42692237D01*
X50089423Y-42610961D01*
X50006559Y-42484127D01*
X49838200Y-42301242D01*
X49838190Y-42301233D01*
X49642033Y-42148558D01*
X49642028Y-42148554D01*
X49423405Y-42030241D01*
X49423400Y-42030239D01*
X49188291Y-41949526D01*
X49004391Y-41918839D01*
X48943093Y-41908610D01*
X48694507Y-41908610D01*
X48645468Y-41916793D01*
X48449308Y-41949526D01*
X48214199Y-42030239D01*
X48214194Y-42030241D01*
X47995571Y-42148554D01*
X47995566Y-42148558D01*
X47799409Y-42301233D01*
X47799399Y-42301242D01*
X47631040Y-42484127D01*
X47495076Y-42692237D01*
X47395221Y-42919884D01*
X47334196Y-43160867D01*
X47313669Y-43408594D01*
X47313669Y-43408605D01*
X40356196Y-43408605D01*
X38451196Y-41503605D01*
X42233669Y-41503605D01*
X42254196Y-41751332D01*
X42315221Y-41992315D01*
X42415076Y-42219962D01*
X42551040Y-42428072D01*
X42719399Y-42610957D01*
X42719409Y-42610966D01*
X42858599Y-42719302D01*
X42915571Y-42763645D01*
X43134196Y-42881959D01*
X43134199Y-42881960D01*
X43369308Y-42962673D01*
X43369310Y-42962673D01*
X43369312Y-42962674D01*
X43614507Y-43003590D01*
X43614508Y-43003590D01*
X43863092Y-43003590D01*
X43863093Y-43003590D01*
X44108288Y-42962674D01*
X44343404Y-42881959D01*
X44562029Y-42763645D01*
X44758197Y-42610961D01*
X44926560Y-42428071D01*
X45062523Y-42219963D01*
X45162379Y-41992315D01*
X45223403Y-41751336D01*
X45243931Y-41503600D01*
X45223403Y-41255864D01*
X45162379Y-41014885D01*
X45062523Y-40787237D01*
X44926560Y-40579129D01*
X44926559Y-40579127D01*
X44758200Y-40396242D01*
X44758190Y-40396233D01*
X44562033Y-40243558D01*
X44562028Y-40243554D01*
X44343405Y-40125241D01*
X44343400Y-40125239D01*
X44108291Y-40044526D01*
X43924391Y-40013839D01*
X43863093Y-40003610D01*
X43614507Y-40003610D01*
X43565468Y-40011793D01*
X43369308Y-40044526D01*
X43134199Y-40125239D01*
X43134194Y-40125241D01*
X42915571Y-40243554D01*
X42915566Y-40243558D01*
X42719409Y-40396233D01*
X42719399Y-40396242D01*
X42551040Y-40579127D01*
X42415076Y-40787237D01*
X42315221Y-41014884D01*
X42254196Y-41255867D01*
X42233669Y-41503594D01*
X42233669Y-41503605D01*
X38451196Y-41503605D01*
X36546196Y-39598605D01*
X47314171Y-39598605D01*
X47334690Y-39846246D01*
X47334692Y-39846257D01*
X47395695Y-40087150D01*
X47495516Y-40314720D01*
X47595732Y-40468112D01*
X48256454Y-39807390D01*
X48295190Y-39900906D01*
X48391274Y-40026126D01*
X48516494Y-40122210D01*
X48610008Y-40160944D01*
X47949107Y-40821845D01*
X47949107Y-40821846D01*
X47995844Y-40858223D01*
X48214395Y-40976498D01*
X48214404Y-40976501D01*
X48449432Y-41057187D01*
X48694549Y-41098090D01*
X48943051Y-41098090D01*
X49188167Y-41057187D01*
X49423195Y-40976501D01*
X49423203Y-40976498D01*
X49641757Y-40858222D01*
X49688491Y-40821845D01*
X49688492Y-40821844D01*
X49027592Y-40160944D01*
X49121106Y-40122210D01*
X49246326Y-40026126D01*
X49342410Y-39900907D01*
X49381144Y-39807391D01*
X50041866Y-40468113D01*
X50142081Y-40314725D01*
X50241904Y-40087150D01*
X50302907Y-39846257D01*
X50302909Y-39846246D01*
X50323429Y-39598605D01*
X50323429Y-39598594D01*
X50302909Y-39350953D01*
X50302907Y-39350942D01*
X50241904Y-39110049D01*
X50142083Y-38882479D01*
X50041866Y-38729085D01*
X49381144Y-39389807D01*
X49342410Y-39296294D01*
X49246326Y-39171074D01*
X49121106Y-39074990D01*
X49027591Y-39036254D01*
X49688491Y-38375353D01*
X49641752Y-38338974D01*
X49423204Y-38220701D01*
X49423195Y-38220698D01*
X49188167Y-38140012D01*
X48943051Y-38099110D01*
X48694549Y-38099110D01*
X48449432Y-38140012D01*
X48214404Y-38220698D01*
X48214395Y-38220701D01*
X47995844Y-38338976D01*
X47949107Y-38375352D01*
X47949107Y-38375353D01*
X48610008Y-39036254D01*
X48516494Y-39074990D01*
X48391274Y-39171074D01*
X48295190Y-39296293D01*
X48256454Y-39389808D01*
X47595731Y-38729085D01*
X47495517Y-38882476D01*
X47395695Y-39110049D01*
X47334692Y-39350942D01*
X47334690Y-39350953D01*
X47314171Y-39598594D01*
X47314171Y-39598605D01*
X36546196Y-39598605D01*
X35425803Y-38478212D01*
X35415980Y-38465950D01*
X35415759Y-38466134D01*
X35410786Y-38460123D01*
X35360364Y-38412773D01*
X35345926Y-38398335D01*
X35339475Y-38391883D01*
X35333986Y-38387625D01*
X35329561Y-38383847D01*
X35295582Y-38351938D01*
X35295580Y-38351936D01*
X35295577Y-38351935D01*
X35278029Y-38342288D01*
X35261763Y-38331604D01*
X35245933Y-38319325D01*
X35203168Y-38300818D01*
X35197922Y-38298248D01*
X35157093Y-38275803D01*
X35157092Y-38275802D01*
X35137693Y-38270822D01*
X35119281Y-38264518D01*
X35100898Y-38256562D01*
X35100892Y-38256560D01*
X35054874Y-38249272D01*
X35049152Y-38248087D01*
X35004021Y-38236500D01*
X35004019Y-38236500D01*
X34983984Y-38236500D01*
X34964586Y-38234973D01*
X34957162Y-38233797D01*
X34944805Y-38231840D01*
X34944804Y-38231840D01*
X34898416Y-38236225D01*
X34892578Y-38236500D01*
X33025227Y-38236500D01*
X32958188Y-38216815D01*
X32923652Y-38183623D01*
X32788494Y-37990597D01*
X32621402Y-37823506D01*
X32621401Y-37823505D01*
X32435885Y-37693605D01*
X42233669Y-37693605D01*
X42254196Y-37941332D01*
X42315221Y-38182315D01*
X42415076Y-38409962D01*
X42551040Y-38618072D01*
X42653236Y-38729085D01*
X42719403Y-38800961D01*
X42915571Y-38953645D01*
X43134196Y-39071959D01*
X43134199Y-39071960D01*
X43369308Y-39152673D01*
X43369310Y-39152673D01*
X43369312Y-39152674D01*
X43614507Y-39193590D01*
X43614508Y-39193590D01*
X43863092Y-39193590D01*
X43863093Y-39193590D01*
X44108288Y-39152674D01*
X44343404Y-39071959D01*
X44562029Y-38953645D01*
X44758197Y-38800961D01*
X44926560Y-38618071D01*
X45062523Y-38409963D01*
X45162379Y-38182315D01*
X45223403Y-37941336D01*
X45243931Y-37693600D01*
X45243464Y-37687965D01*
X45228481Y-37507145D01*
X45223403Y-37445864D01*
X45162379Y-37204885D01*
X45062523Y-36977237D01*
X45009423Y-36895961D01*
X44926559Y-36769127D01*
X44758200Y-36586242D01*
X44758190Y-36586233D01*
X44562033Y-36433558D01*
X44562028Y-36433554D01*
X44343405Y-36315241D01*
X44343400Y-36315239D01*
X44108291Y-36234526D01*
X43877415Y-36196000D01*
X43863093Y-36193610D01*
X43614507Y-36193610D01*
X43600185Y-36196000D01*
X43369308Y-36234526D01*
X43134199Y-36315239D01*
X43134194Y-36315241D01*
X42915571Y-36433554D01*
X42915566Y-36433558D01*
X42719409Y-36586233D01*
X42719399Y-36586242D01*
X42551040Y-36769127D01*
X42415076Y-36977237D01*
X42315221Y-37204884D01*
X42254196Y-37445867D01*
X42233669Y-37693594D01*
X42233669Y-37693605D01*
X32435885Y-37693605D01*
X32435405Y-37693269D01*
X32391781Y-37638692D01*
X32384588Y-37569193D01*
X32416110Y-37506839D01*
X32435405Y-37490119D01*
X32621082Y-37360105D01*
X32788105Y-37193082D01*
X32923600Y-36999578D01*
X33023429Y-36785492D01*
X33023432Y-36785486D01*
X33080636Y-36572000D01*
X32183686Y-36572000D01*
X32209493Y-36531844D01*
X32250000Y-36393889D01*
X32250000Y-36250111D01*
X32209493Y-36112156D01*
X32183686Y-36072000D01*
X33080636Y-36072000D01*
X33080635Y-36071999D01*
X33023432Y-35858513D01*
X33023429Y-35858507D01*
X32990833Y-35788605D01*
X47313669Y-35788605D01*
X47334196Y-36036332D01*
X47395221Y-36277315D01*
X47495076Y-36504962D01*
X47631040Y-36713072D01*
X47799399Y-36895957D01*
X47799403Y-36895961D01*
X47995571Y-37048645D01*
X48214196Y-37166959D01*
X48214199Y-37166960D01*
X48449308Y-37247673D01*
X48449310Y-37247673D01*
X48449312Y-37247674D01*
X48694507Y-37288590D01*
X48694508Y-37288590D01*
X48943092Y-37288590D01*
X48943093Y-37288590D01*
X49188288Y-37247674D01*
X49423404Y-37166959D01*
X49642029Y-37048645D01*
X49838197Y-36895961D01*
X50006560Y-36713071D01*
X50142523Y-36504963D01*
X50242379Y-36277315D01*
X50303403Y-36036336D01*
X50318138Y-35858513D01*
X50323931Y-35788605D01*
X50323931Y-35788594D01*
X50303403Y-35540867D01*
X50303403Y-35540864D01*
X50242379Y-35299885D01*
X50142523Y-35072237D01*
X50089423Y-34990961D01*
X50006559Y-34864127D01*
X49838200Y-34681242D01*
X49838190Y-34681233D01*
X49642033Y-34528558D01*
X49642028Y-34528554D01*
X49423405Y-34410241D01*
X49423400Y-34410239D01*
X49188291Y-34329526D01*
X49004391Y-34298839D01*
X48943093Y-34288610D01*
X48694507Y-34288610D01*
X48645468Y-34296793D01*
X48449308Y-34329526D01*
X48214199Y-34410239D01*
X48214194Y-34410241D01*
X47995571Y-34528554D01*
X47995566Y-34528558D01*
X47799409Y-34681233D01*
X47799399Y-34681242D01*
X47631040Y-34864127D01*
X47495076Y-35072237D01*
X47395221Y-35299884D01*
X47334196Y-35540867D01*
X47313669Y-35788594D01*
X47313669Y-35788605D01*
X32990833Y-35788605D01*
X32923600Y-35644422D01*
X32923599Y-35644420D01*
X32788113Y-35450926D01*
X32788108Y-35450920D01*
X32621078Y-35283890D01*
X32435405Y-35153879D01*
X32391780Y-35099302D01*
X32384588Y-35029804D01*
X32416110Y-34967449D01*
X32435406Y-34950730D01*
X32559088Y-34864127D01*
X32621401Y-34820495D01*
X32788495Y-34653401D01*
X32924035Y-34459830D01*
X33023903Y-34245663D01*
X33085063Y-34017408D01*
X33096770Y-33883605D01*
X42233669Y-33883605D01*
X42254196Y-34131332D01*
X42315221Y-34372315D01*
X42415076Y-34599962D01*
X42551040Y-34808072D01*
X42719399Y-34990957D01*
X42719409Y-34990966D01*
X42858599Y-35099302D01*
X42915571Y-35143645D01*
X43134196Y-35261959D01*
X43134199Y-35261960D01*
X43369308Y-35342673D01*
X43369310Y-35342673D01*
X43369312Y-35342674D01*
X43614507Y-35383590D01*
X43614508Y-35383590D01*
X43863092Y-35383590D01*
X43863093Y-35383590D01*
X44108288Y-35342674D01*
X44343404Y-35261959D01*
X44562029Y-35143645D01*
X44758197Y-34990961D01*
X44926560Y-34808071D01*
X45062523Y-34599963D01*
X45162379Y-34372315D01*
X45223403Y-34131336D01*
X45243931Y-33883600D01*
X45223403Y-33635864D01*
X45162379Y-33394885D01*
X45062523Y-33167237D01*
X45047425Y-33144127D01*
X44926559Y-32959127D01*
X44758200Y-32776242D01*
X44758190Y-32776233D01*
X44562033Y-32623558D01*
X44562028Y-32623554D01*
X44343405Y-32505241D01*
X44343400Y-32505239D01*
X44108291Y-32424526D01*
X43924391Y-32393839D01*
X43863093Y-32383610D01*
X43614507Y-32383610D01*
X43565468Y-32391793D01*
X43369308Y-32424526D01*
X43134199Y-32505239D01*
X43134194Y-32505241D01*
X42915571Y-32623554D01*
X42915566Y-32623558D01*
X42719409Y-32776233D01*
X42719399Y-32776242D01*
X42551040Y-32959127D01*
X42415076Y-33167237D01*
X42315221Y-33394884D01*
X42254196Y-33635867D01*
X42233669Y-33883594D01*
X42233669Y-33883605D01*
X33096770Y-33883605D01*
X33105659Y-33782000D01*
X33085063Y-33546592D01*
X33023903Y-33318337D01*
X32924035Y-33104171D01*
X32919786Y-33098102D01*
X32788494Y-32910597D01*
X32621402Y-32743506D01*
X32621401Y-32743505D01*
X32435405Y-32613269D01*
X32391781Y-32558692D01*
X32384588Y-32489193D01*
X32416110Y-32426839D01*
X32435405Y-32410119D01*
X32621082Y-32280105D01*
X32788105Y-32113082D01*
X32882268Y-31978605D01*
X47314171Y-31978605D01*
X47334690Y-32226246D01*
X47334692Y-32226257D01*
X47395695Y-32467150D01*
X47495516Y-32694720D01*
X47595732Y-32848112D01*
X48256454Y-32187390D01*
X48295190Y-32280906D01*
X48391274Y-32406126D01*
X48516494Y-32502210D01*
X48610008Y-32540944D01*
X47949107Y-33201845D01*
X47949107Y-33201846D01*
X47995844Y-33238223D01*
X48214395Y-33356498D01*
X48214404Y-33356501D01*
X48449432Y-33437187D01*
X48694549Y-33478090D01*
X48943051Y-33478090D01*
X49188167Y-33437187D01*
X49423195Y-33356501D01*
X49423203Y-33356498D01*
X49641757Y-33238222D01*
X49688491Y-33201845D01*
X49688492Y-33201844D01*
X49027592Y-32540944D01*
X49121106Y-32502210D01*
X49246326Y-32406126D01*
X49342410Y-32280907D01*
X49381144Y-32187391D01*
X50041866Y-32848113D01*
X50142081Y-32694725D01*
X50241904Y-32467150D01*
X50302907Y-32226257D01*
X50302909Y-32226246D01*
X50323429Y-31978605D01*
X50323429Y-31978594D01*
X50302909Y-31730953D01*
X50302907Y-31730942D01*
X50241904Y-31490049D01*
X50142083Y-31262479D01*
X50041866Y-31109085D01*
X49381144Y-31769807D01*
X49342410Y-31676294D01*
X49246326Y-31551074D01*
X49121106Y-31454990D01*
X49027591Y-31416254D01*
X49688491Y-30755353D01*
X49641752Y-30718974D01*
X49423204Y-30600701D01*
X49423195Y-30600698D01*
X49188167Y-30520012D01*
X48943051Y-30479110D01*
X48694549Y-30479110D01*
X48449432Y-30520012D01*
X48214404Y-30600698D01*
X48214395Y-30600701D01*
X47995844Y-30718976D01*
X47949107Y-30755352D01*
X47949107Y-30755353D01*
X48610008Y-31416254D01*
X48516494Y-31454990D01*
X48391274Y-31551074D01*
X48295190Y-31676293D01*
X48256454Y-31769808D01*
X47595731Y-31109085D01*
X47495517Y-31262476D01*
X47395695Y-31490049D01*
X47334692Y-31730942D01*
X47334690Y-31730953D01*
X47314171Y-31978594D01*
X47314171Y-31978605D01*
X32882268Y-31978605D01*
X32923600Y-31919578D01*
X33023429Y-31705492D01*
X33023432Y-31705486D01*
X33080636Y-31492000D01*
X32183686Y-31492000D01*
X32209493Y-31451844D01*
X32250000Y-31313889D01*
X32250000Y-31170111D01*
X32209493Y-31032156D01*
X32183686Y-30992000D01*
X33080636Y-30992000D01*
X33080635Y-30991999D01*
X33023432Y-30778513D01*
X33023429Y-30778507D01*
X32923600Y-30564422D01*
X32923599Y-30564420D01*
X32788113Y-30370926D01*
X32788108Y-30370920D01*
X32621078Y-30203890D01*
X32435405Y-30073879D01*
X32435186Y-30073605D01*
X42234171Y-30073605D01*
X42254690Y-30321246D01*
X42254692Y-30321257D01*
X42315695Y-30562150D01*
X42415516Y-30789720D01*
X42515732Y-30943112D01*
X43176454Y-30282390D01*
X43215190Y-30375906D01*
X43311274Y-30501126D01*
X43436494Y-30597210D01*
X43530008Y-30635944D01*
X42869107Y-31296845D01*
X42869107Y-31296846D01*
X42915844Y-31333223D01*
X43134395Y-31451498D01*
X43134404Y-31451501D01*
X43369432Y-31532187D01*
X43614549Y-31573090D01*
X43863051Y-31573090D01*
X44108167Y-31532187D01*
X44343195Y-31451501D01*
X44343203Y-31451498D01*
X44561757Y-31333222D01*
X44608491Y-31296845D01*
X44608492Y-31296844D01*
X43947592Y-30635944D01*
X44041106Y-30597210D01*
X44166326Y-30501126D01*
X44262410Y-30375907D01*
X44301144Y-30282391D01*
X44961866Y-30943113D01*
X45062081Y-30789725D01*
X45161904Y-30562150D01*
X45222907Y-30321257D01*
X45222909Y-30321246D01*
X45243429Y-30073605D01*
X45243429Y-30073594D01*
X45222909Y-29825953D01*
X45222907Y-29825942D01*
X45161904Y-29585049D01*
X45062083Y-29357479D01*
X44961866Y-29204085D01*
X44301144Y-29864807D01*
X44262410Y-29771294D01*
X44166326Y-29646074D01*
X44041106Y-29549990D01*
X43947591Y-29511254D01*
X44608491Y-28850353D01*
X44561752Y-28813974D01*
X44343204Y-28695701D01*
X44343195Y-28695698D01*
X44108167Y-28615012D01*
X43863051Y-28574110D01*
X43614549Y-28574110D01*
X43369432Y-28615012D01*
X43134404Y-28695698D01*
X43134395Y-28695701D01*
X42915844Y-28813976D01*
X42869107Y-28850352D01*
X42869107Y-28850353D01*
X43530008Y-29511254D01*
X43436494Y-29549990D01*
X43311274Y-29646074D01*
X43215190Y-29771293D01*
X43176454Y-29864808D01*
X42515731Y-29204085D01*
X42415517Y-29357476D01*
X42315695Y-29585049D01*
X42254692Y-29825942D01*
X42254690Y-29825953D01*
X42234171Y-30073594D01*
X42234171Y-30073605D01*
X32435186Y-30073605D01*
X32391780Y-30019302D01*
X32384588Y-29949804D01*
X32416110Y-29887449D01*
X32435406Y-29870730D01*
X32499370Y-29825942D01*
X32621401Y-29740495D01*
X32788495Y-29573401D01*
X32924035Y-29379830D01*
X33023903Y-29165663D01*
X33085063Y-28937408D01*
X33105659Y-28702000D01*
X33085063Y-28466592D01*
X33023903Y-28238337D01*
X32991386Y-28168605D01*
X47313669Y-28168605D01*
X47334196Y-28416332D01*
X47395221Y-28657315D01*
X47495076Y-28884962D01*
X47631040Y-29093072D01*
X47705570Y-29174032D01*
X47799403Y-29275961D01*
X47995571Y-29428645D01*
X48214196Y-29546959D01*
X48214199Y-29546960D01*
X48449308Y-29627673D01*
X48449310Y-29627673D01*
X48449312Y-29627674D01*
X48694507Y-29668590D01*
X48694508Y-29668590D01*
X48943092Y-29668590D01*
X48943093Y-29668590D01*
X49188288Y-29627674D01*
X49423404Y-29546959D01*
X49642029Y-29428645D01*
X49838197Y-29275961D01*
X50006560Y-29093071D01*
X50142523Y-28884963D01*
X50242379Y-28657315D01*
X50303403Y-28416336D01*
X50318152Y-28238344D01*
X50323931Y-28168605D01*
X50323931Y-28168594D01*
X50303403Y-27920867D01*
X50303403Y-27920864D01*
X50242379Y-27679885D01*
X50142523Y-27452237D01*
X50089423Y-27370961D01*
X50006559Y-27244127D01*
X49838200Y-27061242D01*
X49838190Y-27061233D01*
X49642033Y-26908558D01*
X49642028Y-26908554D01*
X49423405Y-26790241D01*
X49423400Y-26790239D01*
X49188291Y-26709526D01*
X49004391Y-26678839D01*
X48943093Y-26668610D01*
X48694507Y-26668610D01*
X48645468Y-26676793D01*
X48449308Y-26709526D01*
X48214199Y-26790239D01*
X48214194Y-26790241D01*
X47995571Y-26908554D01*
X47995566Y-26908558D01*
X47799409Y-27061233D01*
X47799399Y-27061242D01*
X47631040Y-27244127D01*
X47495076Y-27452237D01*
X47395221Y-27679884D01*
X47334196Y-27920867D01*
X47313669Y-28168594D01*
X47313669Y-28168605D01*
X32991386Y-28168605D01*
X32924035Y-28024171D01*
X32918425Y-28016158D01*
X32788494Y-27830597D01*
X32621402Y-27663506D01*
X32621401Y-27663505D01*
X32428376Y-27528347D01*
X32384751Y-27473770D01*
X32375500Y-27426772D01*
X32375500Y-22789452D01*
X32395185Y-22722413D01*
X32411819Y-22701771D01*
X32659985Y-22453605D01*
X42234171Y-22453605D01*
X42254690Y-22701246D01*
X42254692Y-22701257D01*
X42315695Y-22942150D01*
X42415516Y-23169720D01*
X42515732Y-23323112D01*
X43176454Y-22662390D01*
X43215190Y-22755906D01*
X43311274Y-22881126D01*
X43436494Y-22977210D01*
X43530008Y-23015944D01*
X42869107Y-23676845D01*
X42869107Y-23676846D01*
X42915844Y-23713223D01*
X43134395Y-23831498D01*
X43134404Y-23831501D01*
X43369432Y-23912187D01*
X43614549Y-23953090D01*
X43863051Y-23953090D01*
X44108167Y-23912187D01*
X44343195Y-23831501D01*
X44343203Y-23831498D01*
X44561757Y-23713222D01*
X44608491Y-23676845D01*
X44608492Y-23676844D01*
X43947592Y-23015944D01*
X44041106Y-22977210D01*
X44166326Y-22881126D01*
X44262410Y-22755907D01*
X44301144Y-22662391D01*
X44961866Y-23323113D01*
X45062081Y-23169725D01*
X45161904Y-22942150D01*
X45222907Y-22701257D01*
X45222909Y-22701246D01*
X45243429Y-22453605D01*
X45243429Y-22453594D01*
X45222909Y-22205953D01*
X45222907Y-22205942D01*
X45161904Y-21965049D01*
X45062083Y-21737479D01*
X44961866Y-21584085D01*
X44301144Y-22244807D01*
X44262410Y-22151294D01*
X44166326Y-22026074D01*
X44041106Y-21929990D01*
X43947591Y-21891254D01*
X44608491Y-21230353D01*
X44561752Y-21193974D01*
X44343204Y-21075701D01*
X44343195Y-21075698D01*
X44108167Y-20995012D01*
X43863051Y-20954110D01*
X43614549Y-20954110D01*
X43369432Y-20995012D01*
X43134404Y-21075698D01*
X43134395Y-21075701D01*
X42915844Y-21193976D01*
X42869107Y-21230352D01*
X42869107Y-21230353D01*
X43530008Y-21891254D01*
X43436494Y-21929990D01*
X43311274Y-22026074D01*
X43215190Y-22151293D01*
X43176454Y-22244808D01*
X42515731Y-21584085D01*
X42415517Y-21737476D01*
X42315695Y-21965049D01*
X42254692Y-22205942D01*
X42254690Y-22205953D01*
X42234171Y-22453594D01*
X42234171Y-22453605D01*
X32659985Y-22453605D01*
X35808171Y-19305419D01*
X35869494Y-19271934D01*
X35895852Y-19269100D01*
X42294207Y-19269100D01*
X42361246Y-19288785D01*
X42407001Y-19341589D01*
X42407762Y-19343289D01*
X42415074Y-19359959D01*
X42551040Y-19568072D01*
X42602643Y-19624127D01*
X42719403Y-19750961D01*
X42915571Y-19903645D01*
X43134196Y-20021959D01*
X43134199Y-20021960D01*
X43369308Y-20102673D01*
X43369310Y-20102673D01*
X43369312Y-20102674D01*
X43614507Y-20143590D01*
X43614508Y-20143590D01*
X43863092Y-20143590D01*
X43863093Y-20143590D01*
X44108288Y-20102674D01*
X44343404Y-20021959D01*
X44562029Y-19903645D01*
X44758197Y-19750961D01*
X44926560Y-19568071D01*
X45062523Y-19359963D01*
X45162379Y-19132315D01*
X45223403Y-18891336D01*
X45243931Y-18643600D01*
X45223403Y-18395864D01*
X45162379Y-18154885D01*
X45062523Y-17927237D01*
X44977030Y-17796379D01*
X44926559Y-17719127D01*
X44758200Y-17536242D01*
X44758190Y-17536233D01*
X44562033Y-17383558D01*
X44562028Y-17383554D01*
X44343405Y-17265241D01*
X44343400Y-17265239D01*
X44108291Y-17184526D01*
X43924391Y-17153839D01*
X43863093Y-17143610D01*
X43614507Y-17143610D01*
X43565468Y-17151793D01*
X43369308Y-17184526D01*
X43134199Y-17265239D01*
X43134194Y-17265241D01*
X42915571Y-17383554D01*
X42915566Y-17383558D01*
X42719409Y-17536233D01*
X42719399Y-17536242D01*
X42551040Y-17719127D01*
X42415074Y-17927240D01*
X42407762Y-17943911D01*
X42362806Y-17997397D01*
X42296070Y-18018086D01*
X42294207Y-18018100D01*
X35668143Y-18018100D01*
X35652522Y-18016375D01*
X35652495Y-18016661D01*
X35644733Y-18015926D01*
X35575572Y-18018100D01*
X35546049Y-18018100D01*
X35539178Y-18018967D01*
X35533359Y-18019425D01*
X35486774Y-18020889D01*
X35486768Y-18020890D01*
X35467526Y-18026480D01*
X35448487Y-18030423D01*
X35428617Y-18032934D01*
X35428603Y-18032937D01*
X35385283Y-18050088D01*
X35379758Y-18051980D01*
X35335013Y-18064980D01*
X35335010Y-18064981D01*
X35317766Y-18075179D01*
X35300305Y-18083733D01*
X35281674Y-18091110D01*
X35281662Y-18091117D01*
X35243970Y-18118502D01*
X35239087Y-18121709D01*
X35198980Y-18145429D01*
X35184814Y-18159595D01*
X35170024Y-18172227D01*
X35153814Y-18184004D01*
X35153811Y-18184007D01*
X35124110Y-18219909D01*
X35120177Y-18224231D01*
X31366208Y-21978199D01*
X31353951Y-21988020D01*
X31354134Y-21988241D01*
X31348123Y-21993213D01*
X31300772Y-22043636D01*
X31279889Y-22064519D01*
X31279877Y-22064532D01*
X31275621Y-22070017D01*
X31271837Y-22074447D01*
X31239937Y-22108418D01*
X31239936Y-22108420D01*
X31230284Y-22125976D01*
X31219610Y-22142226D01*
X31207329Y-22158061D01*
X31207324Y-22158068D01*
X31188815Y-22200838D01*
X31186245Y-22206084D01*
X31163803Y-22246906D01*
X31158822Y-22266307D01*
X31152521Y-22284710D01*
X31144562Y-22303102D01*
X31144561Y-22303105D01*
X31137271Y-22349127D01*
X31136087Y-22354846D01*
X31124501Y-22399972D01*
X31124500Y-22399982D01*
X31124500Y-22420016D01*
X31122973Y-22439415D01*
X31119840Y-22459194D01*
X31119840Y-22459195D01*
X31124225Y-22505583D01*
X31124500Y-22511421D01*
X31124500Y-27426773D01*
X31104815Y-27493812D01*
X31071623Y-27528348D01*
X30878597Y-27663505D01*
X30711505Y-27830597D01*
X30581575Y-28016158D01*
X30526998Y-28059783D01*
X30457500Y-28066977D01*
X30395145Y-28035454D01*
X30378425Y-28016158D01*
X30248494Y-27830597D01*
X30081402Y-27663506D01*
X30081401Y-27663505D01*
X29888376Y-27528347D01*
X29844751Y-27473770D01*
X29835500Y-27426772D01*
X29835500Y-19487452D01*
X29855185Y-19420413D01*
X29871819Y-19399771D01*
X32353772Y-16917819D01*
X32415095Y-16884334D01*
X32441453Y-16881500D01*
X44774548Y-16881500D01*
X44841587Y-16901185D01*
X44862229Y-16917819D01*
X45693181Y-17748771D01*
X45726666Y-17810094D01*
X45729500Y-17836452D01*
X45729500Y-23336946D01*
X45709815Y-23403985D01*
X45693181Y-23424627D01*
X44315626Y-24802181D01*
X44254303Y-24835666D01*
X44187683Y-24831781D01*
X44108293Y-24804526D01*
X43903958Y-24770429D01*
X43863093Y-24763610D01*
X43614507Y-24763610D01*
X43565468Y-24771793D01*
X43369308Y-24804526D01*
X43134199Y-24885239D01*
X43134194Y-24885241D01*
X42915571Y-25003554D01*
X42915566Y-25003558D01*
X42719409Y-25156233D01*
X42719399Y-25156242D01*
X42551040Y-25339127D01*
X42415076Y-25547237D01*
X42315221Y-25774884D01*
X42254196Y-26015867D01*
X42233669Y-26263594D01*
X42233669Y-26263605D01*
X42254196Y-26511332D01*
X42315221Y-26752315D01*
X42415076Y-26979962D01*
X42551040Y-27188072D01*
X42602643Y-27244127D01*
X42719403Y-27370961D01*
X42915571Y-27523645D01*
X43134196Y-27641959D01*
X43134199Y-27641960D01*
X43369308Y-27722673D01*
X43369310Y-27722673D01*
X43369312Y-27722674D01*
X43614507Y-27763590D01*
X43614508Y-27763590D01*
X43863092Y-27763590D01*
X43863093Y-27763590D01*
X44108288Y-27722674D01*
X44343404Y-27641959D01*
X44562029Y-27523645D01*
X44758197Y-27370961D01*
X44926560Y-27188071D01*
X45062523Y-26979963D01*
X45162379Y-26752315D01*
X45223403Y-26511336D01*
X45243931Y-26263600D01*
X45223403Y-26015864D01*
X45169516Y-25803068D01*
X45172141Y-25733248D01*
X45202039Y-25684949D01*
X46528383Y-24358605D01*
X47313669Y-24358605D01*
X47334196Y-24606332D01*
X47395221Y-24847315D01*
X47495076Y-25074962D01*
X47631040Y-25283072D01*
X47682643Y-25339127D01*
X47799403Y-25465961D01*
X47995571Y-25618645D01*
X48214196Y-25736959D01*
X48231636Y-25742946D01*
X48449308Y-25817673D01*
X48449310Y-25817673D01*
X48449312Y-25817674D01*
X48694507Y-25858590D01*
X48694508Y-25858590D01*
X48943092Y-25858590D01*
X48943093Y-25858590D01*
X49188288Y-25817674D01*
X49423404Y-25736959D01*
X49642029Y-25618645D01*
X49838197Y-25465961D01*
X50006560Y-25283071D01*
X50142523Y-25074963D01*
X50242379Y-24847315D01*
X50303403Y-24606336D01*
X50323931Y-24358600D01*
X50303403Y-24110864D01*
X50242379Y-23869885D01*
X50142523Y-23642237D01*
X50006560Y-23434129D01*
X50006559Y-23434127D01*
X49838200Y-23251242D01*
X49838190Y-23251233D01*
X49642033Y-23098558D01*
X49642028Y-23098554D01*
X49423405Y-22980241D01*
X49423400Y-22980239D01*
X49188291Y-22899526D01*
X49004391Y-22868839D01*
X48943093Y-22858610D01*
X48694507Y-22858610D01*
X48645468Y-22866793D01*
X48449308Y-22899526D01*
X48214199Y-22980239D01*
X48214194Y-22980241D01*
X47995571Y-23098554D01*
X47995566Y-23098558D01*
X47799409Y-23251233D01*
X47799399Y-23251242D01*
X47631040Y-23434127D01*
X47495076Y-23642237D01*
X47395221Y-23869884D01*
X47334196Y-24110867D01*
X47313669Y-24358594D01*
X47313669Y-24358605D01*
X46528383Y-24358605D01*
X46738786Y-24148202D01*
X46751048Y-24138380D01*
X46750865Y-24138159D01*
X46756867Y-24133192D01*
X46756877Y-24133186D01*
X46804241Y-24082748D01*
X46825120Y-24061870D01*
X46829373Y-24056386D01*
X46833150Y-24051963D01*
X46865062Y-24017982D01*
X46874714Y-24000423D01*
X46885389Y-23984172D01*
X46897674Y-23968336D01*
X46916186Y-23925552D01*
X46918742Y-23920335D01*
X46941197Y-23879492D01*
X46946180Y-23860080D01*
X46952477Y-23841691D01*
X46960438Y-23823295D01*
X46967729Y-23777253D01*
X46968908Y-23771562D01*
X46980500Y-23726419D01*
X46980500Y-23706383D01*
X46982027Y-23686982D01*
X46985160Y-23667204D01*
X46980775Y-23620815D01*
X46980500Y-23614977D01*
X46980500Y-20548605D01*
X47313669Y-20548605D01*
X47334196Y-20796332D01*
X47395221Y-21037315D01*
X47495076Y-21264962D01*
X47631040Y-21473072D01*
X47733236Y-21584085D01*
X47799403Y-21655961D01*
X47995571Y-21808645D01*
X48214196Y-21926959D01*
X48214199Y-21926960D01*
X48449308Y-22007673D01*
X48449310Y-22007673D01*
X48449312Y-22007674D01*
X48694507Y-22048590D01*
X48694508Y-22048590D01*
X48943092Y-22048590D01*
X48943093Y-22048590D01*
X49188288Y-22007674D01*
X49423404Y-21926959D01*
X49642029Y-21808645D01*
X49838197Y-21655961D01*
X50006560Y-21473071D01*
X50142523Y-21264963D01*
X50242379Y-21037315D01*
X50303403Y-20796336D01*
X50323931Y-20548600D01*
X50303403Y-20300864D01*
X50242379Y-20059885D01*
X50142523Y-19832237D01*
X50089423Y-19750961D01*
X50006559Y-19624127D01*
X49838200Y-19441242D01*
X49838190Y-19441233D01*
X49642033Y-19288558D01*
X49642028Y-19288554D01*
X49423405Y-19170241D01*
X49423400Y-19170239D01*
X49188291Y-19089526D01*
X49004391Y-19058839D01*
X48943093Y-19048610D01*
X48694507Y-19048610D01*
X48645468Y-19056793D01*
X48449308Y-19089526D01*
X48214199Y-19170239D01*
X48214194Y-19170241D01*
X47995571Y-19288554D01*
X47995566Y-19288558D01*
X47799409Y-19441233D01*
X47799399Y-19441242D01*
X47631040Y-19624127D01*
X47495076Y-19832237D01*
X47395221Y-20059884D01*
X47334196Y-20300867D01*
X47313669Y-20548594D01*
X47313669Y-20548605D01*
X46980500Y-20548605D01*
X46980500Y-17608737D01*
X46982224Y-17593123D01*
X46981938Y-17593096D01*
X46982672Y-17585333D01*
X46980500Y-17516203D01*
X46980500Y-17486651D01*
X46980500Y-17486650D01*
X46979629Y-17479759D01*
X46979172Y-17473945D01*
X46977709Y-17427372D01*
X46972122Y-17408144D01*
X46968174Y-17389084D01*
X46967476Y-17383555D01*
X46965664Y-17369208D01*
X46948507Y-17325875D01*
X46946619Y-17320359D01*
X46933619Y-17275612D01*
X46923418Y-17258363D01*
X46914860Y-17240894D01*
X46907486Y-17222268D01*
X46907483Y-17222264D01*
X46907483Y-17222263D01*
X46880098Y-17184571D01*
X46876890Y-17179687D01*
X46853172Y-17139582D01*
X46853163Y-17139571D01*
X46839005Y-17125413D01*
X46826370Y-17110620D01*
X46814593Y-17094412D01*
X46778693Y-17064713D01*
X46774381Y-17060790D01*
X46452196Y-16738605D01*
X47314171Y-16738605D01*
X47334690Y-16986246D01*
X47334692Y-16986257D01*
X47395695Y-17227150D01*
X47495516Y-17454720D01*
X47595732Y-17608112D01*
X48256454Y-16947390D01*
X48295190Y-17040906D01*
X48391274Y-17166126D01*
X48516494Y-17262210D01*
X48610008Y-17300944D01*
X47949107Y-17961845D01*
X47949107Y-17961846D01*
X47995844Y-17998223D01*
X48214395Y-18116498D01*
X48214404Y-18116501D01*
X48449432Y-18197187D01*
X48694549Y-18238090D01*
X48943051Y-18238090D01*
X49188167Y-18197187D01*
X49423195Y-18116501D01*
X49423203Y-18116498D01*
X49641757Y-17998222D01*
X49688491Y-17961845D01*
X49688492Y-17961844D01*
X49027592Y-17300944D01*
X49121106Y-17262210D01*
X49246326Y-17166126D01*
X49342410Y-17040907D01*
X49381144Y-16947391D01*
X50041866Y-17608113D01*
X50142081Y-17454725D01*
X50241904Y-17227150D01*
X50302907Y-16986257D01*
X50302909Y-16986246D01*
X50323429Y-16738605D01*
X50323429Y-16738594D01*
X50302909Y-16490953D01*
X50302907Y-16490942D01*
X50241904Y-16250049D01*
X50142083Y-16022479D01*
X50041866Y-15869085D01*
X49381144Y-16529807D01*
X49342410Y-16436294D01*
X49246326Y-16311074D01*
X49121106Y-16214990D01*
X49027591Y-16176254D01*
X49688491Y-15515353D01*
X49641752Y-15478974D01*
X49423204Y-15360701D01*
X49423195Y-15360698D01*
X49188167Y-15280012D01*
X48943051Y-15239110D01*
X48694549Y-15239110D01*
X48449432Y-15280012D01*
X48214404Y-15360698D01*
X48214395Y-15360701D01*
X47995844Y-15478976D01*
X47949107Y-15515352D01*
X47949107Y-15515353D01*
X48610008Y-16176254D01*
X48516494Y-16214990D01*
X48391274Y-16311074D01*
X48295190Y-16436293D01*
X48256454Y-16529808D01*
X47595731Y-15869085D01*
X47495517Y-16022476D01*
X47395695Y-16250049D01*
X47334692Y-16490942D01*
X47334690Y-16490953D01*
X47314171Y-16738594D01*
X47314171Y-16738605D01*
X46452196Y-16738605D01*
X45585803Y-15872212D01*
X45575980Y-15859950D01*
X45575759Y-15860134D01*
X45570786Y-15854123D01*
X45552159Y-15836631D01*
X45520364Y-15806773D01*
X45509919Y-15796328D01*
X45499475Y-15785883D01*
X45493986Y-15781625D01*
X45489561Y-15777847D01*
X45455582Y-15745938D01*
X45455580Y-15745936D01*
X45455577Y-15745935D01*
X45438029Y-15736288D01*
X45421763Y-15725604D01*
X45405936Y-15713327D01*
X45405935Y-15713326D01*
X45405933Y-15713325D01*
X45363168Y-15694818D01*
X45357922Y-15692248D01*
X45317093Y-15669803D01*
X45317092Y-15669802D01*
X45297693Y-15664822D01*
X45279281Y-15658518D01*
X45260898Y-15650562D01*
X45260892Y-15650560D01*
X45214874Y-15643272D01*
X45209152Y-15642087D01*
X45164021Y-15630500D01*
X45164019Y-15630500D01*
X45143984Y-15630500D01*
X45124586Y-15628973D01*
X45117162Y-15627797D01*
X45104805Y-15625840D01*
X45104804Y-15625840D01*
X45058416Y-15630225D01*
X45052578Y-15630500D01*
X32213743Y-15630500D01*
X32198122Y-15628775D01*
X32198096Y-15629061D01*
X32190334Y-15628327D01*
X32190333Y-15628327D01*
X32121186Y-15630500D01*
X32091649Y-15630500D01*
X32084766Y-15631369D01*
X32078949Y-15631826D01*
X32032373Y-15633290D01*
X32013129Y-15638881D01*
X31994079Y-15642825D01*
X31974211Y-15645334D01*
X31930884Y-15662488D01*
X31925358Y-15664379D01*
X31880614Y-15677379D01*
X31880610Y-15677381D01*
X31863366Y-15687579D01*
X31845905Y-15696133D01*
X31827274Y-15703510D01*
X31827262Y-15703517D01*
X31789570Y-15730902D01*
X31784687Y-15734109D01*
X31744580Y-15757829D01*
X31730414Y-15771995D01*
X31715624Y-15784627D01*
X31699414Y-15796404D01*
X31699411Y-15796407D01*
X31669710Y-15832309D01*
X31665777Y-15836631D01*
X28826208Y-18676199D01*
X28813951Y-18686020D01*
X28814134Y-18686241D01*
X28808123Y-18691213D01*
X28760772Y-18741636D01*
X28739889Y-18762519D01*
X28739877Y-18762532D01*
X28735621Y-18768017D01*
X28731837Y-18772447D01*
X28699937Y-18806418D01*
X28699936Y-18806420D01*
X28690284Y-18823976D01*
X28679610Y-18840226D01*
X28667329Y-18856061D01*
X28667324Y-18856068D01*
X28648815Y-18898838D01*
X28646245Y-18904084D01*
X28623803Y-18944906D01*
X28618822Y-18964307D01*
X28612521Y-18982710D01*
X28604562Y-19001102D01*
X28604561Y-19001105D01*
X28597271Y-19047127D01*
X28596087Y-19052846D01*
X28584501Y-19097972D01*
X28584500Y-19097982D01*
X28584500Y-19118016D01*
X28582973Y-19137415D01*
X28579840Y-19157194D01*
X28579840Y-19157195D01*
X28584225Y-19203583D01*
X28584500Y-19209421D01*
X28584500Y-27426773D01*
X28564815Y-27493812D01*
X28531623Y-27528348D01*
X28338597Y-27663505D01*
X28171505Y-27830597D01*
X28035965Y-28024169D01*
X28035964Y-28024171D01*
X27936098Y-28238335D01*
X27936094Y-28238344D01*
X27874938Y-28466586D01*
X27874936Y-28466596D01*
X27854341Y-28701999D01*
X27854341Y-28702000D01*
X27874936Y-28937403D01*
X27874938Y-28937413D01*
X27936094Y-29165655D01*
X27936096Y-29165659D01*
X27936097Y-29165663D01*
X28016004Y-29337023D01*
X28035965Y-29379830D01*
X28035967Y-29379834D01*
X28112819Y-29489589D01*
X28171501Y-29573396D01*
X28171506Y-29573402D01*
X28338597Y-29740493D01*
X28338603Y-29740498D01*
X28524594Y-29870730D01*
X28568219Y-29925307D01*
X28575413Y-29994805D01*
X28543890Y-30057160D01*
X28524595Y-30073880D01*
X28338922Y-30203890D01*
X28338920Y-30203891D01*
X28171891Y-30370920D01*
X28171886Y-30370926D01*
X28036400Y-30564420D01*
X28036399Y-30564422D01*
X27936570Y-30778507D01*
X27936567Y-30778513D01*
X27879364Y-30991999D01*
X27879364Y-30992000D01*
X28776314Y-30992000D01*
X28750507Y-31032156D01*
X28710000Y-31170111D01*
X28710000Y-31313889D01*
X28750507Y-31451844D01*
X28776314Y-31492000D01*
X27879364Y-31492000D01*
X27936567Y-31705486D01*
X27936571Y-31705497D01*
X27938716Y-31710096D01*
X27949208Y-31779173D01*
X27920688Y-31842957D01*
X27862211Y-31881196D01*
X27826334Y-31886500D01*
X26879743Y-31886500D01*
X26864122Y-31884775D01*
X26864095Y-31885061D01*
X26856333Y-31884326D01*
X26787172Y-31886500D01*
X26757649Y-31886500D01*
X26750778Y-31887367D01*
X26744959Y-31887825D01*
X26698374Y-31889289D01*
X26698368Y-31889290D01*
X26679126Y-31894880D01*
X26660087Y-31898823D01*
X26640217Y-31901334D01*
X26640203Y-31901337D01*
X26596883Y-31918488D01*
X26591358Y-31920380D01*
X26546613Y-31933380D01*
X26546610Y-31933381D01*
X26529366Y-31943579D01*
X26511905Y-31952133D01*
X26493274Y-31959510D01*
X26493262Y-31959517D01*
X26455570Y-31986902D01*
X26450687Y-31990109D01*
X26410580Y-32013829D01*
X26396414Y-32027995D01*
X26381624Y-32040627D01*
X26365414Y-32052404D01*
X26365411Y-32052407D01*
X26335710Y-32088309D01*
X26331777Y-32092631D01*
X25651208Y-32773199D01*
X25638951Y-32783020D01*
X25639134Y-32783241D01*
X25633123Y-32788213D01*
X25585772Y-32838636D01*
X25564889Y-32859519D01*
X25564877Y-32859532D01*
X25560621Y-32865017D01*
X25556837Y-32869447D01*
X25524937Y-32903418D01*
X25524936Y-32903420D01*
X25515284Y-32920976D01*
X25504610Y-32937226D01*
X25492329Y-32953061D01*
X25492324Y-32953068D01*
X25473815Y-32995838D01*
X25471245Y-33001084D01*
X25448803Y-33041906D01*
X25443822Y-33061307D01*
X25437521Y-33079710D01*
X25429562Y-33098102D01*
X25429561Y-33098105D01*
X25422271Y-33144127D01*
X25421087Y-33149846D01*
X25409501Y-33194972D01*
X25409500Y-33194982D01*
X25409500Y-33215016D01*
X25407973Y-33234413D01*
X25404840Y-33254196D01*
X19939000Y-33254196D01*
X19939000Y-15999999D01*
X21394592Y-15999999D01*
X21402303Y-16112735D01*
X21402448Y-16116968D01*
X21402448Y-16143482D01*
X21406057Y-16169738D01*
X21406489Y-16173948D01*
X21414201Y-16286682D01*
X21437191Y-16397324D01*
X21437910Y-16401494D01*
X21441520Y-16427756D01*
X21448676Y-16453301D01*
X21449678Y-16457411D01*
X21468097Y-16546045D01*
X21472666Y-16568032D01*
X21472667Y-16568036D01*
X21472670Y-16568045D01*
X21510505Y-16674502D01*
X21511787Y-16678538D01*
X21518940Y-16704070D01*
X21529504Y-16728392D01*
X21531057Y-16732330D01*
X21568894Y-16838793D01*
X21620883Y-16939128D01*
X21622700Y-16942951D01*
X21633262Y-16967264D01*
X21647032Y-16989908D01*
X21649107Y-16993599D01*
X21701096Y-17093931D01*
X21701097Y-17093933D01*
X21766254Y-17186242D01*
X21768575Y-17189780D01*
X21782357Y-17212441D01*
X21782359Y-17212444D01*
X21794323Y-17227150D01*
X21799089Y-17233008D01*
X21801648Y-17236383D01*
X21862903Y-17323162D01*
X21866812Y-17328699D01*
X21943945Y-17411289D01*
X21946728Y-17414481D01*
X21963451Y-17435036D01*
X21982840Y-17453144D01*
X21985817Y-17456122D01*
X22060643Y-17536242D01*
X22062947Y-17538708D01*
X22062951Y-17538711D01*
X22062953Y-17538713D01*
X22150601Y-17610020D01*
X22153791Y-17612801D01*
X22173167Y-17630897D01*
X22173170Y-17630899D01*
X22194827Y-17646187D01*
X22198202Y-17648746D01*
X22285846Y-17720050D01*
X22285849Y-17720051D01*
X22285853Y-17720055D01*
X22330496Y-17747203D01*
X22382407Y-17778772D01*
X22385933Y-17781083D01*
X22407598Y-17796376D01*
X22407602Y-17796379D01*
X22416319Y-17800895D01*
X22431142Y-17808576D01*
X22434821Y-17810645D01*
X22531375Y-17869361D01*
X22635042Y-17914390D01*
X22638815Y-17916183D01*
X22662380Y-17928394D01*
X22687394Y-17937284D01*
X22691258Y-17938807D01*
X22769229Y-17972675D01*
X22794934Y-17983841D01*
X22794938Y-17983843D01*
X22794942Y-17983844D01*
X22903774Y-18014337D01*
X22907775Y-18015607D01*
X22932765Y-18024489D01*
X22932767Y-18024489D01*
X22932769Y-18024490D01*
X22939476Y-18025883D01*
X22958733Y-18029885D01*
X22962822Y-18030881D01*
X23071642Y-18061371D01*
X23183597Y-18076759D01*
X23187738Y-18077472D01*
X23213716Y-18082871D01*
X23240202Y-18084682D01*
X23244355Y-18085110D01*
X23334786Y-18097540D01*
X23356321Y-18100500D01*
X23469314Y-18100500D01*
X23473547Y-18100645D01*
X23500000Y-18102454D01*
X23526453Y-18100645D01*
X23530686Y-18100500D01*
X23643678Y-18100500D01*
X23755653Y-18085109D01*
X23759791Y-18084683D01*
X23786284Y-18082871D01*
X23812277Y-18077469D01*
X23816372Y-18076763D01*
X23928358Y-18061371D01*
X24037177Y-18030881D01*
X24041266Y-18029885D01*
X24067235Y-18024489D01*
X24092235Y-18015603D01*
X24096230Y-18014335D01*
X24205058Y-17983844D01*
X24308725Y-17938814D01*
X24312602Y-17937285D01*
X24337620Y-17928394D01*
X24361175Y-17916188D01*
X24364952Y-17914392D01*
X24468625Y-17869361D01*
X24565223Y-17810617D01*
X24568819Y-17808595D01*
X24592401Y-17796377D01*
X24614087Y-17781068D01*
X24617554Y-17778794D01*
X24714147Y-17720055D01*
X24801835Y-17648715D01*
X24805130Y-17646216D01*
X24826833Y-17630897D01*
X24846254Y-17612759D01*
X24849362Y-17610049D01*
X24937053Y-17538708D01*
X25014212Y-17456090D01*
X25017159Y-17453144D01*
X25036549Y-17435036D01*
X25053288Y-17414460D01*
X25056054Y-17411289D01*
X25133189Y-17328698D01*
X25198372Y-17236352D01*
X25200878Y-17233047D01*
X25217641Y-17212444D01*
X25231424Y-17189779D01*
X25233730Y-17186262D01*
X25298901Y-17093936D01*
X25350899Y-16993584D01*
X25352944Y-16989945D01*
X25366737Y-16967265D01*
X25377302Y-16942940D01*
X25379112Y-16939136D01*
X25398777Y-16901185D01*
X25431104Y-16838797D01*
X25468954Y-16732295D01*
X25470495Y-16728392D01*
X25481060Y-16704069D01*
X25488223Y-16678501D01*
X25489487Y-16674521D01*
X25527334Y-16568032D01*
X25543353Y-16490942D01*
X25550326Y-16457390D01*
X25551322Y-16453300D01*
X25558479Y-16427757D01*
X25562092Y-16401466D01*
X25562807Y-16397324D01*
X25585798Y-16286686D01*
X25593510Y-16173932D01*
X25593938Y-16169770D01*
X25597552Y-16143477D01*
X25598176Y-16106867D01*
X25598308Y-16103796D01*
X25605408Y-16000000D01*
X25598308Y-15896207D01*
X25598176Y-15893129D01*
X25597552Y-15856523D01*
X25597552Y-15856518D01*
X25594818Y-15836631D01*
X25593938Y-15830235D01*
X25593509Y-15826050D01*
X25585798Y-15713314D01*
X25562805Y-15602666D01*
X25562095Y-15598555D01*
X25558744Y-15574174D01*
X25558479Y-15572242D01*
X25556526Y-15565272D01*
X25551317Y-15546681D01*
X25550329Y-15542628D01*
X25527334Y-15431968D01*
X25489490Y-15325485D01*
X25488217Y-15321476D01*
X25481060Y-15295931D01*
X25481059Y-15295928D01*
X25470494Y-15271604D01*
X25468940Y-15267664D01*
X25458792Y-15239110D01*
X25431104Y-15161203D01*
X25379116Y-15060871D01*
X25377298Y-15057048D01*
X25374808Y-15051316D01*
X25366737Y-15032735D01*
X25352956Y-15010073D01*
X25350893Y-15006405D01*
X25298901Y-14906064D01*
X25262298Y-14854209D01*
X25233730Y-14813736D01*
X25231420Y-14810216D01*
X25217641Y-14787556D01*
X25200896Y-14766973D01*
X25198356Y-14763623D01*
X25133187Y-14671299D01*
X25092650Y-14627895D01*
X25056050Y-14588707D01*
X25053277Y-14585526D01*
X25036548Y-14564963D01*
X25034551Y-14563098D01*
X25017174Y-14546869D01*
X25014189Y-14543883D01*
X24937060Y-14461299D01*
X24937056Y-14461295D01*
X24937053Y-14461292D01*
X24937046Y-14461286D01*
X24849398Y-14389979D01*
X24846206Y-14387196D01*
X24826839Y-14369108D01*
X24826837Y-14369107D01*
X24826838Y-14369107D01*
X24826833Y-14369103D01*
X24813388Y-14359612D01*
X24805173Y-14353813D01*
X24801801Y-14351256D01*
X24714153Y-14279949D01*
X24714138Y-14279939D01*
X24617600Y-14221232D01*
X24614061Y-14218911D01*
X24592402Y-14203623D01*
X24568866Y-14191427D01*
X24565177Y-14189353D01*
X24468623Y-14130637D01*
X24364979Y-14085619D01*
X24361157Y-14083801D01*
X24347268Y-14076605D01*
X24337620Y-14071606D01*
X24337616Y-14071604D01*
X24337613Y-14071603D01*
X24312642Y-14062728D01*
X24308703Y-14061175D01*
X24272296Y-14045361D01*
X24205058Y-14016156D01*
X24205054Y-14016155D01*
X24205050Y-14016153D01*
X24096245Y-13985667D01*
X24092212Y-13984387D01*
X24067239Y-13975512D01*
X24067236Y-13975511D01*
X24067235Y-13975511D01*
X24062103Y-13974444D01*
X24041276Y-13970116D01*
X24037164Y-13969114D01*
X23928362Y-13938629D01*
X23816408Y-13923241D01*
X23812236Y-13922521D01*
X23786285Y-13917129D01*
X23759830Y-13915318D01*
X23755620Y-13914885D01*
X23643680Y-13899500D01*
X23643678Y-13899500D01*
X23530672Y-13899500D01*
X23526440Y-13899355D01*
X23500000Y-13897547D01*
X23473560Y-13899355D01*
X23469328Y-13899500D01*
X23356320Y-13899500D01*
X23244380Y-13914885D01*
X23240170Y-13915318D01*
X23213716Y-13917128D01*
X23187762Y-13922521D01*
X23183593Y-13923240D01*
X23083789Y-13936959D01*
X23071642Y-13938629D01*
X23071640Y-13938629D01*
X23071636Y-13938630D01*
X22962837Y-13969113D01*
X22958727Y-13970115D01*
X22932761Y-13975511D01*
X22907783Y-13984388D01*
X22903749Y-13985669D01*
X22810095Y-14011910D01*
X22794942Y-14016156D01*
X22794940Y-14016156D01*
X22794939Y-14016157D01*
X22691304Y-14061172D01*
X22687367Y-14062725D01*
X22662377Y-14071607D01*
X22638840Y-14083802D01*
X22635020Y-14085619D01*
X22531368Y-14130642D01*
X22434828Y-14189350D01*
X22431140Y-14191424D01*
X22407601Y-14203621D01*
X22385943Y-14218907D01*
X22382406Y-14221228D01*
X22285855Y-14279943D01*
X22285849Y-14279947D01*
X22198200Y-14351253D01*
X22194831Y-14353808D01*
X22173171Y-14369099D01*
X22153789Y-14387199D01*
X22150601Y-14389979D01*
X22062955Y-14461284D01*
X22062939Y-14461299D01*
X21985815Y-14543878D01*
X21982823Y-14546871D01*
X21963453Y-14564960D01*
X21946715Y-14585533D01*
X21943935Y-14588721D01*
X21866811Y-14671301D01*
X21801646Y-14763618D01*
X21799089Y-14766991D01*
X21782363Y-14787549D01*
X21768581Y-14810211D01*
X21766261Y-14813747D01*
X21701099Y-14906061D01*
X21649114Y-15006387D01*
X21647042Y-15010073D01*
X21633266Y-15032730D01*
X21633261Y-15032738D01*
X21622700Y-15057049D01*
X21620883Y-15060868D01*
X21568896Y-15161199D01*
X21568895Y-15161202D01*
X21531053Y-15267679D01*
X21529501Y-15271616D01*
X21518938Y-15295935D01*
X21511788Y-15321452D01*
X21510508Y-15325485D01*
X21472669Y-15431957D01*
X21472666Y-15431968D01*
X21449677Y-15542592D01*
X21448676Y-15546701D01*
X21441523Y-15572235D01*
X21441519Y-15572253D01*
X21437910Y-15598506D01*
X21437191Y-15602676D01*
X21414201Y-15713317D01*
X21406489Y-15826050D01*
X21406057Y-15830260D01*
X21402448Y-15856524D01*
X21402448Y-15883030D01*
X21402303Y-15887263D01*
X21394592Y-15999999D01*
X19939000Y-15999999D01*
X19939000Y-12332900D01*
X19958685Y-12265861D01*
X20011489Y-12220106D01*
X20063000Y-12208900D01*
X29714207Y-12208900D01*
X50727000Y-12242601D01*
G37*
%TD.AperFunction*%
%TD*%
M02*
