%TF.GenerationSoftware,KiCad,Pcbnew,7.0.8*%
%TF.CreationDate,2024-02-25T14:43:22-05:00*%
%TF.ProjectId,scart breakout,73636172-7420-4627-9265-616b6f75742e,rev?*%
%TF.SameCoordinates,Original*%
%TF.FileFunction,Drillmap*%
%TF.FilePolarity,Positive*%
%FSLAX45Y45*%
G04 Gerber Fmt 4.5, Leading zero omitted, Abs format (unit mm)*
G04 Created by KiCad (PCBNEW 7.0.8) date 2024-02-25 14:43:22*
%MOMM*%
%LPD*%
G01*
G04 APERTURE LIST*
%ADD10C,0.100000*%
%ADD11C,0.200000*%
G04 APERTURE END LIST*
D10*
X2560000Y-1600000D02*
G75*
G03*
X2560000Y-1600000I-210000J0D01*
G01*
X2560000Y-5588000D02*
G75*
G03*
X2560000Y-5588000I-210000J0D01*
G01*
X1989020Y-1220840D02*
X5086560Y-1220840D01*
X5086560Y-5986400D01*
X1989020Y-5986400D01*
X1989020Y-1220840D01*
D11*
X2244797Y-6302884D02*
X2244797Y-6102884D01*
X2244797Y-6102884D02*
X2292416Y-6102884D01*
X2292416Y-6102884D02*
X2320987Y-6112408D01*
X2320987Y-6112408D02*
X2340035Y-6131455D01*
X2340035Y-6131455D02*
X2349559Y-6150503D01*
X2349559Y-6150503D02*
X2359083Y-6188598D01*
X2359083Y-6188598D02*
X2359083Y-6217169D01*
X2359083Y-6217169D02*
X2349559Y-6255265D01*
X2349559Y-6255265D02*
X2340035Y-6274312D01*
X2340035Y-6274312D02*
X2320987Y-6293360D01*
X2320987Y-6293360D02*
X2292416Y-6302884D01*
X2292416Y-6302884D02*
X2244797Y-6302884D01*
X2444797Y-6302884D02*
X2444797Y-6169550D01*
X2444797Y-6207646D02*
X2454321Y-6188598D01*
X2454321Y-6188598D02*
X2463844Y-6179074D01*
X2463844Y-6179074D02*
X2482892Y-6169550D01*
X2482892Y-6169550D02*
X2501940Y-6169550D01*
X2568606Y-6302884D02*
X2568606Y-6169550D01*
X2568606Y-6102884D02*
X2559083Y-6112408D01*
X2559083Y-6112408D02*
X2568606Y-6121931D01*
X2568606Y-6121931D02*
X2578130Y-6112408D01*
X2578130Y-6112408D02*
X2568606Y-6102884D01*
X2568606Y-6102884D02*
X2568606Y-6121931D01*
X2692416Y-6302884D02*
X2673368Y-6293360D01*
X2673368Y-6293360D02*
X2663844Y-6274312D01*
X2663844Y-6274312D02*
X2663844Y-6102884D01*
X2797178Y-6302884D02*
X2778130Y-6293360D01*
X2778130Y-6293360D02*
X2768606Y-6274312D01*
X2768606Y-6274312D02*
X2768606Y-6102884D01*
X3025749Y-6302884D02*
X3025749Y-6102884D01*
X3025749Y-6102884D02*
X3092416Y-6245741D01*
X3092416Y-6245741D02*
X3159082Y-6102884D01*
X3159082Y-6102884D02*
X3159082Y-6302884D01*
X3340035Y-6302884D02*
X3340035Y-6198122D01*
X3340035Y-6198122D02*
X3330511Y-6179074D01*
X3330511Y-6179074D02*
X3311463Y-6169550D01*
X3311463Y-6169550D02*
X3273368Y-6169550D01*
X3273368Y-6169550D02*
X3254321Y-6179074D01*
X3340035Y-6293360D02*
X3320987Y-6302884D01*
X3320987Y-6302884D02*
X3273368Y-6302884D01*
X3273368Y-6302884D02*
X3254321Y-6293360D01*
X3254321Y-6293360D02*
X3244797Y-6274312D01*
X3244797Y-6274312D02*
X3244797Y-6255265D01*
X3244797Y-6255265D02*
X3254321Y-6236217D01*
X3254321Y-6236217D02*
X3273368Y-6226693D01*
X3273368Y-6226693D02*
X3320987Y-6226693D01*
X3320987Y-6226693D02*
X3340035Y-6217169D01*
X3435273Y-6169550D02*
X3435273Y-6369550D01*
X3435273Y-6179074D02*
X3454321Y-6169550D01*
X3454321Y-6169550D02*
X3492416Y-6169550D01*
X3492416Y-6169550D02*
X3511463Y-6179074D01*
X3511463Y-6179074D02*
X3520987Y-6188598D01*
X3520987Y-6188598D02*
X3530511Y-6207646D01*
X3530511Y-6207646D02*
X3530511Y-6264788D01*
X3530511Y-6264788D02*
X3520987Y-6283836D01*
X3520987Y-6283836D02*
X3511463Y-6293360D01*
X3511463Y-6293360D02*
X3492416Y-6302884D01*
X3492416Y-6302884D02*
X3454321Y-6302884D01*
X3454321Y-6302884D02*
X3435273Y-6293360D01*
X3616225Y-6283836D02*
X3625749Y-6293360D01*
X3625749Y-6293360D02*
X3616225Y-6302884D01*
X3616225Y-6302884D02*
X3606702Y-6293360D01*
X3606702Y-6293360D02*
X3616225Y-6283836D01*
X3616225Y-6283836D02*
X3616225Y-6302884D01*
X3616225Y-6179074D02*
X3625749Y-6188598D01*
X3625749Y-6188598D02*
X3616225Y-6198122D01*
X3616225Y-6198122D02*
X3606702Y-6188598D01*
X3606702Y-6188598D02*
X3616225Y-6179074D01*
X3616225Y-6179074D02*
X3616225Y-6198122D01*
M02*
