M48
; DRILL file {KiCad 7.0.8} date 2024 May 06, Monday 13:54:15
; FORMAT={-:-/ absolute / inch / decimal}
; #@! TF.CreationDate,2024-05-06T13:54:15-04:00
; #@! TF.GenerationSoftware,Kicad,Pcbnew,7.0.8
; #@! TF.FileFunction,Plated,1,2,PTH
FMAT,2
INCH
; #@! TA.AperFunction,Plated,PTH,ViaDrill
T1C0.0157
; #@! TA.AperFunction,Plated,PTH,ComponentDrill
T2C0.0315
; #@! TA.AperFunction,Plated,PTH,ComponentDrill
T3C0.0394
; #@! TA.AperFunction,Plated,PTH,ComponentDrill
T4C0.0472
; #@! TA.AperFunction,Plated,PTH,ComponentDrill
T5C0.1575
%
G90
G05
T1
X0.501Y-1.68
X0.504Y-0.743
X0.521Y-2.341
X0.522Y-2.062
X0.535Y-1.71
X0.578Y-1.638
X0.587Y-1.343
X0.648Y-1.898
X0.692Y-1.655
X0.724Y-1.7385
X0.788Y-2.02
X0.806Y-2.338
X0.8605Y-2.0975
X0.895Y-2.33
X0.937Y-1.903
X0.943Y-2.108
X1.02Y-2.261
X1.022Y-2.226
X1.025Y-2.297
X1.04Y-1.743
X1.047Y-1.669
X1.071Y-0.657
X1.166Y-1.385
X1.168Y-0.742
X1.183Y-2.06
X1.195Y-1.245
X1.2Y-1.706
X1.209Y-2.314
X1.228Y-2.149
T2
X0.648Y-1.829
X0.7268Y-1.829
X0.8055Y-1.829
X0.8838Y-1.998
X0.8843Y-1.829
X0.9625Y-1.998
X0.963Y-1.829
X1.0413Y-1.998
X1.0417Y-1.829
X1.12Y-1.998
X1.1205Y-1.829
T3
X0.686Y-1.127
X0.686Y-1.227
X0.931Y-0.959
X0.931Y-1.059
X0.931Y-1.159
X0.931Y-1.259
X0.931Y-1.359
X0.931Y-1.459
X0.931Y-1.559
X1.031Y-0.959
X1.031Y-1.059
X1.031Y-1.159
X1.031Y-1.259
X1.031Y-1.359
X1.031Y-1.459
X1.031Y-1.559
T4
X1.333Y-0.742
X1.333Y-0.892
X1.333Y-1.042
X1.333Y-1.192
X1.333Y-1.342
X1.333Y-1.492
X1.333Y-1.642
X1.333Y-1.792
X1.333Y-1.942
X1.333Y-2.092
X1.533Y-0.667
X1.533Y-0.817
X1.533Y-0.967
X1.533Y-1.117
X1.533Y-1.267
X1.533Y-1.417
X1.533Y-1.567
X1.533Y-1.717
X1.533Y-1.867
X1.533Y-2.017
X1.533Y-2.167
T5
X0.6483Y-0.6556
X0.6483Y-2.1969
T0
M30
