%TF.GenerationSoftware,KiCad,Pcbnew,7.0.8*%
%TF.CreationDate,2024-05-06T13:54:15-04:00*%
%TF.ProjectId,scart breakout,73636172-7420-4627-9265-616b6f75742e,rev?*%
%TF.SameCoordinates,Original*%
%TF.FileFunction,Drillmap*%
%TF.FilePolarity,Positive*%
%FSLAX45Y45*%
G04 Gerber Fmt 4.5, Leading zero omitted, Abs format (unit mm)*
G04 Created by KiCad (PCBNEW 7.0.8) date 2024-05-06 13:54:15*
%MOMM*%
%LPD*%
G01*
G04 APERTURE LIST*
%ADD10C,0.100000*%
%ADD11C,0.200000*%
%ADD12C,0.040000*%
%ADD13C,0.080000*%
%ADD14C,0.119888*%
%ADD15C,0.400000*%
G04 APERTURE END LIST*
D10*
X1219400Y-1241160D02*
X4098500Y-1241160D01*
X4098500Y-6006720D01*
X1219400Y-6006720D01*
X1219400Y-1241160D01*
D11*
D12*
X1252540Y-4247200D02*
X1292540Y-4287200D01*
X1292540Y-4247200D02*
X1252540Y-4287200D01*
X1260160Y-1867220D02*
X1300160Y-1907220D01*
X1300160Y-1867220D02*
X1260160Y-1907220D01*
X1303340Y-5926140D02*
X1343340Y-5966140D01*
X1343340Y-5926140D02*
X1303340Y-5966140D01*
X1305880Y-5217480D02*
X1345880Y-5257480D01*
X1345880Y-5217480D02*
X1305880Y-5257480D01*
X1338900Y-4323400D02*
X1378900Y-4363400D01*
X1378900Y-4323400D02*
X1338900Y-4363400D01*
X1448120Y-4140520D02*
X1488120Y-4180520D01*
X1488120Y-4140520D02*
X1448120Y-4180520D01*
X1470980Y-3391220D02*
X1510980Y-3431220D01*
X1510980Y-3391220D02*
X1470980Y-3431220D01*
X1625920Y-4800920D02*
X1665920Y-4840920D01*
X1665920Y-4800920D02*
X1625920Y-4840920D01*
X1737680Y-4183700D02*
X1777680Y-4223700D01*
X1777680Y-4183700D02*
X1737680Y-4223700D01*
X1818960Y-4395850D02*
X1858960Y-4435850D01*
X1858960Y-4395850D02*
X1818960Y-4435850D01*
X1981520Y-5110800D02*
X2021520Y-5150800D01*
X2021520Y-5110800D02*
X1981520Y-5150800D01*
X2027240Y-5918520D02*
X2067240Y-5958520D01*
X2067240Y-5918520D02*
X2027240Y-5958520D01*
X2165581Y-5307710D02*
X2205581Y-5347710D01*
X2205581Y-5307710D02*
X2165581Y-5347710D01*
X2253300Y-5898200D02*
X2293300Y-5938200D01*
X2293300Y-5898200D02*
X2253300Y-5938200D01*
X2359980Y-4813620D02*
X2399980Y-4853620D01*
X2399980Y-4813620D02*
X2359980Y-4853620D01*
X2375220Y-5334320D02*
X2415220Y-5374320D01*
X2415220Y-5334320D02*
X2375220Y-5374320D01*
X2570800Y-5722940D02*
X2610800Y-5762940D01*
X2610800Y-5722940D02*
X2570800Y-5762940D01*
X2575880Y-5634040D02*
X2615880Y-5674040D01*
X2615880Y-5634040D02*
X2575880Y-5674040D01*
X2583500Y-5814380D02*
X2623500Y-5854380D01*
X2623500Y-5814380D02*
X2583500Y-5854380D01*
X2621600Y-4407220D02*
X2661600Y-4447220D01*
X2661600Y-4407220D02*
X2621600Y-4447220D01*
X2639380Y-4219260D02*
X2679380Y-4259260D01*
X2679380Y-4219260D02*
X2639380Y-4259260D01*
X2700340Y-1648780D02*
X2740340Y-1688780D01*
X2740340Y-1648780D02*
X2700340Y-1688780D01*
X2941640Y-3497900D02*
X2981640Y-3537900D01*
X2981640Y-3497900D02*
X2941640Y-3537900D01*
X2946720Y-1864680D02*
X2986720Y-1904680D01*
X2986720Y-1864680D02*
X2946720Y-1904680D01*
X2984820Y-5212400D02*
X3024820Y-5252400D01*
X3024820Y-5212400D02*
X2984820Y-5252400D01*
X3015300Y-3142300D02*
X3055300Y-3182300D01*
X3055300Y-3142300D02*
X3015300Y-3182300D01*
X3028000Y-4313240D02*
X3068000Y-4353240D01*
X3068000Y-4313240D02*
X3028000Y-4353240D01*
X3050860Y-5857560D02*
X3090860Y-5897560D01*
X3090860Y-5857560D02*
X3050860Y-5897560D01*
X3099120Y-5438460D02*
X3139120Y-5478460D01*
X3139120Y-5438460D02*
X3099120Y-5478460D01*
D13*
X1686020Y-4645660D02*
G75*
G03*
X1686020Y-4645660I-40000J0D01*
G01*
X1886020Y-4645660D02*
G75*
G03*
X1886020Y-4645660I-40000J0D01*
G01*
X2086020Y-4645660D02*
G75*
G03*
X2086020Y-4645660I-40000J0D01*
G01*
X2284800Y-5074920D02*
G75*
G03*
X2284800Y-5074920I-40000J0D01*
G01*
X2286020Y-4645660D02*
G75*
G03*
X2286020Y-4645660I-40000J0D01*
G01*
X2484800Y-5074920D02*
G75*
G03*
X2484800Y-5074920I-40000J0D01*
G01*
X2486020Y-4645660D02*
G75*
G03*
X2486020Y-4645660I-40000J0D01*
G01*
X2684800Y-5074920D02*
G75*
G03*
X2684800Y-5074920I-40000J0D01*
G01*
X2686020Y-4645660D02*
G75*
G03*
X2686020Y-4645660I-40000J0D01*
G01*
X2884800Y-5074920D02*
G75*
G03*
X2884800Y-5074920I-40000J0D01*
G01*
X2886020Y-4645660D02*
G75*
G03*
X2886020Y-4645660I-40000J0D01*
G01*
D10*
X1742440Y-2812580D02*
X1742440Y-2912580D01*
X1692440Y-2862580D02*
X1792440Y-2862580D01*
X1742440Y-3066580D02*
X1742440Y-3166580D01*
X1692440Y-3116580D02*
X1792440Y-3116580D01*
X2364740Y-2385860D02*
X2364740Y-2485860D01*
X2314740Y-2435860D02*
X2414740Y-2435860D01*
X2364740Y-2639860D02*
X2364740Y-2739860D01*
X2314740Y-2689860D02*
X2414740Y-2689860D01*
X2364740Y-2893860D02*
X2364740Y-2993860D01*
X2314740Y-2943860D02*
X2414740Y-2943860D01*
X2364740Y-3147860D02*
X2364740Y-3247860D01*
X2314740Y-3197860D02*
X2414740Y-3197860D01*
X2364740Y-3401860D02*
X2364740Y-3501860D01*
X2314740Y-3451860D02*
X2414740Y-3451860D01*
X2364740Y-3655860D02*
X2364740Y-3755860D01*
X2314740Y-3705860D02*
X2414740Y-3705860D01*
X2364740Y-3909860D02*
X2364740Y-4009860D01*
X2314740Y-3959860D02*
X2414740Y-3959860D01*
X2618740Y-2385860D02*
X2618740Y-2485860D01*
X2568740Y-2435860D02*
X2668740Y-2435860D01*
X2618740Y-2639860D02*
X2618740Y-2739860D01*
X2568740Y-2689860D02*
X2668740Y-2689860D01*
X2618740Y-2893860D02*
X2618740Y-2993860D01*
X2568740Y-2943860D02*
X2668740Y-2943860D01*
X2618740Y-3147860D02*
X2618740Y-3247860D01*
X2568740Y-3197860D02*
X2668740Y-3197860D01*
X2618740Y-3401860D02*
X2618740Y-3501860D01*
X2568740Y-3451860D02*
X2668740Y-3451860D01*
X2618740Y-3655860D02*
X2618740Y-3755860D01*
X2568740Y-3705860D02*
X2668740Y-3705860D01*
X2618740Y-3909860D02*
X2618740Y-4009860D01*
X2568740Y-3959860D02*
X2668740Y-3959860D01*
D14*
X3428207Y-1927067D02*
X3428207Y-1842293D01*
X3343433Y-1842293D01*
X3343433Y-1927067D01*
X3428207Y-1927067D01*
X3428207Y-2308067D02*
X3428207Y-2223293D01*
X3343433Y-2223293D01*
X3343433Y-2308067D01*
X3428207Y-2308067D01*
X3428207Y-2689067D02*
X3428207Y-2604293D01*
X3343433Y-2604293D01*
X3343433Y-2689067D01*
X3428207Y-2689067D01*
X3428207Y-3070067D02*
X3428207Y-2985293D01*
X3343433Y-2985293D01*
X3343433Y-3070067D01*
X3428207Y-3070067D01*
X3428207Y-3451067D02*
X3428207Y-3366293D01*
X3343433Y-3366293D01*
X3343433Y-3451067D01*
X3428207Y-3451067D01*
X3428207Y-3832067D02*
X3428207Y-3747293D01*
X3343433Y-3747293D01*
X3343433Y-3832067D01*
X3428207Y-3832067D01*
X3428207Y-4213067D02*
X3428207Y-4128293D01*
X3343433Y-4128293D01*
X3343433Y-4213067D01*
X3428207Y-4213067D01*
X3428207Y-4594067D02*
X3428207Y-4509293D01*
X3343433Y-4509293D01*
X3343433Y-4594067D01*
X3428207Y-4594067D01*
X3428207Y-4975067D02*
X3428207Y-4890293D01*
X3343433Y-4890293D01*
X3343433Y-4975067D01*
X3428207Y-4975067D01*
X3428207Y-5356067D02*
X3428207Y-5271293D01*
X3343433Y-5271293D01*
X3343433Y-5356067D01*
X3428207Y-5356067D01*
X3936207Y-1736567D02*
X3936207Y-1651793D01*
X3851433Y-1651793D01*
X3851433Y-1736567D01*
X3936207Y-1736567D01*
X3936207Y-2117567D02*
X3936207Y-2032793D01*
X3851433Y-2032793D01*
X3851433Y-2117567D01*
X3936207Y-2117567D01*
X3936207Y-2498567D02*
X3936207Y-2413793D01*
X3851433Y-2413793D01*
X3851433Y-2498567D01*
X3936207Y-2498567D01*
X3936207Y-2879567D02*
X3936207Y-2794793D01*
X3851433Y-2794793D01*
X3851433Y-2879567D01*
X3936207Y-2879567D01*
X3936207Y-3260567D02*
X3936207Y-3175793D01*
X3851433Y-3175793D01*
X3851433Y-3260567D01*
X3936207Y-3260567D01*
X3936207Y-3641567D02*
X3936207Y-3556793D01*
X3851433Y-3556793D01*
X3851433Y-3641567D01*
X3936207Y-3641567D01*
X3936207Y-4022567D02*
X3936207Y-3937793D01*
X3851433Y-3937793D01*
X3851433Y-4022567D01*
X3936207Y-4022567D01*
X3936207Y-4403567D02*
X3936207Y-4318793D01*
X3851433Y-4318793D01*
X3851433Y-4403567D01*
X3936207Y-4403567D01*
X3936207Y-4784567D02*
X3936207Y-4699793D01*
X3851433Y-4699793D01*
X3851433Y-4784567D01*
X3936207Y-4784567D01*
X3936207Y-5165567D02*
X3936207Y-5080793D01*
X3851433Y-5080793D01*
X3851433Y-5165567D01*
X3936207Y-5165567D01*
X3936207Y-5546567D02*
X3936207Y-5461793D01*
X3851433Y-5461793D01*
X3851433Y-5546567D01*
X3936207Y-5546567D01*
D15*
X1646800Y-1865240D02*
X1846800Y-1665240D01*
X1646800Y-1465240D01*
X1446800Y-1665240D01*
X1646800Y-1865240D01*
X1646800Y-5780000D02*
X1846800Y-5580000D01*
X1646800Y-5380000D01*
X1446800Y-5580000D01*
X1646800Y-5780000D01*
D11*
X1475177Y-6323204D02*
X1475177Y-6123204D01*
X1475177Y-6123204D02*
X1522796Y-6123204D01*
X1522796Y-6123204D02*
X1551367Y-6132728D01*
X1551367Y-6132728D02*
X1570415Y-6151775D01*
X1570415Y-6151775D02*
X1579939Y-6170823D01*
X1579939Y-6170823D02*
X1589462Y-6208918D01*
X1589462Y-6208918D02*
X1589462Y-6237489D01*
X1589462Y-6237489D02*
X1579939Y-6275585D01*
X1579939Y-6275585D02*
X1570415Y-6294632D01*
X1570415Y-6294632D02*
X1551367Y-6313680D01*
X1551367Y-6313680D02*
X1522796Y-6323204D01*
X1522796Y-6323204D02*
X1475177Y-6323204D01*
X1675177Y-6323204D02*
X1675177Y-6189870D01*
X1675177Y-6227966D02*
X1684701Y-6208918D01*
X1684701Y-6208918D02*
X1694224Y-6199394D01*
X1694224Y-6199394D02*
X1713272Y-6189870D01*
X1713272Y-6189870D02*
X1732320Y-6189870D01*
X1798986Y-6323204D02*
X1798986Y-6189870D01*
X1798986Y-6123204D02*
X1789462Y-6132728D01*
X1789462Y-6132728D02*
X1798986Y-6142251D01*
X1798986Y-6142251D02*
X1808510Y-6132728D01*
X1808510Y-6132728D02*
X1798986Y-6123204D01*
X1798986Y-6123204D02*
X1798986Y-6142251D01*
X1922796Y-6323204D02*
X1903748Y-6313680D01*
X1903748Y-6313680D02*
X1894224Y-6294632D01*
X1894224Y-6294632D02*
X1894224Y-6123204D01*
X2027558Y-6323204D02*
X2008510Y-6313680D01*
X2008510Y-6313680D02*
X1998986Y-6294632D01*
X1998986Y-6294632D02*
X1998986Y-6123204D01*
X2256129Y-6323204D02*
X2256129Y-6123204D01*
X2256129Y-6123204D02*
X2322796Y-6266061D01*
X2322796Y-6266061D02*
X2389463Y-6123204D01*
X2389463Y-6123204D02*
X2389463Y-6323204D01*
X2570415Y-6323204D02*
X2570415Y-6218442D01*
X2570415Y-6218442D02*
X2560891Y-6199394D01*
X2560891Y-6199394D02*
X2541844Y-6189870D01*
X2541844Y-6189870D02*
X2503748Y-6189870D01*
X2503748Y-6189870D02*
X2484701Y-6199394D01*
X2570415Y-6313680D02*
X2551367Y-6323204D01*
X2551367Y-6323204D02*
X2503748Y-6323204D01*
X2503748Y-6323204D02*
X2484701Y-6313680D01*
X2484701Y-6313680D02*
X2475177Y-6294632D01*
X2475177Y-6294632D02*
X2475177Y-6275585D01*
X2475177Y-6275585D02*
X2484701Y-6256537D01*
X2484701Y-6256537D02*
X2503748Y-6247013D01*
X2503748Y-6247013D02*
X2551367Y-6247013D01*
X2551367Y-6247013D02*
X2570415Y-6237489D01*
X2665653Y-6189870D02*
X2665653Y-6389870D01*
X2665653Y-6199394D02*
X2684701Y-6189870D01*
X2684701Y-6189870D02*
X2722796Y-6189870D01*
X2722796Y-6189870D02*
X2741844Y-6199394D01*
X2741844Y-6199394D02*
X2751367Y-6208918D01*
X2751367Y-6208918D02*
X2760891Y-6227966D01*
X2760891Y-6227966D02*
X2760891Y-6285108D01*
X2760891Y-6285108D02*
X2751367Y-6304156D01*
X2751367Y-6304156D02*
X2741844Y-6313680D01*
X2741844Y-6313680D02*
X2722796Y-6323204D01*
X2722796Y-6323204D02*
X2684701Y-6323204D01*
X2684701Y-6323204D02*
X2665653Y-6313680D01*
X2846605Y-6304156D02*
X2856129Y-6313680D01*
X2856129Y-6313680D02*
X2846605Y-6323204D01*
X2846605Y-6323204D02*
X2837082Y-6313680D01*
X2837082Y-6313680D02*
X2846605Y-6304156D01*
X2846605Y-6304156D02*
X2846605Y-6323204D01*
X2846605Y-6199394D02*
X2856129Y-6208918D01*
X2856129Y-6208918D02*
X2846605Y-6218442D01*
X2846605Y-6218442D02*
X2837082Y-6208918D01*
X2837082Y-6208918D02*
X2846605Y-6199394D01*
X2846605Y-6199394D02*
X2846605Y-6218442D01*
D12*
X1174400Y-6631720D02*
X1214400Y-6671720D01*
X1214400Y-6631720D02*
X1174400Y-6671720D01*
D11*
X1513272Y-6543204D02*
X1532320Y-6543204D01*
X1532320Y-6543204D02*
X1551367Y-6552728D01*
X1551367Y-6552728D02*
X1560891Y-6562251D01*
X1560891Y-6562251D02*
X1570415Y-6581299D01*
X1570415Y-6581299D02*
X1579939Y-6619394D01*
X1579939Y-6619394D02*
X1579939Y-6667013D01*
X1579939Y-6667013D02*
X1570415Y-6705108D01*
X1570415Y-6705108D02*
X1560891Y-6724156D01*
X1560891Y-6724156D02*
X1551367Y-6733680D01*
X1551367Y-6733680D02*
X1532320Y-6743204D01*
X1532320Y-6743204D02*
X1513272Y-6743204D01*
X1513272Y-6743204D02*
X1494224Y-6733680D01*
X1494224Y-6733680D02*
X1484701Y-6724156D01*
X1484701Y-6724156D02*
X1475177Y-6705108D01*
X1475177Y-6705108D02*
X1465653Y-6667013D01*
X1465653Y-6667013D02*
X1465653Y-6619394D01*
X1465653Y-6619394D02*
X1475177Y-6581299D01*
X1475177Y-6581299D02*
X1484701Y-6562251D01*
X1484701Y-6562251D02*
X1494224Y-6552728D01*
X1494224Y-6552728D02*
X1513272Y-6543204D01*
X1665653Y-6724156D02*
X1675177Y-6733680D01*
X1675177Y-6733680D02*
X1665653Y-6743204D01*
X1665653Y-6743204D02*
X1656129Y-6733680D01*
X1656129Y-6733680D02*
X1665653Y-6724156D01*
X1665653Y-6724156D02*
X1665653Y-6743204D01*
X1846605Y-6609870D02*
X1846605Y-6743204D01*
X1798986Y-6533680D02*
X1751367Y-6676537D01*
X1751367Y-6676537D02*
X1875177Y-6676537D01*
X1989462Y-6543204D02*
X2008510Y-6543204D01*
X2008510Y-6543204D02*
X2027558Y-6552728D01*
X2027558Y-6552728D02*
X2037082Y-6562251D01*
X2037082Y-6562251D02*
X2046605Y-6581299D01*
X2046605Y-6581299D02*
X2056129Y-6619394D01*
X2056129Y-6619394D02*
X2056129Y-6667013D01*
X2056129Y-6667013D02*
X2046605Y-6705108D01*
X2046605Y-6705108D02*
X2037082Y-6724156D01*
X2037082Y-6724156D02*
X2027558Y-6733680D01*
X2027558Y-6733680D02*
X2008510Y-6743204D01*
X2008510Y-6743204D02*
X1989462Y-6743204D01*
X1989462Y-6743204D02*
X1970415Y-6733680D01*
X1970415Y-6733680D02*
X1960891Y-6724156D01*
X1960891Y-6724156D02*
X1951367Y-6705108D01*
X1951367Y-6705108D02*
X1941843Y-6667013D01*
X1941843Y-6667013D02*
X1941843Y-6619394D01*
X1941843Y-6619394D02*
X1951367Y-6581299D01*
X1951367Y-6581299D02*
X1960891Y-6562251D01*
X1960891Y-6562251D02*
X1970415Y-6552728D01*
X1970415Y-6552728D02*
X1989462Y-6543204D01*
X2179939Y-6543204D02*
X2198986Y-6543204D01*
X2198986Y-6543204D02*
X2218034Y-6552728D01*
X2218034Y-6552728D02*
X2227558Y-6562251D01*
X2227558Y-6562251D02*
X2237082Y-6581299D01*
X2237082Y-6581299D02*
X2246605Y-6619394D01*
X2246605Y-6619394D02*
X2246605Y-6667013D01*
X2246605Y-6667013D02*
X2237082Y-6705108D01*
X2237082Y-6705108D02*
X2227558Y-6724156D01*
X2227558Y-6724156D02*
X2218034Y-6733680D01*
X2218034Y-6733680D02*
X2198986Y-6743204D01*
X2198986Y-6743204D02*
X2179939Y-6743204D01*
X2179939Y-6743204D02*
X2160891Y-6733680D01*
X2160891Y-6733680D02*
X2151367Y-6724156D01*
X2151367Y-6724156D02*
X2141844Y-6705108D01*
X2141844Y-6705108D02*
X2132320Y-6667013D01*
X2132320Y-6667013D02*
X2132320Y-6619394D01*
X2132320Y-6619394D02*
X2141844Y-6581299D01*
X2141844Y-6581299D02*
X2151367Y-6562251D01*
X2151367Y-6562251D02*
X2160891Y-6552728D01*
X2160891Y-6552728D02*
X2179939Y-6543204D01*
X2332320Y-6743204D02*
X2332320Y-6609870D01*
X2332320Y-6628918D02*
X2341844Y-6619394D01*
X2341844Y-6619394D02*
X2360891Y-6609870D01*
X2360891Y-6609870D02*
X2389463Y-6609870D01*
X2389463Y-6609870D02*
X2408510Y-6619394D01*
X2408510Y-6619394D02*
X2418034Y-6638442D01*
X2418034Y-6638442D02*
X2418034Y-6743204D01*
X2418034Y-6638442D02*
X2427558Y-6619394D01*
X2427558Y-6619394D02*
X2446605Y-6609870D01*
X2446605Y-6609870D02*
X2475177Y-6609870D01*
X2475177Y-6609870D02*
X2494225Y-6619394D01*
X2494225Y-6619394D02*
X2503748Y-6638442D01*
X2503748Y-6638442D02*
X2503748Y-6743204D01*
X2598986Y-6743204D02*
X2598986Y-6609870D01*
X2598986Y-6628918D02*
X2608510Y-6619394D01*
X2608510Y-6619394D02*
X2627558Y-6609870D01*
X2627558Y-6609870D02*
X2656129Y-6609870D01*
X2656129Y-6609870D02*
X2675177Y-6619394D01*
X2675177Y-6619394D02*
X2684701Y-6638442D01*
X2684701Y-6638442D02*
X2684701Y-6743204D01*
X2684701Y-6638442D02*
X2694225Y-6619394D01*
X2694225Y-6619394D02*
X2713272Y-6609870D01*
X2713272Y-6609870D02*
X2741844Y-6609870D01*
X2741844Y-6609870D02*
X2760891Y-6619394D01*
X2760891Y-6619394D02*
X2770415Y-6638442D01*
X2770415Y-6638442D02*
X2770415Y-6743204D01*
X3160891Y-6533680D02*
X2989463Y-6790823D01*
X3418034Y-6543204D02*
X3437082Y-6543204D01*
X3437082Y-6543204D02*
X3456129Y-6552728D01*
X3456129Y-6552728D02*
X3465653Y-6562251D01*
X3465653Y-6562251D02*
X3475177Y-6581299D01*
X3475177Y-6581299D02*
X3484701Y-6619394D01*
X3484701Y-6619394D02*
X3484701Y-6667013D01*
X3484701Y-6667013D02*
X3475177Y-6705108D01*
X3475177Y-6705108D02*
X3465653Y-6724156D01*
X3465653Y-6724156D02*
X3456129Y-6733680D01*
X3456129Y-6733680D02*
X3437082Y-6743204D01*
X3437082Y-6743204D02*
X3418034Y-6743204D01*
X3418034Y-6743204D02*
X3398986Y-6733680D01*
X3398986Y-6733680D02*
X3389463Y-6724156D01*
X3389463Y-6724156D02*
X3379939Y-6705108D01*
X3379939Y-6705108D02*
X3370415Y-6667013D01*
X3370415Y-6667013D02*
X3370415Y-6619394D01*
X3370415Y-6619394D02*
X3379939Y-6581299D01*
X3379939Y-6581299D02*
X3389463Y-6562251D01*
X3389463Y-6562251D02*
X3398986Y-6552728D01*
X3398986Y-6552728D02*
X3418034Y-6543204D01*
X3570415Y-6724156D02*
X3579939Y-6733680D01*
X3579939Y-6733680D02*
X3570415Y-6743204D01*
X3570415Y-6743204D02*
X3560891Y-6733680D01*
X3560891Y-6733680D02*
X3570415Y-6724156D01*
X3570415Y-6724156D02*
X3570415Y-6743204D01*
X3703748Y-6543204D02*
X3722796Y-6543204D01*
X3722796Y-6543204D02*
X3741844Y-6552728D01*
X3741844Y-6552728D02*
X3751367Y-6562251D01*
X3751367Y-6562251D02*
X3760891Y-6581299D01*
X3760891Y-6581299D02*
X3770415Y-6619394D01*
X3770415Y-6619394D02*
X3770415Y-6667013D01*
X3770415Y-6667013D02*
X3760891Y-6705108D01*
X3760891Y-6705108D02*
X3751367Y-6724156D01*
X3751367Y-6724156D02*
X3741844Y-6733680D01*
X3741844Y-6733680D02*
X3722796Y-6743204D01*
X3722796Y-6743204D02*
X3703748Y-6743204D01*
X3703748Y-6743204D02*
X3684701Y-6733680D01*
X3684701Y-6733680D02*
X3675177Y-6724156D01*
X3675177Y-6724156D02*
X3665653Y-6705108D01*
X3665653Y-6705108D02*
X3656129Y-6667013D01*
X3656129Y-6667013D02*
X3656129Y-6619394D01*
X3656129Y-6619394D02*
X3665653Y-6581299D01*
X3665653Y-6581299D02*
X3675177Y-6562251D01*
X3675177Y-6562251D02*
X3684701Y-6552728D01*
X3684701Y-6552728D02*
X3703748Y-6543204D01*
X3960891Y-6743204D02*
X3846606Y-6743204D01*
X3903748Y-6743204D02*
X3903748Y-6543204D01*
X3903748Y-6543204D02*
X3884701Y-6571775D01*
X3884701Y-6571775D02*
X3865653Y-6590823D01*
X3865653Y-6590823D02*
X3846606Y-6600347D01*
X4141844Y-6543204D02*
X4046606Y-6543204D01*
X4046606Y-6543204D02*
X4037082Y-6638442D01*
X4037082Y-6638442D02*
X4046606Y-6628918D01*
X4046606Y-6628918D02*
X4065653Y-6619394D01*
X4065653Y-6619394D02*
X4113272Y-6619394D01*
X4113272Y-6619394D02*
X4132320Y-6628918D01*
X4132320Y-6628918D02*
X4141844Y-6638442D01*
X4141844Y-6638442D02*
X4151367Y-6657489D01*
X4151367Y-6657489D02*
X4151367Y-6705108D01*
X4151367Y-6705108D02*
X4141844Y-6724156D01*
X4141844Y-6724156D02*
X4132320Y-6733680D01*
X4132320Y-6733680D02*
X4113272Y-6743204D01*
X4113272Y-6743204D02*
X4065653Y-6743204D01*
X4065653Y-6743204D02*
X4046606Y-6733680D01*
X4046606Y-6733680D02*
X4037082Y-6724156D01*
X4218034Y-6543204D02*
X4351368Y-6543204D01*
X4351368Y-6543204D02*
X4265653Y-6743204D01*
X4418034Y-6543204D02*
X4418034Y-6581299D01*
X4494225Y-6543204D02*
X4494225Y-6581299D01*
X4789463Y-6819394D02*
X4779939Y-6809870D01*
X4779939Y-6809870D02*
X4760891Y-6781299D01*
X4760891Y-6781299D02*
X4751368Y-6762251D01*
X4751368Y-6762251D02*
X4741844Y-6733680D01*
X4741844Y-6733680D02*
X4732320Y-6686061D01*
X4732320Y-6686061D02*
X4732320Y-6647966D01*
X4732320Y-6647966D02*
X4741844Y-6600347D01*
X4741844Y-6600347D02*
X4751368Y-6571775D01*
X4751368Y-6571775D02*
X4760891Y-6552728D01*
X4760891Y-6552728D02*
X4779939Y-6524156D01*
X4779939Y-6524156D02*
X4789463Y-6514632D01*
X4856130Y-6562251D02*
X4865653Y-6552728D01*
X4865653Y-6552728D02*
X4884701Y-6543204D01*
X4884701Y-6543204D02*
X4932320Y-6543204D01*
X4932320Y-6543204D02*
X4951368Y-6552728D01*
X4951368Y-6552728D02*
X4960891Y-6562251D01*
X4960891Y-6562251D02*
X4970415Y-6581299D01*
X4970415Y-6581299D02*
X4970415Y-6600347D01*
X4970415Y-6600347D02*
X4960891Y-6628918D01*
X4960891Y-6628918D02*
X4846606Y-6743204D01*
X4846606Y-6743204D02*
X4970415Y-6743204D01*
X5065653Y-6743204D02*
X5103749Y-6743204D01*
X5103749Y-6743204D02*
X5122796Y-6733680D01*
X5122796Y-6733680D02*
X5132320Y-6724156D01*
X5132320Y-6724156D02*
X5151368Y-6695585D01*
X5151368Y-6695585D02*
X5160891Y-6657489D01*
X5160891Y-6657489D02*
X5160891Y-6581299D01*
X5160891Y-6581299D02*
X5151368Y-6562251D01*
X5151368Y-6562251D02*
X5141844Y-6552728D01*
X5141844Y-6552728D02*
X5122796Y-6543204D01*
X5122796Y-6543204D02*
X5084701Y-6543204D01*
X5084701Y-6543204D02*
X5065653Y-6552728D01*
X5065653Y-6552728D02*
X5056130Y-6562251D01*
X5056130Y-6562251D02*
X5046606Y-6581299D01*
X5046606Y-6581299D02*
X5046606Y-6628918D01*
X5046606Y-6628918D02*
X5056130Y-6647966D01*
X5056130Y-6647966D02*
X5065653Y-6657489D01*
X5065653Y-6657489D02*
X5084701Y-6667013D01*
X5084701Y-6667013D02*
X5122796Y-6667013D01*
X5122796Y-6667013D02*
X5141844Y-6657489D01*
X5141844Y-6657489D02*
X5151368Y-6647966D01*
X5151368Y-6647966D02*
X5160891Y-6628918D01*
X5398987Y-6743204D02*
X5398987Y-6543204D01*
X5484701Y-6743204D02*
X5484701Y-6638442D01*
X5484701Y-6638442D02*
X5475177Y-6619394D01*
X5475177Y-6619394D02*
X5456130Y-6609870D01*
X5456130Y-6609870D02*
X5427558Y-6609870D01*
X5427558Y-6609870D02*
X5408511Y-6619394D01*
X5408511Y-6619394D02*
X5398987Y-6628918D01*
X5608510Y-6743204D02*
X5589463Y-6733680D01*
X5589463Y-6733680D02*
X5579939Y-6724156D01*
X5579939Y-6724156D02*
X5570415Y-6705108D01*
X5570415Y-6705108D02*
X5570415Y-6647966D01*
X5570415Y-6647966D02*
X5579939Y-6628918D01*
X5579939Y-6628918D02*
X5589463Y-6619394D01*
X5589463Y-6619394D02*
X5608510Y-6609870D01*
X5608510Y-6609870D02*
X5637082Y-6609870D01*
X5637082Y-6609870D02*
X5656130Y-6619394D01*
X5656130Y-6619394D02*
X5665653Y-6628918D01*
X5665653Y-6628918D02*
X5675177Y-6647966D01*
X5675177Y-6647966D02*
X5675177Y-6705108D01*
X5675177Y-6705108D02*
X5665653Y-6724156D01*
X5665653Y-6724156D02*
X5656130Y-6733680D01*
X5656130Y-6733680D02*
X5637082Y-6743204D01*
X5637082Y-6743204D02*
X5608510Y-6743204D01*
X5789463Y-6743204D02*
X5770415Y-6733680D01*
X5770415Y-6733680D02*
X5760891Y-6714632D01*
X5760891Y-6714632D02*
X5760891Y-6543204D01*
X5941844Y-6733680D02*
X5922796Y-6743204D01*
X5922796Y-6743204D02*
X5884701Y-6743204D01*
X5884701Y-6743204D02*
X5865653Y-6733680D01*
X5865653Y-6733680D02*
X5856130Y-6714632D01*
X5856130Y-6714632D02*
X5856130Y-6638442D01*
X5856130Y-6638442D02*
X5865653Y-6619394D01*
X5865653Y-6619394D02*
X5884701Y-6609870D01*
X5884701Y-6609870D02*
X5922796Y-6609870D01*
X5922796Y-6609870D02*
X5941844Y-6619394D01*
X5941844Y-6619394D02*
X5951368Y-6638442D01*
X5951368Y-6638442D02*
X5951368Y-6657489D01*
X5951368Y-6657489D02*
X5856130Y-6676537D01*
X6027558Y-6733680D02*
X6046606Y-6743204D01*
X6046606Y-6743204D02*
X6084701Y-6743204D01*
X6084701Y-6743204D02*
X6103749Y-6733680D01*
X6103749Y-6733680D02*
X6113272Y-6714632D01*
X6113272Y-6714632D02*
X6113272Y-6705108D01*
X6113272Y-6705108D02*
X6103749Y-6686061D01*
X6103749Y-6686061D02*
X6084701Y-6676537D01*
X6084701Y-6676537D02*
X6056130Y-6676537D01*
X6056130Y-6676537D02*
X6037082Y-6667013D01*
X6037082Y-6667013D02*
X6027558Y-6647966D01*
X6027558Y-6647966D02*
X6027558Y-6638442D01*
X6027558Y-6638442D02*
X6037082Y-6619394D01*
X6037082Y-6619394D02*
X6056130Y-6609870D01*
X6056130Y-6609870D02*
X6084701Y-6609870D01*
X6084701Y-6609870D02*
X6103749Y-6619394D01*
X6179939Y-6819394D02*
X6189463Y-6809870D01*
X6189463Y-6809870D02*
X6208511Y-6781299D01*
X6208511Y-6781299D02*
X6218034Y-6762251D01*
X6218034Y-6762251D02*
X6227558Y-6733680D01*
X6227558Y-6733680D02*
X6237082Y-6686061D01*
X6237082Y-6686061D02*
X6237082Y-6647966D01*
X6237082Y-6647966D02*
X6227558Y-6600347D01*
X6227558Y-6600347D02*
X6218034Y-6571775D01*
X6218034Y-6571775D02*
X6208511Y-6552728D01*
X6208511Y-6552728D02*
X6189463Y-6524156D01*
X6189463Y-6524156D02*
X6179939Y-6514632D01*
D13*
X1214400Y-6915720D02*
G75*
G03*
X1214400Y-6915720I-40000J0D01*
G01*
D11*
X1513272Y-6807204D02*
X1532320Y-6807204D01*
X1532320Y-6807204D02*
X1551367Y-6816728D01*
X1551367Y-6816728D02*
X1560891Y-6826251D01*
X1560891Y-6826251D02*
X1570415Y-6845299D01*
X1570415Y-6845299D02*
X1579939Y-6883394D01*
X1579939Y-6883394D02*
X1579939Y-6931013D01*
X1579939Y-6931013D02*
X1570415Y-6969108D01*
X1570415Y-6969108D02*
X1560891Y-6988156D01*
X1560891Y-6988156D02*
X1551367Y-6997680D01*
X1551367Y-6997680D02*
X1532320Y-7007204D01*
X1532320Y-7007204D02*
X1513272Y-7007204D01*
X1513272Y-7007204D02*
X1494224Y-6997680D01*
X1494224Y-6997680D02*
X1484701Y-6988156D01*
X1484701Y-6988156D02*
X1475177Y-6969108D01*
X1475177Y-6969108D02*
X1465653Y-6931013D01*
X1465653Y-6931013D02*
X1465653Y-6883394D01*
X1465653Y-6883394D02*
X1475177Y-6845299D01*
X1475177Y-6845299D02*
X1484701Y-6826251D01*
X1484701Y-6826251D02*
X1494224Y-6816728D01*
X1494224Y-6816728D02*
X1513272Y-6807204D01*
X1665653Y-6988156D02*
X1675177Y-6997680D01*
X1675177Y-6997680D02*
X1665653Y-7007204D01*
X1665653Y-7007204D02*
X1656129Y-6997680D01*
X1656129Y-6997680D02*
X1665653Y-6988156D01*
X1665653Y-6988156D02*
X1665653Y-7007204D01*
X1789462Y-6892918D02*
X1770415Y-6883394D01*
X1770415Y-6883394D02*
X1760891Y-6873870D01*
X1760891Y-6873870D02*
X1751367Y-6854823D01*
X1751367Y-6854823D02*
X1751367Y-6845299D01*
X1751367Y-6845299D02*
X1760891Y-6826251D01*
X1760891Y-6826251D02*
X1770415Y-6816728D01*
X1770415Y-6816728D02*
X1789462Y-6807204D01*
X1789462Y-6807204D02*
X1827558Y-6807204D01*
X1827558Y-6807204D02*
X1846605Y-6816728D01*
X1846605Y-6816728D02*
X1856129Y-6826251D01*
X1856129Y-6826251D02*
X1865653Y-6845299D01*
X1865653Y-6845299D02*
X1865653Y-6854823D01*
X1865653Y-6854823D02*
X1856129Y-6873870D01*
X1856129Y-6873870D02*
X1846605Y-6883394D01*
X1846605Y-6883394D02*
X1827558Y-6892918D01*
X1827558Y-6892918D02*
X1789462Y-6892918D01*
X1789462Y-6892918D02*
X1770415Y-6902442D01*
X1770415Y-6902442D02*
X1760891Y-6911966D01*
X1760891Y-6911966D02*
X1751367Y-6931013D01*
X1751367Y-6931013D02*
X1751367Y-6969108D01*
X1751367Y-6969108D02*
X1760891Y-6988156D01*
X1760891Y-6988156D02*
X1770415Y-6997680D01*
X1770415Y-6997680D02*
X1789462Y-7007204D01*
X1789462Y-7007204D02*
X1827558Y-7007204D01*
X1827558Y-7007204D02*
X1846605Y-6997680D01*
X1846605Y-6997680D02*
X1856129Y-6988156D01*
X1856129Y-6988156D02*
X1865653Y-6969108D01*
X1865653Y-6969108D02*
X1865653Y-6931013D01*
X1865653Y-6931013D02*
X1856129Y-6911966D01*
X1856129Y-6911966D02*
X1846605Y-6902442D01*
X1846605Y-6902442D02*
X1827558Y-6892918D01*
X1989462Y-6807204D02*
X2008510Y-6807204D01*
X2008510Y-6807204D02*
X2027558Y-6816728D01*
X2027558Y-6816728D02*
X2037082Y-6826251D01*
X2037082Y-6826251D02*
X2046605Y-6845299D01*
X2046605Y-6845299D02*
X2056129Y-6883394D01*
X2056129Y-6883394D02*
X2056129Y-6931013D01*
X2056129Y-6931013D02*
X2046605Y-6969108D01*
X2046605Y-6969108D02*
X2037082Y-6988156D01*
X2037082Y-6988156D02*
X2027558Y-6997680D01*
X2027558Y-6997680D02*
X2008510Y-7007204D01*
X2008510Y-7007204D02*
X1989462Y-7007204D01*
X1989462Y-7007204D02*
X1970415Y-6997680D01*
X1970415Y-6997680D02*
X1960891Y-6988156D01*
X1960891Y-6988156D02*
X1951367Y-6969108D01*
X1951367Y-6969108D02*
X1941843Y-6931013D01*
X1941843Y-6931013D02*
X1941843Y-6883394D01*
X1941843Y-6883394D02*
X1951367Y-6845299D01*
X1951367Y-6845299D02*
X1960891Y-6826251D01*
X1960891Y-6826251D02*
X1970415Y-6816728D01*
X1970415Y-6816728D02*
X1989462Y-6807204D01*
X2179939Y-6807204D02*
X2198986Y-6807204D01*
X2198986Y-6807204D02*
X2218034Y-6816728D01*
X2218034Y-6816728D02*
X2227558Y-6826251D01*
X2227558Y-6826251D02*
X2237082Y-6845299D01*
X2237082Y-6845299D02*
X2246605Y-6883394D01*
X2246605Y-6883394D02*
X2246605Y-6931013D01*
X2246605Y-6931013D02*
X2237082Y-6969108D01*
X2237082Y-6969108D02*
X2227558Y-6988156D01*
X2227558Y-6988156D02*
X2218034Y-6997680D01*
X2218034Y-6997680D02*
X2198986Y-7007204D01*
X2198986Y-7007204D02*
X2179939Y-7007204D01*
X2179939Y-7007204D02*
X2160891Y-6997680D01*
X2160891Y-6997680D02*
X2151367Y-6988156D01*
X2151367Y-6988156D02*
X2141844Y-6969108D01*
X2141844Y-6969108D02*
X2132320Y-6931013D01*
X2132320Y-6931013D02*
X2132320Y-6883394D01*
X2132320Y-6883394D02*
X2141844Y-6845299D01*
X2141844Y-6845299D02*
X2151367Y-6826251D01*
X2151367Y-6826251D02*
X2160891Y-6816728D01*
X2160891Y-6816728D02*
X2179939Y-6807204D01*
X2332320Y-7007204D02*
X2332320Y-6873870D01*
X2332320Y-6892918D02*
X2341844Y-6883394D01*
X2341844Y-6883394D02*
X2360891Y-6873870D01*
X2360891Y-6873870D02*
X2389463Y-6873870D01*
X2389463Y-6873870D02*
X2408510Y-6883394D01*
X2408510Y-6883394D02*
X2418034Y-6902442D01*
X2418034Y-6902442D02*
X2418034Y-7007204D01*
X2418034Y-6902442D02*
X2427558Y-6883394D01*
X2427558Y-6883394D02*
X2446605Y-6873870D01*
X2446605Y-6873870D02*
X2475177Y-6873870D01*
X2475177Y-6873870D02*
X2494225Y-6883394D01*
X2494225Y-6883394D02*
X2503748Y-6902442D01*
X2503748Y-6902442D02*
X2503748Y-7007204D01*
X2598986Y-7007204D02*
X2598986Y-6873870D01*
X2598986Y-6892918D02*
X2608510Y-6883394D01*
X2608510Y-6883394D02*
X2627558Y-6873870D01*
X2627558Y-6873870D02*
X2656129Y-6873870D01*
X2656129Y-6873870D02*
X2675177Y-6883394D01*
X2675177Y-6883394D02*
X2684701Y-6902442D01*
X2684701Y-6902442D02*
X2684701Y-7007204D01*
X2684701Y-6902442D02*
X2694225Y-6883394D01*
X2694225Y-6883394D02*
X2713272Y-6873870D01*
X2713272Y-6873870D02*
X2741844Y-6873870D01*
X2741844Y-6873870D02*
X2760891Y-6883394D01*
X2760891Y-6883394D02*
X2770415Y-6902442D01*
X2770415Y-6902442D02*
X2770415Y-7007204D01*
X3160891Y-6797680D02*
X2989463Y-7054823D01*
X3418034Y-6807204D02*
X3437082Y-6807204D01*
X3437082Y-6807204D02*
X3456129Y-6816728D01*
X3456129Y-6816728D02*
X3465653Y-6826251D01*
X3465653Y-6826251D02*
X3475177Y-6845299D01*
X3475177Y-6845299D02*
X3484701Y-6883394D01*
X3484701Y-6883394D02*
X3484701Y-6931013D01*
X3484701Y-6931013D02*
X3475177Y-6969108D01*
X3475177Y-6969108D02*
X3465653Y-6988156D01*
X3465653Y-6988156D02*
X3456129Y-6997680D01*
X3456129Y-6997680D02*
X3437082Y-7007204D01*
X3437082Y-7007204D02*
X3418034Y-7007204D01*
X3418034Y-7007204D02*
X3398986Y-6997680D01*
X3398986Y-6997680D02*
X3389463Y-6988156D01*
X3389463Y-6988156D02*
X3379939Y-6969108D01*
X3379939Y-6969108D02*
X3370415Y-6931013D01*
X3370415Y-6931013D02*
X3370415Y-6883394D01*
X3370415Y-6883394D02*
X3379939Y-6845299D01*
X3379939Y-6845299D02*
X3389463Y-6826251D01*
X3389463Y-6826251D02*
X3398986Y-6816728D01*
X3398986Y-6816728D02*
X3418034Y-6807204D01*
X3570415Y-6988156D02*
X3579939Y-6997680D01*
X3579939Y-6997680D02*
X3570415Y-7007204D01*
X3570415Y-7007204D02*
X3560891Y-6997680D01*
X3560891Y-6997680D02*
X3570415Y-6988156D01*
X3570415Y-6988156D02*
X3570415Y-7007204D01*
X3703748Y-6807204D02*
X3722796Y-6807204D01*
X3722796Y-6807204D02*
X3741844Y-6816728D01*
X3741844Y-6816728D02*
X3751367Y-6826251D01*
X3751367Y-6826251D02*
X3760891Y-6845299D01*
X3760891Y-6845299D02*
X3770415Y-6883394D01*
X3770415Y-6883394D02*
X3770415Y-6931013D01*
X3770415Y-6931013D02*
X3760891Y-6969108D01*
X3760891Y-6969108D02*
X3751367Y-6988156D01*
X3751367Y-6988156D02*
X3741844Y-6997680D01*
X3741844Y-6997680D02*
X3722796Y-7007204D01*
X3722796Y-7007204D02*
X3703748Y-7007204D01*
X3703748Y-7007204D02*
X3684701Y-6997680D01*
X3684701Y-6997680D02*
X3675177Y-6988156D01*
X3675177Y-6988156D02*
X3665653Y-6969108D01*
X3665653Y-6969108D02*
X3656129Y-6931013D01*
X3656129Y-6931013D02*
X3656129Y-6883394D01*
X3656129Y-6883394D02*
X3665653Y-6845299D01*
X3665653Y-6845299D02*
X3675177Y-6826251D01*
X3675177Y-6826251D02*
X3684701Y-6816728D01*
X3684701Y-6816728D02*
X3703748Y-6807204D01*
X3837082Y-6807204D02*
X3960891Y-6807204D01*
X3960891Y-6807204D02*
X3894225Y-6883394D01*
X3894225Y-6883394D02*
X3922796Y-6883394D01*
X3922796Y-6883394D02*
X3941844Y-6892918D01*
X3941844Y-6892918D02*
X3951367Y-6902442D01*
X3951367Y-6902442D02*
X3960891Y-6921489D01*
X3960891Y-6921489D02*
X3960891Y-6969108D01*
X3960891Y-6969108D02*
X3951367Y-6988156D01*
X3951367Y-6988156D02*
X3941844Y-6997680D01*
X3941844Y-6997680D02*
X3922796Y-7007204D01*
X3922796Y-7007204D02*
X3865653Y-7007204D01*
X3865653Y-7007204D02*
X3846606Y-6997680D01*
X3846606Y-6997680D02*
X3837082Y-6988156D01*
X4151367Y-7007204D02*
X4037082Y-7007204D01*
X4094225Y-7007204D02*
X4094225Y-6807204D01*
X4094225Y-6807204D02*
X4075177Y-6835775D01*
X4075177Y-6835775D02*
X4056129Y-6854823D01*
X4056129Y-6854823D02*
X4037082Y-6864347D01*
X4332320Y-6807204D02*
X4237082Y-6807204D01*
X4237082Y-6807204D02*
X4227558Y-6902442D01*
X4227558Y-6902442D02*
X4237082Y-6892918D01*
X4237082Y-6892918D02*
X4256129Y-6883394D01*
X4256129Y-6883394D02*
X4303749Y-6883394D01*
X4303749Y-6883394D02*
X4322796Y-6892918D01*
X4322796Y-6892918D02*
X4332320Y-6902442D01*
X4332320Y-6902442D02*
X4341844Y-6921489D01*
X4341844Y-6921489D02*
X4341844Y-6969108D01*
X4341844Y-6969108D02*
X4332320Y-6988156D01*
X4332320Y-6988156D02*
X4322796Y-6997680D01*
X4322796Y-6997680D02*
X4303749Y-7007204D01*
X4303749Y-7007204D02*
X4256129Y-7007204D01*
X4256129Y-7007204D02*
X4237082Y-6997680D01*
X4237082Y-6997680D02*
X4227558Y-6988156D01*
X4418034Y-6807204D02*
X4418034Y-6845299D01*
X4494225Y-6807204D02*
X4494225Y-6845299D01*
X4789463Y-7083394D02*
X4779939Y-7073870D01*
X4779939Y-7073870D02*
X4760891Y-7045299D01*
X4760891Y-7045299D02*
X4751368Y-7026251D01*
X4751368Y-7026251D02*
X4741844Y-6997680D01*
X4741844Y-6997680D02*
X4732320Y-6950061D01*
X4732320Y-6950061D02*
X4732320Y-6911966D01*
X4732320Y-6911966D02*
X4741844Y-6864347D01*
X4741844Y-6864347D02*
X4751368Y-6835775D01*
X4751368Y-6835775D02*
X4760891Y-6816728D01*
X4760891Y-6816728D02*
X4779939Y-6788156D01*
X4779939Y-6788156D02*
X4789463Y-6778632D01*
X4970415Y-7007204D02*
X4856130Y-7007204D01*
X4913272Y-7007204D02*
X4913272Y-6807204D01*
X4913272Y-6807204D02*
X4894225Y-6835775D01*
X4894225Y-6835775D02*
X4875177Y-6854823D01*
X4875177Y-6854823D02*
X4856130Y-6864347D01*
X5160891Y-7007204D02*
X5046606Y-7007204D01*
X5103749Y-7007204D02*
X5103749Y-6807204D01*
X5103749Y-6807204D02*
X5084701Y-6835775D01*
X5084701Y-6835775D02*
X5065653Y-6854823D01*
X5065653Y-6854823D02*
X5046606Y-6864347D01*
X5398987Y-7007204D02*
X5398987Y-6807204D01*
X5484701Y-7007204D02*
X5484701Y-6902442D01*
X5484701Y-6902442D02*
X5475177Y-6883394D01*
X5475177Y-6883394D02*
X5456130Y-6873870D01*
X5456130Y-6873870D02*
X5427558Y-6873870D01*
X5427558Y-6873870D02*
X5408511Y-6883394D01*
X5408511Y-6883394D02*
X5398987Y-6892918D01*
X5608510Y-7007204D02*
X5589463Y-6997680D01*
X5589463Y-6997680D02*
X5579939Y-6988156D01*
X5579939Y-6988156D02*
X5570415Y-6969108D01*
X5570415Y-6969108D02*
X5570415Y-6911966D01*
X5570415Y-6911966D02*
X5579939Y-6892918D01*
X5579939Y-6892918D02*
X5589463Y-6883394D01*
X5589463Y-6883394D02*
X5608510Y-6873870D01*
X5608510Y-6873870D02*
X5637082Y-6873870D01*
X5637082Y-6873870D02*
X5656130Y-6883394D01*
X5656130Y-6883394D02*
X5665653Y-6892918D01*
X5665653Y-6892918D02*
X5675177Y-6911966D01*
X5675177Y-6911966D02*
X5675177Y-6969108D01*
X5675177Y-6969108D02*
X5665653Y-6988156D01*
X5665653Y-6988156D02*
X5656130Y-6997680D01*
X5656130Y-6997680D02*
X5637082Y-7007204D01*
X5637082Y-7007204D02*
X5608510Y-7007204D01*
X5789463Y-7007204D02*
X5770415Y-6997680D01*
X5770415Y-6997680D02*
X5760891Y-6978632D01*
X5760891Y-6978632D02*
X5760891Y-6807204D01*
X5941844Y-6997680D02*
X5922796Y-7007204D01*
X5922796Y-7007204D02*
X5884701Y-7007204D01*
X5884701Y-7007204D02*
X5865653Y-6997680D01*
X5865653Y-6997680D02*
X5856130Y-6978632D01*
X5856130Y-6978632D02*
X5856130Y-6902442D01*
X5856130Y-6902442D02*
X5865653Y-6883394D01*
X5865653Y-6883394D02*
X5884701Y-6873870D01*
X5884701Y-6873870D02*
X5922796Y-6873870D01*
X5922796Y-6873870D02*
X5941844Y-6883394D01*
X5941844Y-6883394D02*
X5951368Y-6902442D01*
X5951368Y-6902442D02*
X5951368Y-6921489D01*
X5951368Y-6921489D02*
X5856130Y-6940537D01*
X6027558Y-6997680D02*
X6046606Y-7007204D01*
X6046606Y-7007204D02*
X6084701Y-7007204D01*
X6084701Y-7007204D02*
X6103749Y-6997680D01*
X6103749Y-6997680D02*
X6113272Y-6978632D01*
X6113272Y-6978632D02*
X6113272Y-6969108D01*
X6113272Y-6969108D02*
X6103749Y-6950061D01*
X6103749Y-6950061D02*
X6084701Y-6940537D01*
X6084701Y-6940537D02*
X6056130Y-6940537D01*
X6056130Y-6940537D02*
X6037082Y-6931013D01*
X6037082Y-6931013D02*
X6027558Y-6911966D01*
X6027558Y-6911966D02*
X6027558Y-6902442D01*
X6027558Y-6902442D02*
X6037082Y-6883394D01*
X6037082Y-6883394D02*
X6056130Y-6873870D01*
X6056130Y-6873870D02*
X6084701Y-6873870D01*
X6084701Y-6873870D02*
X6103749Y-6883394D01*
X6179939Y-7083394D02*
X6189463Y-7073870D01*
X6189463Y-7073870D02*
X6208511Y-7045299D01*
X6208511Y-7045299D02*
X6218034Y-7026251D01*
X6218034Y-7026251D02*
X6227558Y-6997680D01*
X6227558Y-6997680D02*
X6237082Y-6950061D01*
X6237082Y-6950061D02*
X6237082Y-6911966D01*
X6237082Y-6911966D02*
X6227558Y-6864347D01*
X6227558Y-6864347D02*
X6218034Y-6835775D01*
X6218034Y-6835775D02*
X6208511Y-6816728D01*
X6208511Y-6816728D02*
X6189463Y-6788156D01*
X6189463Y-6788156D02*
X6179939Y-6778632D01*
D10*
X1164400Y-7129720D02*
X1164400Y-7229720D01*
X1114400Y-7179720D02*
X1214400Y-7179720D01*
D11*
X1579939Y-7271204D02*
X1465653Y-7271204D01*
X1522796Y-7271204D02*
X1522796Y-7071204D01*
X1522796Y-7071204D02*
X1503748Y-7099775D01*
X1503748Y-7099775D02*
X1484701Y-7118823D01*
X1484701Y-7118823D02*
X1465653Y-7128347D01*
X1665653Y-7252156D02*
X1675177Y-7261680D01*
X1675177Y-7261680D02*
X1665653Y-7271204D01*
X1665653Y-7271204D02*
X1656129Y-7261680D01*
X1656129Y-7261680D02*
X1665653Y-7252156D01*
X1665653Y-7252156D02*
X1665653Y-7271204D01*
X1798986Y-7071204D02*
X1818034Y-7071204D01*
X1818034Y-7071204D02*
X1837082Y-7080728D01*
X1837082Y-7080728D02*
X1846605Y-7090251D01*
X1846605Y-7090251D02*
X1856129Y-7109299D01*
X1856129Y-7109299D02*
X1865653Y-7147394D01*
X1865653Y-7147394D02*
X1865653Y-7195013D01*
X1865653Y-7195013D02*
X1856129Y-7233108D01*
X1856129Y-7233108D02*
X1846605Y-7252156D01*
X1846605Y-7252156D02*
X1837082Y-7261680D01*
X1837082Y-7261680D02*
X1818034Y-7271204D01*
X1818034Y-7271204D02*
X1798986Y-7271204D01*
X1798986Y-7271204D02*
X1779939Y-7261680D01*
X1779939Y-7261680D02*
X1770415Y-7252156D01*
X1770415Y-7252156D02*
X1760891Y-7233108D01*
X1760891Y-7233108D02*
X1751367Y-7195013D01*
X1751367Y-7195013D02*
X1751367Y-7147394D01*
X1751367Y-7147394D02*
X1760891Y-7109299D01*
X1760891Y-7109299D02*
X1770415Y-7090251D01*
X1770415Y-7090251D02*
X1779939Y-7080728D01*
X1779939Y-7080728D02*
X1798986Y-7071204D01*
X1989462Y-7071204D02*
X2008510Y-7071204D01*
X2008510Y-7071204D02*
X2027558Y-7080728D01*
X2027558Y-7080728D02*
X2037082Y-7090251D01*
X2037082Y-7090251D02*
X2046605Y-7109299D01*
X2046605Y-7109299D02*
X2056129Y-7147394D01*
X2056129Y-7147394D02*
X2056129Y-7195013D01*
X2056129Y-7195013D02*
X2046605Y-7233108D01*
X2046605Y-7233108D02*
X2037082Y-7252156D01*
X2037082Y-7252156D02*
X2027558Y-7261680D01*
X2027558Y-7261680D02*
X2008510Y-7271204D01*
X2008510Y-7271204D02*
X1989462Y-7271204D01*
X1989462Y-7271204D02*
X1970415Y-7261680D01*
X1970415Y-7261680D02*
X1960891Y-7252156D01*
X1960891Y-7252156D02*
X1951367Y-7233108D01*
X1951367Y-7233108D02*
X1941843Y-7195013D01*
X1941843Y-7195013D02*
X1941843Y-7147394D01*
X1941843Y-7147394D02*
X1951367Y-7109299D01*
X1951367Y-7109299D02*
X1960891Y-7090251D01*
X1960891Y-7090251D02*
X1970415Y-7080728D01*
X1970415Y-7080728D02*
X1989462Y-7071204D01*
X2179939Y-7071204D02*
X2198986Y-7071204D01*
X2198986Y-7071204D02*
X2218034Y-7080728D01*
X2218034Y-7080728D02*
X2227558Y-7090251D01*
X2227558Y-7090251D02*
X2237082Y-7109299D01*
X2237082Y-7109299D02*
X2246605Y-7147394D01*
X2246605Y-7147394D02*
X2246605Y-7195013D01*
X2246605Y-7195013D02*
X2237082Y-7233108D01*
X2237082Y-7233108D02*
X2227558Y-7252156D01*
X2227558Y-7252156D02*
X2218034Y-7261680D01*
X2218034Y-7261680D02*
X2198986Y-7271204D01*
X2198986Y-7271204D02*
X2179939Y-7271204D01*
X2179939Y-7271204D02*
X2160891Y-7261680D01*
X2160891Y-7261680D02*
X2151367Y-7252156D01*
X2151367Y-7252156D02*
X2141844Y-7233108D01*
X2141844Y-7233108D02*
X2132320Y-7195013D01*
X2132320Y-7195013D02*
X2132320Y-7147394D01*
X2132320Y-7147394D02*
X2141844Y-7109299D01*
X2141844Y-7109299D02*
X2151367Y-7090251D01*
X2151367Y-7090251D02*
X2160891Y-7080728D01*
X2160891Y-7080728D02*
X2179939Y-7071204D01*
X2332320Y-7271204D02*
X2332320Y-7137870D01*
X2332320Y-7156918D02*
X2341844Y-7147394D01*
X2341844Y-7147394D02*
X2360891Y-7137870D01*
X2360891Y-7137870D02*
X2389463Y-7137870D01*
X2389463Y-7137870D02*
X2408510Y-7147394D01*
X2408510Y-7147394D02*
X2418034Y-7166442D01*
X2418034Y-7166442D02*
X2418034Y-7271204D01*
X2418034Y-7166442D02*
X2427558Y-7147394D01*
X2427558Y-7147394D02*
X2446605Y-7137870D01*
X2446605Y-7137870D02*
X2475177Y-7137870D01*
X2475177Y-7137870D02*
X2494225Y-7147394D01*
X2494225Y-7147394D02*
X2503748Y-7166442D01*
X2503748Y-7166442D02*
X2503748Y-7271204D01*
X2598986Y-7271204D02*
X2598986Y-7137870D01*
X2598986Y-7156918D02*
X2608510Y-7147394D01*
X2608510Y-7147394D02*
X2627558Y-7137870D01*
X2627558Y-7137870D02*
X2656129Y-7137870D01*
X2656129Y-7137870D02*
X2675177Y-7147394D01*
X2675177Y-7147394D02*
X2684701Y-7166442D01*
X2684701Y-7166442D02*
X2684701Y-7271204D01*
X2684701Y-7166442D02*
X2694225Y-7147394D01*
X2694225Y-7147394D02*
X2713272Y-7137870D01*
X2713272Y-7137870D02*
X2741844Y-7137870D01*
X2741844Y-7137870D02*
X2760891Y-7147394D01*
X2760891Y-7147394D02*
X2770415Y-7166442D01*
X2770415Y-7166442D02*
X2770415Y-7271204D01*
X3160891Y-7061680D02*
X2989463Y-7318823D01*
X3418034Y-7071204D02*
X3437082Y-7071204D01*
X3437082Y-7071204D02*
X3456129Y-7080728D01*
X3456129Y-7080728D02*
X3465653Y-7090251D01*
X3465653Y-7090251D02*
X3475177Y-7109299D01*
X3475177Y-7109299D02*
X3484701Y-7147394D01*
X3484701Y-7147394D02*
X3484701Y-7195013D01*
X3484701Y-7195013D02*
X3475177Y-7233108D01*
X3475177Y-7233108D02*
X3465653Y-7252156D01*
X3465653Y-7252156D02*
X3456129Y-7261680D01*
X3456129Y-7261680D02*
X3437082Y-7271204D01*
X3437082Y-7271204D02*
X3418034Y-7271204D01*
X3418034Y-7271204D02*
X3398986Y-7261680D01*
X3398986Y-7261680D02*
X3389463Y-7252156D01*
X3389463Y-7252156D02*
X3379939Y-7233108D01*
X3379939Y-7233108D02*
X3370415Y-7195013D01*
X3370415Y-7195013D02*
X3370415Y-7147394D01*
X3370415Y-7147394D02*
X3379939Y-7109299D01*
X3379939Y-7109299D02*
X3389463Y-7090251D01*
X3389463Y-7090251D02*
X3398986Y-7080728D01*
X3398986Y-7080728D02*
X3418034Y-7071204D01*
X3570415Y-7252156D02*
X3579939Y-7261680D01*
X3579939Y-7261680D02*
X3570415Y-7271204D01*
X3570415Y-7271204D02*
X3560891Y-7261680D01*
X3560891Y-7261680D02*
X3570415Y-7252156D01*
X3570415Y-7252156D02*
X3570415Y-7271204D01*
X3703748Y-7071204D02*
X3722796Y-7071204D01*
X3722796Y-7071204D02*
X3741844Y-7080728D01*
X3741844Y-7080728D02*
X3751367Y-7090251D01*
X3751367Y-7090251D02*
X3760891Y-7109299D01*
X3760891Y-7109299D02*
X3770415Y-7147394D01*
X3770415Y-7147394D02*
X3770415Y-7195013D01*
X3770415Y-7195013D02*
X3760891Y-7233108D01*
X3760891Y-7233108D02*
X3751367Y-7252156D01*
X3751367Y-7252156D02*
X3741844Y-7261680D01*
X3741844Y-7261680D02*
X3722796Y-7271204D01*
X3722796Y-7271204D02*
X3703748Y-7271204D01*
X3703748Y-7271204D02*
X3684701Y-7261680D01*
X3684701Y-7261680D02*
X3675177Y-7252156D01*
X3675177Y-7252156D02*
X3665653Y-7233108D01*
X3665653Y-7233108D02*
X3656129Y-7195013D01*
X3656129Y-7195013D02*
X3656129Y-7147394D01*
X3656129Y-7147394D02*
X3665653Y-7109299D01*
X3665653Y-7109299D02*
X3675177Y-7090251D01*
X3675177Y-7090251D02*
X3684701Y-7080728D01*
X3684701Y-7080728D02*
X3703748Y-7071204D01*
X3837082Y-7071204D02*
X3960891Y-7071204D01*
X3960891Y-7071204D02*
X3894225Y-7147394D01*
X3894225Y-7147394D02*
X3922796Y-7147394D01*
X3922796Y-7147394D02*
X3941844Y-7156918D01*
X3941844Y-7156918D02*
X3951367Y-7166442D01*
X3951367Y-7166442D02*
X3960891Y-7185489D01*
X3960891Y-7185489D02*
X3960891Y-7233108D01*
X3960891Y-7233108D02*
X3951367Y-7252156D01*
X3951367Y-7252156D02*
X3941844Y-7261680D01*
X3941844Y-7261680D02*
X3922796Y-7271204D01*
X3922796Y-7271204D02*
X3865653Y-7271204D01*
X3865653Y-7271204D02*
X3846606Y-7261680D01*
X3846606Y-7261680D02*
X3837082Y-7252156D01*
X4056129Y-7271204D02*
X4094225Y-7271204D01*
X4094225Y-7271204D02*
X4113272Y-7261680D01*
X4113272Y-7261680D02*
X4122796Y-7252156D01*
X4122796Y-7252156D02*
X4141844Y-7223585D01*
X4141844Y-7223585D02*
X4151367Y-7185489D01*
X4151367Y-7185489D02*
X4151367Y-7109299D01*
X4151367Y-7109299D02*
X4141844Y-7090251D01*
X4141844Y-7090251D02*
X4132320Y-7080728D01*
X4132320Y-7080728D02*
X4113272Y-7071204D01*
X4113272Y-7071204D02*
X4075177Y-7071204D01*
X4075177Y-7071204D02*
X4056129Y-7080728D01*
X4056129Y-7080728D02*
X4046606Y-7090251D01*
X4046606Y-7090251D02*
X4037082Y-7109299D01*
X4037082Y-7109299D02*
X4037082Y-7156918D01*
X4037082Y-7156918D02*
X4046606Y-7175966D01*
X4046606Y-7175966D02*
X4056129Y-7185489D01*
X4056129Y-7185489D02*
X4075177Y-7195013D01*
X4075177Y-7195013D02*
X4113272Y-7195013D01*
X4113272Y-7195013D02*
X4132320Y-7185489D01*
X4132320Y-7185489D02*
X4141844Y-7175966D01*
X4141844Y-7175966D02*
X4151367Y-7156918D01*
X4322796Y-7137870D02*
X4322796Y-7271204D01*
X4275177Y-7061680D02*
X4227558Y-7204537D01*
X4227558Y-7204537D02*
X4351368Y-7204537D01*
X4418034Y-7071204D02*
X4418034Y-7109299D01*
X4494225Y-7071204D02*
X4494225Y-7109299D01*
X4789463Y-7347394D02*
X4779939Y-7337870D01*
X4779939Y-7337870D02*
X4760891Y-7309299D01*
X4760891Y-7309299D02*
X4751368Y-7290251D01*
X4751368Y-7290251D02*
X4741844Y-7261680D01*
X4741844Y-7261680D02*
X4732320Y-7214061D01*
X4732320Y-7214061D02*
X4732320Y-7175966D01*
X4732320Y-7175966D02*
X4741844Y-7128347D01*
X4741844Y-7128347D02*
X4751368Y-7099775D01*
X4751368Y-7099775D02*
X4760891Y-7080728D01*
X4760891Y-7080728D02*
X4779939Y-7052156D01*
X4779939Y-7052156D02*
X4789463Y-7042632D01*
X4970415Y-7271204D02*
X4856130Y-7271204D01*
X4913272Y-7271204D02*
X4913272Y-7071204D01*
X4913272Y-7071204D02*
X4894225Y-7099775D01*
X4894225Y-7099775D02*
X4875177Y-7118823D01*
X4875177Y-7118823D02*
X4856130Y-7128347D01*
X5141844Y-7071204D02*
X5103749Y-7071204D01*
X5103749Y-7071204D02*
X5084701Y-7080728D01*
X5084701Y-7080728D02*
X5075177Y-7090251D01*
X5075177Y-7090251D02*
X5056130Y-7118823D01*
X5056130Y-7118823D02*
X5046606Y-7156918D01*
X5046606Y-7156918D02*
X5046606Y-7233108D01*
X5046606Y-7233108D02*
X5056130Y-7252156D01*
X5056130Y-7252156D02*
X5065653Y-7261680D01*
X5065653Y-7261680D02*
X5084701Y-7271204D01*
X5084701Y-7271204D02*
X5122796Y-7271204D01*
X5122796Y-7271204D02*
X5141844Y-7261680D01*
X5141844Y-7261680D02*
X5151368Y-7252156D01*
X5151368Y-7252156D02*
X5160891Y-7233108D01*
X5160891Y-7233108D02*
X5160891Y-7185489D01*
X5160891Y-7185489D02*
X5151368Y-7166442D01*
X5151368Y-7166442D02*
X5141844Y-7156918D01*
X5141844Y-7156918D02*
X5122796Y-7147394D01*
X5122796Y-7147394D02*
X5084701Y-7147394D01*
X5084701Y-7147394D02*
X5065653Y-7156918D01*
X5065653Y-7156918D02*
X5056130Y-7166442D01*
X5056130Y-7166442D02*
X5046606Y-7185489D01*
X5398987Y-7271204D02*
X5398987Y-7071204D01*
X5484701Y-7271204D02*
X5484701Y-7166442D01*
X5484701Y-7166442D02*
X5475177Y-7147394D01*
X5475177Y-7147394D02*
X5456130Y-7137870D01*
X5456130Y-7137870D02*
X5427558Y-7137870D01*
X5427558Y-7137870D02*
X5408511Y-7147394D01*
X5408511Y-7147394D02*
X5398987Y-7156918D01*
X5608510Y-7271204D02*
X5589463Y-7261680D01*
X5589463Y-7261680D02*
X5579939Y-7252156D01*
X5579939Y-7252156D02*
X5570415Y-7233108D01*
X5570415Y-7233108D02*
X5570415Y-7175966D01*
X5570415Y-7175966D02*
X5579939Y-7156918D01*
X5579939Y-7156918D02*
X5589463Y-7147394D01*
X5589463Y-7147394D02*
X5608510Y-7137870D01*
X5608510Y-7137870D02*
X5637082Y-7137870D01*
X5637082Y-7137870D02*
X5656130Y-7147394D01*
X5656130Y-7147394D02*
X5665653Y-7156918D01*
X5665653Y-7156918D02*
X5675177Y-7175966D01*
X5675177Y-7175966D02*
X5675177Y-7233108D01*
X5675177Y-7233108D02*
X5665653Y-7252156D01*
X5665653Y-7252156D02*
X5656130Y-7261680D01*
X5656130Y-7261680D02*
X5637082Y-7271204D01*
X5637082Y-7271204D02*
X5608510Y-7271204D01*
X5789463Y-7271204D02*
X5770415Y-7261680D01*
X5770415Y-7261680D02*
X5760891Y-7242632D01*
X5760891Y-7242632D02*
X5760891Y-7071204D01*
X5941844Y-7261680D02*
X5922796Y-7271204D01*
X5922796Y-7271204D02*
X5884701Y-7271204D01*
X5884701Y-7271204D02*
X5865653Y-7261680D01*
X5865653Y-7261680D02*
X5856130Y-7242632D01*
X5856130Y-7242632D02*
X5856130Y-7166442D01*
X5856130Y-7166442D02*
X5865653Y-7147394D01*
X5865653Y-7147394D02*
X5884701Y-7137870D01*
X5884701Y-7137870D02*
X5922796Y-7137870D01*
X5922796Y-7137870D02*
X5941844Y-7147394D01*
X5941844Y-7147394D02*
X5951368Y-7166442D01*
X5951368Y-7166442D02*
X5951368Y-7185489D01*
X5951368Y-7185489D02*
X5856130Y-7204537D01*
X6027558Y-7261680D02*
X6046606Y-7271204D01*
X6046606Y-7271204D02*
X6084701Y-7271204D01*
X6084701Y-7271204D02*
X6103749Y-7261680D01*
X6103749Y-7261680D02*
X6113272Y-7242632D01*
X6113272Y-7242632D02*
X6113272Y-7233108D01*
X6113272Y-7233108D02*
X6103749Y-7214061D01*
X6103749Y-7214061D02*
X6084701Y-7204537D01*
X6084701Y-7204537D02*
X6056130Y-7204537D01*
X6056130Y-7204537D02*
X6037082Y-7195013D01*
X6037082Y-7195013D02*
X6027558Y-7175966D01*
X6027558Y-7175966D02*
X6027558Y-7166442D01*
X6027558Y-7166442D02*
X6037082Y-7147394D01*
X6037082Y-7147394D02*
X6056130Y-7137870D01*
X6056130Y-7137870D02*
X6084701Y-7137870D01*
X6084701Y-7137870D02*
X6103749Y-7147394D01*
X6179939Y-7347394D02*
X6189463Y-7337870D01*
X6189463Y-7337870D02*
X6208511Y-7309299D01*
X6208511Y-7309299D02*
X6218034Y-7290251D01*
X6218034Y-7290251D02*
X6227558Y-7261680D01*
X6227558Y-7261680D02*
X6237082Y-7214061D01*
X6237082Y-7214061D02*
X6237082Y-7175966D01*
X6237082Y-7175966D02*
X6227558Y-7128347D01*
X6227558Y-7128347D02*
X6218034Y-7099775D01*
X6218034Y-7099775D02*
X6208511Y-7080728D01*
X6208511Y-7080728D02*
X6189463Y-7052156D01*
X6189463Y-7052156D02*
X6179939Y-7042632D01*
D14*
X1196843Y-7486107D02*
X1196843Y-7401333D01*
X1112069Y-7401333D01*
X1112069Y-7486107D01*
X1196843Y-7486107D01*
D11*
X1579939Y-7535204D02*
X1465653Y-7535204D01*
X1522796Y-7535204D02*
X1522796Y-7335204D01*
X1522796Y-7335204D02*
X1503748Y-7363775D01*
X1503748Y-7363775D02*
X1484701Y-7382823D01*
X1484701Y-7382823D02*
X1465653Y-7392347D01*
X1665653Y-7516156D02*
X1675177Y-7525680D01*
X1675177Y-7525680D02*
X1665653Y-7535204D01*
X1665653Y-7535204D02*
X1656129Y-7525680D01*
X1656129Y-7525680D02*
X1665653Y-7516156D01*
X1665653Y-7516156D02*
X1665653Y-7535204D01*
X1865653Y-7535204D02*
X1751367Y-7535204D01*
X1808510Y-7535204D02*
X1808510Y-7335204D01*
X1808510Y-7335204D02*
X1789462Y-7363775D01*
X1789462Y-7363775D02*
X1770415Y-7382823D01*
X1770415Y-7382823D02*
X1751367Y-7392347D01*
X1960891Y-7535204D02*
X1998986Y-7535204D01*
X1998986Y-7535204D02*
X2018034Y-7525680D01*
X2018034Y-7525680D02*
X2027558Y-7516156D01*
X2027558Y-7516156D02*
X2046605Y-7487585D01*
X2046605Y-7487585D02*
X2056129Y-7449489D01*
X2056129Y-7449489D02*
X2056129Y-7373299D01*
X2056129Y-7373299D02*
X2046605Y-7354251D01*
X2046605Y-7354251D02*
X2037082Y-7344728D01*
X2037082Y-7344728D02*
X2018034Y-7335204D01*
X2018034Y-7335204D02*
X1979939Y-7335204D01*
X1979939Y-7335204D02*
X1960891Y-7344728D01*
X1960891Y-7344728D02*
X1951367Y-7354251D01*
X1951367Y-7354251D02*
X1941843Y-7373299D01*
X1941843Y-7373299D02*
X1941843Y-7420918D01*
X1941843Y-7420918D02*
X1951367Y-7439966D01*
X1951367Y-7439966D02*
X1960891Y-7449489D01*
X1960891Y-7449489D02*
X1979939Y-7459013D01*
X1979939Y-7459013D02*
X2018034Y-7459013D01*
X2018034Y-7459013D02*
X2037082Y-7449489D01*
X2037082Y-7449489D02*
X2046605Y-7439966D01*
X2046605Y-7439966D02*
X2056129Y-7420918D01*
X2151367Y-7535204D02*
X2189463Y-7535204D01*
X2189463Y-7535204D02*
X2208510Y-7525680D01*
X2208510Y-7525680D02*
X2218034Y-7516156D01*
X2218034Y-7516156D02*
X2237082Y-7487585D01*
X2237082Y-7487585D02*
X2246605Y-7449489D01*
X2246605Y-7449489D02*
X2246605Y-7373299D01*
X2246605Y-7373299D02*
X2237082Y-7354251D01*
X2237082Y-7354251D02*
X2227558Y-7344728D01*
X2227558Y-7344728D02*
X2208510Y-7335204D01*
X2208510Y-7335204D02*
X2170415Y-7335204D01*
X2170415Y-7335204D02*
X2151367Y-7344728D01*
X2151367Y-7344728D02*
X2141844Y-7354251D01*
X2141844Y-7354251D02*
X2132320Y-7373299D01*
X2132320Y-7373299D02*
X2132320Y-7420918D01*
X2132320Y-7420918D02*
X2141844Y-7439966D01*
X2141844Y-7439966D02*
X2151367Y-7449489D01*
X2151367Y-7449489D02*
X2170415Y-7459013D01*
X2170415Y-7459013D02*
X2208510Y-7459013D01*
X2208510Y-7459013D02*
X2227558Y-7449489D01*
X2227558Y-7449489D02*
X2237082Y-7439966D01*
X2237082Y-7439966D02*
X2246605Y-7420918D01*
X2332320Y-7535204D02*
X2332320Y-7401870D01*
X2332320Y-7420918D02*
X2341844Y-7411394D01*
X2341844Y-7411394D02*
X2360891Y-7401870D01*
X2360891Y-7401870D02*
X2389463Y-7401870D01*
X2389463Y-7401870D02*
X2408510Y-7411394D01*
X2408510Y-7411394D02*
X2418034Y-7430442D01*
X2418034Y-7430442D02*
X2418034Y-7535204D01*
X2418034Y-7430442D02*
X2427558Y-7411394D01*
X2427558Y-7411394D02*
X2446605Y-7401870D01*
X2446605Y-7401870D02*
X2475177Y-7401870D01*
X2475177Y-7401870D02*
X2494225Y-7411394D01*
X2494225Y-7411394D02*
X2503748Y-7430442D01*
X2503748Y-7430442D02*
X2503748Y-7535204D01*
X2598986Y-7535204D02*
X2598986Y-7401870D01*
X2598986Y-7420918D02*
X2608510Y-7411394D01*
X2608510Y-7411394D02*
X2627558Y-7401870D01*
X2627558Y-7401870D02*
X2656129Y-7401870D01*
X2656129Y-7401870D02*
X2675177Y-7411394D01*
X2675177Y-7411394D02*
X2684701Y-7430442D01*
X2684701Y-7430442D02*
X2684701Y-7535204D01*
X2684701Y-7430442D02*
X2694225Y-7411394D01*
X2694225Y-7411394D02*
X2713272Y-7401870D01*
X2713272Y-7401870D02*
X2741844Y-7401870D01*
X2741844Y-7401870D02*
X2760891Y-7411394D01*
X2760891Y-7411394D02*
X2770415Y-7430442D01*
X2770415Y-7430442D02*
X2770415Y-7535204D01*
X3160891Y-7325680D02*
X2989463Y-7582823D01*
X3418034Y-7335204D02*
X3437082Y-7335204D01*
X3437082Y-7335204D02*
X3456129Y-7344728D01*
X3456129Y-7344728D02*
X3465653Y-7354251D01*
X3465653Y-7354251D02*
X3475177Y-7373299D01*
X3475177Y-7373299D02*
X3484701Y-7411394D01*
X3484701Y-7411394D02*
X3484701Y-7459013D01*
X3484701Y-7459013D02*
X3475177Y-7497108D01*
X3475177Y-7497108D02*
X3465653Y-7516156D01*
X3465653Y-7516156D02*
X3456129Y-7525680D01*
X3456129Y-7525680D02*
X3437082Y-7535204D01*
X3437082Y-7535204D02*
X3418034Y-7535204D01*
X3418034Y-7535204D02*
X3398986Y-7525680D01*
X3398986Y-7525680D02*
X3389463Y-7516156D01*
X3389463Y-7516156D02*
X3379939Y-7497108D01*
X3379939Y-7497108D02*
X3370415Y-7459013D01*
X3370415Y-7459013D02*
X3370415Y-7411394D01*
X3370415Y-7411394D02*
X3379939Y-7373299D01*
X3379939Y-7373299D02*
X3389463Y-7354251D01*
X3389463Y-7354251D02*
X3398986Y-7344728D01*
X3398986Y-7344728D02*
X3418034Y-7335204D01*
X3570415Y-7516156D02*
X3579939Y-7525680D01*
X3579939Y-7525680D02*
X3570415Y-7535204D01*
X3570415Y-7535204D02*
X3560891Y-7525680D01*
X3560891Y-7525680D02*
X3570415Y-7516156D01*
X3570415Y-7516156D02*
X3570415Y-7535204D01*
X3703748Y-7335204D02*
X3722796Y-7335204D01*
X3722796Y-7335204D02*
X3741844Y-7344728D01*
X3741844Y-7344728D02*
X3751367Y-7354251D01*
X3751367Y-7354251D02*
X3760891Y-7373299D01*
X3760891Y-7373299D02*
X3770415Y-7411394D01*
X3770415Y-7411394D02*
X3770415Y-7459013D01*
X3770415Y-7459013D02*
X3760891Y-7497108D01*
X3760891Y-7497108D02*
X3751367Y-7516156D01*
X3751367Y-7516156D02*
X3741844Y-7525680D01*
X3741844Y-7525680D02*
X3722796Y-7535204D01*
X3722796Y-7535204D02*
X3703748Y-7535204D01*
X3703748Y-7535204D02*
X3684701Y-7525680D01*
X3684701Y-7525680D02*
X3675177Y-7516156D01*
X3675177Y-7516156D02*
X3665653Y-7497108D01*
X3665653Y-7497108D02*
X3656129Y-7459013D01*
X3656129Y-7459013D02*
X3656129Y-7411394D01*
X3656129Y-7411394D02*
X3665653Y-7373299D01*
X3665653Y-7373299D02*
X3675177Y-7354251D01*
X3675177Y-7354251D02*
X3684701Y-7344728D01*
X3684701Y-7344728D02*
X3703748Y-7335204D01*
X3941844Y-7401870D02*
X3941844Y-7535204D01*
X3894225Y-7325680D02*
X3846606Y-7468537D01*
X3846606Y-7468537D02*
X3970415Y-7468537D01*
X4027558Y-7335204D02*
X4160891Y-7335204D01*
X4160891Y-7335204D02*
X4075177Y-7535204D01*
X4227558Y-7354251D02*
X4237082Y-7344728D01*
X4237082Y-7344728D02*
X4256129Y-7335204D01*
X4256129Y-7335204D02*
X4303749Y-7335204D01*
X4303749Y-7335204D02*
X4322796Y-7344728D01*
X4322796Y-7344728D02*
X4332320Y-7354251D01*
X4332320Y-7354251D02*
X4341844Y-7373299D01*
X4341844Y-7373299D02*
X4341844Y-7392347D01*
X4341844Y-7392347D02*
X4332320Y-7420918D01*
X4332320Y-7420918D02*
X4218034Y-7535204D01*
X4218034Y-7535204D02*
X4341844Y-7535204D01*
X4418034Y-7335204D02*
X4418034Y-7373299D01*
X4494225Y-7335204D02*
X4494225Y-7373299D01*
X4789463Y-7611394D02*
X4779939Y-7601870D01*
X4779939Y-7601870D02*
X4760891Y-7573299D01*
X4760891Y-7573299D02*
X4751368Y-7554251D01*
X4751368Y-7554251D02*
X4741844Y-7525680D01*
X4741844Y-7525680D02*
X4732320Y-7478061D01*
X4732320Y-7478061D02*
X4732320Y-7439966D01*
X4732320Y-7439966D02*
X4741844Y-7392347D01*
X4741844Y-7392347D02*
X4751368Y-7363775D01*
X4751368Y-7363775D02*
X4760891Y-7344728D01*
X4760891Y-7344728D02*
X4779939Y-7316156D01*
X4779939Y-7316156D02*
X4789463Y-7306632D01*
X4856130Y-7354251D02*
X4865653Y-7344728D01*
X4865653Y-7344728D02*
X4884701Y-7335204D01*
X4884701Y-7335204D02*
X4932320Y-7335204D01*
X4932320Y-7335204D02*
X4951368Y-7344728D01*
X4951368Y-7344728D02*
X4960891Y-7354251D01*
X4960891Y-7354251D02*
X4970415Y-7373299D01*
X4970415Y-7373299D02*
X4970415Y-7392347D01*
X4970415Y-7392347D02*
X4960891Y-7420918D01*
X4960891Y-7420918D02*
X4846606Y-7535204D01*
X4846606Y-7535204D02*
X4970415Y-7535204D01*
X5160891Y-7535204D02*
X5046606Y-7535204D01*
X5103749Y-7535204D02*
X5103749Y-7335204D01*
X5103749Y-7335204D02*
X5084701Y-7363775D01*
X5084701Y-7363775D02*
X5065653Y-7382823D01*
X5065653Y-7382823D02*
X5046606Y-7392347D01*
X5398987Y-7535204D02*
X5398987Y-7335204D01*
X5484701Y-7535204D02*
X5484701Y-7430442D01*
X5484701Y-7430442D02*
X5475177Y-7411394D01*
X5475177Y-7411394D02*
X5456130Y-7401870D01*
X5456130Y-7401870D02*
X5427558Y-7401870D01*
X5427558Y-7401870D02*
X5408511Y-7411394D01*
X5408511Y-7411394D02*
X5398987Y-7420918D01*
X5608510Y-7535204D02*
X5589463Y-7525680D01*
X5589463Y-7525680D02*
X5579939Y-7516156D01*
X5579939Y-7516156D02*
X5570415Y-7497108D01*
X5570415Y-7497108D02*
X5570415Y-7439966D01*
X5570415Y-7439966D02*
X5579939Y-7420918D01*
X5579939Y-7420918D02*
X5589463Y-7411394D01*
X5589463Y-7411394D02*
X5608510Y-7401870D01*
X5608510Y-7401870D02*
X5637082Y-7401870D01*
X5637082Y-7401870D02*
X5656130Y-7411394D01*
X5656130Y-7411394D02*
X5665653Y-7420918D01*
X5665653Y-7420918D02*
X5675177Y-7439966D01*
X5675177Y-7439966D02*
X5675177Y-7497108D01*
X5675177Y-7497108D02*
X5665653Y-7516156D01*
X5665653Y-7516156D02*
X5656130Y-7525680D01*
X5656130Y-7525680D02*
X5637082Y-7535204D01*
X5637082Y-7535204D02*
X5608510Y-7535204D01*
X5789463Y-7535204D02*
X5770415Y-7525680D01*
X5770415Y-7525680D02*
X5760891Y-7506632D01*
X5760891Y-7506632D02*
X5760891Y-7335204D01*
X5941844Y-7525680D02*
X5922796Y-7535204D01*
X5922796Y-7535204D02*
X5884701Y-7535204D01*
X5884701Y-7535204D02*
X5865653Y-7525680D01*
X5865653Y-7525680D02*
X5856130Y-7506632D01*
X5856130Y-7506632D02*
X5856130Y-7430442D01*
X5856130Y-7430442D02*
X5865653Y-7411394D01*
X5865653Y-7411394D02*
X5884701Y-7401870D01*
X5884701Y-7401870D02*
X5922796Y-7401870D01*
X5922796Y-7401870D02*
X5941844Y-7411394D01*
X5941844Y-7411394D02*
X5951368Y-7430442D01*
X5951368Y-7430442D02*
X5951368Y-7449489D01*
X5951368Y-7449489D02*
X5856130Y-7468537D01*
X6027558Y-7525680D02*
X6046606Y-7535204D01*
X6046606Y-7535204D02*
X6084701Y-7535204D01*
X6084701Y-7535204D02*
X6103749Y-7525680D01*
X6103749Y-7525680D02*
X6113272Y-7506632D01*
X6113272Y-7506632D02*
X6113272Y-7497108D01*
X6113272Y-7497108D02*
X6103749Y-7478061D01*
X6103749Y-7478061D02*
X6084701Y-7468537D01*
X6084701Y-7468537D02*
X6056130Y-7468537D01*
X6056130Y-7468537D02*
X6037082Y-7459013D01*
X6037082Y-7459013D02*
X6027558Y-7439966D01*
X6027558Y-7439966D02*
X6027558Y-7430442D01*
X6027558Y-7430442D02*
X6037082Y-7411394D01*
X6037082Y-7411394D02*
X6056130Y-7401870D01*
X6056130Y-7401870D02*
X6084701Y-7401870D01*
X6084701Y-7401870D02*
X6103749Y-7411394D01*
X6179939Y-7611394D02*
X6189463Y-7601870D01*
X6189463Y-7601870D02*
X6208511Y-7573299D01*
X6208511Y-7573299D02*
X6218034Y-7554251D01*
X6218034Y-7554251D02*
X6227558Y-7525680D01*
X6227558Y-7525680D02*
X6237082Y-7478061D01*
X6237082Y-7478061D02*
X6237082Y-7439966D01*
X6237082Y-7439966D02*
X6227558Y-7392347D01*
X6227558Y-7392347D02*
X6218034Y-7363775D01*
X6218034Y-7363775D02*
X6208511Y-7344728D01*
X6208511Y-7344728D02*
X6189463Y-7316156D01*
X6189463Y-7316156D02*
X6179939Y-7306632D01*
X1114400Y-7807720D02*
X1214400Y-7707720D01*
X1114400Y-7607720D01*
X1014400Y-7707720D01*
X1114400Y-7807720D01*
X1560891Y-7665870D02*
X1560891Y-7799204D01*
X1513272Y-7589680D02*
X1465653Y-7732537D01*
X1465653Y-7732537D02*
X1589462Y-7732537D01*
X1665653Y-7780156D02*
X1675177Y-7789680D01*
X1675177Y-7789680D02*
X1665653Y-7799204D01*
X1665653Y-7799204D02*
X1656129Y-7789680D01*
X1656129Y-7789680D02*
X1665653Y-7780156D01*
X1665653Y-7780156D02*
X1665653Y-7799204D01*
X1798986Y-7599204D02*
X1818034Y-7599204D01*
X1818034Y-7599204D02*
X1837082Y-7608728D01*
X1837082Y-7608728D02*
X1846605Y-7618251D01*
X1846605Y-7618251D02*
X1856129Y-7637299D01*
X1856129Y-7637299D02*
X1865653Y-7675394D01*
X1865653Y-7675394D02*
X1865653Y-7723013D01*
X1865653Y-7723013D02*
X1856129Y-7761108D01*
X1856129Y-7761108D02*
X1846605Y-7780156D01*
X1846605Y-7780156D02*
X1837082Y-7789680D01*
X1837082Y-7789680D02*
X1818034Y-7799204D01*
X1818034Y-7799204D02*
X1798986Y-7799204D01*
X1798986Y-7799204D02*
X1779939Y-7789680D01*
X1779939Y-7789680D02*
X1770415Y-7780156D01*
X1770415Y-7780156D02*
X1760891Y-7761108D01*
X1760891Y-7761108D02*
X1751367Y-7723013D01*
X1751367Y-7723013D02*
X1751367Y-7675394D01*
X1751367Y-7675394D02*
X1760891Y-7637299D01*
X1760891Y-7637299D02*
X1770415Y-7618251D01*
X1770415Y-7618251D02*
X1779939Y-7608728D01*
X1779939Y-7608728D02*
X1798986Y-7599204D01*
X1989462Y-7599204D02*
X2008510Y-7599204D01*
X2008510Y-7599204D02*
X2027558Y-7608728D01*
X2027558Y-7608728D02*
X2037082Y-7618251D01*
X2037082Y-7618251D02*
X2046605Y-7637299D01*
X2046605Y-7637299D02*
X2056129Y-7675394D01*
X2056129Y-7675394D02*
X2056129Y-7723013D01*
X2056129Y-7723013D02*
X2046605Y-7761108D01*
X2046605Y-7761108D02*
X2037082Y-7780156D01*
X2037082Y-7780156D02*
X2027558Y-7789680D01*
X2027558Y-7789680D02*
X2008510Y-7799204D01*
X2008510Y-7799204D02*
X1989462Y-7799204D01*
X1989462Y-7799204D02*
X1970415Y-7789680D01*
X1970415Y-7789680D02*
X1960891Y-7780156D01*
X1960891Y-7780156D02*
X1951367Y-7761108D01*
X1951367Y-7761108D02*
X1941843Y-7723013D01*
X1941843Y-7723013D02*
X1941843Y-7675394D01*
X1941843Y-7675394D02*
X1951367Y-7637299D01*
X1951367Y-7637299D02*
X1960891Y-7618251D01*
X1960891Y-7618251D02*
X1970415Y-7608728D01*
X1970415Y-7608728D02*
X1989462Y-7599204D01*
X2179939Y-7599204D02*
X2198986Y-7599204D01*
X2198986Y-7599204D02*
X2218034Y-7608728D01*
X2218034Y-7608728D02*
X2227558Y-7618251D01*
X2227558Y-7618251D02*
X2237082Y-7637299D01*
X2237082Y-7637299D02*
X2246605Y-7675394D01*
X2246605Y-7675394D02*
X2246605Y-7723013D01*
X2246605Y-7723013D02*
X2237082Y-7761108D01*
X2237082Y-7761108D02*
X2227558Y-7780156D01*
X2227558Y-7780156D02*
X2218034Y-7789680D01*
X2218034Y-7789680D02*
X2198986Y-7799204D01*
X2198986Y-7799204D02*
X2179939Y-7799204D01*
X2179939Y-7799204D02*
X2160891Y-7789680D01*
X2160891Y-7789680D02*
X2151367Y-7780156D01*
X2151367Y-7780156D02*
X2141844Y-7761108D01*
X2141844Y-7761108D02*
X2132320Y-7723013D01*
X2132320Y-7723013D02*
X2132320Y-7675394D01*
X2132320Y-7675394D02*
X2141844Y-7637299D01*
X2141844Y-7637299D02*
X2151367Y-7618251D01*
X2151367Y-7618251D02*
X2160891Y-7608728D01*
X2160891Y-7608728D02*
X2179939Y-7599204D01*
X2332320Y-7799204D02*
X2332320Y-7665870D01*
X2332320Y-7684918D02*
X2341844Y-7675394D01*
X2341844Y-7675394D02*
X2360891Y-7665870D01*
X2360891Y-7665870D02*
X2389463Y-7665870D01*
X2389463Y-7665870D02*
X2408510Y-7675394D01*
X2408510Y-7675394D02*
X2418034Y-7694442D01*
X2418034Y-7694442D02*
X2418034Y-7799204D01*
X2418034Y-7694442D02*
X2427558Y-7675394D01*
X2427558Y-7675394D02*
X2446605Y-7665870D01*
X2446605Y-7665870D02*
X2475177Y-7665870D01*
X2475177Y-7665870D02*
X2494225Y-7675394D01*
X2494225Y-7675394D02*
X2503748Y-7694442D01*
X2503748Y-7694442D02*
X2503748Y-7799204D01*
X2598986Y-7799204D02*
X2598986Y-7665870D01*
X2598986Y-7684918D02*
X2608510Y-7675394D01*
X2608510Y-7675394D02*
X2627558Y-7665870D01*
X2627558Y-7665870D02*
X2656129Y-7665870D01*
X2656129Y-7665870D02*
X2675177Y-7675394D01*
X2675177Y-7675394D02*
X2684701Y-7694442D01*
X2684701Y-7694442D02*
X2684701Y-7799204D01*
X2684701Y-7694442D02*
X2694225Y-7675394D01*
X2694225Y-7675394D02*
X2713272Y-7665870D01*
X2713272Y-7665870D02*
X2741844Y-7665870D01*
X2741844Y-7665870D02*
X2760891Y-7675394D01*
X2760891Y-7675394D02*
X2770415Y-7694442D01*
X2770415Y-7694442D02*
X2770415Y-7799204D01*
X3160891Y-7589680D02*
X2989463Y-7846823D01*
X3418034Y-7599204D02*
X3437082Y-7599204D01*
X3437082Y-7599204D02*
X3456129Y-7608728D01*
X3456129Y-7608728D02*
X3465653Y-7618251D01*
X3465653Y-7618251D02*
X3475177Y-7637299D01*
X3475177Y-7637299D02*
X3484701Y-7675394D01*
X3484701Y-7675394D02*
X3484701Y-7723013D01*
X3484701Y-7723013D02*
X3475177Y-7761108D01*
X3475177Y-7761108D02*
X3465653Y-7780156D01*
X3465653Y-7780156D02*
X3456129Y-7789680D01*
X3456129Y-7789680D02*
X3437082Y-7799204D01*
X3437082Y-7799204D02*
X3418034Y-7799204D01*
X3418034Y-7799204D02*
X3398986Y-7789680D01*
X3398986Y-7789680D02*
X3389463Y-7780156D01*
X3389463Y-7780156D02*
X3379939Y-7761108D01*
X3379939Y-7761108D02*
X3370415Y-7723013D01*
X3370415Y-7723013D02*
X3370415Y-7675394D01*
X3370415Y-7675394D02*
X3379939Y-7637299D01*
X3379939Y-7637299D02*
X3389463Y-7618251D01*
X3389463Y-7618251D02*
X3398986Y-7608728D01*
X3398986Y-7608728D02*
X3418034Y-7599204D01*
X3570415Y-7780156D02*
X3579939Y-7789680D01*
X3579939Y-7789680D02*
X3570415Y-7799204D01*
X3570415Y-7799204D02*
X3560891Y-7789680D01*
X3560891Y-7789680D02*
X3570415Y-7780156D01*
X3570415Y-7780156D02*
X3570415Y-7799204D01*
X3770415Y-7799204D02*
X3656129Y-7799204D01*
X3713272Y-7799204D02*
X3713272Y-7599204D01*
X3713272Y-7599204D02*
X3694225Y-7627775D01*
X3694225Y-7627775D02*
X3675177Y-7646823D01*
X3675177Y-7646823D02*
X3656129Y-7656347D01*
X3951367Y-7599204D02*
X3856129Y-7599204D01*
X3856129Y-7599204D02*
X3846606Y-7694442D01*
X3846606Y-7694442D02*
X3856129Y-7684918D01*
X3856129Y-7684918D02*
X3875177Y-7675394D01*
X3875177Y-7675394D02*
X3922796Y-7675394D01*
X3922796Y-7675394D02*
X3941844Y-7684918D01*
X3941844Y-7684918D02*
X3951367Y-7694442D01*
X3951367Y-7694442D02*
X3960891Y-7713489D01*
X3960891Y-7713489D02*
X3960891Y-7761108D01*
X3960891Y-7761108D02*
X3951367Y-7780156D01*
X3951367Y-7780156D02*
X3941844Y-7789680D01*
X3941844Y-7789680D02*
X3922796Y-7799204D01*
X3922796Y-7799204D02*
X3875177Y-7799204D01*
X3875177Y-7799204D02*
X3856129Y-7789680D01*
X3856129Y-7789680D02*
X3846606Y-7780156D01*
X4027558Y-7599204D02*
X4160891Y-7599204D01*
X4160891Y-7599204D02*
X4075177Y-7799204D01*
X4332320Y-7599204D02*
X4237082Y-7599204D01*
X4237082Y-7599204D02*
X4227558Y-7694442D01*
X4227558Y-7694442D02*
X4237082Y-7684918D01*
X4237082Y-7684918D02*
X4256129Y-7675394D01*
X4256129Y-7675394D02*
X4303749Y-7675394D01*
X4303749Y-7675394D02*
X4322796Y-7684918D01*
X4322796Y-7684918D02*
X4332320Y-7694442D01*
X4332320Y-7694442D02*
X4341844Y-7713489D01*
X4341844Y-7713489D02*
X4341844Y-7761108D01*
X4341844Y-7761108D02*
X4332320Y-7780156D01*
X4332320Y-7780156D02*
X4322796Y-7789680D01*
X4322796Y-7789680D02*
X4303749Y-7799204D01*
X4303749Y-7799204D02*
X4256129Y-7799204D01*
X4256129Y-7799204D02*
X4237082Y-7789680D01*
X4237082Y-7789680D02*
X4227558Y-7780156D01*
X4418034Y-7599204D02*
X4418034Y-7637299D01*
X4494225Y-7599204D02*
X4494225Y-7637299D01*
X4789463Y-7875394D02*
X4779939Y-7865870D01*
X4779939Y-7865870D02*
X4760891Y-7837299D01*
X4760891Y-7837299D02*
X4751368Y-7818251D01*
X4751368Y-7818251D02*
X4741844Y-7789680D01*
X4741844Y-7789680D02*
X4732320Y-7742061D01*
X4732320Y-7742061D02*
X4732320Y-7703966D01*
X4732320Y-7703966D02*
X4741844Y-7656347D01*
X4741844Y-7656347D02*
X4751368Y-7627775D01*
X4751368Y-7627775D02*
X4760891Y-7608728D01*
X4760891Y-7608728D02*
X4779939Y-7580156D01*
X4779939Y-7580156D02*
X4789463Y-7570632D01*
X4856130Y-7618251D02*
X4865653Y-7608728D01*
X4865653Y-7608728D02*
X4884701Y-7599204D01*
X4884701Y-7599204D02*
X4932320Y-7599204D01*
X4932320Y-7599204D02*
X4951368Y-7608728D01*
X4951368Y-7608728D02*
X4960891Y-7618251D01*
X4960891Y-7618251D02*
X4970415Y-7637299D01*
X4970415Y-7637299D02*
X4970415Y-7656347D01*
X4970415Y-7656347D02*
X4960891Y-7684918D01*
X4960891Y-7684918D02*
X4846606Y-7799204D01*
X4846606Y-7799204D02*
X4970415Y-7799204D01*
X5208511Y-7799204D02*
X5208511Y-7599204D01*
X5294225Y-7799204D02*
X5294225Y-7694442D01*
X5294225Y-7694442D02*
X5284701Y-7675394D01*
X5284701Y-7675394D02*
X5265653Y-7665870D01*
X5265653Y-7665870D02*
X5237082Y-7665870D01*
X5237082Y-7665870D02*
X5218034Y-7675394D01*
X5218034Y-7675394D02*
X5208511Y-7684918D01*
X5418034Y-7799204D02*
X5398987Y-7789680D01*
X5398987Y-7789680D02*
X5389463Y-7780156D01*
X5389463Y-7780156D02*
X5379939Y-7761108D01*
X5379939Y-7761108D02*
X5379939Y-7703966D01*
X5379939Y-7703966D02*
X5389463Y-7684918D01*
X5389463Y-7684918D02*
X5398987Y-7675394D01*
X5398987Y-7675394D02*
X5418034Y-7665870D01*
X5418034Y-7665870D02*
X5446606Y-7665870D01*
X5446606Y-7665870D02*
X5465653Y-7675394D01*
X5465653Y-7675394D02*
X5475177Y-7684918D01*
X5475177Y-7684918D02*
X5484701Y-7703966D01*
X5484701Y-7703966D02*
X5484701Y-7761108D01*
X5484701Y-7761108D02*
X5475177Y-7780156D01*
X5475177Y-7780156D02*
X5465653Y-7789680D01*
X5465653Y-7789680D02*
X5446606Y-7799204D01*
X5446606Y-7799204D02*
X5418034Y-7799204D01*
X5598987Y-7799204D02*
X5579939Y-7789680D01*
X5579939Y-7789680D02*
X5570415Y-7770632D01*
X5570415Y-7770632D02*
X5570415Y-7599204D01*
X5751368Y-7789680D02*
X5732320Y-7799204D01*
X5732320Y-7799204D02*
X5694225Y-7799204D01*
X5694225Y-7799204D02*
X5675177Y-7789680D01*
X5675177Y-7789680D02*
X5665653Y-7770632D01*
X5665653Y-7770632D02*
X5665653Y-7694442D01*
X5665653Y-7694442D02*
X5675177Y-7675394D01*
X5675177Y-7675394D02*
X5694225Y-7665870D01*
X5694225Y-7665870D02*
X5732320Y-7665870D01*
X5732320Y-7665870D02*
X5751368Y-7675394D01*
X5751368Y-7675394D02*
X5760891Y-7694442D01*
X5760891Y-7694442D02*
X5760891Y-7713489D01*
X5760891Y-7713489D02*
X5665653Y-7732537D01*
X5837082Y-7789680D02*
X5856130Y-7799204D01*
X5856130Y-7799204D02*
X5894225Y-7799204D01*
X5894225Y-7799204D02*
X5913272Y-7789680D01*
X5913272Y-7789680D02*
X5922796Y-7770632D01*
X5922796Y-7770632D02*
X5922796Y-7761108D01*
X5922796Y-7761108D02*
X5913272Y-7742061D01*
X5913272Y-7742061D02*
X5894225Y-7732537D01*
X5894225Y-7732537D02*
X5865653Y-7732537D01*
X5865653Y-7732537D02*
X5846606Y-7723013D01*
X5846606Y-7723013D02*
X5837082Y-7703966D01*
X5837082Y-7703966D02*
X5837082Y-7694442D01*
X5837082Y-7694442D02*
X5846606Y-7675394D01*
X5846606Y-7675394D02*
X5865653Y-7665870D01*
X5865653Y-7665870D02*
X5894225Y-7665870D01*
X5894225Y-7665870D02*
X5913272Y-7675394D01*
X5989463Y-7875394D02*
X5998987Y-7865870D01*
X5998987Y-7865870D02*
X6018034Y-7837299D01*
X6018034Y-7837299D02*
X6027558Y-7818251D01*
X6027558Y-7818251D02*
X6037082Y-7789680D01*
X6037082Y-7789680D02*
X6046606Y-7742061D01*
X6046606Y-7742061D02*
X6046606Y-7703966D01*
X6046606Y-7703966D02*
X6037082Y-7656347D01*
X6037082Y-7656347D02*
X6027558Y-7627775D01*
X6027558Y-7627775D02*
X6018034Y-7608728D01*
X6018034Y-7608728D02*
X5998987Y-7580156D01*
X5998987Y-7580156D02*
X5989463Y-7570632D01*
M02*
