%TF.GenerationSoftware,KiCad,Pcbnew,7.0.8*%
%TF.CreationDate,2024-05-06T13:54:13-04:00*%
%TF.ProjectId,scart breakout,73636172-7420-4627-9265-616b6f75742e,rev?*%
%TF.SameCoordinates,Original*%
%TF.FileFunction,Soldermask,Top*%
%TF.FilePolarity,Negative*%
%FSLAX46Y46*%
G04 Gerber Fmt 4.6, Leading zero omitted, Abs format (unit mm)*
G04 Created by KiCad (PCBNEW 7.0.8) date 2024-05-06 13:54:13*
%MOMM*%
%LPD*%
G01*
G04 APERTURE LIST*
G04 Aperture macros list*
%AMRoundRect*
0 Rectangle with rounded corners*
0 $1 Rounding radius*
0 $2 $3 $4 $5 $6 $7 $8 $9 X,Y pos of 4 corners*
0 Add a 4 corners polygon primitive as box body*
4,1,4,$2,$3,$4,$5,$6,$7,$8,$9,$2,$3,0*
0 Add four circle primitives for the rounded corners*
1,1,$1+$1,$2,$3*
1,1,$1+$1,$4,$5*
1,1,$1+$1,$6,$7*
1,1,$1+$1,$8,$9*
0 Add four rect primitives between the rounded corners*
20,1,$1+$1,$2,$3,$4,$5,0*
20,1,$1+$1,$4,$5,$6,$7,0*
20,1,$1+$1,$6,$7,$8,$9,0*
20,1,$1+$1,$8,$9,$2,$3,0*%
G04 Aperture macros list end*
%ADD10C,8.000000*%
%ADD11C,1.998980*%
%ADD12RoundRect,0.150000X0.150000X-0.512500X0.150000X0.512500X-0.150000X0.512500X-0.150000X-0.512500X0*%
%ADD13R,1.700000X1.700000*%
%ADD14O,1.700000X1.700000*%
%ADD15RoundRect,0.200000X-0.275000X0.200000X-0.275000X-0.200000X0.275000X-0.200000X0.275000X0.200000X0*%
%ADD16R,1.350000X1.350000*%
%ADD17O,1.350000X1.350000*%
%ADD18RoundRect,0.250000X0.450000X-0.262500X0.450000X0.262500X-0.450000X0.262500X-0.450000X-0.262500X0*%
G04 APERTURE END LIST*
D10*
%TO.C,REF\u002A\u002A*%
X16468000Y-55800000D03*
%TD*%
%TO.C,REF\u002A\u002A*%
X16468000Y-16652400D03*
%TD*%
D11*
%TO.C,J1*%
X38938200Y-55041800D03*
X33858200Y-53136800D03*
X38938200Y-51231800D03*
X33858200Y-49326800D03*
X38938200Y-47421800D03*
X33858200Y-45516800D03*
X38938200Y-43611800D03*
X33858200Y-41706800D03*
X38938200Y-39801800D03*
X33858200Y-37896800D03*
X38938200Y-35991800D03*
X33858200Y-34086800D03*
X38938200Y-32181800D03*
X33858200Y-30276800D03*
X38938200Y-28371800D03*
X33858200Y-26466800D03*
X38938200Y-24561800D03*
X33858200Y-22656800D03*
X38938200Y-20751800D03*
X33858200Y-18846800D03*
X38938200Y-16941800D03*
%TD*%
D12*
%TO.C,Q1*%
X16449000Y-36158600D03*
X18349000Y-36158600D03*
X17399000Y-33883600D03*
%TD*%
D13*
%TO.C,J2*%
X17424400Y-28625800D03*
D14*
X17424400Y-31165800D03*
%TD*%
D15*
%TO.C,R2*%
X17399000Y-24473400D03*
X17399000Y-26123400D03*
%TD*%
D16*
%TO.C,J5*%
X28448000Y-50749200D03*
D17*
X26448000Y-50749200D03*
X24448000Y-50749200D03*
X22448000Y-50749200D03*
%TD*%
D16*
%TO.C,J4*%
X28460200Y-46456600D03*
D17*
X26460200Y-46456600D03*
X24460200Y-46456600D03*
X22460200Y-46456600D03*
X20460200Y-46456600D03*
X18460200Y-46456600D03*
X16460200Y-46456600D03*
%TD*%
D15*
%TO.C,R1*%
X16484600Y-37732200D03*
X16484600Y-39382200D03*
%TD*%
D18*
%TO.C,R4*%
X27787600Y-59080400D03*
X27787600Y-57255400D03*
%TD*%
%TO.C,R3*%
X27762200Y-55702200D03*
X27762200Y-53877200D03*
%TD*%
D13*
%TO.C,J3*%
X23647400Y-24358600D03*
D14*
X26187400Y-24358600D03*
X23647400Y-26898600D03*
X26187400Y-26898600D03*
X23647400Y-29438600D03*
X26187400Y-29438600D03*
X23647400Y-31978600D03*
X26187400Y-31978600D03*
X23647400Y-34518600D03*
X26187400Y-34518600D03*
X23647400Y-37058600D03*
X26187400Y-37058600D03*
X23647400Y-39598600D03*
X26187400Y-39598600D03*
%TD*%
D18*
%TO.C,R5*%
X24460200Y-57327800D03*
X24460200Y-55502800D03*
%TD*%
M02*
