%TF.GenerationSoftware,KiCad,Pcbnew,7.0.8*%
%TF.CreationDate,2024-05-06T13:54:13-04:00*%
%TF.ProjectId,scart breakout,73636172-7420-4627-9265-616b6f75742e,rev?*%
%TF.SameCoordinates,Original*%
%TF.FileFunction,Copper,L1,Top*%
%TF.FilePolarity,Positive*%
%FSLAX46Y46*%
G04 Gerber Fmt 4.6, Leading zero omitted, Abs format (unit mm)*
G04 Created by KiCad (PCBNEW 7.0.8) date 2024-05-06 13:54:13*
%MOMM*%
%LPD*%
G01*
G04 APERTURE LIST*
G04 Aperture macros list*
%AMRoundRect*
0 Rectangle with rounded corners*
0 $1 Rounding radius*
0 $2 $3 $4 $5 $6 $7 $8 $9 X,Y pos of 4 corners*
0 Add a 4 corners polygon primitive as box body*
4,1,4,$2,$3,$4,$5,$6,$7,$8,$9,$2,$3,0*
0 Add four circle primitives for the rounded corners*
1,1,$1+$1,$2,$3*
1,1,$1+$1,$4,$5*
1,1,$1+$1,$6,$7*
1,1,$1+$1,$8,$9*
0 Add four rect primitives between the rounded corners*
20,1,$1+$1,$2,$3,$4,$5,0*
20,1,$1+$1,$4,$5,$6,$7,0*
20,1,$1+$1,$6,$7,$8,$9,0*
20,1,$1+$1,$8,$9,$2,$3,0*%
G04 Aperture macros list end*
%TA.AperFunction,ComponentPad*%
%ADD10C,8.000000*%
%TD*%
%TA.AperFunction,ComponentPad*%
%ADD11C,1.998980*%
%TD*%
%TA.AperFunction,SMDPad,CuDef*%
%ADD12RoundRect,0.150000X0.150000X-0.512500X0.150000X0.512500X-0.150000X0.512500X-0.150000X-0.512500X0*%
%TD*%
%TA.AperFunction,ComponentPad*%
%ADD13R,1.700000X1.700000*%
%TD*%
%TA.AperFunction,ComponentPad*%
%ADD14O,1.700000X1.700000*%
%TD*%
%TA.AperFunction,SMDPad,CuDef*%
%ADD15RoundRect,0.200000X-0.275000X0.200000X-0.275000X-0.200000X0.275000X-0.200000X0.275000X0.200000X0*%
%TD*%
%TA.AperFunction,ComponentPad*%
%ADD16R,1.350000X1.350000*%
%TD*%
%TA.AperFunction,ComponentPad*%
%ADD17O,1.350000X1.350000*%
%TD*%
%TA.AperFunction,SMDPad,CuDef*%
%ADD18RoundRect,0.250000X0.450000X-0.262500X0.450000X0.262500X-0.450000X0.262500X-0.450000X-0.262500X0*%
%TD*%
%TA.AperFunction,ViaPad*%
%ADD19C,0.800000*%
%TD*%
%TA.AperFunction,Conductor*%
%ADD20C,0.250000*%
%TD*%
G04 APERTURE END LIST*
D10*
%TO.P,REF\u002A\u002A,1*%
%TO.N,GND*%
X16468000Y-55800000D03*
%TD*%
%TO.P,REF\u002A\u002A,1*%
%TO.N,GND*%
X16468000Y-16652400D03*
%TD*%
D11*
%TO.P,J1,1,P1*%
%TO.N,unconnected-(J1-P1-Pad1)*%
X38938200Y-55041800D03*
%TO.P,J1,2,P2*%
%TO.N,RIGHT*%
X33858200Y-53136800D03*
%TO.P,J1,3,P3*%
%TO.N,unconnected-(J1-P3-Pad3)*%
X38938200Y-51231800D03*
%TO.P,J1,4,P4*%
%TO.N,GND*%
X33858200Y-49326800D03*
%TO.P,J1,5,P5*%
X38938200Y-47421800D03*
%TO.P,J1,6,P6*%
%TO.N,LEFT*%
X33858200Y-45516800D03*
%TO.P,J1,7,P7*%
%TO.N,BLUE_IN*%
X38938200Y-43611800D03*
%TO.P,J1,8,P8*%
%TO.N,unconnected-(J1-P8-Pad8)*%
X33858200Y-41706800D03*
%TO.P,J1,9,P9*%
%TO.N,GND*%
X38938200Y-39801800D03*
%TO.P,J1,10,P10*%
%TO.N,unconnected-(J1-P10-Pad10)*%
X33858200Y-37896800D03*
%TO.P,J1,11,P11*%
%TO.N,GREEN_IN*%
X38938200Y-35991800D03*
%TO.P,J1,12,P12*%
%TO.N,unconnected-(J1-P12-Pad12)*%
X33858200Y-34086800D03*
%TO.P,J1,13,P13*%
%TO.N,GND*%
X38938200Y-32181800D03*
%TO.P,J1,14,P14*%
X33858200Y-30276800D03*
%TO.P,J1,15,P15*%
%TO.N,RED_IN*%
X38938200Y-28371800D03*
%TO.P,J1,16,P16*%
%TO.N,SCART_BLANKING*%
X33858200Y-26466800D03*
%TO.P,J1,17,P17*%
%TO.N,unconnected-(J1-P17-Pad17)*%
X38938200Y-24561800D03*
%TO.P,J1,18,P18*%
%TO.N,GND*%
X33858200Y-22656800D03*
%TO.P,J1,19,P19*%
%TO.N,unconnected-(J1-P19-Pad19)*%
X38938200Y-20751800D03*
%TO.P,J1,20,P20*%
%TO.N,COMPOSITE*%
X33858200Y-18846800D03*
%TO.P,J1,21,P21*%
%TO.N,GND*%
X38938200Y-16941800D03*
%TD*%
D12*
%TO.P,Q1,1,G*%
%TO.N,Net-(Q1-G)*%
X16449000Y-36158600D03*
%TO.P,Q1,2,S*%
%TO.N,GND*%
X18349000Y-36158600D03*
%TO.P,Q1,3,D*%
%TO.N,Net-(J2-Pin_2)*%
X17399000Y-33883600D03*
%TD*%
D13*
%TO.P,J2,1,Pin_1*%
%TO.N,Net-(J2-Pin_1)*%
X17424400Y-28625800D03*
D14*
%TO.P,J2,2,Pin_2*%
%TO.N,Net-(J2-Pin_2)*%
X17424400Y-31165800D03*
%TD*%
D15*
%TO.P,R2,1*%
%TO.N,+5V*%
X17399000Y-24473400D03*
%TO.P,R2,2*%
%TO.N,Net-(J2-Pin_1)*%
X17399000Y-26123400D03*
%TD*%
D16*
%TO.P,J5,1,Pin_1*%
%TO.N,COMPOSITE*%
X28448000Y-50749200D03*
D17*
%TO.P,J5,2,Pin_2*%
%TO.N,GND*%
X26448000Y-50749200D03*
%TO.P,J5,3,Pin_3*%
X24448000Y-50749200D03*
%TO.P,J5,4,Pin_4*%
%TO.N,Net-(J5-Pin_4)*%
X22448000Y-50749200D03*
%TD*%
D16*
%TO.P,J4,1,Pin_1*%
%TO.N,COMPOSITE*%
X28460200Y-46456600D03*
D17*
%TO.P,J4,2,Pin_2*%
%TO.N,GND*%
X26460200Y-46456600D03*
%TO.P,J4,3,Pin_3*%
X24460200Y-46456600D03*
%TO.P,J4,4,Pin_4*%
%TO.N,LEFT*%
X22460200Y-46456600D03*
%TO.P,J4,5,Pin_5*%
%TO.N,GND*%
X20460200Y-46456600D03*
%TO.P,J4,6,Pin_6*%
X18460200Y-46456600D03*
%TO.P,J4,7,Pin_7*%
%TO.N,RIGHT*%
X16460200Y-46456600D03*
%TD*%
D15*
%TO.P,R1,1*%
%TO.N,Net-(Q1-G)*%
X16484600Y-37732200D03*
%TO.P,R1,2*%
%TO.N,RGB_IN_USE*%
X16484600Y-39382200D03*
%TD*%
D18*
%TO.P,R4,1*%
%TO.N,RIGHT*%
X27787600Y-59080400D03*
%TO.P,R4,2*%
%TO.N,Net-(J5-Pin_4)*%
X27787600Y-57255400D03*
%TD*%
%TO.P,R3,1*%
%TO.N,Net-(J5-Pin_4)*%
X27762200Y-55702200D03*
%TO.P,R3,2*%
%TO.N,LEFT*%
X27762200Y-53877200D03*
%TD*%
D13*
%TO.P,J3,1,Pin_1*%
%TO.N,+5V*%
X23647400Y-24358600D03*
D14*
%TO.P,J3,2,Pin_2*%
X26187400Y-24358600D03*
%TO.P,J3,3,Pin_3*%
%TO.N,GND*%
X23647400Y-26898600D03*
%TO.P,J3,4,Pin_4*%
X26187400Y-26898600D03*
%TO.P,J3,5,Pin_5*%
X23647400Y-29438600D03*
%TO.P,J3,6,Pin_6*%
%TO.N,RED_IN*%
X26187400Y-29438600D03*
%TO.P,J3,7,Pin_7*%
%TO.N,GND*%
X23647400Y-31978600D03*
%TO.P,J3,8,Pin_8*%
%TO.N,GREEN_IN*%
X26187400Y-31978600D03*
%TO.P,J3,9,Pin_9*%
%TO.N,GND*%
X23647400Y-34518600D03*
%TO.P,J3,10,Pin_10*%
%TO.N,BLUE_IN*%
X26187400Y-34518600D03*
%TO.P,J3,11,Pin_11*%
%TO.N,GND*%
X23647400Y-37058600D03*
%TO.P,J3,12,Pin_12*%
X26187400Y-37058600D03*
%TO.P,J3,13,Pin_13*%
%TO.N,RGB_IN_USE*%
X23647400Y-39598600D03*
%TO.P,J3,14,Pin_14*%
%TO.N,SCART_BLANKING*%
X26187400Y-39598600D03*
%TD*%
D18*
%TO.P,R5,1*%
%TO.N,GND*%
X24460200Y-57327800D03*
%TO.P,R5,2*%
%TO.N,Net-(J5-Pin_4)*%
X24460200Y-55502800D03*
%TD*%
D19*
%TO.N,GND*%
X20015200Y-51308000D03*
X13258800Y-52374800D03*
X13233400Y-59461400D03*
X20472400Y-59385200D03*
X26035000Y-58343800D03*
X25908000Y-57429400D03*
X21855813Y-53277100D03*
%TO.N,RIGHT*%
X16459200Y-48209200D03*
X22733000Y-59182000D03*
%TO.N,COMPOSITE*%
X13589000Y-43434000D03*
X29667200Y-18846800D03*
%TO.N,GND*%
X18389600Y-44158500D03*
X12801600Y-18872200D03*
X23799800Y-48336200D03*
X26593800Y-42392600D03*
X29616400Y-35179000D03*
X30353000Y-31623000D03*
X14909800Y-34112200D03*
X27203400Y-16687800D03*
X30480000Y-43332400D03*
X17576800Y-42037000D03*
X25958800Y-56540400D03*
X30708600Y-58775600D03*
X26416000Y-44272200D03*
X14681200Y-41605200D03*
X31191200Y-54584600D03*
X12725400Y-42672000D03*
X23952200Y-53543200D03*
%TO.N,LEFT*%
X30048200Y-52324000D03*
%TD*%
D20*
%TO.N,COMPOSITE*%
X28448000Y-50749200D02*
X28448000Y-46468800D01*
X28448000Y-46468800D02*
X28460200Y-46456600D01*
%TO.N,LEFT*%
X30048200Y-52324000D02*
X29946600Y-52324000D01*
X29946600Y-52324000D02*
X28393400Y-53877200D01*
%TO.N,Net-(J5-Pin_4)*%
X24460200Y-55502800D02*
X22914600Y-55502800D01*
X22448000Y-52757697D02*
X22448000Y-50749200D01*
X22914600Y-55502800D02*
X22914600Y-53224297D01*
X22914600Y-53224297D02*
X22448000Y-52757697D01*
X27762200Y-55702200D02*
X24659600Y-55702200D01*
X24659600Y-55702200D02*
X24460200Y-55502800D01*
X27787600Y-57255400D02*
X27787600Y-55727600D01*
X27787600Y-55727600D02*
X27762200Y-55702200D01*
%TO.N,RIGHT*%
X16460200Y-48208200D02*
X16460200Y-46456600D01*
X16459200Y-48209200D02*
X16460200Y-48208200D01*
%TO.N,COMPOSITE*%
X13589000Y-43434000D02*
X28092400Y-43434000D01*
%TO.N,RIGHT*%
X27813000Y-59182000D02*
X22733000Y-59182000D01*
X33858200Y-53136800D02*
X27813000Y-59182000D01*
%TO.N,SCART_BLANKING*%
X35839400Y-26466800D02*
X36449000Y-27076400D01*
X36042600Y-39598600D02*
X26187400Y-39598600D01*
X36449000Y-27076400D02*
X36449000Y-39192200D01*
X36449000Y-39192200D02*
X36042600Y-39598600D01*
X33858200Y-26466800D02*
X35839400Y-26466800D01*
%TO.N,+5V*%
X23647400Y-24358600D02*
X17513800Y-24358600D01*
X17513800Y-24358600D02*
X17399000Y-24473400D01*
X26187400Y-24358600D02*
X23647400Y-24358600D01*
%TO.N,RGB_IN_USE*%
X16484600Y-39382200D02*
X16701000Y-39598600D01*
X16701000Y-39598600D02*
X23647400Y-39598600D01*
%TO.N,COMPOSITE*%
X28460200Y-43801800D02*
X28460200Y-46456600D01*
X33858200Y-18846800D02*
X29667200Y-18846800D01*
X28092400Y-43434000D02*
X28460200Y-43801800D01*
%TO.N,Net-(Q1-G)*%
X16449000Y-36158600D02*
X16449000Y-37696600D01*
X16449000Y-37696600D02*
X16484600Y-37732200D01*
%TO.N,Net-(J2-Pin_1)*%
X17424400Y-28625800D02*
X17424400Y-26148800D01*
X17424400Y-26148800D02*
X17399000Y-26123400D01*
%TO.N,Net-(J2-Pin_2)*%
X17399000Y-31191200D02*
X17424400Y-31165800D01*
X17399000Y-33883600D02*
X17399000Y-31191200D01*
%TD*%
%TA.AperFunction,Conductor*%
%TO.N,GND*%
G36*
X14952640Y-57113067D02*
G01*
X15154933Y-57315360D01*
X15241436Y-57380115D01*
X13465544Y-59156007D01*
X13465544Y-59156009D01*
X13753234Y-59394904D01*
X13753243Y-59394911D01*
X14096525Y-59630064D01*
X14096532Y-59630068D01*
X14462538Y-59833932D01*
X14461929Y-59835023D01*
X14509579Y-59879185D01*
X14527012Y-59946845D01*
X14505097Y-60013189D01*
X14450793Y-60057153D01*
X14403081Y-60066700D01*
X12318500Y-60066700D01*
X12251461Y-60047015D01*
X12205706Y-59994211D01*
X12194500Y-59942700D01*
X12194500Y-57850061D01*
X12214185Y-57783022D01*
X12266989Y-57737267D01*
X12336147Y-57727323D01*
X12399703Y-57756348D01*
X12431935Y-57799977D01*
X12435455Y-57807949D01*
X12435467Y-57807974D01*
X12637931Y-58171467D01*
X12637935Y-58171474D01*
X12873088Y-58514756D01*
X12873095Y-58514765D01*
X13111989Y-58802454D01*
X13111991Y-58802454D01*
X14887883Y-57026562D01*
X14952640Y-57113067D01*
G37*
%TD.AperFunction*%
%TA.AperFunction,Conductor*%
G36*
X22239940Y-25003785D02*
G01*
X22285695Y-25056589D01*
X22296901Y-25108100D01*
X22296901Y-25256476D01*
X22303308Y-25316083D01*
X22353602Y-25450928D01*
X22353606Y-25450935D01*
X22439852Y-25566144D01*
X22439855Y-25566147D01*
X22555064Y-25652393D01*
X22555071Y-25652397D01*
X22600018Y-25669161D01*
X22686998Y-25701602D01*
X22742931Y-25743473D01*
X22767349Y-25808937D01*
X22752498Y-25877210D01*
X22731347Y-25905465D01*
X22609286Y-26027526D01*
X22473800Y-26221020D01*
X22473799Y-26221022D01*
X22373970Y-26435107D01*
X22373967Y-26435113D01*
X22316764Y-26648599D01*
X22316764Y-26648600D01*
X23213714Y-26648600D01*
X23187907Y-26688756D01*
X23147400Y-26826711D01*
X23147400Y-26970489D01*
X23187907Y-27108444D01*
X23213714Y-27148600D01*
X22316764Y-27148600D01*
X22373967Y-27362086D01*
X22373970Y-27362092D01*
X22473799Y-27576178D01*
X22609294Y-27769682D01*
X22776317Y-27936705D01*
X22962431Y-28067025D01*
X23006056Y-28121603D01*
X23013248Y-28191101D01*
X22981726Y-28253456D01*
X22962431Y-28270175D01*
X22776322Y-28400490D01*
X22776320Y-28400491D01*
X22609291Y-28567520D01*
X22609286Y-28567526D01*
X22473800Y-28761020D01*
X22473799Y-28761022D01*
X22373970Y-28975107D01*
X22373967Y-28975113D01*
X22316764Y-29188599D01*
X22316764Y-29188600D01*
X23213714Y-29188600D01*
X23187907Y-29228756D01*
X23147400Y-29366711D01*
X23147400Y-29510489D01*
X23187907Y-29648444D01*
X23213714Y-29688600D01*
X22316764Y-29688600D01*
X22373967Y-29902086D01*
X22373970Y-29902092D01*
X22473799Y-30116178D01*
X22609294Y-30309682D01*
X22776317Y-30476705D01*
X22962431Y-30607025D01*
X23006056Y-30661603D01*
X23013248Y-30731101D01*
X22981726Y-30793456D01*
X22962431Y-30810175D01*
X22776322Y-30940490D01*
X22776320Y-30940491D01*
X22609291Y-31107520D01*
X22609286Y-31107526D01*
X22473800Y-31301020D01*
X22473799Y-31301022D01*
X22373970Y-31515107D01*
X22373967Y-31515113D01*
X22316764Y-31728599D01*
X22316764Y-31728600D01*
X23213714Y-31728600D01*
X23187907Y-31768756D01*
X23147400Y-31906711D01*
X23147400Y-32050489D01*
X23187907Y-32188444D01*
X23213714Y-32228600D01*
X22316764Y-32228600D01*
X22373967Y-32442086D01*
X22373970Y-32442092D01*
X22473799Y-32656178D01*
X22609294Y-32849682D01*
X22776317Y-33016705D01*
X22962431Y-33147025D01*
X23006056Y-33201603D01*
X23013248Y-33271101D01*
X22981726Y-33333456D01*
X22962431Y-33350175D01*
X22776322Y-33480490D01*
X22776320Y-33480491D01*
X22609291Y-33647520D01*
X22609286Y-33647526D01*
X22473800Y-33841020D01*
X22473799Y-33841022D01*
X22373970Y-34055107D01*
X22373967Y-34055113D01*
X22316764Y-34268599D01*
X22316764Y-34268600D01*
X23213714Y-34268600D01*
X23187907Y-34308756D01*
X23147400Y-34446711D01*
X23147400Y-34590489D01*
X23187907Y-34728444D01*
X23213714Y-34768600D01*
X22316764Y-34768600D01*
X22373967Y-34982086D01*
X22373970Y-34982092D01*
X22473799Y-35196178D01*
X22609294Y-35389682D01*
X22776317Y-35556705D01*
X22962431Y-35687025D01*
X23006056Y-35741603D01*
X23013248Y-35811101D01*
X22981726Y-35873456D01*
X22962431Y-35890175D01*
X22776322Y-36020490D01*
X22776320Y-36020491D01*
X22609291Y-36187520D01*
X22609286Y-36187526D01*
X22473800Y-36381020D01*
X22473799Y-36381022D01*
X22373970Y-36595107D01*
X22373967Y-36595113D01*
X22316764Y-36808599D01*
X22316764Y-36808600D01*
X23213714Y-36808600D01*
X23187907Y-36848756D01*
X23147400Y-36986711D01*
X23147400Y-37130489D01*
X23187907Y-37268444D01*
X23213714Y-37308600D01*
X22316764Y-37308600D01*
X22373967Y-37522086D01*
X22373970Y-37522092D01*
X22473799Y-37736178D01*
X22609294Y-37929682D01*
X22776317Y-38096705D01*
X22961995Y-38226719D01*
X23005619Y-38281296D01*
X23012812Y-38350795D01*
X22981290Y-38413149D01*
X22961995Y-38429869D01*
X22775994Y-38560108D01*
X22608905Y-38727197D01*
X22473748Y-38920223D01*
X22419171Y-38963848D01*
X22372173Y-38973100D01*
X17519406Y-38973100D01*
X17452367Y-38953415D01*
X17406612Y-38900611D01*
X17406161Y-38899433D01*
X17406157Y-38899435D01*
X17403079Y-38892597D01*
X17403078Y-38892596D01*
X17403078Y-38892594D01*
X17315072Y-38747015D01*
X17315070Y-38747013D01*
X17315069Y-38747011D01*
X17212939Y-38644881D01*
X17179454Y-38583558D01*
X17184438Y-38513866D01*
X17212939Y-38469519D01*
X17315068Y-38367389D01*
X17315069Y-38367388D01*
X17315072Y-38367385D01*
X17403078Y-38221806D01*
X17453686Y-38059396D01*
X17460100Y-37988816D01*
X17460100Y-37475584D01*
X17453686Y-37405004D01*
X17403078Y-37242594D01*
X17315072Y-37097015D01*
X17315070Y-37097013D01*
X17315069Y-37097011D01*
X17241075Y-37023017D01*
X17207590Y-36961694D01*
X17209680Y-36900741D01*
X17246597Y-36773673D01*
X17246598Y-36773667D01*
X17249500Y-36736796D01*
X17249500Y-36408600D01*
X17549000Y-36408600D01*
X17549000Y-36736744D01*
X17551899Y-36773589D01*
X17551900Y-36773595D01*
X17597716Y-36931293D01*
X17597717Y-36931296D01*
X17681314Y-37072652D01*
X17681321Y-37072661D01*
X17797438Y-37188778D01*
X17797447Y-37188785D01*
X17938801Y-37272381D01*
X18096514Y-37318200D01*
X18096511Y-37318200D01*
X18098998Y-37318395D01*
X18099000Y-37318395D01*
X18099000Y-36408600D01*
X18599000Y-36408600D01*
X18599000Y-37318395D01*
X18599001Y-37318395D01*
X18601486Y-37318200D01*
X18759198Y-37272381D01*
X18900552Y-37188785D01*
X18900561Y-37188778D01*
X19016678Y-37072661D01*
X19016685Y-37072652D01*
X19100282Y-36931296D01*
X19100283Y-36931293D01*
X19146099Y-36773595D01*
X19146100Y-36773589D01*
X19149000Y-36736744D01*
X19149000Y-36408600D01*
X18599000Y-36408600D01*
X18099000Y-36408600D01*
X17549000Y-36408600D01*
X17249500Y-36408600D01*
X17249500Y-35580404D01*
X17246598Y-35543532D01*
X17246597Y-35543526D01*
X17200745Y-35385706D01*
X17200744Y-35385703D01*
X17200744Y-35385702D01*
X17117081Y-35244235D01*
X17113110Y-35237520D01*
X17114928Y-35236444D01*
X17093381Y-35181568D01*
X17107059Y-35113050D01*
X17155609Y-35062804D01*
X17216895Y-35046600D01*
X17581742Y-35046600D01*
X17648781Y-35066285D01*
X17694536Y-35119089D01*
X17704480Y-35188247D01*
X17683814Y-35236957D01*
X17685288Y-35237829D01*
X17597717Y-35385903D01*
X17597716Y-35385906D01*
X17551900Y-35543604D01*
X17551899Y-35543610D01*
X17549000Y-35580456D01*
X17549000Y-35908600D01*
X18099000Y-35908600D01*
X18099000Y-34998803D01*
X18599000Y-34998803D01*
X18599000Y-35908600D01*
X19149000Y-35908600D01*
X19149000Y-35580456D01*
X19146100Y-35543610D01*
X19146099Y-35543604D01*
X19100283Y-35385906D01*
X19100282Y-35385903D01*
X19016685Y-35244547D01*
X19016678Y-35244538D01*
X18900561Y-35128421D01*
X18900552Y-35128414D01*
X18759196Y-35044817D01*
X18759193Y-35044816D01*
X18601494Y-34999000D01*
X18601497Y-34999000D01*
X18599000Y-34998803D01*
X18099000Y-34998803D01*
X18099000Y-34998802D01*
X18072765Y-34974561D01*
X18036887Y-34914607D01*
X18039118Y-34844773D01*
X18063533Y-34805088D01*
X18062298Y-34804131D01*
X18067075Y-34797970D01*
X18067081Y-34797965D01*
X18150744Y-34656498D01*
X18186703Y-34532726D01*
X18196597Y-34498673D01*
X18196598Y-34498667D01*
X18199500Y-34461796D01*
X18199500Y-33305404D01*
X18196598Y-33268532D01*
X18196597Y-33268526D01*
X18150745Y-33110706D01*
X18150744Y-33110703D01*
X18150744Y-33110702D01*
X18067081Y-32969235D01*
X18067079Y-32969233D01*
X18067076Y-32969229D01*
X18060819Y-32962972D01*
X18027334Y-32901649D01*
X18024500Y-32875291D01*
X18024500Y-32455077D01*
X18044185Y-32388038D01*
X18096098Y-32342693D01*
X18102230Y-32339835D01*
X18295801Y-32204295D01*
X18462895Y-32037201D01*
X18598435Y-31843630D01*
X18698303Y-31629463D01*
X18759463Y-31401208D01*
X18780059Y-31165800D01*
X18759463Y-30930392D01*
X18698303Y-30702137D01*
X18598435Y-30487971D01*
X18590818Y-30477093D01*
X18462896Y-30294400D01*
X18445290Y-30276794D01*
X18340967Y-30172471D01*
X18307484Y-30111151D01*
X18312468Y-30041459D01*
X18354339Y-29985525D01*
X18385315Y-29968610D01*
X18516731Y-29919596D01*
X18631946Y-29833346D01*
X18718196Y-29718131D01*
X18768491Y-29583283D01*
X18774900Y-29523673D01*
X18774899Y-27727928D01*
X18768491Y-27668317D01*
X18734125Y-27576178D01*
X18718197Y-27533471D01*
X18718193Y-27533464D01*
X18631947Y-27418255D01*
X18631944Y-27418252D01*
X18516735Y-27332006D01*
X18516728Y-27332002D01*
X18381882Y-27281708D01*
X18381883Y-27281708D01*
X18322283Y-27275301D01*
X18322281Y-27275300D01*
X18322273Y-27275300D01*
X18322265Y-27275300D01*
X18173900Y-27275300D01*
X18106861Y-27255615D01*
X18061106Y-27202811D01*
X18049900Y-27151300D01*
X18049900Y-26984647D01*
X18069585Y-26917608D01*
X18103867Y-26884257D01*
X18103276Y-26883502D01*
X18109180Y-26878875D01*
X18109179Y-26878875D01*
X18109185Y-26878872D01*
X18229472Y-26758585D01*
X18317478Y-26613006D01*
X18368086Y-26450596D01*
X18374500Y-26380016D01*
X18374500Y-25866784D01*
X18368086Y-25796204D01*
X18317478Y-25633794D01*
X18229472Y-25488215D01*
X18229470Y-25488213D01*
X18229469Y-25488211D01*
X18127339Y-25386081D01*
X18093854Y-25324758D01*
X18098838Y-25255066D01*
X18127339Y-25210719D01*
X18229468Y-25108589D01*
X18229469Y-25108588D01*
X18229472Y-25108585D01*
X18268545Y-25043949D01*
X18320073Y-24996762D01*
X18374662Y-24984100D01*
X22172901Y-24984100D01*
X22239940Y-25003785D01*
G37*
%TD.AperFunction*%
%TA.AperFunction,Conductor*%
G36*
X25727907Y-36848756D02*
G01*
X25687400Y-36986711D01*
X25687400Y-37130489D01*
X25727907Y-37268444D01*
X25753714Y-37308600D01*
X24081086Y-37308600D01*
X24106893Y-37268444D01*
X24147400Y-37130489D01*
X24147400Y-36986711D01*
X24106893Y-36848756D01*
X24081086Y-36808600D01*
X25753714Y-36808600D01*
X25727907Y-36848756D01*
G37*
%TD.AperFunction*%
%TA.AperFunction,Conductor*%
G36*
X23897400Y-36623098D02*
G01*
X23789715Y-36573920D01*
X23683163Y-36558600D01*
X23611637Y-36558600D01*
X23505085Y-36573920D01*
X23397400Y-36623098D01*
X23397400Y-34954101D01*
X23505085Y-35003280D01*
X23611637Y-35018600D01*
X23683163Y-35018600D01*
X23789715Y-35003280D01*
X23897400Y-34954101D01*
X23897400Y-36623098D01*
G37*
%TD.AperFunction*%
%TA.AperFunction,Conductor*%
G36*
X23897400Y-34083098D02*
G01*
X23789715Y-34033920D01*
X23683163Y-34018600D01*
X23611637Y-34018600D01*
X23505085Y-34033920D01*
X23397400Y-34083098D01*
X23397400Y-32414101D01*
X23505085Y-32463280D01*
X23611637Y-32478600D01*
X23683163Y-32478600D01*
X23789715Y-32463280D01*
X23897400Y-32414101D01*
X23897400Y-34083098D01*
G37*
%TD.AperFunction*%
%TA.AperFunction,Conductor*%
G36*
X23897400Y-31543098D02*
G01*
X23789715Y-31493920D01*
X23683163Y-31478600D01*
X23611637Y-31478600D01*
X23505085Y-31493920D01*
X23397400Y-31543098D01*
X23397400Y-29874101D01*
X23505085Y-29923280D01*
X23611637Y-29938600D01*
X23683163Y-29938600D01*
X23789715Y-29923280D01*
X23897400Y-29874101D01*
X23897400Y-31543098D01*
G37*
%TD.AperFunction*%
%TA.AperFunction,Conductor*%
G36*
X23897400Y-29003098D02*
G01*
X23789715Y-28953920D01*
X23683163Y-28938600D01*
X23611637Y-28938600D01*
X23505085Y-28953920D01*
X23397400Y-29003098D01*
X23397400Y-27334101D01*
X23505085Y-27383280D01*
X23611637Y-27398600D01*
X23683163Y-27398600D01*
X23789715Y-27383280D01*
X23897400Y-27334101D01*
X23897400Y-29003098D01*
G37*
%TD.AperFunction*%
%TA.AperFunction,Conductor*%
G36*
X25727907Y-26688756D02*
G01*
X25687400Y-26826711D01*
X25687400Y-26970489D01*
X25727907Y-27108444D01*
X25753714Y-27148600D01*
X24081086Y-27148600D01*
X24106893Y-27108444D01*
X24147400Y-26970489D01*
X24147400Y-26826711D01*
X24106893Y-26688756D01*
X24081086Y-26648600D01*
X25753714Y-26648600D01*
X25727907Y-26688756D01*
G37*
%TD.AperFunction*%
%TA.AperFunction,Conductor*%
G36*
X40846400Y-12445801D02*
G01*
X40913407Y-12465593D01*
X40959077Y-12518471D01*
X40970200Y-12569801D01*
X40970200Y-59942700D01*
X40950515Y-60009739D01*
X40897711Y-60055494D01*
X40846200Y-60066700D01*
X28874530Y-60066700D01*
X28807491Y-60047015D01*
X28761736Y-59994211D01*
X28751792Y-59925053D01*
X28780817Y-59861497D01*
X28786849Y-59855019D01*
X28807936Y-59833932D01*
X28830312Y-59811556D01*
X28922414Y-59662234D01*
X28977599Y-59495697D01*
X28988100Y-59392909D01*
X28988099Y-58942850D01*
X29007783Y-58875812D01*
X29024413Y-58855175D01*
X32837784Y-55041805D01*
X37433069Y-55041805D01*
X37453596Y-55289532D01*
X37514621Y-55530515D01*
X37614476Y-55758162D01*
X37750440Y-55966272D01*
X37918799Y-56149157D01*
X37918809Y-56149166D01*
X37967679Y-56187203D01*
X38092087Y-56284034D01*
X38114966Y-56301841D01*
X38114971Y-56301845D01*
X38283617Y-56393112D01*
X38333596Y-56420159D01*
X38333599Y-56420160D01*
X38568708Y-56500873D01*
X38568710Y-56500873D01*
X38568712Y-56500874D01*
X38813907Y-56541790D01*
X38813908Y-56541790D01*
X39062492Y-56541790D01*
X39062493Y-56541790D01*
X39307688Y-56500874D01*
X39542804Y-56420159D01*
X39761429Y-56301845D01*
X39957597Y-56149161D01*
X40125960Y-55966271D01*
X40261923Y-55758163D01*
X40361779Y-55530515D01*
X40422803Y-55289536D01*
X40440439Y-55076700D01*
X40443331Y-55041805D01*
X40443331Y-55041794D01*
X40422803Y-54794067D01*
X40422803Y-54794064D01*
X40361779Y-54553085D01*
X40261923Y-54325437D01*
X40208823Y-54244161D01*
X40125959Y-54117327D01*
X39957600Y-53934442D01*
X39957590Y-53934433D01*
X39761433Y-53781758D01*
X39761428Y-53781754D01*
X39542805Y-53663441D01*
X39542800Y-53663439D01*
X39307691Y-53582726D01*
X39123791Y-53552039D01*
X39062493Y-53541810D01*
X38813907Y-53541810D01*
X38764868Y-53549993D01*
X38568708Y-53582726D01*
X38333599Y-53663439D01*
X38333594Y-53663441D01*
X38114971Y-53781754D01*
X38114966Y-53781758D01*
X37918809Y-53934433D01*
X37918799Y-53934442D01*
X37750440Y-54117327D01*
X37614476Y-54325437D01*
X37514621Y-54553084D01*
X37453596Y-54794067D01*
X37433069Y-55041794D01*
X37433069Y-55041805D01*
X32837784Y-55041805D01*
X33281374Y-54598215D01*
X33342695Y-54564732D01*
X33409315Y-54568616D01*
X33456735Y-54584896D01*
X33488711Y-54595874D01*
X33563512Y-54608356D01*
X33733907Y-54636790D01*
X33733908Y-54636790D01*
X33982492Y-54636790D01*
X33982493Y-54636790D01*
X34227688Y-54595874D01*
X34462804Y-54515159D01*
X34681429Y-54396845D01*
X34877597Y-54244161D01*
X35045960Y-54061271D01*
X35181923Y-53853163D01*
X35281779Y-53625515D01*
X35342803Y-53384536D01*
X35351926Y-53274431D01*
X35363331Y-53136805D01*
X35363331Y-53136794D01*
X35346186Y-52929887D01*
X35342803Y-52889064D01*
X35281779Y-52648085D01*
X35181923Y-52420437D01*
X35128823Y-52339161D01*
X35045959Y-52212327D01*
X34877600Y-52029442D01*
X34877590Y-52029433D01*
X34681433Y-51876758D01*
X34681428Y-51876754D01*
X34462805Y-51758441D01*
X34462800Y-51758439D01*
X34227691Y-51677726D01*
X34043791Y-51647039D01*
X33982493Y-51636810D01*
X33733907Y-51636810D01*
X33684868Y-51644993D01*
X33488708Y-51677726D01*
X33253599Y-51758439D01*
X33253594Y-51758441D01*
X33034971Y-51876754D01*
X33034966Y-51876758D01*
X32838809Y-52029433D01*
X32838799Y-52029442D01*
X32670440Y-52212327D01*
X32534476Y-52420437D01*
X32434621Y-52648084D01*
X32373596Y-52889067D01*
X32353069Y-53136794D01*
X32353069Y-53136805D01*
X32373596Y-53384532D01*
X32427483Y-53597329D01*
X32424858Y-53667149D01*
X32394958Y-53715450D01*
X29189248Y-56921159D01*
X29127925Y-56954644D01*
X29058233Y-56949660D01*
X29002300Y-56907788D01*
X28978209Y-56846075D01*
X28977599Y-56840104D01*
X28977598Y-56840100D01*
X28946474Y-56746175D01*
X28922414Y-56673566D01*
X28897363Y-56632952D01*
X28829733Y-56523305D01*
X28811293Y-56455913D01*
X28829733Y-56393113D01*
X28897014Y-56284034D01*
X28952199Y-56117497D01*
X28962700Y-56014709D01*
X28962699Y-55389692D01*
X28952199Y-55286903D01*
X28897014Y-55120366D01*
X28804912Y-54971044D01*
X28711249Y-54877381D01*
X28677764Y-54816058D01*
X28682748Y-54746366D01*
X28711249Y-54702019D01*
X28804912Y-54608356D01*
X28897014Y-54459034D01*
X28952199Y-54292497D01*
X28957899Y-54236690D01*
X28984294Y-54172001D01*
X28993567Y-54161621D01*
X29894370Y-53260819D01*
X29955693Y-53227334D01*
X29982051Y-53224500D01*
X30142844Y-53224500D01*
X30142846Y-53224500D01*
X30328003Y-53185144D01*
X30500930Y-53108151D01*
X30654071Y-52996888D01*
X30780733Y-52856216D01*
X30875379Y-52692284D01*
X30933874Y-52512256D01*
X30953660Y-52324000D01*
X30933874Y-52135744D01*
X30875379Y-51955716D01*
X30780733Y-51791784D01*
X30654071Y-51651112D01*
X30654070Y-51651111D01*
X30500934Y-51539851D01*
X30500929Y-51539848D01*
X30328007Y-51462857D01*
X30328002Y-51462855D01*
X30182201Y-51431865D01*
X30142846Y-51423500D01*
X29953554Y-51423500D01*
X29821186Y-51451635D01*
X29773279Y-51461818D01*
X29703612Y-51456501D01*
X29647879Y-51414363D01*
X29623774Y-51348783D01*
X29623499Y-51340554D01*
X29623499Y-51231805D01*
X37433069Y-51231805D01*
X37453596Y-51479532D01*
X37514621Y-51720515D01*
X37614476Y-51948162D01*
X37750440Y-52156272D01*
X37904846Y-52324000D01*
X37918803Y-52339161D01*
X38114971Y-52491845D01*
X38333596Y-52610159D01*
X38333599Y-52610160D01*
X38568708Y-52690873D01*
X38568710Y-52690873D01*
X38568712Y-52690874D01*
X38813907Y-52731790D01*
X38813908Y-52731790D01*
X39062492Y-52731790D01*
X39062493Y-52731790D01*
X39307688Y-52690874D01*
X39308577Y-52690569D01*
X39354067Y-52674952D01*
X39542804Y-52610159D01*
X39761429Y-52491845D01*
X39957597Y-52339161D01*
X40125960Y-52156271D01*
X40261923Y-51948163D01*
X40361779Y-51720515D01*
X40422803Y-51479536D01*
X40443331Y-51231800D01*
X40438679Y-51175662D01*
X40424057Y-50999200D01*
X40422803Y-50984064D01*
X40361779Y-50743085D01*
X40261923Y-50515437D01*
X40136029Y-50322741D01*
X40125959Y-50307327D01*
X39957600Y-50124442D01*
X39957590Y-50124433D01*
X39761433Y-49971758D01*
X39761428Y-49971754D01*
X39542805Y-49853441D01*
X39542800Y-49853439D01*
X39307691Y-49772726D01*
X39123791Y-49742039D01*
X39062493Y-49731810D01*
X38813907Y-49731810D01*
X38764868Y-49739993D01*
X38568708Y-49772726D01*
X38333599Y-49853439D01*
X38333594Y-49853441D01*
X38114971Y-49971754D01*
X38114966Y-49971758D01*
X37918809Y-50124433D01*
X37918799Y-50124442D01*
X37750440Y-50307327D01*
X37614476Y-50515437D01*
X37514621Y-50743084D01*
X37453596Y-50984067D01*
X37433069Y-51231794D01*
X37433069Y-51231805D01*
X29623499Y-51231805D01*
X29623499Y-50026328D01*
X29617633Y-49971755D01*
X29617091Y-49966716D01*
X29566797Y-49831871D01*
X29566793Y-49831864D01*
X29480547Y-49716655D01*
X29480544Y-49716652D01*
X29365335Y-49630406D01*
X29365328Y-49630402D01*
X29230483Y-49580108D01*
X29184243Y-49575137D01*
X29119693Y-49548399D01*
X29079845Y-49491006D01*
X29073500Y-49451848D01*
X29073500Y-49326805D01*
X32353571Y-49326805D01*
X32374090Y-49574446D01*
X32374092Y-49574457D01*
X32435095Y-49815350D01*
X32534916Y-50042920D01*
X32635132Y-50196312D01*
X33295854Y-49535590D01*
X33334590Y-49629106D01*
X33430674Y-49754326D01*
X33555894Y-49850410D01*
X33649408Y-49889144D01*
X32988507Y-50550045D01*
X32988507Y-50550046D01*
X33035244Y-50586423D01*
X33253795Y-50704698D01*
X33253804Y-50704701D01*
X33488832Y-50785387D01*
X33733949Y-50826290D01*
X33982451Y-50826290D01*
X34227567Y-50785387D01*
X34462595Y-50704701D01*
X34462603Y-50704698D01*
X34681157Y-50586422D01*
X34727891Y-50550045D01*
X34727892Y-50550044D01*
X34066992Y-49889144D01*
X34160506Y-49850410D01*
X34285726Y-49754326D01*
X34381810Y-49629107D01*
X34420544Y-49535591D01*
X35081266Y-50196313D01*
X35181481Y-50042925D01*
X35281304Y-49815350D01*
X35342307Y-49574457D01*
X35342309Y-49574446D01*
X35362829Y-49326805D01*
X35362829Y-49326794D01*
X35342309Y-49079153D01*
X35342307Y-49079142D01*
X35281304Y-48838249D01*
X35181483Y-48610679D01*
X35081266Y-48457285D01*
X34420544Y-49118007D01*
X34381810Y-49024494D01*
X34285726Y-48899274D01*
X34160506Y-48803190D01*
X34066991Y-48764454D01*
X34727891Y-48103553D01*
X34681152Y-48067174D01*
X34462604Y-47948901D01*
X34462595Y-47948898D01*
X34227567Y-47868212D01*
X33982451Y-47827310D01*
X33733949Y-47827310D01*
X33488832Y-47868212D01*
X33253804Y-47948898D01*
X33253795Y-47948901D01*
X33035244Y-48067176D01*
X32988507Y-48103552D01*
X32988507Y-48103553D01*
X33649408Y-48764454D01*
X33555894Y-48803190D01*
X33430674Y-48899274D01*
X33334590Y-49024493D01*
X33295854Y-49118008D01*
X32635131Y-48457285D01*
X32534917Y-48610676D01*
X32435095Y-48838249D01*
X32374092Y-49079142D01*
X32374090Y-49079153D01*
X32353571Y-49326794D01*
X32353571Y-49326805D01*
X29073500Y-49326805D01*
X29073500Y-47755262D01*
X29093185Y-47688223D01*
X29145989Y-47642468D01*
X29184244Y-47631972D01*
X29242683Y-47625691D01*
X29377531Y-47575396D01*
X29492746Y-47489146D01*
X29543158Y-47421805D01*
X37433571Y-47421805D01*
X37454090Y-47669446D01*
X37454092Y-47669457D01*
X37515095Y-47910350D01*
X37614916Y-48137920D01*
X37715132Y-48291312D01*
X38375854Y-47630590D01*
X38414590Y-47724106D01*
X38510674Y-47849326D01*
X38635894Y-47945410D01*
X38729408Y-47984144D01*
X38068507Y-48645045D01*
X38068507Y-48645046D01*
X38115244Y-48681423D01*
X38333795Y-48799698D01*
X38333804Y-48799701D01*
X38568832Y-48880387D01*
X38813949Y-48921290D01*
X39062451Y-48921290D01*
X39307567Y-48880387D01*
X39542595Y-48799701D01*
X39542603Y-48799698D01*
X39761157Y-48681422D01*
X39807891Y-48645045D01*
X39807892Y-48645044D01*
X39146992Y-47984144D01*
X39240506Y-47945410D01*
X39365726Y-47849326D01*
X39461810Y-47724107D01*
X39500544Y-47630591D01*
X40161266Y-48291313D01*
X40261481Y-48137925D01*
X40361304Y-47910350D01*
X40422307Y-47669457D01*
X40422309Y-47669446D01*
X40442829Y-47421805D01*
X40442829Y-47421794D01*
X40422309Y-47174153D01*
X40422307Y-47174142D01*
X40361304Y-46933249D01*
X40261483Y-46705679D01*
X40161266Y-46552285D01*
X39500544Y-47213007D01*
X39461810Y-47119494D01*
X39365726Y-46994274D01*
X39240506Y-46898190D01*
X39146991Y-46859454D01*
X39807891Y-46198553D01*
X39761152Y-46162174D01*
X39542604Y-46043901D01*
X39542595Y-46043898D01*
X39307567Y-45963212D01*
X39062451Y-45922310D01*
X38813949Y-45922310D01*
X38568832Y-45963212D01*
X38333804Y-46043898D01*
X38333795Y-46043901D01*
X38115244Y-46162176D01*
X38068507Y-46198552D01*
X38068507Y-46198553D01*
X38729408Y-46859454D01*
X38635894Y-46898190D01*
X38510674Y-46994274D01*
X38414590Y-47119493D01*
X38375854Y-47213008D01*
X37715131Y-46552285D01*
X37614917Y-46705676D01*
X37515095Y-46933249D01*
X37454092Y-47174142D01*
X37454090Y-47174153D01*
X37433571Y-47421794D01*
X37433571Y-47421805D01*
X29543158Y-47421805D01*
X29578996Y-47373931D01*
X29629291Y-47239083D01*
X29635700Y-47179473D01*
X29635699Y-45733728D01*
X29629291Y-45674117D01*
X29624626Y-45661610D01*
X29578997Y-45539271D01*
X29578993Y-45539264D01*
X29562180Y-45516805D01*
X32353069Y-45516805D01*
X32373596Y-45764532D01*
X32434621Y-46005515D01*
X32534476Y-46233162D01*
X32670440Y-46441272D01*
X32838799Y-46624157D01*
X32838809Y-46624166D01*
X32943533Y-46705676D01*
X33034971Y-46776845D01*
X33253596Y-46895159D01*
X33253599Y-46895160D01*
X33488708Y-46975873D01*
X33488710Y-46975873D01*
X33488712Y-46975874D01*
X33733907Y-47016790D01*
X33733908Y-47016790D01*
X33982492Y-47016790D01*
X33982493Y-47016790D01*
X34227688Y-46975874D01*
X34462804Y-46895159D01*
X34681429Y-46776845D01*
X34877597Y-46624161D01*
X35045960Y-46441271D01*
X35181923Y-46233163D01*
X35281779Y-46005515D01*
X35342803Y-45764536D01*
X35361469Y-45539271D01*
X35363331Y-45516805D01*
X35363331Y-45516794D01*
X35347117Y-45321130D01*
X35342803Y-45269064D01*
X35281779Y-45028085D01*
X35181923Y-44800437D01*
X35128823Y-44719161D01*
X35045959Y-44592327D01*
X34877600Y-44409442D01*
X34877590Y-44409433D01*
X34681433Y-44256758D01*
X34681428Y-44256754D01*
X34462805Y-44138441D01*
X34462800Y-44138439D01*
X34227691Y-44057726D01*
X34043791Y-44027039D01*
X33982493Y-44016810D01*
X33733907Y-44016810D01*
X33684868Y-44024993D01*
X33488708Y-44057726D01*
X33253599Y-44138439D01*
X33253594Y-44138441D01*
X33034971Y-44256754D01*
X33034966Y-44256758D01*
X32838809Y-44409433D01*
X32838799Y-44409442D01*
X32670440Y-44592327D01*
X32534476Y-44800437D01*
X32434621Y-45028084D01*
X32373596Y-45269067D01*
X32353069Y-45516794D01*
X32353069Y-45516805D01*
X29562180Y-45516805D01*
X29492747Y-45424055D01*
X29492744Y-45424052D01*
X29377535Y-45337806D01*
X29377528Y-45337802D01*
X29242683Y-45287508D01*
X29196443Y-45282537D01*
X29131893Y-45255799D01*
X29092045Y-45198406D01*
X29085700Y-45159248D01*
X29085700Y-43884542D01*
X29087424Y-43868922D01*
X29087139Y-43868895D01*
X29087873Y-43861133D01*
X29085700Y-43791972D01*
X29085700Y-43762456D01*
X29085700Y-43762450D01*
X29084831Y-43755579D01*
X29084373Y-43749752D01*
X29082910Y-43703173D01*
X29077319Y-43683930D01*
X29073373Y-43664878D01*
X29070864Y-43645008D01*
X29057718Y-43611805D01*
X37433069Y-43611805D01*
X37453596Y-43859532D01*
X37514621Y-44100515D01*
X37614476Y-44328162D01*
X37750440Y-44536272D01*
X37802043Y-44592327D01*
X37918803Y-44719161D01*
X38114971Y-44871845D01*
X38333596Y-44990159D01*
X38333599Y-44990160D01*
X38568708Y-45070873D01*
X38568710Y-45070873D01*
X38568712Y-45070874D01*
X38813907Y-45111790D01*
X38813908Y-45111790D01*
X39062492Y-45111790D01*
X39062493Y-45111790D01*
X39307688Y-45070874D01*
X39542804Y-44990159D01*
X39761429Y-44871845D01*
X39957597Y-44719161D01*
X40125960Y-44536271D01*
X40261923Y-44328163D01*
X40361779Y-44100515D01*
X40422803Y-43859536D01*
X40437354Y-43683934D01*
X40443331Y-43611805D01*
X40443331Y-43611794D01*
X40427055Y-43415375D01*
X40422803Y-43364064D01*
X40361779Y-43123085D01*
X40261923Y-42895437D01*
X40247145Y-42872818D01*
X40125959Y-42687327D01*
X39957600Y-42504442D01*
X39957590Y-42504433D01*
X39761433Y-42351758D01*
X39761428Y-42351754D01*
X39542805Y-42233441D01*
X39542800Y-42233439D01*
X39307691Y-42152726D01*
X39123791Y-42122039D01*
X39062493Y-42111810D01*
X38813907Y-42111810D01*
X38764868Y-42119993D01*
X38568708Y-42152726D01*
X38333599Y-42233439D01*
X38333594Y-42233441D01*
X38114971Y-42351754D01*
X38114966Y-42351758D01*
X37918809Y-42504433D01*
X37918799Y-42504442D01*
X37750440Y-42687327D01*
X37614476Y-42895437D01*
X37514621Y-43123084D01*
X37453596Y-43364067D01*
X37433069Y-43611794D01*
X37433069Y-43611805D01*
X29057718Y-43611805D01*
X29053704Y-43601667D01*
X29051824Y-43596179D01*
X29038818Y-43551410D01*
X29028622Y-43534170D01*
X29020061Y-43516694D01*
X29012687Y-43498070D01*
X29012686Y-43498068D01*
X28985279Y-43460345D01*
X28982088Y-43455486D01*
X28958372Y-43415383D01*
X28958366Y-43415375D01*
X28944207Y-43401217D01*
X28931570Y-43386422D01*
X28919794Y-43370213D01*
X28883890Y-43340510D01*
X28879568Y-43336577D01*
X28593206Y-43050216D01*
X28583385Y-43037957D01*
X28583164Y-43038141D01*
X28578189Y-43032129D01*
X28578186Y-43032123D01*
X28554609Y-43009983D01*
X28527763Y-42984772D01*
X28506874Y-42963883D01*
X28506873Y-42963882D01*
X28506871Y-42963880D01*
X28501384Y-42959623D01*
X28496950Y-42955836D01*
X28462982Y-42923938D01*
X28462981Y-42923937D01*
X28462977Y-42923935D01*
X28445429Y-42914288D01*
X28429163Y-42903604D01*
X28426817Y-42901784D01*
X28413336Y-42891327D01*
X28413335Y-42891326D01*
X28413333Y-42891325D01*
X28370568Y-42872818D01*
X28365322Y-42870248D01*
X28324493Y-42847803D01*
X28324492Y-42847802D01*
X28305093Y-42842822D01*
X28286681Y-42836518D01*
X28268298Y-42828562D01*
X28268292Y-42828560D01*
X28222274Y-42821272D01*
X28216552Y-42820087D01*
X28171421Y-42808500D01*
X28171419Y-42808500D01*
X28151384Y-42808500D01*
X28131986Y-42806973D01*
X28124562Y-42805797D01*
X28112205Y-42803840D01*
X28112204Y-42803840D01*
X28065816Y-42808225D01*
X28059978Y-42808500D01*
X14292748Y-42808500D01*
X14225709Y-42788815D01*
X14200600Y-42767474D01*
X14194873Y-42761114D01*
X14194869Y-42761110D01*
X14041734Y-42649851D01*
X14041729Y-42649848D01*
X13868807Y-42572857D01*
X13868802Y-42572855D01*
X13723001Y-42541865D01*
X13683646Y-42533500D01*
X13494354Y-42533500D01*
X13461897Y-42540398D01*
X13309197Y-42572855D01*
X13309192Y-42572857D01*
X13136270Y-42649848D01*
X13136265Y-42649851D01*
X12983129Y-42761111D01*
X12856466Y-42901785D01*
X12761821Y-43065715D01*
X12761818Y-43065722D01*
X12729277Y-43165874D01*
X12703326Y-43245744D01*
X12683540Y-43434000D01*
X12703326Y-43622256D01*
X12703327Y-43622259D01*
X12761818Y-43802277D01*
X12761821Y-43802284D01*
X12856467Y-43966216D01*
X12958185Y-44079185D01*
X12983129Y-44106888D01*
X13136265Y-44218148D01*
X13136270Y-44218151D01*
X13309192Y-44295142D01*
X13309197Y-44295144D01*
X13494354Y-44334500D01*
X13494355Y-44334500D01*
X13683644Y-44334500D01*
X13683646Y-44334500D01*
X13868803Y-44295144D01*
X14041730Y-44218151D01*
X14194871Y-44106888D01*
X14197788Y-44103647D01*
X14200600Y-44100526D01*
X14260087Y-44063879D01*
X14292748Y-44059500D01*
X27710700Y-44059500D01*
X27777739Y-44079185D01*
X27823494Y-44131989D01*
X27834700Y-44183500D01*
X27834700Y-45159248D01*
X27815015Y-45226287D01*
X27762211Y-45272042D01*
X27723955Y-45282538D01*
X27677716Y-45287509D01*
X27542871Y-45337802D01*
X27542864Y-45337806D01*
X27427655Y-45424052D01*
X27427652Y-45424055D01*
X27365113Y-45507597D01*
X27309180Y-45549468D01*
X27239488Y-45554452D01*
X27182309Y-45524923D01*
X27171330Y-45514914D01*
X27171325Y-45514910D01*
X26986187Y-45400277D01*
X26986185Y-45400276D01*
X26783131Y-45321613D01*
X26783121Y-45321610D01*
X26710201Y-45307978D01*
X26710200Y-45307979D01*
X26710200Y-46140914D01*
X26698245Y-46128959D01*
X26585348Y-46071435D01*
X26491681Y-46056600D01*
X26428719Y-46056600D01*
X26335052Y-46071435D01*
X26222155Y-46128959D01*
X26210200Y-46140914D01*
X26210200Y-45307979D01*
X26210198Y-45307978D01*
X26137278Y-45321610D01*
X26137268Y-45321613D01*
X25934214Y-45400276D01*
X25934212Y-45400277D01*
X25749069Y-45514914D01*
X25749068Y-45514914D01*
X25588145Y-45661614D01*
X25559154Y-45700005D01*
X25503045Y-45741641D01*
X25433333Y-45746332D01*
X25372151Y-45712590D01*
X25361246Y-45700005D01*
X25332254Y-45661614D01*
X25171331Y-45514914D01*
X24986187Y-45400277D01*
X24986185Y-45400276D01*
X24783131Y-45321613D01*
X24783121Y-45321610D01*
X24710201Y-45307978D01*
X24710200Y-45307979D01*
X24710200Y-46140914D01*
X24698245Y-46128959D01*
X24585348Y-46071435D01*
X24491681Y-46056600D01*
X24428719Y-46056600D01*
X24335052Y-46071435D01*
X24222155Y-46128959D01*
X24210200Y-46140914D01*
X24210200Y-45307979D01*
X24210198Y-45307978D01*
X24137278Y-45321610D01*
X24137268Y-45321613D01*
X23934214Y-45400276D01*
X23934212Y-45400277D01*
X23749069Y-45514914D01*
X23749068Y-45514914D01*
X23588145Y-45661614D01*
X23559467Y-45699590D01*
X23503357Y-45741226D01*
X23433645Y-45745917D01*
X23372464Y-45712175D01*
X23361559Y-45699590D01*
X23352747Y-45687921D01*
X23332627Y-45661278D01*
X23171632Y-45514512D01*
X23171628Y-45514509D01*
X23171623Y-45514506D01*
X22986413Y-45399829D01*
X22986407Y-45399826D01*
X22901313Y-45366860D01*
X22783269Y-45321130D01*
X22569126Y-45281100D01*
X22351274Y-45281100D01*
X22137131Y-45321130D01*
X22094096Y-45337802D01*
X21933992Y-45399826D01*
X21933986Y-45399829D01*
X21748776Y-45514506D01*
X21748766Y-45514513D01*
X21587774Y-45661276D01*
X21558840Y-45699591D01*
X21502730Y-45741227D01*
X21433018Y-45745918D01*
X21371837Y-45712176D01*
X21360931Y-45699590D01*
X21332251Y-45661611D01*
X21332250Y-45661610D01*
X21171331Y-45514914D01*
X20986187Y-45400277D01*
X20986185Y-45400276D01*
X20783131Y-45321613D01*
X20783121Y-45321610D01*
X20710201Y-45307978D01*
X20710200Y-45307979D01*
X20710200Y-46140914D01*
X20698245Y-46128959D01*
X20585348Y-46071435D01*
X20491681Y-46056600D01*
X20428719Y-46056600D01*
X20335052Y-46071435D01*
X20222155Y-46128959D01*
X20210200Y-46140914D01*
X20210200Y-45307979D01*
X20210198Y-45307978D01*
X20137278Y-45321610D01*
X20137268Y-45321613D01*
X19934214Y-45400276D01*
X19934212Y-45400277D01*
X19749069Y-45514914D01*
X19749068Y-45514914D01*
X19588145Y-45661614D01*
X19559154Y-45700005D01*
X19503045Y-45741641D01*
X19433333Y-45746332D01*
X19372151Y-45712590D01*
X19361246Y-45700005D01*
X19332254Y-45661614D01*
X19171331Y-45514914D01*
X18986187Y-45400277D01*
X18986185Y-45400276D01*
X18783131Y-45321613D01*
X18783121Y-45321610D01*
X18710201Y-45307978D01*
X18710200Y-45307979D01*
X18710200Y-46140914D01*
X18698245Y-46128959D01*
X18585348Y-46071435D01*
X18491681Y-46056600D01*
X18428719Y-46056600D01*
X18335052Y-46071435D01*
X18222155Y-46128959D01*
X18210200Y-46140914D01*
X18210200Y-45307979D01*
X18210198Y-45307978D01*
X18137278Y-45321610D01*
X18137268Y-45321613D01*
X17934214Y-45400276D01*
X17934212Y-45400277D01*
X17749069Y-45514914D01*
X17749068Y-45514914D01*
X17588145Y-45661614D01*
X17559467Y-45699590D01*
X17503357Y-45741226D01*
X17433645Y-45745917D01*
X17372464Y-45712175D01*
X17361559Y-45699590D01*
X17352747Y-45687921D01*
X17332627Y-45661278D01*
X17171632Y-45514512D01*
X17171628Y-45514509D01*
X17171623Y-45514506D01*
X16986413Y-45399829D01*
X16986407Y-45399826D01*
X16901313Y-45366860D01*
X16783269Y-45321130D01*
X16569126Y-45281100D01*
X16351274Y-45281100D01*
X16137131Y-45321130D01*
X16094096Y-45337802D01*
X15933992Y-45399826D01*
X15933986Y-45399829D01*
X15748776Y-45514506D01*
X15748766Y-45514513D01*
X15587774Y-45661276D01*
X15456488Y-45835127D01*
X15359384Y-46030137D01*
X15359383Y-46030141D01*
X15301619Y-46233163D01*
X15299764Y-46239681D01*
X15279664Y-46456599D01*
X15279664Y-46456600D01*
X15299764Y-46673518D01*
X15299764Y-46673520D01*
X15299765Y-46673523D01*
X15329163Y-46776845D01*
X15359384Y-46883062D01*
X15456488Y-47078072D01*
X15587774Y-47251924D01*
X15748762Y-47398683D01*
X15748763Y-47398683D01*
X15748768Y-47398688D01*
X15769295Y-47411397D01*
X15815929Y-47463421D01*
X15827034Y-47532402D01*
X15799083Y-47596437D01*
X15796168Y-47599794D01*
X15726666Y-47676985D01*
X15632021Y-47840915D01*
X15632018Y-47840922D01*
X15596935Y-47948898D01*
X15573526Y-48020944D01*
X15553740Y-48209200D01*
X15573526Y-48397456D01*
X15573527Y-48397459D01*
X15632018Y-48577477D01*
X15632021Y-48577484D01*
X15726667Y-48741416D01*
X15782289Y-48803190D01*
X15853329Y-48882088D01*
X16006465Y-48993348D01*
X16006470Y-48993351D01*
X16179392Y-49070342D01*
X16179397Y-49070344D01*
X16364554Y-49109700D01*
X16364555Y-49109700D01*
X16553844Y-49109700D01*
X16553846Y-49109700D01*
X16739003Y-49070344D01*
X16911930Y-48993351D01*
X17065071Y-48882088D01*
X17191733Y-48741416D01*
X17286379Y-48577484D01*
X17344874Y-48397456D01*
X17364660Y-48209200D01*
X17344874Y-48020944D01*
X17286379Y-47840916D01*
X17191733Y-47676984D01*
X17122947Y-47600589D01*
X17092718Y-47537600D01*
X17101343Y-47468265D01*
X17146084Y-47414599D01*
X17149783Y-47412215D01*
X17171632Y-47398688D01*
X17332627Y-47251922D01*
X17361559Y-47213609D01*
X17417665Y-47171973D01*
X17487377Y-47167280D01*
X17548560Y-47201021D01*
X17559467Y-47213609D01*
X17588142Y-47251581D01*
X17588149Y-47251589D01*
X17749068Y-47398285D01*
X17934212Y-47512922D01*
X17934223Y-47512927D01*
X18137260Y-47591584D01*
X18210200Y-47605219D01*
X18210200Y-46772286D01*
X18222155Y-46784241D01*
X18335052Y-46841765D01*
X18428719Y-46856600D01*
X18491681Y-46856600D01*
X18585348Y-46841765D01*
X18698245Y-46784241D01*
X18710200Y-46772286D01*
X18710200Y-47605219D01*
X18783139Y-47591584D01*
X18986176Y-47512927D01*
X18986187Y-47512922D01*
X19171330Y-47398285D01*
X19171331Y-47398285D01*
X19332253Y-47251586D01*
X19361245Y-47213195D01*
X19417354Y-47171559D01*
X19487066Y-47166866D01*
X19548248Y-47200608D01*
X19559155Y-47213195D01*
X19588146Y-47251586D01*
X19749068Y-47398285D01*
X19934212Y-47512922D01*
X19934223Y-47512927D01*
X20137260Y-47591584D01*
X20210200Y-47605219D01*
X20210200Y-46772286D01*
X20222155Y-46784241D01*
X20335052Y-46841765D01*
X20428719Y-46856600D01*
X20491681Y-46856600D01*
X20585348Y-46841765D01*
X20698245Y-46784241D01*
X20710200Y-46772286D01*
X20710200Y-47605219D01*
X20783139Y-47591584D01*
X20986176Y-47512927D01*
X20986187Y-47512922D01*
X21171330Y-47398285D01*
X21171331Y-47398285D01*
X21332255Y-47251584D01*
X21360930Y-47213612D01*
X21417038Y-47171974D01*
X21486750Y-47167281D01*
X21547933Y-47201022D01*
X21558840Y-47213609D01*
X21577712Y-47238600D01*
X21587773Y-47251922D01*
X21748768Y-47398688D01*
X21748775Y-47398692D01*
X21748776Y-47398693D01*
X21933986Y-47513370D01*
X21933992Y-47513373D01*
X21956864Y-47522233D01*
X22137131Y-47592070D01*
X22351274Y-47632100D01*
X22351276Y-47632100D01*
X22569124Y-47632100D01*
X22569126Y-47632100D01*
X22783269Y-47592070D01*
X22986410Y-47513372D01*
X23171632Y-47398688D01*
X23332627Y-47251922D01*
X23361559Y-47213609D01*
X23417665Y-47171973D01*
X23487377Y-47167280D01*
X23548560Y-47201021D01*
X23559467Y-47213609D01*
X23588142Y-47251581D01*
X23588149Y-47251589D01*
X23749068Y-47398285D01*
X23934212Y-47512922D01*
X23934223Y-47512927D01*
X24137260Y-47591584D01*
X24210200Y-47605219D01*
X24210200Y-46772286D01*
X24222155Y-46784241D01*
X24335052Y-46841765D01*
X24428719Y-46856600D01*
X24491681Y-46856600D01*
X24585348Y-46841765D01*
X24698245Y-46784241D01*
X24710200Y-46772286D01*
X24710200Y-47605219D01*
X24783139Y-47591584D01*
X24986176Y-47512927D01*
X24986187Y-47512922D01*
X25171330Y-47398285D01*
X25171331Y-47398285D01*
X25332253Y-47251586D01*
X25361245Y-47213195D01*
X25417354Y-47171559D01*
X25487066Y-47166866D01*
X25548248Y-47200608D01*
X25559155Y-47213195D01*
X25588146Y-47251586D01*
X25749068Y-47398285D01*
X25934212Y-47512922D01*
X25934223Y-47512927D01*
X26137260Y-47591584D01*
X26210200Y-47605219D01*
X26210200Y-46772286D01*
X26222155Y-46784241D01*
X26335052Y-46841765D01*
X26428719Y-46856600D01*
X26491681Y-46856600D01*
X26585348Y-46841765D01*
X26698245Y-46784241D01*
X26710200Y-46772286D01*
X26710200Y-47605219D01*
X26783139Y-47591584D01*
X26986176Y-47512927D01*
X26986187Y-47512922D01*
X27171327Y-47398287D01*
X27182306Y-47388279D01*
X27245109Y-47357660D01*
X27314497Y-47365856D01*
X27365113Y-47405603D01*
X27427652Y-47489144D01*
X27427655Y-47489147D01*
X27542864Y-47575393D01*
X27542871Y-47575397D01*
X27677717Y-47625691D01*
X27677715Y-47625691D01*
X27711756Y-47629351D01*
X27776307Y-47656089D01*
X27816155Y-47713482D01*
X27822500Y-47752640D01*
X27822500Y-49451848D01*
X27802815Y-49518887D01*
X27750011Y-49564642D01*
X27711755Y-49575138D01*
X27665516Y-49580109D01*
X27530671Y-49630402D01*
X27530664Y-49630406D01*
X27415455Y-49716652D01*
X27415452Y-49716655D01*
X27352913Y-49800197D01*
X27296980Y-49842068D01*
X27227288Y-49847052D01*
X27170109Y-49817523D01*
X27159130Y-49807514D01*
X27159125Y-49807510D01*
X26973987Y-49692877D01*
X26973985Y-49692876D01*
X26770931Y-49614213D01*
X26770921Y-49614210D01*
X26698001Y-49600578D01*
X26698000Y-49600579D01*
X26698000Y-50433514D01*
X26686045Y-50421559D01*
X26573148Y-50364035D01*
X26479481Y-50349200D01*
X26416519Y-50349200D01*
X26322852Y-50364035D01*
X26209955Y-50421559D01*
X26198000Y-50433514D01*
X26198000Y-49600579D01*
X26197998Y-49600578D01*
X26125078Y-49614210D01*
X26125068Y-49614213D01*
X25922014Y-49692876D01*
X25922012Y-49692877D01*
X25736869Y-49807514D01*
X25736868Y-49807514D01*
X25575945Y-49954214D01*
X25546954Y-49992605D01*
X25490845Y-50034241D01*
X25421133Y-50038932D01*
X25359951Y-50005190D01*
X25349046Y-49992605D01*
X25320054Y-49954214D01*
X25159131Y-49807514D01*
X24973987Y-49692877D01*
X24973985Y-49692876D01*
X24770931Y-49614213D01*
X24770921Y-49614210D01*
X24698001Y-49600578D01*
X24698000Y-49600579D01*
X24698000Y-50433514D01*
X24686045Y-50421559D01*
X24573148Y-50364035D01*
X24479481Y-50349200D01*
X24416519Y-50349200D01*
X24322852Y-50364035D01*
X24209955Y-50421559D01*
X24198000Y-50433514D01*
X24198000Y-49600579D01*
X24197998Y-49600578D01*
X24125078Y-49614210D01*
X24125068Y-49614213D01*
X23922014Y-49692876D01*
X23922012Y-49692877D01*
X23736869Y-49807514D01*
X23736868Y-49807514D01*
X23575945Y-49954214D01*
X23547267Y-49992190D01*
X23491157Y-50033826D01*
X23421445Y-50038517D01*
X23360264Y-50004775D01*
X23349359Y-49992190D01*
X23333926Y-49971754D01*
X23320427Y-49953878D01*
X23290109Y-49926240D01*
X23159873Y-49807514D01*
X23159432Y-49807112D01*
X23159428Y-49807109D01*
X23159423Y-49807106D01*
X22974213Y-49692429D01*
X22974207Y-49692426D01*
X22889113Y-49659460D01*
X22771069Y-49613730D01*
X22556926Y-49573700D01*
X22339074Y-49573700D01*
X22124931Y-49613730D01*
X22085239Y-49629107D01*
X21921792Y-49692426D01*
X21921786Y-49692429D01*
X21736576Y-49807106D01*
X21736566Y-49807113D01*
X21575574Y-49953876D01*
X21444288Y-50127727D01*
X21347184Y-50322737D01*
X21287564Y-50532281D01*
X21267464Y-50749199D01*
X21267464Y-50749200D01*
X21287564Y-50966118D01*
X21287564Y-50966120D01*
X21287565Y-50966123D01*
X21319067Y-51076841D01*
X21347184Y-51175662D01*
X21444288Y-51370672D01*
X21575574Y-51544524D01*
X21635769Y-51599398D01*
X21736568Y-51691288D01*
X21763776Y-51708134D01*
X21810412Y-51760160D01*
X21822500Y-51813561D01*
X21822500Y-52674952D01*
X21820775Y-52690569D01*
X21821061Y-52690596D01*
X21820326Y-52698362D01*
X21822500Y-52767511D01*
X21822500Y-52797040D01*
X21822501Y-52797057D01*
X21823368Y-52803928D01*
X21823826Y-52809747D01*
X21825290Y-52856321D01*
X21825291Y-52856324D01*
X21830880Y-52875564D01*
X21834824Y-52894608D01*
X21837336Y-52914489D01*
X21847116Y-52939191D01*
X21854490Y-52957816D01*
X21856382Y-52963344D01*
X21869382Y-53008087D01*
X21878901Y-53024184D01*
X21879580Y-53025331D01*
X21888136Y-53042797D01*
X21895514Y-53061429D01*
X21921403Y-53097063D01*
X21922898Y-53099120D01*
X21926106Y-53104004D01*
X21949827Y-53144113D01*
X21949833Y-53144121D01*
X21963990Y-53158277D01*
X21976628Y-53173073D01*
X21988405Y-53189283D01*
X21988406Y-53189284D01*
X22024309Y-53218985D01*
X22028620Y-53222907D01*
X22190245Y-53384532D01*
X22252781Y-53447068D01*
X22286266Y-53508391D01*
X22289100Y-53534749D01*
X22289100Y-55431952D01*
X22286905Y-55455179D01*
X22285373Y-55463212D01*
X22288978Y-55520524D01*
X22289100Y-55524395D01*
X22289100Y-55542156D01*
X22291325Y-55559768D01*
X22291691Y-55563643D01*
X22295296Y-55620938D01*
X22297822Y-55628714D01*
X22302909Y-55651472D01*
X22303934Y-55659584D01*
X22303936Y-55659592D01*
X22325069Y-55712970D01*
X22326388Y-55716633D01*
X22344132Y-55771240D01*
X22348507Y-55778133D01*
X22359103Y-55798929D01*
X22362111Y-55806526D01*
X22362113Y-55806531D01*
X22395865Y-55852987D01*
X22398055Y-55856209D01*
X22428813Y-55904676D01*
X22434764Y-55910264D01*
X22450204Y-55927778D01*
X22455003Y-55934385D01*
X22499247Y-55970987D01*
X22502167Y-55973561D01*
X22544018Y-56012862D01*
X22551178Y-56016798D01*
X22570479Y-56029914D01*
X22576777Y-56035124D01*
X22576778Y-56035124D01*
X22576779Y-56035125D01*
X22628725Y-56059569D01*
X22632197Y-56061338D01*
X22682503Y-56088995D01*
X22682505Y-56088995D01*
X22682508Y-56088997D01*
X22687805Y-56090356D01*
X22690414Y-56091027D01*
X22712377Y-56098933D01*
X22719774Y-56102414D01*
X22776176Y-56113173D01*
X22779962Y-56114019D01*
X22835581Y-56128300D01*
X22843753Y-56128300D01*
X22866985Y-56130496D01*
X22868589Y-56130801D01*
X22875012Y-56132027D01*
X22932324Y-56128421D01*
X22936197Y-56128300D01*
X23283112Y-56128300D01*
X23350151Y-56147985D01*
X23388651Y-56187203D01*
X23417489Y-56233957D01*
X23511504Y-56327972D01*
X23544989Y-56389295D01*
X23540005Y-56458987D01*
X23511505Y-56503334D01*
X23417882Y-56596957D01*
X23325843Y-56746175D01*
X23325841Y-56746180D01*
X23270694Y-56912602D01*
X23270693Y-56912609D01*
X23260200Y-57015313D01*
X23260200Y-57077800D01*
X25660199Y-57077800D01*
X25660199Y-57015328D01*
X25660198Y-57015313D01*
X25649705Y-56912602D01*
X25594558Y-56746180D01*
X25594556Y-56746175D01*
X25502515Y-56596954D01*
X25444942Y-56539381D01*
X25411457Y-56478058D01*
X25416441Y-56408366D01*
X25458313Y-56352433D01*
X25523777Y-56328016D01*
X25532623Y-56327700D01*
X26585112Y-56327700D01*
X26652151Y-56347385D01*
X26690651Y-56386604D01*
X26720066Y-56434294D01*
X26738506Y-56501686D01*
X26720066Y-56564486D01*
X26652789Y-56673559D01*
X26652786Y-56673566D01*
X26597601Y-56840103D01*
X26597601Y-56840104D01*
X26597600Y-56840104D01*
X26587100Y-56942883D01*
X26587100Y-57567901D01*
X26587101Y-57567919D01*
X26597600Y-57670696D01*
X26597601Y-57670699D01*
X26652785Y-57837231D01*
X26652787Y-57837236D01*
X26744889Y-57986557D01*
X26838551Y-58080219D01*
X26872036Y-58141542D01*
X26867052Y-58211234D01*
X26838551Y-58255581D01*
X26744889Y-58349242D01*
X26653384Y-58497597D01*
X26601436Y-58544321D01*
X26547845Y-58556500D01*
X25147204Y-58556500D01*
X25080165Y-58536815D01*
X25034410Y-58484011D01*
X25024466Y-58414853D01*
X25053491Y-58351297D01*
X25108200Y-58314794D01*
X25229319Y-58274658D01*
X25229324Y-58274656D01*
X25378545Y-58182615D01*
X25502515Y-58058645D01*
X25594556Y-57909424D01*
X25594558Y-57909419D01*
X25649705Y-57742997D01*
X25649706Y-57742990D01*
X25660199Y-57640286D01*
X25660200Y-57640273D01*
X25660200Y-57577800D01*
X23260201Y-57577800D01*
X23260201Y-57640286D01*
X23270694Y-57742997D01*
X23325841Y-57909419D01*
X23325843Y-57909424D01*
X23417884Y-58058645D01*
X23541854Y-58182615D01*
X23691075Y-58274656D01*
X23691080Y-58274658D01*
X23812202Y-58314794D01*
X23869647Y-58354567D01*
X23896470Y-58419082D01*
X23884155Y-58487858D01*
X23836612Y-58539058D01*
X23773198Y-58556500D01*
X23436748Y-58556500D01*
X23369709Y-58536815D01*
X23344600Y-58515474D01*
X23338873Y-58509114D01*
X23338869Y-58509110D01*
X23185734Y-58397851D01*
X23185729Y-58397848D01*
X23012807Y-58320857D01*
X23012802Y-58320855D01*
X22867001Y-58289865D01*
X22827646Y-58281500D01*
X22638354Y-58281500D01*
X22605897Y-58288398D01*
X22453197Y-58320855D01*
X22453192Y-58320857D01*
X22280270Y-58397848D01*
X22280265Y-58397851D01*
X22127129Y-58509111D01*
X22000466Y-58649785D01*
X21905821Y-58813715D01*
X21905818Y-58813722D01*
X21863862Y-58942851D01*
X21847326Y-58993744D01*
X21827540Y-59182000D01*
X21847326Y-59370256D01*
X21847327Y-59370259D01*
X21905818Y-59550277D01*
X21905821Y-59550284D01*
X22000467Y-59714216D01*
X22121401Y-59848526D01*
X22131478Y-59859718D01*
X22129294Y-59861684D01*
X22159114Y-59910608D01*
X22157450Y-59980458D01*
X22118287Y-60038320D01*
X22054058Y-60065823D01*
X22039339Y-60066700D01*
X18532919Y-60066700D01*
X18465880Y-60047015D01*
X18420125Y-59994211D01*
X18410181Y-59925053D01*
X18439206Y-59861497D01*
X18473857Y-59834642D01*
X18473462Y-59833932D01*
X18839467Y-59630068D01*
X18839474Y-59630064D01*
X19182756Y-59394911D01*
X19182765Y-59394904D01*
X19470454Y-59156008D01*
X19470454Y-59156007D01*
X17694563Y-57380116D01*
X17781067Y-57315360D01*
X17983360Y-57113067D01*
X18048116Y-57026563D01*
X19824007Y-58802454D01*
X19824008Y-58802454D01*
X20062904Y-58514765D01*
X20062911Y-58514756D01*
X20298064Y-58171474D01*
X20298068Y-58171467D01*
X20500532Y-57807974D01*
X20500546Y-57807946D01*
X20668601Y-57427337D01*
X20668604Y-57427330D01*
X20800839Y-57032796D01*
X20896102Y-56627761D01*
X20896104Y-56627753D01*
X20953588Y-56215660D01*
X20972806Y-55800000D01*
X20953588Y-55384339D01*
X20896104Y-54972246D01*
X20896102Y-54972238D01*
X20800839Y-54567203D01*
X20668604Y-54172669D01*
X20668601Y-54172662D01*
X20500546Y-53792053D01*
X20500532Y-53792025D01*
X20298068Y-53428532D01*
X20298064Y-53428525D01*
X20062911Y-53085243D01*
X20062904Y-53085234D01*
X19824009Y-52797544D01*
X19824007Y-52797544D01*
X18048115Y-54573436D01*
X17983360Y-54486933D01*
X17781067Y-54284640D01*
X17694562Y-54219882D01*
X19470454Y-52443991D01*
X19470454Y-52443989D01*
X19182765Y-52205095D01*
X19182756Y-52205088D01*
X18839474Y-51969935D01*
X18839467Y-51969931D01*
X18475974Y-51767467D01*
X18475946Y-51767453D01*
X18095337Y-51599398D01*
X18095330Y-51599395D01*
X17700796Y-51467160D01*
X17295761Y-51371897D01*
X17295753Y-51371895D01*
X16883660Y-51314411D01*
X16468000Y-51295193D01*
X16052339Y-51314411D01*
X15640246Y-51371895D01*
X15640238Y-51371897D01*
X15235203Y-51467160D01*
X14840669Y-51599395D01*
X14840662Y-51599398D01*
X14460053Y-51767453D01*
X14460025Y-51767467D01*
X14096532Y-51969931D01*
X14096525Y-51969935D01*
X13753243Y-52205088D01*
X13753234Y-52205095D01*
X13465544Y-52443989D01*
X13465544Y-52443991D01*
X15241436Y-54219883D01*
X15154933Y-54284640D01*
X14952640Y-54486933D01*
X14887883Y-54573436D01*
X13111991Y-52797544D01*
X13111989Y-52797544D01*
X12873095Y-53085234D01*
X12873088Y-53085243D01*
X12637935Y-53428525D01*
X12637931Y-53428532D01*
X12435467Y-53792025D01*
X12435460Y-53792038D01*
X12431934Y-53800026D01*
X12386847Y-53853402D01*
X12320060Y-53873928D01*
X12252778Y-53855089D01*
X12206363Y-53802865D01*
X12194500Y-53749938D01*
X12194500Y-39638813D01*
X15509100Y-39638813D01*
X15515513Y-39709392D01*
X15566122Y-39871806D01*
X15654130Y-40017388D01*
X15774411Y-40137669D01*
X15774413Y-40137670D01*
X15774415Y-40137672D01*
X15919994Y-40225678D01*
X16082404Y-40276286D01*
X16152984Y-40282700D01*
X16152987Y-40282700D01*
X16816213Y-40282700D01*
X16816216Y-40282700D01*
X16886796Y-40276286D01*
X17007592Y-40238645D01*
X17036255Y-40229714D01*
X17073144Y-40224100D01*
X22372173Y-40224100D01*
X22439212Y-40243785D01*
X22473748Y-40276977D01*
X22552357Y-40389243D01*
X22608905Y-40470001D01*
X22775999Y-40637095D01*
X22872784Y-40704865D01*
X22969565Y-40772632D01*
X22969567Y-40772633D01*
X22969570Y-40772635D01*
X23183737Y-40872503D01*
X23411992Y-40933663D01*
X23600318Y-40950139D01*
X23647399Y-40954259D01*
X23647400Y-40954259D01*
X23647401Y-40954259D01*
X23686634Y-40950826D01*
X23882808Y-40933663D01*
X24111063Y-40872503D01*
X24325230Y-40772635D01*
X24518801Y-40637095D01*
X24685895Y-40470001D01*
X24815825Y-40284442D01*
X24870402Y-40240817D01*
X24939900Y-40233623D01*
X25002255Y-40265146D01*
X25018975Y-40284442D01*
X25092357Y-40389243D01*
X25148905Y-40470001D01*
X25315999Y-40637095D01*
X25412784Y-40704865D01*
X25509565Y-40772632D01*
X25509567Y-40772633D01*
X25509570Y-40772635D01*
X25723737Y-40872503D01*
X25951992Y-40933663D01*
X26140318Y-40950139D01*
X26187399Y-40954259D01*
X26187400Y-40954259D01*
X26187401Y-40954259D01*
X26226634Y-40950826D01*
X26422808Y-40933663D01*
X26651063Y-40872503D01*
X26865230Y-40772635D01*
X27058801Y-40637095D01*
X27225895Y-40470001D01*
X27361052Y-40276977D01*
X27415629Y-40233352D01*
X27462627Y-40224100D01*
X32959839Y-40224100D01*
X33026878Y-40243785D01*
X33072633Y-40296589D01*
X33082577Y-40365747D01*
X33053552Y-40429303D01*
X33036001Y-40445953D01*
X32838809Y-40599433D01*
X32838799Y-40599442D01*
X32670440Y-40782327D01*
X32534476Y-40990437D01*
X32434621Y-41218084D01*
X32373596Y-41459067D01*
X32353069Y-41706794D01*
X32353069Y-41706805D01*
X32373596Y-41954532D01*
X32434621Y-42195515D01*
X32534476Y-42423162D01*
X32670440Y-42631272D01*
X32838799Y-42814157D01*
X32838809Y-42814166D01*
X32967446Y-42914288D01*
X33031165Y-42963883D01*
X33034966Y-42966841D01*
X33034971Y-42966845D01*
X33217679Y-43065722D01*
X33253596Y-43085159D01*
X33253599Y-43085160D01*
X33488708Y-43165873D01*
X33488710Y-43165873D01*
X33488712Y-43165874D01*
X33733907Y-43206790D01*
X33733908Y-43206790D01*
X33982492Y-43206790D01*
X33982493Y-43206790D01*
X34227688Y-43165874D01*
X34462804Y-43085159D01*
X34681429Y-42966845D01*
X34877597Y-42814161D01*
X35045960Y-42631271D01*
X35181923Y-42423163D01*
X35281779Y-42195515D01*
X35342803Y-41954536D01*
X35363331Y-41706800D01*
X35342803Y-41459064D01*
X35281779Y-41218085D01*
X35181923Y-40990437D01*
X35045960Y-40782329D01*
X35045959Y-40782327D01*
X34877600Y-40599442D01*
X34877590Y-40599433D01*
X34680399Y-40445953D01*
X34639586Y-40389243D01*
X34635911Y-40319470D01*
X34670543Y-40258787D01*
X34732484Y-40226460D01*
X34756561Y-40224100D01*
X35959857Y-40224100D01*
X35975477Y-40225824D01*
X35975504Y-40225539D01*
X35983260Y-40226271D01*
X35983267Y-40226273D01*
X36052414Y-40224100D01*
X36081950Y-40224100D01*
X36088828Y-40223230D01*
X36094641Y-40222772D01*
X36141227Y-40221309D01*
X36160469Y-40215717D01*
X36179512Y-40211774D01*
X36199392Y-40209264D01*
X36242722Y-40192107D01*
X36248246Y-40190217D01*
X36251996Y-40189127D01*
X36292990Y-40177218D01*
X36310229Y-40167022D01*
X36327703Y-40158462D01*
X36346327Y-40151088D01*
X36346327Y-40151087D01*
X36346332Y-40151086D01*
X36384049Y-40123682D01*
X36388905Y-40120492D01*
X36429020Y-40096770D01*
X36443189Y-40082599D01*
X36457979Y-40069968D01*
X36474187Y-40058194D01*
X36503899Y-40022276D01*
X36507812Y-40017976D01*
X36723983Y-39801805D01*
X37433571Y-39801805D01*
X37454090Y-40049446D01*
X37454092Y-40049457D01*
X37515095Y-40290350D01*
X37614916Y-40517920D01*
X37715132Y-40671312D01*
X38375854Y-40010590D01*
X38414590Y-40104106D01*
X38510674Y-40229326D01*
X38635894Y-40325410D01*
X38729408Y-40364144D01*
X38068507Y-41025045D01*
X38068507Y-41025046D01*
X38115244Y-41061423D01*
X38333795Y-41179698D01*
X38333804Y-41179701D01*
X38568832Y-41260387D01*
X38813949Y-41301290D01*
X39062451Y-41301290D01*
X39307567Y-41260387D01*
X39542595Y-41179701D01*
X39542603Y-41179698D01*
X39761157Y-41061422D01*
X39807891Y-41025045D01*
X39807892Y-41025044D01*
X39146992Y-40364144D01*
X39240506Y-40325410D01*
X39365726Y-40229326D01*
X39461810Y-40104107D01*
X39500544Y-40010591D01*
X40161266Y-40671313D01*
X40261481Y-40517925D01*
X40361304Y-40290350D01*
X40422307Y-40049457D01*
X40422309Y-40049446D01*
X40442829Y-39801805D01*
X40442829Y-39801794D01*
X40422309Y-39554153D01*
X40422307Y-39554142D01*
X40361304Y-39313249D01*
X40261483Y-39085679D01*
X40161266Y-38932285D01*
X39500544Y-39593007D01*
X39461810Y-39499494D01*
X39365726Y-39374274D01*
X39240506Y-39278190D01*
X39146991Y-39239454D01*
X39807891Y-38578553D01*
X39761152Y-38542174D01*
X39542604Y-38423901D01*
X39542595Y-38423898D01*
X39307567Y-38343212D01*
X39062451Y-38302310D01*
X38813949Y-38302310D01*
X38568832Y-38343212D01*
X38333804Y-38423898D01*
X38333795Y-38423901D01*
X38115244Y-38542176D01*
X38068507Y-38578552D01*
X38068507Y-38578553D01*
X38729408Y-39239454D01*
X38635894Y-39278190D01*
X38510674Y-39374274D01*
X38414590Y-39499493D01*
X38375854Y-39593008D01*
X37715131Y-38932285D01*
X37614917Y-39085676D01*
X37515095Y-39313249D01*
X37454092Y-39554142D01*
X37454090Y-39554153D01*
X37433571Y-39801794D01*
X37433571Y-39801805D01*
X36723983Y-39801805D01*
X36832785Y-39693003D01*
X36845041Y-39683187D01*
X36844858Y-39682965D01*
X36850875Y-39677987D01*
X36850874Y-39677987D01*
X36850877Y-39677986D01*
X36887663Y-39638813D01*
X36898227Y-39627564D01*
X36908671Y-39617118D01*
X36919120Y-39606671D01*
X36923379Y-39601178D01*
X36927152Y-39596761D01*
X36959062Y-39562782D01*
X36968713Y-39545224D01*
X36979396Y-39528961D01*
X36991673Y-39513136D01*
X37010185Y-39470353D01*
X37012738Y-39465141D01*
X37035197Y-39424292D01*
X37040180Y-39404880D01*
X37046481Y-39386480D01*
X37054437Y-39368096D01*
X37061729Y-39322052D01*
X37062906Y-39316371D01*
X37074500Y-39271219D01*
X37074500Y-39251183D01*
X37076027Y-39231782D01*
X37079160Y-39212004D01*
X37074775Y-39165615D01*
X37074500Y-39159777D01*
X37074500Y-35991805D01*
X37433069Y-35991805D01*
X37453596Y-36239532D01*
X37514621Y-36480515D01*
X37614476Y-36708162D01*
X37750440Y-36916272D01*
X37918799Y-37099157D01*
X37918809Y-37099166D01*
X38114966Y-37251841D01*
X38114971Y-37251845D01*
X38237944Y-37318395D01*
X38333596Y-37370159D01*
X38333599Y-37370160D01*
X38568708Y-37450873D01*
X38568710Y-37450873D01*
X38568712Y-37450874D01*
X38813907Y-37491790D01*
X38813908Y-37491790D01*
X39062492Y-37491790D01*
X39062493Y-37491790D01*
X39307688Y-37450874D01*
X39542804Y-37370159D01*
X39761429Y-37251845D01*
X39957597Y-37099161D01*
X40125960Y-36916271D01*
X40261923Y-36708163D01*
X40361779Y-36480515D01*
X40422803Y-36239536D01*
X40431926Y-36129431D01*
X40443331Y-35991805D01*
X40443331Y-35991794D01*
X40422803Y-35744067D01*
X40422803Y-35744064D01*
X40361779Y-35503085D01*
X40261923Y-35275437D01*
X40236448Y-35236444D01*
X40125959Y-35067327D01*
X39957600Y-34884442D01*
X39957590Y-34884433D01*
X39761433Y-34731758D01*
X39761428Y-34731754D01*
X39542805Y-34613441D01*
X39542800Y-34613439D01*
X39307691Y-34532726D01*
X39123791Y-34502039D01*
X39062493Y-34491810D01*
X38813907Y-34491810D01*
X38764868Y-34499993D01*
X38568708Y-34532726D01*
X38333599Y-34613439D01*
X38333594Y-34613441D01*
X38114971Y-34731754D01*
X38114966Y-34731758D01*
X37918809Y-34884433D01*
X37918799Y-34884442D01*
X37750440Y-35067327D01*
X37614476Y-35275437D01*
X37514621Y-35503084D01*
X37453596Y-35744067D01*
X37433069Y-35991794D01*
X37433069Y-35991805D01*
X37074500Y-35991805D01*
X37074500Y-32181805D01*
X37433571Y-32181805D01*
X37454090Y-32429446D01*
X37454092Y-32429457D01*
X37515095Y-32670350D01*
X37614916Y-32897920D01*
X37715132Y-33051312D01*
X38375854Y-32390590D01*
X38414590Y-32484106D01*
X38510674Y-32609326D01*
X38635894Y-32705410D01*
X38729408Y-32744144D01*
X38068507Y-33405045D01*
X38068507Y-33405046D01*
X38115244Y-33441423D01*
X38333795Y-33559698D01*
X38333804Y-33559701D01*
X38568832Y-33640387D01*
X38813949Y-33681290D01*
X39062451Y-33681290D01*
X39307567Y-33640387D01*
X39542595Y-33559701D01*
X39542603Y-33559698D01*
X39761157Y-33441422D01*
X39807891Y-33405045D01*
X39807892Y-33405044D01*
X39146992Y-32744144D01*
X39240506Y-32705410D01*
X39365726Y-32609326D01*
X39461810Y-32484107D01*
X39500544Y-32390591D01*
X40161266Y-33051313D01*
X40261481Y-32897925D01*
X40361304Y-32670350D01*
X40422307Y-32429457D01*
X40422309Y-32429446D01*
X40442829Y-32181805D01*
X40442829Y-32181794D01*
X40422309Y-31934153D01*
X40422307Y-31934142D01*
X40361304Y-31693249D01*
X40261483Y-31465679D01*
X40161266Y-31312285D01*
X39500544Y-31973007D01*
X39461810Y-31879494D01*
X39365726Y-31754274D01*
X39240506Y-31658190D01*
X39146991Y-31619454D01*
X39807891Y-30958553D01*
X39761152Y-30922174D01*
X39542604Y-30803901D01*
X39542595Y-30803898D01*
X39307567Y-30723212D01*
X39062451Y-30682310D01*
X38813949Y-30682310D01*
X38568832Y-30723212D01*
X38333804Y-30803898D01*
X38333795Y-30803901D01*
X38115244Y-30922176D01*
X38068507Y-30958552D01*
X38068507Y-30958553D01*
X38729408Y-31619454D01*
X38635894Y-31658190D01*
X38510674Y-31754274D01*
X38414590Y-31879493D01*
X38375854Y-31973008D01*
X37715131Y-31312285D01*
X37614917Y-31465676D01*
X37515095Y-31693249D01*
X37454092Y-31934142D01*
X37454090Y-31934153D01*
X37433571Y-32181794D01*
X37433571Y-32181805D01*
X37074500Y-32181805D01*
X37074500Y-28371805D01*
X37433069Y-28371805D01*
X37453596Y-28619532D01*
X37514621Y-28860515D01*
X37614476Y-29088162D01*
X37750440Y-29296272D01*
X37918799Y-29479157D01*
X37918809Y-29479166D01*
X38023533Y-29560676D01*
X38114971Y-29631845D01*
X38333596Y-29750159D01*
X38333599Y-29750160D01*
X38568708Y-29830873D01*
X38568710Y-29830873D01*
X38568712Y-29830874D01*
X38813907Y-29871790D01*
X38813908Y-29871790D01*
X39062492Y-29871790D01*
X39062493Y-29871790D01*
X39307688Y-29830874D01*
X39542804Y-29750159D01*
X39761429Y-29631845D01*
X39957597Y-29479161D01*
X40125960Y-29296271D01*
X40261923Y-29088163D01*
X40361779Y-28860515D01*
X40422803Y-28619536D01*
X40431926Y-28509431D01*
X40443331Y-28371805D01*
X40443331Y-28371794D01*
X40424629Y-28146099D01*
X40422803Y-28124064D01*
X40361779Y-27883085D01*
X40261923Y-27655437D01*
X40208823Y-27574161D01*
X40125959Y-27447327D01*
X39957600Y-27264442D01*
X39957590Y-27264433D01*
X39761433Y-27111758D01*
X39761428Y-27111754D01*
X39542805Y-26993441D01*
X39542800Y-26993439D01*
X39307691Y-26912726D01*
X39089292Y-26876282D01*
X39062493Y-26871810D01*
X38813907Y-26871810D01*
X38787108Y-26876282D01*
X38568708Y-26912726D01*
X38333599Y-26993439D01*
X38333594Y-26993441D01*
X38114971Y-27111754D01*
X38114966Y-27111758D01*
X37918809Y-27264433D01*
X37918799Y-27264442D01*
X37750440Y-27447327D01*
X37614476Y-27655437D01*
X37514621Y-27883084D01*
X37453596Y-28124067D01*
X37433069Y-28371794D01*
X37433069Y-28371805D01*
X37074500Y-28371805D01*
X37074500Y-27159142D01*
X37076224Y-27143522D01*
X37075939Y-27143495D01*
X37076673Y-27135733D01*
X37074500Y-27066572D01*
X37074500Y-27037056D01*
X37074500Y-27037050D01*
X37073631Y-27030179D01*
X37073173Y-27024352D01*
X37071710Y-26977773D01*
X37066119Y-26958530D01*
X37062173Y-26939478D01*
X37059664Y-26919608D01*
X37042504Y-26876267D01*
X37040624Y-26870779D01*
X37027618Y-26826010D01*
X37017422Y-26808770D01*
X37008861Y-26791294D01*
X37001487Y-26772670D01*
X37001486Y-26772668D01*
X36974079Y-26734945D01*
X36970888Y-26730086D01*
X36947172Y-26689983D01*
X36947165Y-26689974D01*
X36933006Y-26675815D01*
X36920368Y-26661019D01*
X36911345Y-26648600D01*
X36908594Y-26644813D01*
X36872688Y-26615109D01*
X36868376Y-26611186D01*
X36340203Y-26083012D01*
X36330380Y-26070750D01*
X36330159Y-26070934D01*
X36325186Y-26064923D01*
X36321850Y-26061790D01*
X36274764Y-26017573D01*
X36264319Y-26007128D01*
X36253875Y-25996683D01*
X36248386Y-25992425D01*
X36243961Y-25988647D01*
X36209982Y-25956738D01*
X36209980Y-25956736D01*
X36209977Y-25956735D01*
X36192429Y-25947088D01*
X36176163Y-25936404D01*
X36160333Y-25924125D01*
X36117568Y-25905618D01*
X36112322Y-25903048D01*
X36071493Y-25880603D01*
X36071492Y-25880602D01*
X36052093Y-25875622D01*
X36033681Y-25869318D01*
X36015298Y-25861362D01*
X36015292Y-25861360D01*
X35969274Y-25854072D01*
X35963552Y-25852887D01*
X35918421Y-25841300D01*
X35918419Y-25841300D01*
X35898384Y-25841300D01*
X35878986Y-25839773D01*
X35871562Y-25838597D01*
X35859205Y-25836640D01*
X35859204Y-25836640D01*
X35812816Y-25841025D01*
X35806978Y-25841300D01*
X35302793Y-25841300D01*
X35235754Y-25821615D01*
X35189999Y-25768811D01*
X35189238Y-25767111D01*
X35181925Y-25750440D01*
X35045959Y-25542327D01*
X34877600Y-25359442D01*
X34877590Y-25359433D01*
X34681433Y-25206758D01*
X34681428Y-25206754D01*
X34462805Y-25088441D01*
X34462800Y-25088439D01*
X34227691Y-25007726D01*
X34043791Y-24977039D01*
X33982493Y-24966810D01*
X33733907Y-24966810D01*
X33684868Y-24974993D01*
X33488708Y-25007726D01*
X33253599Y-25088439D01*
X33253594Y-25088441D01*
X33034971Y-25206754D01*
X33034966Y-25206758D01*
X32838809Y-25359433D01*
X32838799Y-25359442D01*
X32670440Y-25542327D01*
X32534476Y-25750437D01*
X32434621Y-25978084D01*
X32373596Y-26219067D01*
X32353069Y-26466794D01*
X32353069Y-26466805D01*
X32373596Y-26714532D01*
X32373596Y-26714535D01*
X32373597Y-26714536D01*
X32414557Y-26876282D01*
X32434621Y-26955515D01*
X32534476Y-27183162D01*
X32670440Y-27391272D01*
X32829700Y-27564273D01*
X32838803Y-27574161D01*
X33034971Y-27726845D01*
X33253596Y-27845159D01*
X33253599Y-27845160D01*
X33488708Y-27925873D01*
X33488710Y-27925873D01*
X33488712Y-27925874D01*
X33733907Y-27966790D01*
X33733908Y-27966790D01*
X33982492Y-27966790D01*
X33982493Y-27966790D01*
X34227688Y-27925874D01*
X34462804Y-27845159D01*
X34681429Y-27726845D01*
X34877597Y-27574161D01*
X35045960Y-27391271D01*
X35181923Y-27183163D01*
X35181925Y-27183159D01*
X35189238Y-27166489D01*
X35234194Y-27113003D01*
X35300930Y-27092314D01*
X35302793Y-27092300D01*
X35528948Y-27092300D01*
X35595987Y-27111985D01*
X35616629Y-27128619D01*
X35787181Y-27299171D01*
X35820666Y-27360494D01*
X35823500Y-27386852D01*
X35823500Y-38849100D01*
X35803815Y-38916139D01*
X35751011Y-38961894D01*
X35699500Y-38973100D01*
X35175897Y-38973100D01*
X35108858Y-38953415D01*
X35063103Y-38900611D01*
X35053159Y-38831453D01*
X35072088Y-38781279D01*
X35107421Y-38727197D01*
X35181923Y-38613163D01*
X35281779Y-38385515D01*
X35342803Y-38144536D01*
X35355707Y-37988813D01*
X35363331Y-37896805D01*
X35363331Y-37896794D01*
X35342803Y-37649067D01*
X35342803Y-37649064D01*
X35281779Y-37408085D01*
X35181923Y-37180437D01*
X35128823Y-37099161D01*
X35045959Y-36972327D01*
X34877600Y-36789442D01*
X34877590Y-36789433D01*
X34681433Y-36636758D01*
X34681428Y-36636754D01*
X34462805Y-36518441D01*
X34462800Y-36518439D01*
X34227691Y-36437726D01*
X34043791Y-36407039D01*
X33982493Y-36396810D01*
X33733907Y-36396810D01*
X33684868Y-36404993D01*
X33488708Y-36437726D01*
X33253599Y-36518439D01*
X33253594Y-36518441D01*
X33034971Y-36636754D01*
X33034966Y-36636758D01*
X32838809Y-36789433D01*
X32838799Y-36789442D01*
X32670440Y-36972327D01*
X32534476Y-37180437D01*
X32434621Y-37408084D01*
X32373596Y-37649067D01*
X32353069Y-37896794D01*
X32353069Y-37896805D01*
X32373596Y-38144532D01*
X32434621Y-38385515D01*
X32534476Y-38613162D01*
X32644312Y-38781279D01*
X32664499Y-38848168D01*
X32645319Y-38915354D01*
X32592861Y-38961504D01*
X32540503Y-38973100D01*
X27462627Y-38973100D01*
X27395588Y-38953415D01*
X27361052Y-38920223D01*
X27225894Y-38727197D01*
X27058802Y-38560106D01*
X27058801Y-38560105D01*
X26872805Y-38429869D01*
X26829181Y-38375292D01*
X26821988Y-38305793D01*
X26853510Y-38243439D01*
X26872805Y-38226719D01*
X27058482Y-38096705D01*
X27225505Y-37929682D01*
X27361000Y-37736178D01*
X27460829Y-37522092D01*
X27460832Y-37522086D01*
X27518036Y-37308600D01*
X26621086Y-37308600D01*
X26646893Y-37268444D01*
X26687400Y-37130489D01*
X26687400Y-36986711D01*
X26646893Y-36848756D01*
X26621086Y-36808600D01*
X27518036Y-36808600D01*
X27518035Y-36808599D01*
X27460832Y-36595113D01*
X27460829Y-36595107D01*
X27361000Y-36381022D01*
X27360999Y-36381020D01*
X27225513Y-36187526D01*
X27225508Y-36187520D01*
X27058478Y-36020490D01*
X26872805Y-35890479D01*
X26829180Y-35835902D01*
X26821988Y-35766404D01*
X26853510Y-35704049D01*
X26872806Y-35687330D01*
X27016392Y-35586790D01*
X27058801Y-35557095D01*
X27225895Y-35390001D01*
X27361435Y-35196430D01*
X27461303Y-34982263D01*
X27522463Y-34754008D01*
X27543059Y-34518600D01*
X27522463Y-34283192D01*
X27469842Y-34086805D01*
X32353069Y-34086805D01*
X32373596Y-34334532D01*
X32373596Y-34334535D01*
X32373597Y-34334536D01*
X32415161Y-34498669D01*
X32434621Y-34575515D01*
X32534476Y-34803162D01*
X32670440Y-35011272D01*
X32838799Y-35194157D01*
X32838809Y-35194166D01*
X32903527Y-35244538D01*
X33034971Y-35346845D01*
X33253596Y-35465159D01*
X33253599Y-35465160D01*
X33488708Y-35545873D01*
X33488710Y-35545873D01*
X33488712Y-35545874D01*
X33733907Y-35586790D01*
X33733908Y-35586790D01*
X33982492Y-35586790D01*
X33982493Y-35586790D01*
X34227688Y-35545874D01*
X34462804Y-35465159D01*
X34681429Y-35346845D01*
X34877597Y-35194161D01*
X35045960Y-35011271D01*
X35181923Y-34803163D01*
X35281779Y-34575515D01*
X35342803Y-34334536D01*
X35363331Y-34086800D01*
X35360705Y-34055113D01*
X35345931Y-33876819D01*
X35342803Y-33839064D01*
X35281779Y-33598085D01*
X35181923Y-33370437D01*
X35115342Y-33268526D01*
X35045959Y-33162327D01*
X34877600Y-32979442D01*
X34877590Y-32979433D01*
X34681433Y-32826758D01*
X34681428Y-32826754D01*
X34462805Y-32708441D01*
X34462800Y-32708439D01*
X34227691Y-32627726D01*
X34043791Y-32597039D01*
X33982493Y-32586810D01*
X33733907Y-32586810D01*
X33684868Y-32594993D01*
X33488708Y-32627726D01*
X33253599Y-32708439D01*
X33253594Y-32708441D01*
X33034971Y-32826754D01*
X33034966Y-32826758D01*
X32838809Y-32979433D01*
X32838799Y-32979442D01*
X32670440Y-33162327D01*
X32534476Y-33370437D01*
X32434621Y-33598084D01*
X32373596Y-33839067D01*
X32353069Y-34086794D01*
X32353069Y-34086805D01*
X27469842Y-34086805D01*
X27461303Y-34054937D01*
X27361435Y-33840771D01*
X27356131Y-33833195D01*
X27225894Y-33647197D01*
X27058802Y-33480106D01*
X27058796Y-33480101D01*
X26873242Y-33350175D01*
X26829617Y-33295598D01*
X26822423Y-33226100D01*
X26853946Y-33163745D01*
X26873242Y-33147025D01*
X26925116Y-33110702D01*
X27058801Y-33017095D01*
X27225895Y-32850001D01*
X27361435Y-32656430D01*
X27461303Y-32442263D01*
X27522463Y-32214008D01*
X27543059Y-31978600D01*
X27522463Y-31743192D01*
X27461303Y-31514937D01*
X27361435Y-31300771D01*
X27356131Y-31293195D01*
X27225894Y-31107197D01*
X27058802Y-30940106D01*
X27058796Y-30940101D01*
X26873242Y-30810175D01*
X26829617Y-30755598D01*
X26822423Y-30686100D01*
X26853946Y-30623745D01*
X26873242Y-30607025D01*
X26991161Y-30524457D01*
X27058801Y-30477095D01*
X27225895Y-30310001D01*
X27249139Y-30276805D01*
X32353571Y-30276805D01*
X32374090Y-30524446D01*
X32374092Y-30524457D01*
X32435095Y-30765350D01*
X32534916Y-30992920D01*
X32635132Y-31146312D01*
X33295854Y-30485590D01*
X33334590Y-30579106D01*
X33430674Y-30704326D01*
X33555894Y-30800410D01*
X33649408Y-30839144D01*
X32988507Y-31500045D01*
X32988507Y-31500046D01*
X33035244Y-31536423D01*
X33253795Y-31654698D01*
X33253804Y-31654701D01*
X33488832Y-31735387D01*
X33733949Y-31776290D01*
X33982451Y-31776290D01*
X34227567Y-31735387D01*
X34462595Y-31654701D01*
X34462603Y-31654698D01*
X34681157Y-31536422D01*
X34727891Y-31500045D01*
X34727892Y-31500044D01*
X34066992Y-30839144D01*
X34160506Y-30800410D01*
X34285726Y-30704326D01*
X34381810Y-30579107D01*
X34420544Y-30485591D01*
X35081266Y-31146313D01*
X35181481Y-30992925D01*
X35281304Y-30765350D01*
X35342307Y-30524457D01*
X35342309Y-30524446D01*
X35362829Y-30276805D01*
X35362829Y-30276794D01*
X35342309Y-30029153D01*
X35342307Y-30029142D01*
X35281304Y-29788249D01*
X35181483Y-29560679D01*
X35081266Y-29407285D01*
X34420544Y-30068007D01*
X34381810Y-29974494D01*
X34285726Y-29849274D01*
X34160506Y-29753190D01*
X34066991Y-29714454D01*
X34727891Y-29053553D01*
X34681152Y-29017174D01*
X34462604Y-28898901D01*
X34462595Y-28898898D01*
X34227567Y-28818212D01*
X33982451Y-28777310D01*
X33733949Y-28777310D01*
X33488832Y-28818212D01*
X33253804Y-28898898D01*
X33253795Y-28898901D01*
X33035244Y-29017176D01*
X32988507Y-29053552D01*
X32988507Y-29053553D01*
X33649408Y-29714454D01*
X33555894Y-29753190D01*
X33430674Y-29849274D01*
X33334590Y-29974493D01*
X33295854Y-30068008D01*
X32635131Y-29407285D01*
X32534917Y-29560676D01*
X32435095Y-29788249D01*
X32374092Y-30029142D01*
X32374090Y-30029153D01*
X32353571Y-30276794D01*
X32353571Y-30276805D01*
X27249139Y-30276805D01*
X27361435Y-30116430D01*
X27461303Y-29902263D01*
X27522463Y-29674008D01*
X27543059Y-29438600D01*
X27522463Y-29203192D01*
X27461303Y-28974937D01*
X27361435Y-28760771D01*
X27356131Y-28753195D01*
X27225894Y-28567197D01*
X27058802Y-28400106D01*
X27058801Y-28400105D01*
X26872805Y-28269869D01*
X26829181Y-28215292D01*
X26821988Y-28145793D01*
X26853510Y-28083439D01*
X26872805Y-28066719D01*
X27058482Y-27936705D01*
X27225505Y-27769682D01*
X27361000Y-27576178D01*
X27460829Y-27362092D01*
X27460832Y-27362086D01*
X27518036Y-27148600D01*
X26621086Y-27148600D01*
X26646893Y-27108444D01*
X26687400Y-26970489D01*
X26687400Y-26826711D01*
X26646893Y-26688756D01*
X26621086Y-26648600D01*
X27518036Y-26648600D01*
X27518035Y-26648599D01*
X27460832Y-26435113D01*
X27460829Y-26435107D01*
X27361000Y-26221022D01*
X27360999Y-26221020D01*
X27225513Y-26027526D01*
X27225508Y-26027520D01*
X27058478Y-25860490D01*
X26872805Y-25730479D01*
X26829180Y-25675902D01*
X26821988Y-25606404D01*
X26853510Y-25544049D01*
X26872806Y-25527330D01*
X26931443Y-25486272D01*
X27058801Y-25397095D01*
X27225895Y-25230001D01*
X27361435Y-25036430D01*
X27461303Y-24822263D01*
X27522463Y-24594008D01*
X27525280Y-24561805D01*
X37433069Y-24561805D01*
X37453596Y-24809532D01*
X37514621Y-25050515D01*
X37614476Y-25278162D01*
X37750440Y-25486272D01*
X37918799Y-25669157D01*
X37918809Y-25669166D01*
X37976745Y-25714259D01*
X38114675Y-25821615D01*
X38114966Y-25821841D01*
X38114971Y-25821845D01*
X38217276Y-25877210D01*
X38333596Y-25940159D01*
X38333599Y-25940160D01*
X38568708Y-26020873D01*
X38568710Y-26020873D01*
X38568712Y-26020874D01*
X38813907Y-26061790D01*
X38813908Y-26061790D01*
X39062492Y-26061790D01*
X39062493Y-26061790D01*
X39307688Y-26020874D01*
X39542804Y-25940159D01*
X39761429Y-25821845D01*
X39957597Y-25669161D01*
X40125960Y-25486271D01*
X40261923Y-25278163D01*
X40361779Y-25050515D01*
X40422803Y-24809536D01*
X40443331Y-24561800D01*
X40422803Y-24314064D01*
X40361779Y-24073085D01*
X40261923Y-23845437D01*
X40178618Y-23717928D01*
X40125959Y-23637327D01*
X39957600Y-23454442D01*
X39957590Y-23454433D01*
X39761433Y-23301758D01*
X39761428Y-23301754D01*
X39542805Y-23183441D01*
X39542800Y-23183439D01*
X39307691Y-23102726D01*
X39123791Y-23072039D01*
X39062493Y-23061810D01*
X38813907Y-23061810D01*
X38764868Y-23069993D01*
X38568708Y-23102726D01*
X38333599Y-23183439D01*
X38333594Y-23183441D01*
X38114971Y-23301754D01*
X38114966Y-23301758D01*
X37918809Y-23454433D01*
X37918799Y-23454442D01*
X37750440Y-23637327D01*
X37614476Y-23845437D01*
X37514621Y-24073084D01*
X37453596Y-24314067D01*
X37433069Y-24561794D01*
X37433069Y-24561805D01*
X27525280Y-24561805D01*
X27543059Y-24358600D01*
X27522463Y-24123192D01*
X27461303Y-23894937D01*
X27361435Y-23680771D01*
X27331016Y-23637327D01*
X27225894Y-23487197D01*
X27058802Y-23320106D01*
X27058795Y-23320101D01*
X27032594Y-23301755D01*
X26981918Y-23266271D01*
X26865234Y-23184567D01*
X26865230Y-23184565D01*
X26856320Y-23180410D01*
X26651063Y-23084697D01*
X26651059Y-23084696D01*
X26651055Y-23084694D01*
X26422813Y-23023538D01*
X26422803Y-23023536D01*
X26187401Y-23002941D01*
X26187399Y-23002941D01*
X25951996Y-23023536D01*
X25951986Y-23023538D01*
X25723744Y-23084694D01*
X25723735Y-23084698D01*
X25509571Y-23184564D01*
X25509569Y-23184565D01*
X25316000Y-23320103D01*
X25194073Y-23442030D01*
X25132750Y-23475514D01*
X25063058Y-23470530D01*
X25007125Y-23428658D01*
X24990210Y-23397681D01*
X24941197Y-23266271D01*
X24941193Y-23266264D01*
X24854947Y-23151055D01*
X24854944Y-23151052D01*
X24739735Y-23064806D01*
X24739728Y-23064802D01*
X24604882Y-23014508D01*
X24604883Y-23014508D01*
X24545283Y-23008101D01*
X24545281Y-23008100D01*
X24545273Y-23008100D01*
X24545264Y-23008100D01*
X22749529Y-23008100D01*
X22749523Y-23008101D01*
X22689916Y-23014508D01*
X22555071Y-23064802D01*
X22555064Y-23064806D01*
X22439855Y-23151052D01*
X22439852Y-23151055D01*
X22353606Y-23266264D01*
X22353602Y-23266271D01*
X22303308Y-23401117D01*
X22296901Y-23460716D01*
X22296900Y-23460735D01*
X22296900Y-23609100D01*
X22277215Y-23676139D01*
X22224411Y-23721894D01*
X22172900Y-23733100D01*
X18168850Y-23733100D01*
X18104700Y-23715217D01*
X17963606Y-23629922D01*
X17801196Y-23579314D01*
X17801194Y-23579313D01*
X17801192Y-23579313D01*
X17751778Y-23574823D01*
X17730616Y-23572900D01*
X17067384Y-23572900D01*
X17048145Y-23574648D01*
X16996807Y-23579313D01*
X16834393Y-23629922D01*
X16688811Y-23717930D01*
X16568530Y-23838211D01*
X16480522Y-23983793D01*
X16429913Y-24146207D01*
X16423500Y-24216786D01*
X16423500Y-24730013D01*
X16429913Y-24800592D01*
X16429913Y-24800594D01*
X16429914Y-24800596D01*
X16480522Y-24963006D01*
X16556350Y-25088441D01*
X16568530Y-25108588D01*
X16670661Y-25210719D01*
X16704146Y-25272042D01*
X16699162Y-25341734D01*
X16670661Y-25386081D01*
X16568531Y-25488210D01*
X16568530Y-25488211D01*
X16480522Y-25633793D01*
X16429913Y-25796207D01*
X16423500Y-25866786D01*
X16423500Y-26380013D01*
X16429913Y-26450592D01*
X16429913Y-26450594D01*
X16429914Y-26450596D01*
X16480522Y-26613006D01*
X16527056Y-26689983D01*
X16568530Y-26758588D01*
X16688810Y-26878868D01*
X16688814Y-26878871D01*
X16688815Y-26878872D01*
X16739050Y-26909240D01*
X16786237Y-26960766D01*
X16798900Y-27015356D01*
X16798900Y-27151300D01*
X16779215Y-27218339D01*
X16726411Y-27264094D01*
X16674901Y-27275300D01*
X16526530Y-27275300D01*
X16526523Y-27275301D01*
X16466916Y-27281708D01*
X16332071Y-27332002D01*
X16332064Y-27332006D01*
X16216855Y-27418252D01*
X16216852Y-27418255D01*
X16130606Y-27533464D01*
X16130602Y-27533471D01*
X16080308Y-27668317D01*
X16074017Y-27726841D01*
X16073901Y-27727923D01*
X16073900Y-27727935D01*
X16073900Y-29523670D01*
X16073901Y-29523676D01*
X16080308Y-29583283D01*
X16130602Y-29718128D01*
X16130606Y-29718135D01*
X16216852Y-29833344D01*
X16216855Y-29833347D01*
X16332064Y-29919593D01*
X16332071Y-29919597D01*
X16463481Y-29968610D01*
X16519415Y-30010481D01*
X16543832Y-30075945D01*
X16528980Y-30144218D01*
X16507830Y-30172473D01*
X16385903Y-30294400D01*
X16250365Y-30487969D01*
X16250364Y-30487971D01*
X16150498Y-30702135D01*
X16150494Y-30702144D01*
X16089338Y-30930386D01*
X16089336Y-30930396D01*
X16068741Y-31165799D01*
X16068741Y-31165800D01*
X16089336Y-31401203D01*
X16089338Y-31401213D01*
X16150494Y-31629455D01*
X16150496Y-31629459D01*
X16150497Y-31629463D01*
X16215451Y-31768756D01*
X16250365Y-31843630D01*
X16250367Y-31843634D01*
X16313742Y-31934142D01*
X16385905Y-32037201D01*
X16552999Y-32204295D01*
X16657590Y-32277531D01*
X16720623Y-32321667D01*
X16764248Y-32376244D01*
X16773500Y-32423242D01*
X16773500Y-32875291D01*
X16753815Y-32942330D01*
X16737181Y-32962972D01*
X16730923Y-32969229D01*
X16730917Y-32969237D01*
X16647255Y-33110703D01*
X16647254Y-33110706D01*
X16601402Y-33268526D01*
X16601401Y-33268532D01*
X16598500Y-33305404D01*
X16598500Y-34461796D01*
X16601401Y-34498667D01*
X16601402Y-34498673D01*
X16647254Y-34656493D01*
X16647255Y-34656496D01*
X16734890Y-34804680D01*
X16733071Y-34805755D01*
X16754619Y-34860632D01*
X16740941Y-34929150D01*
X16692391Y-34979396D01*
X16631105Y-34995600D01*
X16233304Y-34995600D01*
X16196432Y-34998501D01*
X16196426Y-34998502D01*
X16038606Y-35044354D01*
X16038603Y-35044355D01*
X15897137Y-35128017D01*
X15897129Y-35128023D01*
X15780923Y-35244229D01*
X15780917Y-35244237D01*
X15697255Y-35385703D01*
X15697254Y-35385706D01*
X15651402Y-35543526D01*
X15651401Y-35543532D01*
X15648500Y-35580404D01*
X15648500Y-36736796D01*
X15651401Y-36773667D01*
X15651402Y-36773673D01*
X15697254Y-36931493D01*
X15700353Y-36938654D01*
X15697415Y-36939925D01*
X15710957Y-36993388D01*
X15688771Y-37059641D01*
X15674729Y-37076413D01*
X15654128Y-37097015D01*
X15566122Y-37242593D01*
X15515513Y-37405007D01*
X15509100Y-37475586D01*
X15509100Y-37988813D01*
X15515513Y-38059392D01*
X15566122Y-38221806D01*
X15654130Y-38367388D01*
X15756261Y-38469519D01*
X15789746Y-38530842D01*
X15784762Y-38600534D01*
X15756261Y-38644881D01*
X15654131Y-38747010D01*
X15654130Y-38747011D01*
X15566122Y-38892593D01*
X15515513Y-39055007D01*
X15509100Y-39125586D01*
X15509100Y-39638813D01*
X12194500Y-39638813D01*
X12194500Y-22656805D01*
X32353571Y-22656805D01*
X32374090Y-22904446D01*
X32374092Y-22904457D01*
X32435095Y-23145350D01*
X32534916Y-23372920D01*
X32635132Y-23526312D01*
X33295854Y-22865590D01*
X33334590Y-22959106D01*
X33430674Y-23084326D01*
X33555894Y-23180410D01*
X33649408Y-23219144D01*
X32988507Y-23880045D01*
X32988507Y-23880046D01*
X33035244Y-23916423D01*
X33253795Y-24034698D01*
X33253804Y-24034701D01*
X33488832Y-24115387D01*
X33733949Y-24156290D01*
X33982451Y-24156290D01*
X34227567Y-24115387D01*
X34462595Y-24034701D01*
X34462603Y-24034698D01*
X34681157Y-23916422D01*
X34727891Y-23880045D01*
X34727892Y-23880044D01*
X34066992Y-23219144D01*
X34160506Y-23180410D01*
X34285726Y-23084326D01*
X34381810Y-22959107D01*
X34420544Y-22865591D01*
X35081266Y-23526313D01*
X35181481Y-23372925D01*
X35281304Y-23145350D01*
X35342307Y-22904457D01*
X35342309Y-22904446D01*
X35362829Y-22656805D01*
X35362829Y-22656794D01*
X35342309Y-22409153D01*
X35342307Y-22409142D01*
X35281304Y-22168249D01*
X35181483Y-21940679D01*
X35081266Y-21787285D01*
X34420544Y-22448007D01*
X34381810Y-22354494D01*
X34285726Y-22229274D01*
X34160506Y-22133190D01*
X34066991Y-22094454D01*
X34727891Y-21433553D01*
X34681152Y-21397174D01*
X34462604Y-21278901D01*
X34462595Y-21278898D01*
X34227567Y-21198212D01*
X33982451Y-21157310D01*
X33733949Y-21157310D01*
X33488832Y-21198212D01*
X33253804Y-21278898D01*
X33253795Y-21278901D01*
X33035244Y-21397176D01*
X32988507Y-21433552D01*
X32988507Y-21433553D01*
X33649408Y-22094454D01*
X33555894Y-22133190D01*
X33430674Y-22229274D01*
X33334590Y-22354493D01*
X33295854Y-22448008D01*
X32635131Y-21787285D01*
X32534917Y-21940676D01*
X32435095Y-22168249D01*
X32374092Y-22409142D01*
X32374090Y-22409153D01*
X32353571Y-22656794D01*
X32353571Y-22656805D01*
X12194500Y-22656805D01*
X12194500Y-18702461D01*
X12214185Y-18635422D01*
X12266989Y-18589667D01*
X12336147Y-18579723D01*
X12399703Y-18608748D01*
X12431935Y-18652377D01*
X12435455Y-18660349D01*
X12435467Y-18660374D01*
X12637931Y-19023867D01*
X12637935Y-19023874D01*
X12873088Y-19367156D01*
X12873095Y-19367165D01*
X13111989Y-19654854D01*
X13111991Y-19654854D01*
X14887883Y-17878962D01*
X14952640Y-17965467D01*
X15154933Y-18167760D01*
X15241436Y-18232515D01*
X13465544Y-20008407D01*
X13465544Y-20008409D01*
X13753234Y-20247304D01*
X13753243Y-20247311D01*
X14096525Y-20482464D01*
X14096532Y-20482468D01*
X14460025Y-20684932D01*
X14460053Y-20684946D01*
X14840662Y-20853001D01*
X14840669Y-20853004D01*
X15235203Y-20985239D01*
X15640238Y-21080502D01*
X15640246Y-21080504D01*
X16052339Y-21137988D01*
X16468000Y-21157206D01*
X16883660Y-21137988D01*
X17295753Y-21080504D01*
X17295761Y-21080502D01*
X17700796Y-20985239D01*
X18095330Y-20853004D01*
X18095337Y-20853001D01*
X18324525Y-20751805D01*
X37433069Y-20751805D01*
X37453596Y-20999532D01*
X37514621Y-21240515D01*
X37614476Y-21468162D01*
X37750440Y-21676272D01*
X37852636Y-21787285D01*
X37918803Y-21859161D01*
X38114971Y-22011845D01*
X38333596Y-22130159D01*
X38333599Y-22130160D01*
X38568708Y-22210873D01*
X38568710Y-22210873D01*
X38568712Y-22210874D01*
X38813907Y-22251790D01*
X38813908Y-22251790D01*
X39062492Y-22251790D01*
X39062493Y-22251790D01*
X39307688Y-22210874D01*
X39542804Y-22130159D01*
X39761429Y-22011845D01*
X39957597Y-21859161D01*
X40125960Y-21676271D01*
X40261923Y-21468163D01*
X40361779Y-21240515D01*
X40422803Y-20999536D01*
X40443331Y-20751800D01*
X40437791Y-20684946D01*
X40422803Y-20504067D01*
X40422803Y-20504064D01*
X40361779Y-20263085D01*
X40261923Y-20035437D01*
X40208823Y-19954161D01*
X40125959Y-19827327D01*
X39957600Y-19644442D01*
X39957590Y-19644433D01*
X39761433Y-19491758D01*
X39761428Y-19491754D01*
X39542805Y-19373441D01*
X39542800Y-19373439D01*
X39307691Y-19292726D01*
X39123791Y-19262039D01*
X39062493Y-19251810D01*
X38813907Y-19251810D01*
X38764868Y-19259993D01*
X38568708Y-19292726D01*
X38333599Y-19373439D01*
X38333594Y-19373441D01*
X38114971Y-19491754D01*
X38114966Y-19491758D01*
X37918809Y-19644433D01*
X37918799Y-19644442D01*
X37750440Y-19827327D01*
X37614476Y-20035437D01*
X37514621Y-20263084D01*
X37453596Y-20504067D01*
X37433069Y-20751794D01*
X37433069Y-20751805D01*
X18324525Y-20751805D01*
X18475946Y-20684946D01*
X18475974Y-20684932D01*
X18839467Y-20482468D01*
X18839474Y-20482464D01*
X19182756Y-20247311D01*
X19182765Y-20247304D01*
X19470454Y-20008408D01*
X19470454Y-20008407D01*
X17694563Y-18232516D01*
X17781067Y-18167760D01*
X17983360Y-17965467D01*
X18048116Y-17878963D01*
X19824007Y-19654854D01*
X19824008Y-19654854D01*
X20062904Y-19367165D01*
X20062911Y-19367156D01*
X20298064Y-19023874D01*
X20298068Y-19023867D01*
X20396694Y-18846800D01*
X28761740Y-18846800D01*
X28781526Y-19035056D01*
X28781527Y-19035059D01*
X28840018Y-19215077D01*
X28840021Y-19215084D01*
X28934667Y-19379016D01*
X29036177Y-19491754D01*
X29061329Y-19519688D01*
X29214465Y-19630948D01*
X29214470Y-19630951D01*
X29387392Y-19707942D01*
X29387397Y-19707944D01*
X29572554Y-19747300D01*
X29572555Y-19747300D01*
X29761844Y-19747300D01*
X29761846Y-19747300D01*
X29947003Y-19707944D01*
X30119930Y-19630951D01*
X30273071Y-19519688D01*
X30275988Y-19516447D01*
X30278800Y-19513326D01*
X30338287Y-19476679D01*
X30370948Y-19472300D01*
X32413607Y-19472300D01*
X32480646Y-19491985D01*
X32526401Y-19544789D01*
X32527162Y-19546489D01*
X32534474Y-19563159D01*
X32670440Y-19771272D01*
X32838799Y-19954157D01*
X32838809Y-19954166D01*
X32943226Y-20035437D01*
X33034971Y-20106845D01*
X33253596Y-20225159D01*
X33253599Y-20225160D01*
X33488708Y-20305873D01*
X33488710Y-20305873D01*
X33488712Y-20305874D01*
X33733907Y-20346790D01*
X33733908Y-20346790D01*
X33982492Y-20346790D01*
X33982493Y-20346790D01*
X34227688Y-20305874D01*
X34462804Y-20225159D01*
X34681429Y-20106845D01*
X34877597Y-19954161D01*
X35045960Y-19771271D01*
X35181923Y-19563163D01*
X35281779Y-19335515D01*
X35342803Y-19094536D01*
X35363331Y-18846800D01*
X35342803Y-18599064D01*
X35281779Y-18358085D01*
X35181923Y-18130437D01*
X35045959Y-17922327D01*
X34877600Y-17739442D01*
X34877590Y-17739433D01*
X34681433Y-17586758D01*
X34681428Y-17586754D01*
X34462805Y-17468441D01*
X34462800Y-17468439D01*
X34227691Y-17387726D01*
X34043791Y-17357039D01*
X33982493Y-17346810D01*
X33733907Y-17346810D01*
X33684868Y-17354993D01*
X33488708Y-17387726D01*
X33253599Y-17468439D01*
X33253594Y-17468441D01*
X33034971Y-17586754D01*
X33034966Y-17586758D01*
X32838809Y-17739433D01*
X32838799Y-17739442D01*
X32670440Y-17922327D01*
X32534474Y-18130440D01*
X32527162Y-18147111D01*
X32482206Y-18200597D01*
X32415470Y-18221286D01*
X32413607Y-18221300D01*
X30370948Y-18221300D01*
X30303909Y-18201615D01*
X30278800Y-18180274D01*
X30273073Y-18173914D01*
X30273069Y-18173910D01*
X30119934Y-18062651D01*
X30119929Y-18062648D01*
X29947007Y-17985657D01*
X29947002Y-17985655D01*
X29801201Y-17954665D01*
X29761846Y-17946300D01*
X29572554Y-17946300D01*
X29540097Y-17953198D01*
X29387397Y-17985655D01*
X29387392Y-17985657D01*
X29214470Y-18062648D01*
X29214465Y-18062651D01*
X29061329Y-18173911D01*
X28934666Y-18314585D01*
X28840021Y-18478515D01*
X28840018Y-18478522D01*
X28783522Y-18652400D01*
X28781526Y-18658544D01*
X28761740Y-18846800D01*
X20396694Y-18846800D01*
X20500532Y-18660374D01*
X20500546Y-18660346D01*
X20668601Y-18279737D01*
X20668604Y-18279730D01*
X20800839Y-17885196D01*
X20896102Y-17480161D01*
X20896104Y-17480153D01*
X20953588Y-17068060D01*
X20959425Y-16941805D01*
X37433571Y-16941805D01*
X37454090Y-17189446D01*
X37454092Y-17189457D01*
X37515095Y-17430350D01*
X37614916Y-17657920D01*
X37715132Y-17811312D01*
X38375854Y-17150590D01*
X38414590Y-17244106D01*
X38510674Y-17369326D01*
X38635894Y-17465410D01*
X38729408Y-17504144D01*
X38068507Y-18165045D01*
X38068507Y-18165046D01*
X38115244Y-18201423D01*
X38333795Y-18319698D01*
X38333804Y-18319701D01*
X38568832Y-18400387D01*
X38813949Y-18441290D01*
X39062451Y-18441290D01*
X39307567Y-18400387D01*
X39542595Y-18319701D01*
X39542603Y-18319698D01*
X39761157Y-18201422D01*
X39807891Y-18165045D01*
X39807892Y-18165044D01*
X39146992Y-17504144D01*
X39240506Y-17465410D01*
X39365726Y-17369326D01*
X39461810Y-17244107D01*
X39500544Y-17150591D01*
X40161266Y-17811313D01*
X40261481Y-17657925D01*
X40361304Y-17430350D01*
X40422307Y-17189457D01*
X40422309Y-17189446D01*
X40442829Y-16941805D01*
X40442829Y-16941794D01*
X40422309Y-16694153D01*
X40422307Y-16694142D01*
X40361304Y-16453249D01*
X40261483Y-16225679D01*
X40161266Y-16072285D01*
X39500544Y-16733007D01*
X39461810Y-16639494D01*
X39365726Y-16514274D01*
X39240506Y-16418190D01*
X39146991Y-16379454D01*
X39807891Y-15718553D01*
X39761152Y-15682174D01*
X39542604Y-15563901D01*
X39542595Y-15563898D01*
X39307567Y-15483212D01*
X39062451Y-15442310D01*
X38813949Y-15442310D01*
X38568832Y-15483212D01*
X38333804Y-15563898D01*
X38333795Y-15563901D01*
X38115244Y-15682176D01*
X38068507Y-15718552D01*
X38068507Y-15718553D01*
X38729408Y-16379454D01*
X38635894Y-16418190D01*
X38510674Y-16514274D01*
X38414590Y-16639493D01*
X38375854Y-16733008D01*
X37715131Y-16072285D01*
X37614917Y-16225676D01*
X37515095Y-16453249D01*
X37454092Y-16694142D01*
X37454090Y-16694153D01*
X37433571Y-16941794D01*
X37433571Y-16941805D01*
X20959425Y-16941805D01*
X20972806Y-16652400D01*
X20953588Y-16236739D01*
X20896104Y-15824646D01*
X20896102Y-15824638D01*
X20800839Y-15419603D01*
X20668604Y-15025069D01*
X20668601Y-15025062D01*
X20500546Y-14644453D01*
X20500532Y-14644425D01*
X20298068Y-14280932D01*
X20298064Y-14280925D01*
X20062911Y-13937643D01*
X20062904Y-13937634D01*
X19824009Y-13649944D01*
X19824007Y-13649944D01*
X18048115Y-15425836D01*
X17983360Y-15339333D01*
X17781067Y-15137040D01*
X17694562Y-15072282D01*
X19470454Y-13296391D01*
X19470454Y-13296389D01*
X19182765Y-13057495D01*
X19182756Y-13057488D01*
X18839474Y-12822335D01*
X18839467Y-12822331D01*
X18520071Y-12644429D01*
X18471082Y-12594611D01*
X18456805Y-12526215D01*
X18481771Y-12460958D01*
X18538054Y-12419558D01*
X18580410Y-12412100D01*
X19833598Y-12412100D01*
X40846400Y-12445801D01*
G37*
%TD.AperFunction*%
%TA.AperFunction,Conductor*%
G36*
X26698000Y-51897819D02*
G01*
X26770939Y-51884184D01*
X26973976Y-51805527D01*
X26973987Y-51805522D01*
X27159127Y-51690887D01*
X27170106Y-51680879D01*
X27232909Y-51650260D01*
X27302297Y-51658456D01*
X27352913Y-51698203D01*
X27415452Y-51781744D01*
X27415455Y-51781747D01*
X27530664Y-51867993D01*
X27530671Y-51867997D01*
X27665517Y-51918291D01*
X27665516Y-51918291D01*
X27672444Y-51919035D01*
X27725127Y-51924700D01*
X29060427Y-51924699D01*
X29127466Y-51944384D01*
X29173221Y-51997187D01*
X29183165Y-52066346D01*
X29178358Y-52087016D01*
X29162528Y-52135736D01*
X29162526Y-52135741D01*
X29156811Y-52190118D01*
X29130225Y-52254733D01*
X29121171Y-52264836D01*
X28528974Y-52857033D01*
X28467651Y-52890518D01*
X28402289Y-52887058D01*
X28364998Y-52874701D01*
X28262210Y-52864200D01*
X27262198Y-52864200D01*
X27262180Y-52864201D01*
X27159403Y-52874700D01*
X27159400Y-52874701D01*
X26992868Y-52929885D01*
X26992863Y-52929887D01*
X26843542Y-53021989D01*
X26719489Y-53146042D01*
X26627387Y-53295363D01*
X26627386Y-53295366D01*
X26572201Y-53461903D01*
X26572201Y-53461904D01*
X26572200Y-53461904D01*
X26561700Y-53564683D01*
X26561700Y-54189701D01*
X26561701Y-54189719D01*
X26572200Y-54292496D01*
X26572201Y-54292499D01*
X26627385Y-54459031D01*
X26627387Y-54459036D01*
X26662003Y-54515158D01*
X26713234Y-54598217D01*
X26719489Y-54608357D01*
X26813151Y-54702019D01*
X26846636Y-54763342D01*
X26841652Y-54833034D01*
X26813151Y-54877381D01*
X26719489Y-54971042D01*
X26709153Y-54987799D01*
X26699031Y-55004211D01*
X26690651Y-55017797D01*
X26638703Y-55064521D01*
X26585112Y-55076700D01*
X25736160Y-55076700D01*
X25669121Y-55057015D01*
X25623366Y-55004211D01*
X25618454Y-54991704D01*
X25612006Y-54972246D01*
X25595014Y-54920966D01*
X25502912Y-54771644D01*
X25378856Y-54647588D01*
X25250823Y-54568617D01*
X25229536Y-54555487D01*
X25229531Y-54555485D01*
X25193314Y-54543484D01*
X25062997Y-54500301D01*
X25062995Y-54500300D01*
X24960210Y-54489800D01*
X23960198Y-54489800D01*
X23960180Y-54489801D01*
X23857403Y-54500300D01*
X23857400Y-54500301D01*
X23736935Y-54540220D01*
X23703103Y-54551431D01*
X23633276Y-54553833D01*
X23573234Y-54518101D01*
X23542041Y-54455581D01*
X23540100Y-54433725D01*
X23540100Y-53307035D01*
X23541823Y-53291418D01*
X23541538Y-53291391D01*
X23542272Y-53283629D01*
X23540100Y-53214500D01*
X23540100Y-53184948D01*
X23540100Y-53184947D01*
X23539229Y-53178056D01*
X23538772Y-53172242D01*
X23537658Y-53136794D01*
X23537309Y-53125670D01*
X23531722Y-53106441D01*
X23527774Y-53087381D01*
X23525263Y-53067501D01*
X23508112Y-53024184D01*
X23506219Y-53018655D01*
X23493218Y-52973906D01*
X23493216Y-52973903D01*
X23483023Y-52956668D01*
X23474461Y-52939191D01*
X23467087Y-52920567D01*
X23467086Y-52920565D01*
X23439679Y-52882842D01*
X23436488Y-52877983D01*
X23435052Y-52875555D01*
X23412770Y-52837877D01*
X23412768Y-52837875D01*
X23412765Y-52837871D01*
X23398606Y-52823712D01*
X23385968Y-52808916D01*
X23374194Y-52792710D01*
X23343733Y-52767511D01*
X23338288Y-52763006D01*
X23333976Y-52759083D01*
X23109819Y-52534925D01*
X23076334Y-52473602D01*
X23073500Y-52447244D01*
X23073500Y-51813561D01*
X23093185Y-51746522D01*
X23132223Y-51708134D01*
X23159432Y-51691288D01*
X23320427Y-51544522D01*
X23349359Y-51506209D01*
X23405465Y-51464573D01*
X23475177Y-51459880D01*
X23536360Y-51493621D01*
X23547267Y-51506209D01*
X23575942Y-51544181D01*
X23575949Y-51544189D01*
X23736868Y-51690885D01*
X23922012Y-51805522D01*
X23922023Y-51805527D01*
X24125060Y-51884184D01*
X24198000Y-51897819D01*
X24198000Y-51064886D01*
X24209955Y-51076841D01*
X24322852Y-51134365D01*
X24416519Y-51149200D01*
X24479481Y-51149200D01*
X24573148Y-51134365D01*
X24686045Y-51076841D01*
X24698000Y-51064886D01*
X24698000Y-51897819D01*
X24770939Y-51884184D01*
X24973976Y-51805527D01*
X24973987Y-51805522D01*
X25159130Y-51690885D01*
X25159131Y-51690885D01*
X25320053Y-51544186D01*
X25349045Y-51505795D01*
X25405154Y-51464159D01*
X25474866Y-51459466D01*
X25536048Y-51493208D01*
X25546955Y-51505795D01*
X25575946Y-51544186D01*
X25736868Y-51690885D01*
X25922012Y-51805522D01*
X25922023Y-51805527D01*
X26125060Y-51884184D01*
X26198000Y-51897819D01*
X26198000Y-51064886D01*
X26209955Y-51076841D01*
X26322852Y-51134365D01*
X26416519Y-51149200D01*
X26479481Y-51149200D01*
X26573148Y-51134365D01*
X26686045Y-51076841D01*
X26698000Y-51064886D01*
X26698000Y-51897819D01*
G37*
%TD.AperFunction*%
%TA.AperFunction,Conductor*%
G36*
X26120359Y-50511155D02*
G01*
X26062835Y-50624052D01*
X26043014Y-50749200D01*
X26062835Y-50874348D01*
X26120359Y-50987245D01*
X26132314Y-50999200D01*
X24763686Y-50999200D01*
X24775641Y-50987245D01*
X24833165Y-50874348D01*
X24852986Y-50749200D01*
X24833165Y-50624052D01*
X24775641Y-50511155D01*
X24763686Y-50499200D01*
X26132314Y-50499200D01*
X26120359Y-50511155D01*
G37*
%TD.AperFunction*%
%TA.AperFunction,Conductor*%
G36*
X20132559Y-46218555D02*
G01*
X20075035Y-46331452D01*
X20055214Y-46456600D01*
X20075035Y-46581748D01*
X20132559Y-46694645D01*
X20144514Y-46706600D01*
X18775886Y-46706600D01*
X18787841Y-46694645D01*
X18845365Y-46581748D01*
X18865186Y-46456600D01*
X18845365Y-46331452D01*
X18787841Y-46218555D01*
X18775886Y-46206600D01*
X20144514Y-46206600D01*
X20132559Y-46218555D01*
G37*
%TD.AperFunction*%
%TA.AperFunction,Conductor*%
G36*
X26132559Y-46218555D02*
G01*
X26075035Y-46331452D01*
X26055214Y-46456600D01*
X26075035Y-46581748D01*
X26132559Y-46694645D01*
X26144514Y-46706600D01*
X24775886Y-46706600D01*
X24787841Y-46694645D01*
X24845365Y-46581748D01*
X24865186Y-46456600D01*
X24845365Y-46331452D01*
X24787841Y-46218555D01*
X24775886Y-46206600D01*
X26144514Y-46206600D01*
X26132559Y-46218555D01*
G37*
%TD.AperFunction*%
%TA.AperFunction,Conductor*%
G36*
X14422629Y-12431785D02*
G01*
X14468384Y-12484589D01*
X14478328Y-12553747D01*
X14449303Y-12617303D01*
X14415929Y-12644429D01*
X14096532Y-12822331D01*
X14096525Y-12822335D01*
X13753243Y-13057488D01*
X13753234Y-13057495D01*
X13465544Y-13296389D01*
X13465544Y-13296391D01*
X15241436Y-15072283D01*
X15154933Y-15137040D01*
X14952640Y-15339333D01*
X14887883Y-15425836D01*
X13111991Y-13649944D01*
X13111989Y-13649944D01*
X12873095Y-13937634D01*
X12873088Y-13937643D01*
X12637935Y-14280925D01*
X12637931Y-14280932D01*
X12435467Y-14644425D01*
X12435460Y-14644438D01*
X12431934Y-14652426D01*
X12386847Y-14705802D01*
X12320060Y-14726328D01*
X12252778Y-14707489D01*
X12206363Y-14655265D01*
X12194500Y-14602338D01*
X12194500Y-12536100D01*
X12214185Y-12469061D01*
X12266989Y-12423306D01*
X12318500Y-12412100D01*
X14355590Y-12412100D01*
X14422629Y-12431785D01*
G37*
%TD.AperFunction*%
%TD*%
M02*
